%TF.GenerationSoftware,KiCad,Pcbnew,9.0.1*%
%TF.CreationDate,2025-07-03T23:24:32+02:00*%
%TF.ProjectId,LoRa_Node,4c6f5261-5f4e-46f6-9465-2e6b69636164,4.0*%
%TF.SameCoordinates,Original*%
%TF.FileFunction,Copper,L2,Bot*%
%TF.FilePolarity,Positive*%
%FSLAX46Y46*%
G04 Gerber Fmt 4.6, Leading zero omitted, Abs format (unit mm)*
G04 Created by KiCad (PCBNEW 9.0.1) date 2025-07-03 23:24:32*
%MOMM*%
%LPD*%
G01*
G04 APERTURE LIST*
G04 Aperture macros list*
%AMRoundRect*
0 Rectangle with rounded corners*
0 $1 Rounding radius*
0 $2 $3 $4 $5 $6 $7 $8 $9 X,Y pos of 4 corners*
0 Add a 4 corners polygon primitive as box body*
4,1,4,$2,$3,$4,$5,$6,$7,$8,$9,$2,$3,0*
0 Add four circle primitives for the rounded corners*
1,1,$1+$1,$2,$3*
1,1,$1+$1,$4,$5*
1,1,$1+$1,$6,$7*
1,1,$1+$1,$8,$9*
0 Add four rect primitives between the rounded corners*
20,1,$1+$1,$2,$3,$4,$5,0*
20,1,$1+$1,$4,$5,$6,$7,0*
20,1,$1+$1,$6,$7,$8,$9,0*
20,1,$1+$1,$8,$9,$2,$3,0*%
G04 Aperture macros list end*
%ADD10C,0.100000*%
%ADD11C,0.150000*%
%ADD12C,0.300000*%
%ADD13C,0.400000*%
%TA.AperFunction,ComponentPad*%
%ADD14RoundRect,0.225000X-0.475000X0.225000X-0.475000X-0.225000X0.475000X-0.225000X0.475000X0.225000X0*%
%TD*%
%TA.AperFunction,ComponentPad*%
%ADD15O,1.400000X0.900000*%
%TD*%
%TA.AperFunction,ComponentPad*%
%ADD16C,1.900000*%
%TD*%
%TA.AperFunction,ComponentPad*%
%ADD17R,1.700000X1.700000*%
%TD*%
%TA.AperFunction,ComponentPad*%
%ADD18O,1.700000X1.700000*%
%TD*%
%TA.AperFunction,SMDPad,CuDef*%
%ADD19R,7.460000X6.470000*%
%TD*%
%TA.AperFunction,ViaPad*%
%ADD20C,0.500000*%
%TD*%
%TA.AperFunction,ViaPad*%
%ADD21C,0.600000*%
%TD*%
%TA.AperFunction,Conductor*%
%ADD22C,0.300000*%
%TD*%
%TA.AperFunction,Conductor*%
%ADD23C,0.400000*%
%TD*%
G04 APERTURE END LIST*
D10*
D11*
X177002200Y-166007200D02*
X285002200Y-166007200D01*
X285002200Y-198007200D01*
X177002200Y-198007200D01*
X177002200Y-166007200D01*
D10*
D11*
X10000000Y-10000000D02*
X287002200Y-10000000D01*
X287002200Y-200007200D01*
X10000000Y-200007200D01*
X10000000Y-10000000D01*
D10*
D11*
X12000000Y-12000000D02*
X285002200Y-12000000D01*
X285002200Y-198007200D01*
X12000000Y-198007200D01*
X12000000Y-12000000D01*
D10*
D11*
X60000000Y-12000000D02*
X60000000Y-10000000D01*
D10*
D11*
X110000000Y-12000000D02*
X110000000Y-10000000D01*
D10*
D11*
X160000000Y-12000000D02*
X160000000Y-10000000D01*
D10*
D11*
X210000000Y-12000000D02*
X210000000Y-10000000D01*
D10*
D11*
X260000000Y-12000000D02*
X260000000Y-10000000D01*
D10*
D11*
X36089160Y-11593604D02*
X35346303Y-11593604D01*
X35717731Y-11593604D02*
X35717731Y-10293604D01*
X35717731Y-10293604D02*
X35593922Y-10479319D01*
X35593922Y-10479319D02*
X35470112Y-10603128D01*
X35470112Y-10603128D02*
X35346303Y-10665033D01*
D10*
D11*
X85346303Y-10417414D02*
X85408207Y-10355509D01*
X85408207Y-10355509D02*
X85532017Y-10293604D01*
X85532017Y-10293604D02*
X85841541Y-10293604D01*
X85841541Y-10293604D02*
X85965350Y-10355509D01*
X85965350Y-10355509D02*
X86027255Y-10417414D01*
X86027255Y-10417414D02*
X86089160Y-10541223D01*
X86089160Y-10541223D02*
X86089160Y-10665033D01*
X86089160Y-10665033D02*
X86027255Y-10850747D01*
X86027255Y-10850747D02*
X85284398Y-11593604D01*
X85284398Y-11593604D02*
X86089160Y-11593604D01*
D10*
D11*
X135284398Y-10293604D02*
X136089160Y-10293604D01*
X136089160Y-10293604D02*
X135655826Y-10788842D01*
X135655826Y-10788842D02*
X135841541Y-10788842D01*
X135841541Y-10788842D02*
X135965350Y-10850747D01*
X135965350Y-10850747D02*
X136027255Y-10912652D01*
X136027255Y-10912652D02*
X136089160Y-11036461D01*
X136089160Y-11036461D02*
X136089160Y-11345985D01*
X136089160Y-11345985D02*
X136027255Y-11469795D01*
X136027255Y-11469795D02*
X135965350Y-11531700D01*
X135965350Y-11531700D02*
X135841541Y-11593604D01*
X135841541Y-11593604D02*
X135470112Y-11593604D01*
X135470112Y-11593604D02*
X135346303Y-11531700D01*
X135346303Y-11531700D02*
X135284398Y-11469795D01*
D10*
D11*
X185965350Y-10726938D02*
X185965350Y-11593604D01*
X185655826Y-10231700D02*
X185346303Y-11160271D01*
X185346303Y-11160271D02*
X186151064Y-11160271D01*
D10*
D11*
X236027255Y-10293604D02*
X235408207Y-10293604D01*
X235408207Y-10293604D02*
X235346303Y-10912652D01*
X235346303Y-10912652D02*
X235408207Y-10850747D01*
X235408207Y-10850747D02*
X235532017Y-10788842D01*
X235532017Y-10788842D02*
X235841541Y-10788842D01*
X235841541Y-10788842D02*
X235965350Y-10850747D01*
X235965350Y-10850747D02*
X236027255Y-10912652D01*
X236027255Y-10912652D02*
X236089160Y-11036461D01*
X236089160Y-11036461D02*
X236089160Y-11345985D01*
X236089160Y-11345985D02*
X236027255Y-11469795D01*
X236027255Y-11469795D02*
X235965350Y-11531700D01*
X235965350Y-11531700D02*
X235841541Y-11593604D01*
X235841541Y-11593604D02*
X235532017Y-11593604D01*
X235532017Y-11593604D02*
X235408207Y-11531700D01*
X235408207Y-11531700D02*
X235346303Y-11469795D01*
D10*
D11*
X285965350Y-10293604D02*
X285717731Y-10293604D01*
X285717731Y-10293604D02*
X285593922Y-10355509D01*
X285593922Y-10355509D02*
X285532017Y-10417414D01*
X285532017Y-10417414D02*
X285408207Y-10603128D01*
X285408207Y-10603128D02*
X285346303Y-10850747D01*
X285346303Y-10850747D02*
X285346303Y-11345985D01*
X285346303Y-11345985D02*
X285408207Y-11469795D01*
X285408207Y-11469795D02*
X285470112Y-11531700D01*
X285470112Y-11531700D02*
X285593922Y-11593604D01*
X285593922Y-11593604D02*
X285841541Y-11593604D01*
X285841541Y-11593604D02*
X285965350Y-11531700D01*
X285965350Y-11531700D02*
X286027255Y-11469795D01*
X286027255Y-11469795D02*
X286089160Y-11345985D01*
X286089160Y-11345985D02*
X286089160Y-11036461D01*
X286089160Y-11036461D02*
X286027255Y-10912652D01*
X286027255Y-10912652D02*
X285965350Y-10850747D01*
X285965350Y-10850747D02*
X285841541Y-10788842D01*
X285841541Y-10788842D02*
X285593922Y-10788842D01*
X285593922Y-10788842D02*
X285470112Y-10850747D01*
X285470112Y-10850747D02*
X285408207Y-10912652D01*
X285408207Y-10912652D02*
X285346303Y-11036461D01*
D10*
D11*
X60000000Y-198007200D02*
X60000000Y-200007200D01*
D10*
D11*
X110000000Y-198007200D02*
X110000000Y-200007200D01*
D10*
D11*
X160000000Y-198007200D02*
X160000000Y-200007200D01*
D10*
D11*
X210000000Y-198007200D02*
X210000000Y-200007200D01*
D10*
D11*
X260000000Y-198007200D02*
X260000000Y-200007200D01*
D10*
D11*
X36089160Y-199600804D02*
X35346303Y-199600804D01*
X35717731Y-199600804D02*
X35717731Y-198300804D01*
X35717731Y-198300804D02*
X35593922Y-198486519D01*
X35593922Y-198486519D02*
X35470112Y-198610328D01*
X35470112Y-198610328D02*
X35346303Y-198672233D01*
D10*
D11*
X85346303Y-198424614D02*
X85408207Y-198362709D01*
X85408207Y-198362709D02*
X85532017Y-198300804D01*
X85532017Y-198300804D02*
X85841541Y-198300804D01*
X85841541Y-198300804D02*
X85965350Y-198362709D01*
X85965350Y-198362709D02*
X86027255Y-198424614D01*
X86027255Y-198424614D02*
X86089160Y-198548423D01*
X86089160Y-198548423D02*
X86089160Y-198672233D01*
X86089160Y-198672233D02*
X86027255Y-198857947D01*
X86027255Y-198857947D02*
X85284398Y-199600804D01*
X85284398Y-199600804D02*
X86089160Y-199600804D01*
D10*
D11*
X135284398Y-198300804D02*
X136089160Y-198300804D01*
X136089160Y-198300804D02*
X135655826Y-198796042D01*
X135655826Y-198796042D02*
X135841541Y-198796042D01*
X135841541Y-198796042D02*
X135965350Y-198857947D01*
X135965350Y-198857947D02*
X136027255Y-198919852D01*
X136027255Y-198919852D02*
X136089160Y-199043661D01*
X136089160Y-199043661D02*
X136089160Y-199353185D01*
X136089160Y-199353185D02*
X136027255Y-199476995D01*
X136027255Y-199476995D02*
X135965350Y-199538900D01*
X135965350Y-199538900D02*
X135841541Y-199600804D01*
X135841541Y-199600804D02*
X135470112Y-199600804D01*
X135470112Y-199600804D02*
X135346303Y-199538900D01*
X135346303Y-199538900D02*
X135284398Y-199476995D01*
D10*
D11*
X185965350Y-198734138D02*
X185965350Y-199600804D01*
X185655826Y-198238900D02*
X185346303Y-199167471D01*
X185346303Y-199167471D02*
X186151064Y-199167471D01*
D10*
D11*
X236027255Y-198300804D02*
X235408207Y-198300804D01*
X235408207Y-198300804D02*
X235346303Y-198919852D01*
X235346303Y-198919852D02*
X235408207Y-198857947D01*
X235408207Y-198857947D02*
X235532017Y-198796042D01*
X235532017Y-198796042D02*
X235841541Y-198796042D01*
X235841541Y-198796042D02*
X235965350Y-198857947D01*
X235965350Y-198857947D02*
X236027255Y-198919852D01*
X236027255Y-198919852D02*
X236089160Y-199043661D01*
X236089160Y-199043661D02*
X236089160Y-199353185D01*
X236089160Y-199353185D02*
X236027255Y-199476995D01*
X236027255Y-199476995D02*
X235965350Y-199538900D01*
X235965350Y-199538900D02*
X235841541Y-199600804D01*
X235841541Y-199600804D02*
X235532017Y-199600804D01*
X235532017Y-199600804D02*
X235408207Y-199538900D01*
X235408207Y-199538900D02*
X235346303Y-199476995D01*
D10*
D11*
X285965350Y-198300804D02*
X285717731Y-198300804D01*
X285717731Y-198300804D02*
X285593922Y-198362709D01*
X285593922Y-198362709D02*
X285532017Y-198424614D01*
X285532017Y-198424614D02*
X285408207Y-198610328D01*
X285408207Y-198610328D02*
X285346303Y-198857947D01*
X285346303Y-198857947D02*
X285346303Y-199353185D01*
X285346303Y-199353185D02*
X285408207Y-199476995D01*
X285408207Y-199476995D02*
X285470112Y-199538900D01*
X285470112Y-199538900D02*
X285593922Y-199600804D01*
X285593922Y-199600804D02*
X285841541Y-199600804D01*
X285841541Y-199600804D02*
X285965350Y-199538900D01*
X285965350Y-199538900D02*
X286027255Y-199476995D01*
X286027255Y-199476995D02*
X286089160Y-199353185D01*
X286089160Y-199353185D02*
X286089160Y-199043661D01*
X286089160Y-199043661D02*
X286027255Y-198919852D01*
X286027255Y-198919852D02*
X285965350Y-198857947D01*
X285965350Y-198857947D02*
X285841541Y-198796042D01*
X285841541Y-198796042D02*
X285593922Y-198796042D01*
X285593922Y-198796042D02*
X285470112Y-198857947D01*
X285470112Y-198857947D02*
X285408207Y-198919852D01*
X285408207Y-198919852D02*
X285346303Y-199043661D01*
D10*
D11*
X10000000Y-60000000D02*
X12000000Y-60000000D01*
D10*
D11*
X10000000Y-110000000D02*
X12000000Y-110000000D01*
D10*
D11*
X10000000Y-160000000D02*
X12000000Y-160000000D01*
D10*
D11*
X10690476Y-35222176D02*
X11309523Y-35222176D01*
X10566666Y-35593604D02*
X10999999Y-34293604D01*
X10999999Y-34293604D02*
X11433333Y-35593604D01*
D10*
D11*
X11092857Y-84912652D02*
X11278571Y-84974557D01*
X11278571Y-84974557D02*
X11340476Y-85036461D01*
X11340476Y-85036461D02*
X11402380Y-85160271D01*
X11402380Y-85160271D02*
X11402380Y-85345985D01*
X11402380Y-85345985D02*
X11340476Y-85469795D01*
X11340476Y-85469795D02*
X11278571Y-85531700D01*
X11278571Y-85531700D02*
X11154761Y-85593604D01*
X11154761Y-85593604D02*
X10659523Y-85593604D01*
X10659523Y-85593604D02*
X10659523Y-84293604D01*
X10659523Y-84293604D02*
X11092857Y-84293604D01*
X11092857Y-84293604D02*
X11216666Y-84355509D01*
X11216666Y-84355509D02*
X11278571Y-84417414D01*
X11278571Y-84417414D02*
X11340476Y-84541223D01*
X11340476Y-84541223D02*
X11340476Y-84665033D01*
X11340476Y-84665033D02*
X11278571Y-84788842D01*
X11278571Y-84788842D02*
X11216666Y-84850747D01*
X11216666Y-84850747D02*
X11092857Y-84912652D01*
X11092857Y-84912652D02*
X10659523Y-84912652D01*
D10*
D11*
X11402380Y-135469795D02*
X11340476Y-135531700D01*
X11340476Y-135531700D02*
X11154761Y-135593604D01*
X11154761Y-135593604D02*
X11030952Y-135593604D01*
X11030952Y-135593604D02*
X10845238Y-135531700D01*
X10845238Y-135531700D02*
X10721428Y-135407890D01*
X10721428Y-135407890D02*
X10659523Y-135284080D01*
X10659523Y-135284080D02*
X10597619Y-135036461D01*
X10597619Y-135036461D02*
X10597619Y-134850747D01*
X10597619Y-134850747D02*
X10659523Y-134603128D01*
X10659523Y-134603128D02*
X10721428Y-134479319D01*
X10721428Y-134479319D02*
X10845238Y-134355509D01*
X10845238Y-134355509D02*
X11030952Y-134293604D01*
X11030952Y-134293604D02*
X11154761Y-134293604D01*
X11154761Y-134293604D02*
X11340476Y-134355509D01*
X11340476Y-134355509D02*
X11402380Y-134417414D01*
D10*
D11*
X10659523Y-185593604D02*
X10659523Y-184293604D01*
X10659523Y-184293604D02*
X10969047Y-184293604D01*
X10969047Y-184293604D02*
X11154761Y-184355509D01*
X11154761Y-184355509D02*
X11278571Y-184479319D01*
X11278571Y-184479319D02*
X11340476Y-184603128D01*
X11340476Y-184603128D02*
X11402380Y-184850747D01*
X11402380Y-184850747D02*
X11402380Y-185036461D01*
X11402380Y-185036461D02*
X11340476Y-185284080D01*
X11340476Y-185284080D02*
X11278571Y-185407890D01*
X11278571Y-185407890D02*
X11154761Y-185531700D01*
X11154761Y-185531700D02*
X10969047Y-185593604D01*
X10969047Y-185593604D02*
X10659523Y-185593604D01*
D10*
D11*
X287002200Y-60000000D02*
X285002200Y-60000000D01*
D10*
D11*
X287002200Y-110000000D02*
X285002200Y-110000000D01*
D10*
D11*
X287002200Y-160000000D02*
X285002200Y-160000000D01*
D10*
D11*
X285692676Y-35222176D02*
X286311723Y-35222176D01*
X285568866Y-35593604D02*
X286002199Y-34293604D01*
X286002199Y-34293604D02*
X286435533Y-35593604D01*
D10*
D11*
X286095057Y-84912652D02*
X286280771Y-84974557D01*
X286280771Y-84974557D02*
X286342676Y-85036461D01*
X286342676Y-85036461D02*
X286404580Y-85160271D01*
X286404580Y-85160271D02*
X286404580Y-85345985D01*
X286404580Y-85345985D02*
X286342676Y-85469795D01*
X286342676Y-85469795D02*
X286280771Y-85531700D01*
X286280771Y-85531700D02*
X286156961Y-85593604D01*
X286156961Y-85593604D02*
X285661723Y-85593604D01*
X285661723Y-85593604D02*
X285661723Y-84293604D01*
X285661723Y-84293604D02*
X286095057Y-84293604D01*
X286095057Y-84293604D02*
X286218866Y-84355509D01*
X286218866Y-84355509D02*
X286280771Y-84417414D01*
X286280771Y-84417414D02*
X286342676Y-84541223D01*
X286342676Y-84541223D02*
X286342676Y-84665033D01*
X286342676Y-84665033D02*
X286280771Y-84788842D01*
X286280771Y-84788842D02*
X286218866Y-84850747D01*
X286218866Y-84850747D02*
X286095057Y-84912652D01*
X286095057Y-84912652D02*
X285661723Y-84912652D01*
D10*
D11*
X286404580Y-135469795D02*
X286342676Y-135531700D01*
X286342676Y-135531700D02*
X286156961Y-135593604D01*
X286156961Y-135593604D02*
X286033152Y-135593604D01*
X286033152Y-135593604D02*
X285847438Y-135531700D01*
X285847438Y-135531700D02*
X285723628Y-135407890D01*
X285723628Y-135407890D02*
X285661723Y-135284080D01*
X285661723Y-135284080D02*
X285599819Y-135036461D01*
X285599819Y-135036461D02*
X285599819Y-134850747D01*
X285599819Y-134850747D02*
X285661723Y-134603128D01*
X285661723Y-134603128D02*
X285723628Y-134479319D01*
X285723628Y-134479319D02*
X285847438Y-134355509D01*
X285847438Y-134355509D02*
X286033152Y-134293604D01*
X286033152Y-134293604D02*
X286156961Y-134293604D01*
X286156961Y-134293604D02*
X286342676Y-134355509D01*
X286342676Y-134355509D02*
X286404580Y-134417414D01*
D10*
D11*
X285661723Y-185593604D02*
X285661723Y-184293604D01*
X285661723Y-184293604D02*
X285971247Y-184293604D01*
X285971247Y-184293604D02*
X286156961Y-184355509D01*
X286156961Y-184355509D02*
X286280771Y-184479319D01*
X286280771Y-184479319D02*
X286342676Y-184603128D01*
X286342676Y-184603128D02*
X286404580Y-184850747D01*
X286404580Y-184850747D02*
X286404580Y-185036461D01*
X286404580Y-185036461D02*
X286342676Y-185284080D01*
X286342676Y-185284080D02*
X286280771Y-185407890D01*
X286280771Y-185407890D02*
X286156961Y-185531700D01*
X286156961Y-185531700D02*
X285971247Y-185593604D01*
X285971247Y-185593604D02*
X285661723Y-185593604D01*
D10*
D11*
X200458026Y-193793328D02*
X200458026Y-192293328D01*
X200458026Y-192293328D02*
X200815169Y-192293328D01*
X200815169Y-192293328D02*
X201029455Y-192364757D01*
X201029455Y-192364757D02*
X201172312Y-192507614D01*
X201172312Y-192507614D02*
X201243741Y-192650471D01*
X201243741Y-192650471D02*
X201315169Y-192936185D01*
X201315169Y-192936185D02*
X201315169Y-193150471D01*
X201315169Y-193150471D02*
X201243741Y-193436185D01*
X201243741Y-193436185D02*
X201172312Y-193579042D01*
X201172312Y-193579042D02*
X201029455Y-193721900D01*
X201029455Y-193721900D02*
X200815169Y-193793328D01*
X200815169Y-193793328D02*
X200458026Y-193793328D01*
X202600884Y-193793328D02*
X202600884Y-193007614D01*
X202600884Y-193007614D02*
X202529455Y-192864757D01*
X202529455Y-192864757D02*
X202386598Y-192793328D01*
X202386598Y-192793328D02*
X202100884Y-192793328D01*
X202100884Y-192793328D02*
X201958026Y-192864757D01*
X202600884Y-193721900D02*
X202458026Y-193793328D01*
X202458026Y-193793328D02*
X202100884Y-193793328D01*
X202100884Y-193793328D02*
X201958026Y-193721900D01*
X201958026Y-193721900D02*
X201886598Y-193579042D01*
X201886598Y-193579042D02*
X201886598Y-193436185D01*
X201886598Y-193436185D02*
X201958026Y-193293328D01*
X201958026Y-193293328D02*
X202100884Y-193221900D01*
X202100884Y-193221900D02*
X202458026Y-193221900D01*
X202458026Y-193221900D02*
X202600884Y-193150471D01*
X203100884Y-192793328D02*
X203672312Y-192793328D01*
X203315169Y-192293328D02*
X203315169Y-193579042D01*
X203315169Y-193579042D02*
X203386598Y-193721900D01*
X203386598Y-193721900D02*
X203529455Y-193793328D01*
X203529455Y-193793328D02*
X203672312Y-193793328D01*
X204743741Y-193721900D02*
X204600884Y-193793328D01*
X204600884Y-193793328D02*
X204315170Y-193793328D01*
X204315170Y-193793328D02*
X204172312Y-193721900D01*
X204172312Y-193721900D02*
X204100884Y-193579042D01*
X204100884Y-193579042D02*
X204100884Y-193007614D01*
X204100884Y-193007614D02*
X204172312Y-192864757D01*
X204172312Y-192864757D02*
X204315170Y-192793328D01*
X204315170Y-192793328D02*
X204600884Y-192793328D01*
X204600884Y-192793328D02*
X204743741Y-192864757D01*
X204743741Y-192864757D02*
X204815170Y-193007614D01*
X204815170Y-193007614D02*
X204815170Y-193150471D01*
X204815170Y-193150471D02*
X204100884Y-193293328D01*
X205458026Y-193650471D02*
X205529455Y-193721900D01*
X205529455Y-193721900D02*
X205458026Y-193793328D01*
X205458026Y-193793328D02*
X205386598Y-193721900D01*
X205386598Y-193721900D02*
X205458026Y-193650471D01*
X205458026Y-193650471D02*
X205458026Y-193793328D01*
X205458026Y-192864757D02*
X205529455Y-192936185D01*
X205529455Y-192936185D02*
X205458026Y-193007614D01*
X205458026Y-193007614D02*
X205386598Y-192936185D01*
X205386598Y-192936185D02*
X205458026Y-192864757D01*
X205458026Y-192864757D02*
X205458026Y-193007614D01*
X207243741Y-192436185D02*
X207315169Y-192364757D01*
X207315169Y-192364757D02*
X207458027Y-192293328D01*
X207458027Y-192293328D02*
X207815169Y-192293328D01*
X207815169Y-192293328D02*
X207958027Y-192364757D01*
X207958027Y-192364757D02*
X208029455Y-192436185D01*
X208029455Y-192436185D02*
X208100884Y-192579042D01*
X208100884Y-192579042D02*
X208100884Y-192721900D01*
X208100884Y-192721900D02*
X208029455Y-192936185D01*
X208029455Y-192936185D02*
X207172312Y-193793328D01*
X207172312Y-193793328D02*
X208100884Y-193793328D01*
X209029455Y-192293328D02*
X209172312Y-192293328D01*
X209172312Y-192293328D02*
X209315169Y-192364757D01*
X209315169Y-192364757D02*
X209386598Y-192436185D01*
X209386598Y-192436185D02*
X209458026Y-192579042D01*
X209458026Y-192579042D02*
X209529455Y-192864757D01*
X209529455Y-192864757D02*
X209529455Y-193221900D01*
X209529455Y-193221900D02*
X209458026Y-193507614D01*
X209458026Y-193507614D02*
X209386598Y-193650471D01*
X209386598Y-193650471D02*
X209315169Y-193721900D01*
X209315169Y-193721900D02*
X209172312Y-193793328D01*
X209172312Y-193793328D02*
X209029455Y-193793328D01*
X209029455Y-193793328D02*
X208886598Y-193721900D01*
X208886598Y-193721900D02*
X208815169Y-193650471D01*
X208815169Y-193650471D02*
X208743740Y-193507614D01*
X208743740Y-193507614D02*
X208672312Y-193221900D01*
X208672312Y-193221900D02*
X208672312Y-192864757D01*
X208672312Y-192864757D02*
X208743740Y-192579042D01*
X208743740Y-192579042D02*
X208815169Y-192436185D01*
X208815169Y-192436185D02*
X208886598Y-192364757D01*
X208886598Y-192364757D02*
X209029455Y-192293328D01*
X210100883Y-192436185D02*
X210172311Y-192364757D01*
X210172311Y-192364757D02*
X210315169Y-192293328D01*
X210315169Y-192293328D02*
X210672311Y-192293328D01*
X210672311Y-192293328D02*
X210815169Y-192364757D01*
X210815169Y-192364757D02*
X210886597Y-192436185D01*
X210886597Y-192436185D02*
X210958026Y-192579042D01*
X210958026Y-192579042D02*
X210958026Y-192721900D01*
X210958026Y-192721900D02*
X210886597Y-192936185D01*
X210886597Y-192936185D02*
X210029454Y-193793328D01*
X210029454Y-193793328D02*
X210958026Y-193793328D01*
X212315168Y-192293328D02*
X211600882Y-192293328D01*
X211600882Y-192293328D02*
X211529454Y-193007614D01*
X211529454Y-193007614D02*
X211600882Y-192936185D01*
X211600882Y-192936185D02*
X211743740Y-192864757D01*
X211743740Y-192864757D02*
X212100882Y-192864757D01*
X212100882Y-192864757D02*
X212243740Y-192936185D01*
X212243740Y-192936185D02*
X212315168Y-193007614D01*
X212315168Y-193007614D02*
X212386597Y-193150471D01*
X212386597Y-193150471D02*
X212386597Y-193507614D01*
X212386597Y-193507614D02*
X212315168Y-193650471D01*
X212315168Y-193650471D02*
X212243740Y-193721900D01*
X212243740Y-193721900D02*
X212100882Y-193793328D01*
X212100882Y-193793328D02*
X211743740Y-193793328D01*
X211743740Y-193793328D02*
X211600882Y-193721900D01*
X211600882Y-193721900D02*
X211529454Y-193650471D01*
X213029453Y-193221900D02*
X214172311Y-193221900D01*
X215172311Y-192293328D02*
X215315168Y-192293328D01*
X215315168Y-192293328D02*
X215458025Y-192364757D01*
X215458025Y-192364757D02*
X215529454Y-192436185D01*
X215529454Y-192436185D02*
X215600882Y-192579042D01*
X215600882Y-192579042D02*
X215672311Y-192864757D01*
X215672311Y-192864757D02*
X215672311Y-193221900D01*
X215672311Y-193221900D02*
X215600882Y-193507614D01*
X215600882Y-193507614D02*
X215529454Y-193650471D01*
X215529454Y-193650471D02*
X215458025Y-193721900D01*
X215458025Y-193721900D02*
X215315168Y-193793328D01*
X215315168Y-193793328D02*
X215172311Y-193793328D01*
X215172311Y-193793328D02*
X215029454Y-193721900D01*
X215029454Y-193721900D02*
X214958025Y-193650471D01*
X214958025Y-193650471D02*
X214886596Y-193507614D01*
X214886596Y-193507614D02*
X214815168Y-193221900D01*
X214815168Y-193221900D02*
X214815168Y-192864757D01*
X214815168Y-192864757D02*
X214886596Y-192579042D01*
X214886596Y-192579042D02*
X214958025Y-192436185D01*
X214958025Y-192436185D02*
X215029454Y-192364757D01*
X215029454Y-192364757D02*
X215172311Y-192293328D01*
X217029453Y-192293328D02*
X216315167Y-192293328D01*
X216315167Y-192293328D02*
X216243739Y-193007614D01*
X216243739Y-193007614D02*
X216315167Y-192936185D01*
X216315167Y-192936185D02*
X216458025Y-192864757D01*
X216458025Y-192864757D02*
X216815167Y-192864757D01*
X216815167Y-192864757D02*
X216958025Y-192936185D01*
X216958025Y-192936185D02*
X217029453Y-193007614D01*
X217029453Y-193007614D02*
X217100882Y-193150471D01*
X217100882Y-193150471D02*
X217100882Y-193507614D01*
X217100882Y-193507614D02*
X217029453Y-193650471D01*
X217029453Y-193650471D02*
X216958025Y-193721900D01*
X216958025Y-193721900D02*
X216815167Y-193793328D01*
X216815167Y-193793328D02*
X216458025Y-193793328D01*
X216458025Y-193793328D02*
X216315167Y-193721900D01*
X216315167Y-193721900D02*
X216243739Y-193650471D01*
X217743738Y-193221900D02*
X218886596Y-193221900D01*
X219529453Y-192436185D02*
X219600881Y-192364757D01*
X219600881Y-192364757D02*
X219743739Y-192293328D01*
X219743739Y-192293328D02*
X220100881Y-192293328D01*
X220100881Y-192293328D02*
X220243739Y-192364757D01*
X220243739Y-192364757D02*
X220315167Y-192436185D01*
X220315167Y-192436185D02*
X220386596Y-192579042D01*
X220386596Y-192579042D02*
X220386596Y-192721900D01*
X220386596Y-192721900D02*
X220315167Y-192936185D01*
X220315167Y-192936185D02*
X219458024Y-193793328D01*
X219458024Y-193793328D02*
X220386596Y-193793328D01*
X221672310Y-192793328D02*
X221672310Y-193793328D01*
X221315167Y-192221900D02*
X220958024Y-193293328D01*
X220958024Y-193293328D02*
X221886595Y-193293328D01*
D10*
D11*
X177002200Y-194507200D02*
X285002200Y-194507200D01*
D10*
D11*
X178458026Y-196593328D02*
X178458026Y-195093328D01*
X179315169Y-196593328D02*
X178672312Y-195736185D01*
X179315169Y-195093328D02*
X178458026Y-195950471D01*
X179958026Y-196593328D02*
X179958026Y-195593328D01*
X179958026Y-195093328D02*
X179886598Y-195164757D01*
X179886598Y-195164757D02*
X179958026Y-195236185D01*
X179958026Y-195236185D02*
X180029455Y-195164757D01*
X180029455Y-195164757D02*
X179958026Y-195093328D01*
X179958026Y-195093328D02*
X179958026Y-195236185D01*
X181529455Y-196450471D02*
X181458027Y-196521900D01*
X181458027Y-196521900D02*
X181243741Y-196593328D01*
X181243741Y-196593328D02*
X181100884Y-196593328D01*
X181100884Y-196593328D02*
X180886598Y-196521900D01*
X180886598Y-196521900D02*
X180743741Y-196379042D01*
X180743741Y-196379042D02*
X180672312Y-196236185D01*
X180672312Y-196236185D02*
X180600884Y-195950471D01*
X180600884Y-195950471D02*
X180600884Y-195736185D01*
X180600884Y-195736185D02*
X180672312Y-195450471D01*
X180672312Y-195450471D02*
X180743741Y-195307614D01*
X180743741Y-195307614D02*
X180886598Y-195164757D01*
X180886598Y-195164757D02*
X181100884Y-195093328D01*
X181100884Y-195093328D02*
X181243741Y-195093328D01*
X181243741Y-195093328D02*
X181458027Y-195164757D01*
X181458027Y-195164757D02*
X181529455Y-195236185D01*
X182815170Y-196593328D02*
X182815170Y-195807614D01*
X182815170Y-195807614D02*
X182743741Y-195664757D01*
X182743741Y-195664757D02*
X182600884Y-195593328D01*
X182600884Y-195593328D02*
X182315170Y-195593328D01*
X182315170Y-195593328D02*
X182172312Y-195664757D01*
X182815170Y-196521900D02*
X182672312Y-196593328D01*
X182672312Y-196593328D02*
X182315170Y-196593328D01*
X182315170Y-196593328D02*
X182172312Y-196521900D01*
X182172312Y-196521900D02*
X182100884Y-196379042D01*
X182100884Y-196379042D02*
X182100884Y-196236185D01*
X182100884Y-196236185D02*
X182172312Y-196093328D01*
X182172312Y-196093328D02*
X182315170Y-196021900D01*
X182315170Y-196021900D02*
X182672312Y-196021900D01*
X182672312Y-196021900D02*
X182815170Y-195950471D01*
X184172313Y-196593328D02*
X184172313Y-195093328D01*
X184172313Y-196521900D02*
X184029455Y-196593328D01*
X184029455Y-196593328D02*
X183743741Y-196593328D01*
X183743741Y-196593328D02*
X183600884Y-196521900D01*
X183600884Y-196521900D02*
X183529455Y-196450471D01*
X183529455Y-196450471D02*
X183458027Y-196307614D01*
X183458027Y-196307614D02*
X183458027Y-195879042D01*
X183458027Y-195879042D02*
X183529455Y-195736185D01*
X183529455Y-195736185D02*
X183600884Y-195664757D01*
X183600884Y-195664757D02*
X183743741Y-195593328D01*
X183743741Y-195593328D02*
X184029455Y-195593328D01*
X184029455Y-195593328D02*
X184172313Y-195664757D01*
X186029455Y-195807614D02*
X186529455Y-195807614D01*
X186743741Y-196593328D02*
X186029455Y-196593328D01*
X186029455Y-196593328D02*
X186029455Y-195093328D01*
X186029455Y-195093328D02*
X186743741Y-195093328D01*
X187386598Y-196450471D02*
X187458027Y-196521900D01*
X187458027Y-196521900D02*
X187386598Y-196593328D01*
X187386598Y-196593328D02*
X187315170Y-196521900D01*
X187315170Y-196521900D02*
X187386598Y-196450471D01*
X187386598Y-196450471D02*
X187386598Y-196593328D01*
X188100884Y-196593328D02*
X188100884Y-195093328D01*
X188100884Y-195093328D02*
X188458027Y-195093328D01*
X188458027Y-195093328D02*
X188672313Y-195164757D01*
X188672313Y-195164757D02*
X188815170Y-195307614D01*
X188815170Y-195307614D02*
X188886599Y-195450471D01*
X188886599Y-195450471D02*
X188958027Y-195736185D01*
X188958027Y-195736185D02*
X188958027Y-195950471D01*
X188958027Y-195950471D02*
X188886599Y-196236185D01*
X188886599Y-196236185D02*
X188815170Y-196379042D01*
X188815170Y-196379042D02*
X188672313Y-196521900D01*
X188672313Y-196521900D02*
X188458027Y-196593328D01*
X188458027Y-196593328D02*
X188100884Y-196593328D01*
X189600884Y-196450471D02*
X189672313Y-196521900D01*
X189672313Y-196521900D02*
X189600884Y-196593328D01*
X189600884Y-196593328D02*
X189529456Y-196521900D01*
X189529456Y-196521900D02*
X189600884Y-196450471D01*
X189600884Y-196450471D02*
X189600884Y-196593328D01*
X190243742Y-196164757D02*
X190958028Y-196164757D01*
X190100885Y-196593328D02*
X190600885Y-195093328D01*
X190600885Y-195093328D02*
X191100885Y-196593328D01*
X191600884Y-196450471D02*
X191672313Y-196521900D01*
X191672313Y-196521900D02*
X191600884Y-196593328D01*
X191600884Y-196593328D02*
X191529456Y-196521900D01*
X191529456Y-196521900D02*
X191600884Y-196450471D01*
X191600884Y-196450471D02*
X191600884Y-196593328D01*
X193529456Y-196593328D02*
X193815170Y-196593328D01*
X193815170Y-196593328D02*
X193958027Y-196521900D01*
X193958027Y-196521900D02*
X194029456Y-196450471D01*
X194029456Y-196450471D02*
X194172313Y-196236185D01*
X194172313Y-196236185D02*
X194243742Y-195950471D01*
X194243742Y-195950471D02*
X194243742Y-195379042D01*
X194243742Y-195379042D02*
X194172313Y-195236185D01*
X194172313Y-195236185D02*
X194100885Y-195164757D01*
X194100885Y-195164757D02*
X193958027Y-195093328D01*
X193958027Y-195093328D02*
X193672313Y-195093328D01*
X193672313Y-195093328D02*
X193529456Y-195164757D01*
X193529456Y-195164757D02*
X193458027Y-195236185D01*
X193458027Y-195236185D02*
X193386599Y-195379042D01*
X193386599Y-195379042D02*
X193386599Y-195736185D01*
X193386599Y-195736185D02*
X193458027Y-195879042D01*
X193458027Y-195879042D02*
X193529456Y-195950471D01*
X193529456Y-195950471D02*
X193672313Y-196021900D01*
X193672313Y-196021900D02*
X193958027Y-196021900D01*
X193958027Y-196021900D02*
X194100885Y-195950471D01*
X194100885Y-195950471D02*
X194172313Y-195879042D01*
X194172313Y-195879042D02*
X194243742Y-195736185D01*
X194886598Y-196450471D02*
X194958027Y-196521900D01*
X194958027Y-196521900D02*
X194886598Y-196593328D01*
X194886598Y-196593328D02*
X194815170Y-196521900D01*
X194815170Y-196521900D02*
X194886598Y-196450471D01*
X194886598Y-196450471D02*
X194886598Y-196593328D01*
X195886599Y-195093328D02*
X196029456Y-195093328D01*
X196029456Y-195093328D02*
X196172313Y-195164757D01*
X196172313Y-195164757D02*
X196243742Y-195236185D01*
X196243742Y-195236185D02*
X196315170Y-195379042D01*
X196315170Y-195379042D02*
X196386599Y-195664757D01*
X196386599Y-195664757D02*
X196386599Y-196021900D01*
X196386599Y-196021900D02*
X196315170Y-196307614D01*
X196315170Y-196307614D02*
X196243742Y-196450471D01*
X196243742Y-196450471D02*
X196172313Y-196521900D01*
X196172313Y-196521900D02*
X196029456Y-196593328D01*
X196029456Y-196593328D02*
X195886599Y-196593328D01*
X195886599Y-196593328D02*
X195743742Y-196521900D01*
X195743742Y-196521900D02*
X195672313Y-196450471D01*
X195672313Y-196450471D02*
X195600884Y-196307614D01*
X195600884Y-196307614D02*
X195529456Y-196021900D01*
X195529456Y-196021900D02*
X195529456Y-195664757D01*
X195529456Y-195664757D02*
X195600884Y-195379042D01*
X195600884Y-195379042D02*
X195672313Y-195236185D01*
X195672313Y-195236185D02*
X195743742Y-195164757D01*
X195743742Y-195164757D02*
X195886599Y-195093328D01*
X197029455Y-196450471D02*
X197100884Y-196521900D01*
X197100884Y-196521900D02*
X197029455Y-196593328D01*
X197029455Y-196593328D02*
X196958027Y-196521900D01*
X196958027Y-196521900D02*
X197029455Y-196450471D01*
X197029455Y-196450471D02*
X197029455Y-196593328D01*
X198529456Y-196593328D02*
X197672313Y-196593328D01*
X198100884Y-196593328D02*
X198100884Y-195093328D01*
X198100884Y-195093328D02*
X197958027Y-195307614D01*
X197958027Y-195307614D02*
X197815170Y-195450471D01*
X197815170Y-195450471D02*
X197672313Y-195521900D01*
D10*
D11*
X177002200Y-191507200D02*
X285002200Y-191507200D01*
D10*
D12*
X264413853Y-193785528D02*
X263913853Y-193071242D01*
X263556710Y-193785528D02*
X263556710Y-192285528D01*
X263556710Y-192285528D02*
X264128139Y-192285528D01*
X264128139Y-192285528D02*
X264270996Y-192356957D01*
X264270996Y-192356957D02*
X264342425Y-192428385D01*
X264342425Y-192428385D02*
X264413853Y-192571242D01*
X264413853Y-192571242D02*
X264413853Y-192785528D01*
X264413853Y-192785528D02*
X264342425Y-192928385D01*
X264342425Y-192928385D02*
X264270996Y-192999814D01*
X264270996Y-192999814D02*
X264128139Y-193071242D01*
X264128139Y-193071242D02*
X263556710Y-193071242D01*
X265628139Y-193714100D02*
X265485282Y-193785528D01*
X265485282Y-193785528D02*
X265199568Y-193785528D01*
X265199568Y-193785528D02*
X265056710Y-193714100D01*
X265056710Y-193714100D02*
X264985282Y-193571242D01*
X264985282Y-193571242D02*
X264985282Y-192999814D01*
X264985282Y-192999814D02*
X265056710Y-192856957D01*
X265056710Y-192856957D02*
X265199568Y-192785528D01*
X265199568Y-192785528D02*
X265485282Y-192785528D01*
X265485282Y-192785528D02*
X265628139Y-192856957D01*
X265628139Y-192856957D02*
X265699568Y-192999814D01*
X265699568Y-192999814D02*
X265699568Y-193142671D01*
X265699568Y-193142671D02*
X264985282Y-193285528D01*
X266199567Y-192785528D02*
X266556710Y-193785528D01*
X266556710Y-193785528D02*
X266913853Y-192785528D01*
X267485281Y-193642671D02*
X267556710Y-193714100D01*
X267556710Y-193714100D02*
X267485281Y-193785528D01*
X267485281Y-193785528D02*
X267413853Y-193714100D01*
X267413853Y-193714100D02*
X267485281Y-193642671D01*
X267485281Y-193642671D02*
X267485281Y-193785528D01*
X267485281Y-192856957D02*
X267556710Y-192928385D01*
X267556710Y-192928385D02*
X267485281Y-192999814D01*
X267485281Y-192999814D02*
X267413853Y-192928385D01*
X267413853Y-192928385D02*
X267485281Y-192856957D01*
X267485281Y-192856957D02*
X267485281Y-192999814D01*
X269985282Y-192785528D02*
X269985282Y-193785528D01*
X269628139Y-192214100D02*
X269270996Y-193285528D01*
X269270996Y-193285528D02*
X270199567Y-193285528D01*
X270770995Y-193642671D02*
X270842424Y-193714100D01*
X270842424Y-193714100D02*
X270770995Y-193785528D01*
X270770995Y-193785528D02*
X270699567Y-193714100D01*
X270699567Y-193714100D02*
X270770995Y-193642671D01*
X270770995Y-193642671D02*
X270770995Y-193785528D01*
X271770996Y-192285528D02*
X271913853Y-192285528D01*
X271913853Y-192285528D02*
X272056710Y-192356957D01*
X272056710Y-192356957D02*
X272128139Y-192428385D01*
X272128139Y-192428385D02*
X272199567Y-192571242D01*
X272199567Y-192571242D02*
X272270996Y-192856957D01*
X272270996Y-192856957D02*
X272270996Y-193214100D01*
X272270996Y-193214100D02*
X272199567Y-193499814D01*
X272199567Y-193499814D02*
X272128139Y-193642671D01*
X272128139Y-193642671D02*
X272056710Y-193714100D01*
X272056710Y-193714100D02*
X271913853Y-193785528D01*
X271913853Y-193785528D02*
X271770996Y-193785528D01*
X271770996Y-193785528D02*
X271628139Y-193714100D01*
X271628139Y-193714100D02*
X271556710Y-193642671D01*
X271556710Y-193642671D02*
X271485281Y-193499814D01*
X271485281Y-193499814D02*
X271413853Y-193214100D01*
X271413853Y-193214100D02*
X271413853Y-192856957D01*
X271413853Y-192856957D02*
X271485281Y-192571242D01*
X271485281Y-192571242D02*
X271556710Y-192428385D01*
X271556710Y-192428385D02*
X271628139Y-192356957D01*
X271628139Y-192356957D02*
X271770996Y-192285528D01*
D10*
D11*
X178386598Y-193721900D02*
X178600884Y-193793328D01*
X178600884Y-193793328D02*
X178958026Y-193793328D01*
X178958026Y-193793328D02*
X179100884Y-193721900D01*
X179100884Y-193721900D02*
X179172312Y-193650471D01*
X179172312Y-193650471D02*
X179243741Y-193507614D01*
X179243741Y-193507614D02*
X179243741Y-193364757D01*
X179243741Y-193364757D02*
X179172312Y-193221900D01*
X179172312Y-193221900D02*
X179100884Y-193150471D01*
X179100884Y-193150471D02*
X178958026Y-193079042D01*
X178958026Y-193079042D02*
X178672312Y-193007614D01*
X178672312Y-193007614D02*
X178529455Y-192936185D01*
X178529455Y-192936185D02*
X178458026Y-192864757D01*
X178458026Y-192864757D02*
X178386598Y-192721900D01*
X178386598Y-192721900D02*
X178386598Y-192579042D01*
X178386598Y-192579042D02*
X178458026Y-192436185D01*
X178458026Y-192436185D02*
X178529455Y-192364757D01*
X178529455Y-192364757D02*
X178672312Y-192293328D01*
X178672312Y-192293328D02*
X179029455Y-192293328D01*
X179029455Y-192293328D02*
X179243741Y-192364757D01*
X179886597Y-193793328D02*
X179886597Y-192793328D01*
X179886597Y-192293328D02*
X179815169Y-192364757D01*
X179815169Y-192364757D02*
X179886597Y-192436185D01*
X179886597Y-192436185D02*
X179958026Y-192364757D01*
X179958026Y-192364757D02*
X179886597Y-192293328D01*
X179886597Y-192293328D02*
X179886597Y-192436185D01*
X180458026Y-192793328D02*
X181243741Y-192793328D01*
X181243741Y-192793328D02*
X180458026Y-193793328D01*
X180458026Y-193793328D02*
X181243741Y-193793328D01*
X182386598Y-193721900D02*
X182243741Y-193793328D01*
X182243741Y-193793328D02*
X181958027Y-193793328D01*
X181958027Y-193793328D02*
X181815169Y-193721900D01*
X181815169Y-193721900D02*
X181743741Y-193579042D01*
X181743741Y-193579042D02*
X181743741Y-193007614D01*
X181743741Y-193007614D02*
X181815169Y-192864757D01*
X181815169Y-192864757D02*
X181958027Y-192793328D01*
X181958027Y-192793328D02*
X182243741Y-192793328D01*
X182243741Y-192793328D02*
X182386598Y-192864757D01*
X182386598Y-192864757D02*
X182458027Y-193007614D01*
X182458027Y-193007614D02*
X182458027Y-193150471D01*
X182458027Y-193150471D02*
X181743741Y-193293328D01*
X183100883Y-193650471D02*
X183172312Y-193721900D01*
X183172312Y-193721900D02*
X183100883Y-193793328D01*
X183100883Y-193793328D02*
X183029455Y-193721900D01*
X183029455Y-193721900D02*
X183100883Y-193650471D01*
X183100883Y-193650471D02*
X183100883Y-193793328D01*
X183100883Y-192864757D02*
X183172312Y-192936185D01*
X183172312Y-192936185D02*
X183100883Y-193007614D01*
X183100883Y-193007614D02*
X183029455Y-192936185D01*
X183029455Y-192936185D02*
X183100883Y-192864757D01*
X183100883Y-192864757D02*
X183100883Y-193007614D01*
X184886598Y-193364757D02*
X185600884Y-193364757D01*
X184743741Y-193793328D02*
X185243741Y-192293328D01*
X185243741Y-192293328D02*
X185743741Y-193793328D01*
X186886598Y-192793328D02*
X186886598Y-193793328D01*
X186529455Y-192221900D02*
X186172312Y-193293328D01*
X186172312Y-193293328D02*
X187100883Y-193293328D01*
D10*
D11*
X263458026Y-196593328D02*
X263458026Y-195093328D01*
X264815170Y-196593328D02*
X264815170Y-195093328D01*
X264815170Y-196521900D02*
X264672312Y-196593328D01*
X264672312Y-196593328D02*
X264386598Y-196593328D01*
X264386598Y-196593328D02*
X264243741Y-196521900D01*
X264243741Y-196521900D02*
X264172312Y-196450471D01*
X264172312Y-196450471D02*
X264100884Y-196307614D01*
X264100884Y-196307614D02*
X264100884Y-195879042D01*
X264100884Y-195879042D02*
X264172312Y-195736185D01*
X264172312Y-195736185D02*
X264243741Y-195664757D01*
X264243741Y-195664757D02*
X264386598Y-195593328D01*
X264386598Y-195593328D02*
X264672312Y-195593328D01*
X264672312Y-195593328D02*
X264815170Y-195664757D01*
X265529455Y-196450471D02*
X265600884Y-196521900D01*
X265600884Y-196521900D02*
X265529455Y-196593328D01*
X265529455Y-196593328D02*
X265458027Y-196521900D01*
X265458027Y-196521900D02*
X265529455Y-196450471D01*
X265529455Y-196450471D02*
X265529455Y-196593328D01*
X265529455Y-195664757D02*
X265600884Y-195736185D01*
X265600884Y-195736185D02*
X265529455Y-195807614D01*
X265529455Y-195807614D02*
X265458027Y-195736185D01*
X265458027Y-195736185D02*
X265529455Y-195664757D01*
X265529455Y-195664757D02*
X265529455Y-195807614D01*
X267315170Y-195236185D02*
X267386598Y-195164757D01*
X267386598Y-195164757D02*
X267529456Y-195093328D01*
X267529456Y-195093328D02*
X267886598Y-195093328D01*
X267886598Y-195093328D02*
X268029456Y-195164757D01*
X268029456Y-195164757D02*
X268100884Y-195236185D01*
X268100884Y-195236185D02*
X268172313Y-195379042D01*
X268172313Y-195379042D02*
X268172313Y-195521900D01*
X268172313Y-195521900D02*
X268100884Y-195736185D01*
X268100884Y-195736185D02*
X267243741Y-196593328D01*
X267243741Y-196593328D02*
X268172313Y-196593328D01*
X269886598Y-195021900D02*
X268600884Y-196950471D01*
X270458027Y-196593328D02*
X270743741Y-196593328D01*
X270743741Y-196593328D02*
X270886598Y-196521900D01*
X270886598Y-196521900D02*
X270958027Y-196450471D01*
X270958027Y-196450471D02*
X271100884Y-196236185D01*
X271100884Y-196236185D02*
X271172313Y-195950471D01*
X271172313Y-195950471D02*
X271172313Y-195379042D01*
X271172313Y-195379042D02*
X271100884Y-195236185D01*
X271100884Y-195236185D02*
X271029456Y-195164757D01*
X271029456Y-195164757D02*
X270886598Y-195093328D01*
X270886598Y-195093328D02*
X270600884Y-195093328D01*
X270600884Y-195093328D02*
X270458027Y-195164757D01*
X270458027Y-195164757D02*
X270386598Y-195236185D01*
X270386598Y-195236185D02*
X270315170Y-195379042D01*
X270315170Y-195379042D02*
X270315170Y-195736185D01*
X270315170Y-195736185D02*
X270386598Y-195879042D01*
X270386598Y-195879042D02*
X270458027Y-195950471D01*
X270458027Y-195950471D02*
X270600884Y-196021900D01*
X270600884Y-196021900D02*
X270886598Y-196021900D01*
X270886598Y-196021900D02*
X271029456Y-195950471D01*
X271029456Y-195950471D02*
X271100884Y-195879042D01*
X271100884Y-195879042D02*
X271172313Y-195736185D01*
D10*
D11*
X177002200Y-187507200D02*
X285002200Y-187507200D01*
D10*
D13*
X178693928Y-188211638D02*
X179836785Y-188211638D01*
X179015357Y-190211638D02*
X179265357Y-188211638D01*
X180253452Y-190211638D02*
X180420119Y-188878304D01*
X180503452Y-188211638D02*
X180396309Y-188306876D01*
X180396309Y-188306876D02*
X180479643Y-188402114D01*
X180479643Y-188402114D02*
X180586786Y-188306876D01*
X180586786Y-188306876D02*
X180503452Y-188211638D01*
X180503452Y-188211638D02*
X180479643Y-188402114D01*
X181086786Y-188878304D02*
X181848690Y-188878304D01*
X181455833Y-188211638D02*
X181241548Y-189925923D01*
X181241548Y-189925923D02*
X181312976Y-190116400D01*
X181312976Y-190116400D02*
X181491548Y-190211638D01*
X181491548Y-190211638D02*
X181682024Y-190211638D01*
X182634405Y-190211638D02*
X182455833Y-190116400D01*
X182455833Y-190116400D02*
X182384405Y-189925923D01*
X182384405Y-189925923D02*
X182598690Y-188211638D01*
X184170119Y-190116400D02*
X183967738Y-190211638D01*
X183967738Y-190211638D02*
X183586785Y-190211638D01*
X183586785Y-190211638D02*
X183408214Y-190116400D01*
X183408214Y-190116400D02*
X183336785Y-189925923D01*
X183336785Y-189925923D02*
X183432024Y-189164019D01*
X183432024Y-189164019D02*
X183551071Y-188973542D01*
X183551071Y-188973542D02*
X183753452Y-188878304D01*
X183753452Y-188878304D02*
X184134404Y-188878304D01*
X184134404Y-188878304D02*
X184312976Y-188973542D01*
X184312976Y-188973542D02*
X184384404Y-189164019D01*
X184384404Y-189164019D02*
X184360595Y-189354495D01*
X184360595Y-189354495D02*
X183384404Y-189544971D01*
X185134405Y-190021161D02*
X185217738Y-190116400D01*
X185217738Y-190116400D02*
X185110595Y-190211638D01*
X185110595Y-190211638D02*
X185027262Y-190116400D01*
X185027262Y-190116400D02*
X185134405Y-190021161D01*
X185134405Y-190021161D02*
X185110595Y-190211638D01*
X185265357Y-188973542D02*
X185348690Y-189068780D01*
X185348690Y-189068780D02*
X185241548Y-189164019D01*
X185241548Y-189164019D02*
X185158214Y-189068780D01*
X185158214Y-189068780D02*
X185265357Y-188973542D01*
X185265357Y-188973542D02*
X185241548Y-189164019D01*
X188872501Y-188306876D02*
X188693929Y-188211638D01*
X188693929Y-188211638D02*
X188408215Y-188211638D01*
X188408215Y-188211638D02*
X188110596Y-188306876D01*
X188110596Y-188306876D02*
X187896310Y-188497352D01*
X187896310Y-188497352D02*
X187777262Y-188687828D01*
X187777262Y-188687828D02*
X187634405Y-189068780D01*
X187634405Y-189068780D02*
X187598691Y-189354495D01*
X187598691Y-189354495D02*
X187646310Y-189735447D01*
X187646310Y-189735447D02*
X187717739Y-189925923D01*
X187717739Y-189925923D02*
X187884405Y-190116400D01*
X187884405Y-190116400D02*
X188158215Y-190211638D01*
X188158215Y-190211638D02*
X188348691Y-190211638D01*
X188348691Y-190211638D02*
X188646310Y-190116400D01*
X188646310Y-190116400D02*
X188753453Y-190021161D01*
X188753453Y-190021161D02*
X188836786Y-189354495D01*
X188836786Y-189354495D02*
X188455834Y-189354495D01*
X189586786Y-190211638D02*
X189753453Y-188878304D01*
X189705834Y-189259257D02*
X189824881Y-189068780D01*
X189824881Y-189068780D02*
X189932024Y-188973542D01*
X189932024Y-188973542D02*
X190134405Y-188878304D01*
X190134405Y-188878304D02*
X190324881Y-188878304D01*
X191598691Y-190116400D02*
X191396310Y-190211638D01*
X191396310Y-190211638D02*
X191015357Y-190211638D01*
X191015357Y-190211638D02*
X190836786Y-190116400D01*
X190836786Y-190116400D02*
X190765357Y-189925923D01*
X190765357Y-189925923D02*
X190860596Y-189164019D01*
X190860596Y-189164019D02*
X190979643Y-188973542D01*
X190979643Y-188973542D02*
X191182024Y-188878304D01*
X191182024Y-188878304D02*
X191562976Y-188878304D01*
X191562976Y-188878304D02*
X191741548Y-188973542D01*
X191741548Y-188973542D02*
X191812976Y-189164019D01*
X191812976Y-189164019D02*
X191789167Y-189354495D01*
X191789167Y-189354495D02*
X190812976Y-189544971D01*
X193312977Y-190116400D02*
X193110596Y-190211638D01*
X193110596Y-190211638D02*
X192729643Y-190211638D01*
X192729643Y-190211638D02*
X192551072Y-190116400D01*
X192551072Y-190116400D02*
X192479643Y-189925923D01*
X192479643Y-189925923D02*
X192574882Y-189164019D01*
X192574882Y-189164019D02*
X192693929Y-188973542D01*
X192693929Y-188973542D02*
X192896310Y-188878304D01*
X192896310Y-188878304D02*
X193277262Y-188878304D01*
X193277262Y-188878304D02*
X193455834Y-188973542D01*
X193455834Y-188973542D02*
X193527262Y-189164019D01*
X193527262Y-189164019D02*
X193503453Y-189354495D01*
X193503453Y-189354495D02*
X192527262Y-189544971D01*
X194420120Y-188878304D02*
X194253453Y-190211638D01*
X194396310Y-189068780D02*
X194503453Y-188973542D01*
X194503453Y-188973542D02*
X194705834Y-188878304D01*
X194705834Y-188878304D02*
X194991548Y-188878304D01*
X194991548Y-188878304D02*
X195170120Y-188973542D01*
X195170120Y-188973542D02*
X195241548Y-189164019D01*
X195241548Y-189164019D02*
X195110596Y-190211638D01*
X196062977Y-190211638D02*
X196312977Y-188211638D01*
X196920120Y-190211638D02*
X197051072Y-189164019D01*
X197051072Y-189164019D02*
X196979644Y-188973542D01*
X196979644Y-188973542D02*
X196801072Y-188878304D01*
X196801072Y-188878304D02*
X196515358Y-188878304D01*
X196515358Y-188878304D02*
X196312977Y-188973542D01*
X196312977Y-188973542D02*
X196205834Y-189068780D01*
X198158216Y-190211638D02*
X197979644Y-190116400D01*
X197979644Y-190116400D02*
X197896311Y-190021161D01*
X197896311Y-190021161D02*
X197824882Y-189830685D01*
X197824882Y-189830685D02*
X197896311Y-189259257D01*
X197896311Y-189259257D02*
X198015358Y-189068780D01*
X198015358Y-189068780D02*
X198122501Y-188973542D01*
X198122501Y-188973542D02*
X198324882Y-188878304D01*
X198324882Y-188878304D02*
X198610596Y-188878304D01*
X198610596Y-188878304D02*
X198789168Y-188973542D01*
X198789168Y-188973542D02*
X198872501Y-189068780D01*
X198872501Y-189068780D02*
X198943930Y-189259257D01*
X198943930Y-189259257D02*
X198872501Y-189830685D01*
X198872501Y-189830685D02*
X198753454Y-190021161D01*
X198753454Y-190021161D02*
X198646311Y-190116400D01*
X198646311Y-190116400D02*
X198443930Y-190211638D01*
X198443930Y-190211638D02*
X198158216Y-190211638D01*
X200705835Y-188878304D02*
X200539168Y-190211638D01*
X199848692Y-188878304D02*
X199717740Y-189925923D01*
X199717740Y-189925923D02*
X199789168Y-190116400D01*
X199789168Y-190116400D02*
X199967740Y-190211638D01*
X199967740Y-190211638D02*
X200253454Y-190211638D01*
X200253454Y-190211638D02*
X200455835Y-190116400D01*
X200455835Y-190116400D02*
X200562978Y-190021161D01*
X201408216Y-190116400D02*
X201586787Y-190211638D01*
X201586787Y-190211638D02*
X201967740Y-190211638D01*
X201967740Y-190211638D02*
X202170121Y-190116400D01*
X202170121Y-190116400D02*
X202289168Y-189925923D01*
X202289168Y-189925923D02*
X202301073Y-189830685D01*
X202301073Y-189830685D02*
X202229644Y-189640209D01*
X202229644Y-189640209D02*
X202051073Y-189544971D01*
X202051073Y-189544971D02*
X201765359Y-189544971D01*
X201765359Y-189544971D02*
X201586787Y-189449733D01*
X201586787Y-189449733D02*
X201515359Y-189259257D01*
X201515359Y-189259257D02*
X201527264Y-189164019D01*
X201527264Y-189164019D02*
X201646311Y-188973542D01*
X201646311Y-188973542D02*
X201848692Y-188878304D01*
X201848692Y-188878304D02*
X202134406Y-188878304D01*
X202134406Y-188878304D02*
X202312978Y-188973542D01*
X203884407Y-190116400D02*
X203682026Y-190211638D01*
X203682026Y-190211638D02*
X203301073Y-190211638D01*
X203301073Y-190211638D02*
X203122502Y-190116400D01*
X203122502Y-190116400D02*
X203051073Y-189925923D01*
X203051073Y-189925923D02*
X203146312Y-189164019D01*
X203146312Y-189164019D02*
X203265359Y-188973542D01*
X203265359Y-188973542D02*
X203467740Y-188878304D01*
X203467740Y-188878304D02*
X203848692Y-188878304D01*
X203848692Y-188878304D02*
X204027264Y-188973542D01*
X204027264Y-188973542D02*
X204098692Y-189164019D01*
X204098692Y-189164019D02*
X204074883Y-189354495D01*
X204074883Y-189354495D02*
X203098692Y-189544971D01*
X207301074Y-190211638D02*
X206348693Y-190211638D01*
X206348693Y-190211638D02*
X206598693Y-188211638D01*
X208253456Y-190211638D02*
X208074884Y-190116400D01*
X208074884Y-190116400D02*
X207991551Y-190021161D01*
X207991551Y-190021161D02*
X207920122Y-189830685D01*
X207920122Y-189830685D02*
X207991551Y-189259257D01*
X207991551Y-189259257D02*
X208110598Y-189068780D01*
X208110598Y-189068780D02*
X208217741Y-188973542D01*
X208217741Y-188973542D02*
X208420122Y-188878304D01*
X208420122Y-188878304D02*
X208705836Y-188878304D01*
X208705836Y-188878304D02*
X208884408Y-188973542D01*
X208884408Y-188973542D02*
X208967741Y-189068780D01*
X208967741Y-189068780D02*
X209039170Y-189259257D01*
X209039170Y-189259257D02*
X208967741Y-189830685D01*
X208967741Y-189830685D02*
X208848694Y-190021161D01*
X208848694Y-190021161D02*
X208741551Y-190116400D01*
X208741551Y-190116400D02*
X208539170Y-190211638D01*
X208539170Y-190211638D02*
X208253456Y-190211638D01*
X210920122Y-190211638D02*
X210372503Y-189259257D01*
X209777265Y-190211638D02*
X210027265Y-188211638D01*
X210027265Y-188211638D02*
X210789170Y-188211638D01*
X210789170Y-188211638D02*
X210967741Y-188306876D01*
X210967741Y-188306876D02*
X211051075Y-188402114D01*
X211051075Y-188402114D02*
X211122503Y-188592590D01*
X211122503Y-188592590D02*
X211086789Y-188878304D01*
X211086789Y-188878304D02*
X210967741Y-189068780D01*
X210967741Y-189068780D02*
X210860599Y-189164019D01*
X210860599Y-189164019D02*
X210658218Y-189259257D01*
X210658218Y-189259257D02*
X209896313Y-189259257D01*
X212634408Y-190211638D02*
X212765360Y-189164019D01*
X212765360Y-189164019D02*
X212693932Y-188973542D01*
X212693932Y-188973542D02*
X212515360Y-188878304D01*
X212515360Y-188878304D02*
X212134408Y-188878304D01*
X212134408Y-188878304D02*
X211932027Y-188973542D01*
X212646313Y-190116400D02*
X212443932Y-190211638D01*
X212443932Y-190211638D02*
X211967741Y-190211638D01*
X211967741Y-190211638D02*
X211789170Y-190116400D01*
X211789170Y-190116400D02*
X211717741Y-189925923D01*
X211717741Y-189925923D02*
X211741551Y-189735447D01*
X211741551Y-189735447D02*
X211860599Y-189544971D01*
X211860599Y-189544971D02*
X212062980Y-189449733D01*
X212062980Y-189449733D02*
X212539170Y-189449733D01*
X212539170Y-189449733D02*
X212741551Y-189354495D01*
X215110599Y-190211638D02*
X215360599Y-188211638D01*
X215360599Y-188211638D02*
X216253456Y-190211638D01*
X216253456Y-190211638D02*
X216503456Y-188211638D01*
X217491552Y-190211638D02*
X217312980Y-190116400D01*
X217312980Y-190116400D02*
X217229647Y-190021161D01*
X217229647Y-190021161D02*
X217158218Y-189830685D01*
X217158218Y-189830685D02*
X217229647Y-189259257D01*
X217229647Y-189259257D02*
X217348694Y-189068780D01*
X217348694Y-189068780D02*
X217455837Y-188973542D01*
X217455837Y-188973542D02*
X217658218Y-188878304D01*
X217658218Y-188878304D02*
X217943932Y-188878304D01*
X217943932Y-188878304D02*
X218122504Y-188973542D01*
X218122504Y-188973542D02*
X218205837Y-189068780D01*
X218205837Y-189068780D02*
X218277266Y-189259257D01*
X218277266Y-189259257D02*
X218205837Y-189830685D01*
X218205837Y-189830685D02*
X218086790Y-190021161D01*
X218086790Y-190021161D02*
X217979647Y-190116400D01*
X217979647Y-190116400D02*
X217777266Y-190211638D01*
X217777266Y-190211638D02*
X217491552Y-190211638D01*
X219872504Y-190211638D02*
X220122504Y-188211638D01*
X219884409Y-190116400D02*
X219682028Y-190211638D01*
X219682028Y-190211638D02*
X219301076Y-190211638D01*
X219301076Y-190211638D02*
X219122504Y-190116400D01*
X219122504Y-190116400D02*
X219039171Y-190021161D01*
X219039171Y-190021161D02*
X218967742Y-189830685D01*
X218967742Y-189830685D02*
X219039171Y-189259257D01*
X219039171Y-189259257D02*
X219158218Y-189068780D01*
X219158218Y-189068780D02*
X219265361Y-188973542D01*
X219265361Y-188973542D02*
X219467742Y-188878304D01*
X219467742Y-188878304D02*
X219848695Y-188878304D01*
X219848695Y-188878304D02*
X220027266Y-188973542D01*
X221598695Y-190116400D02*
X221396314Y-190211638D01*
X221396314Y-190211638D02*
X221015361Y-190211638D01*
X221015361Y-190211638D02*
X220836790Y-190116400D01*
X220836790Y-190116400D02*
X220765361Y-189925923D01*
X220765361Y-189925923D02*
X220860600Y-189164019D01*
X220860600Y-189164019D02*
X220979647Y-188973542D01*
X220979647Y-188973542D02*
X221182028Y-188878304D01*
X221182028Y-188878304D02*
X221562980Y-188878304D01*
X221562980Y-188878304D02*
X221741552Y-188973542D01*
X221741552Y-188973542D02*
X221812980Y-189164019D01*
X221812980Y-189164019D02*
X221789171Y-189354495D01*
X221789171Y-189354495D02*
X220812980Y-189544971D01*
X224539172Y-190973542D02*
X224455838Y-190878304D01*
X224455838Y-190878304D02*
X224301076Y-190592590D01*
X224301076Y-190592590D02*
X224229648Y-190402114D01*
X224229648Y-190402114D02*
X224170124Y-190116400D01*
X224170124Y-190116400D02*
X224134410Y-189640209D01*
X224134410Y-189640209D02*
X224182029Y-189259257D01*
X224182029Y-189259257D02*
X224336791Y-188783066D01*
X224336791Y-188783066D02*
X224467743Y-188497352D01*
X224467743Y-188497352D02*
X224586791Y-188306876D01*
X224586791Y-188306876D02*
X224812981Y-188021161D01*
X224812981Y-188021161D02*
X224920124Y-187925923D01*
X225312981Y-190116400D02*
X225586790Y-190211638D01*
X225586790Y-190211638D02*
X226062981Y-190211638D01*
X226062981Y-190211638D02*
X226265362Y-190116400D01*
X226265362Y-190116400D02*
X226372505Y-190021161D01*
X226372505Y-190021161D02*
X226491552Y-189830685D01*
X226491552Y-189830685D02*
X226515362Y-189640209D01*
X226515362Y-189640209D02*
X226443933Y-189449733D01*
X226443933Y-189449733D02*
X226360600Y-189354495D01*
X226360600Y-189354495D02*
X226182029Y-189259257D01*
X226182029Y-189259257D02*
X225812981Y-189164019D01*
X225812981Y-189164019D02*
X225634409Y-189068780D01*
X225634409Y-189068780D02*
X225551076Y-188973542D01*
X225551076Y-188973542D02*
X225479648Y-188783066D01*
X225479648Y-188783066D02*
X225503457Y-188592590D01*
X225503457Y-188592590D02*
X225622505Y-188402114D01*
X225622505Y-188402114D02*
X225729648Y-188306876D01*
X225729648Y-188306876D02*
X225932029Y-188211638D01*
X225932029Y-188211638D02*
X226408219Y-188211638D01*
X226408219Y-188211638D02*
X226682029Y-188306876D01*
X227301076Y-190211638D02*
X227551076Y-188211638D01*
X228253457Y-190211638D02*
X228503457Y-188211638D01*
X228503457Y-188211638D02*
X228991552Y-189640209D01*
X228991552Y-189640209D02*
X229836791Y-188211638D01*
X229836791Y-188211638D02*
X229586791Y-190211638D01*
X230253457Y-190973542D02*
X230360600Y-190878304D01*
X230360600Y-190878304D02*
X230586790Y-190592590D01*
X230586790Y-190592590D02*
X230705838Y-190402114D01*
X230705838Y-190402114D02*
X230836790Y-190116400D01*
X230836790Y-190116400D02*
X230991552Y-189640209D01*
X230991552Y-189640209D02*
X231039171Y-189259257D01*
X231039171Y-189259257D02*
X231003457Y-188783066D01*
X231003457Y-188783066D02*
X230943933Y-188497352D01*
X230943933Y-188497352D02*
X230872505Y-188306876D01*
X230872505Y-188306876D02*
X230717743Y-188021161D01*
X230717743Y-188021161D02*
X230634409Y-187925923D01*
D10*
D11*
X178958026Y-185607614D02*
X178458026Y-185607614D01*
X178458026Y-186393328D02*
X178458026Y-184893328D01*
X178458026Y-184893328D02*
X179172312Y-184893328D01*
X179743740Y-186393328D02*
X179743740Y-185393328D01*
X179743740Y-184893328D02*
X179672312Y-184964757D01*
X179672312Y-184964757D02*
X179743740Y-185036185D01*
X179743740Y-185036185D02*
X179815169Y-184964757D01*
X179815169Y-184964757D02*
X179743740Y-184893328D01*
X179743740Y-184893328D02*
X179743740Y-185036185D01*
X180672312Y-186393328D02*
X180529455Y-186321900D01*
X180529455Y-186321900D02*
X180458026Y-186179042D01*
X180458026Y-186179042D02*
X180458026Y-184893328D01*
X181815169Y-186321900D02*
X181672312Y-186393328D01*
X181672312Y-186393328D02*
X181386598Y-186393328D01*
X181386598Y-186393328D02*
X181243740Y-186321900D01*
X181243740Y-186321900D02*
X181172312Y-186179042D01*
X181172312Y-186179042D02*
X181172312Y-185607614D01*
X181172312Y-185607614D02*
X181243740Y-185464757D01*
X181243740Y-185464757D02*
X181386598Y-185393328D01*
X181386598Y-185393328D02*
X181672312Y-185393328D01*
X181672312Y-185393328D02*
X181815169Y-185464757D01*
X181815169Y-185464757D02*
X181886598Y-185607614D01*
X181886598Y-185607614D02*
X181886598Y-185750471D01*
X181886598Y-185750471D02*
X181172312Y-185893328D01*
X182529454Y-186250471D02*
X182600883Y-186321900D01*
X182600883Y-186321900D02*
X182529454Y-186393328D01*
X182529454Y-186393328D02*
X182458026Y-186321900D01*
X182458026Y-186321900D02*
X182529454Y-186250471D01*
X182529454Y-186250471D02*
X182529454Y-186393328D01*
X182529454Y-185464757D02*
X182600883Y-185536185D01*
X182600883Y-185536185D02*
X182529454Y-185607614D01*
X182529454Y-185607614D02*
X182458026Y-185536185D01*
X182458026Y-185536185D02*
X182529454Y-185464757D01*
X182529454Y-185464757D02*
X182529454Y-185607614D01*
X185100883Y-186393328D02*
X184386597Y-186393328D01*
X184386597Y-186393328D02*
X184386597Y-184893328D01*
X185815169Y-186393328D02*
X185672312Y-186321900D01*
X185672312Y-186321900D02*
X185600883Y-186250471D01*
X185600883Y-186250471D02*
X185529455Y-186107614D01*
X185529455Y-186107614D02*
X185529455Y-185679042D01*
X185529455Y-185679042D02*
X185600883Y-185536185D01*
X185600883Y-185536185D02*
X185672312Y-185464757D01*
X185672312Y-185464757D02*
X185815169Y-185393328D01*
X185815169Y-185393328D02*
X186029455Y-185393328D01*
X186029455Y-185393328D02*
X186172312Y-185464757D01*
X186172312Y-185464757D02*
X186243741Y-185536185D01*
X186243741Y-185536185D02*
X186315169Y-185679042D01*
X186315169Y-185679042D02*
X186315169Y-186107614D01*
X186315169Y-186107614D02*
X186243741Y-186250471D01*
X186243741Y-186250471D02*
X186172312Y-186321900D01*
X186172312Y-186321900D02*
X186029455Y-186393328D01*
X186029455Y-186393328D02*
X185815169Y-186393328D01*
X187815169Y-186393328D02*
X187315169Y-185679042D01*
X186958026Y-186393328D02*
X186958026Y-184893328D01*
X186958026Y-184893328D02*
X187529455Y-184893328D01*
X187529455Y-184893328D02*
X187672312Y-184964757D01*
X187672312Y-184964757D02*
X187743741Y-185036185D01*
X187743741Y-185036185D02*
X187815169Y-185179042D01*
X187815169Y-185179042D02*
X187815169Y-185393328D01*
X187815169Y-185393328D02*
X187743741Y-185536185D01*
X187743741Y-185536185D02*
X187672312Y-185607614D01*
X187672312Y-185607614D02*
X187529455Y-185679042D01*
X187529455Y-185679042D02*
X186958026Y-185679042D01*
X189100884Y-186393328D02*
X189100884Y-185607614D01*
X189100884Y-185607614D02*
X189029455Y-185464757D01*
X189029455Y-185464757D02*
X188886598Y-185393328D01*
X188886598Y-185393328D02*
X188600884Y-185393328D01*
X188600884Y-185393328D02*
X188458026Y-185464757D01*
X189100884Y-186321900D02*
X188958026Y-186393328D01*
X188958026Y-186393328D02*
X188600884Y-186393328D01*
X188600884Y-186393328D02*
X188458026Y-186321900D01*
X188458026Y-186321900D02*
X188386598Y-186179042D01*
X188386598Y-186179042D02*
X188386598Y-186036185D01*
X188386598Y-186036185D02*
X188458026Y-185893328D01*
X188458026Y-185893328D02*
X188600884Y-185821900D01*
X188600884Y-185821900D02*
X188958026Y-185821900D01*
X188958026Y-185821900D02*
X189100884Y-185750471D01*
X189458027Y-186536185D02*
X190600884Y-186536185D01*
X190958026Y-186393328D02*
X190958026Y-184893328D01*
X190958026Y-184893328D02*
X191815169Y-186393328D01*
X191815169Y-186393328D02*
X191815169Y-184893328D01*
X192743741Y-186393328D02*
X192600884Y-186321900D01*
X192600884Y-186321900D02*
X192529455Y-186250471D01*
X192529455Y-186250471D02*
X192458027Y-186107614D01*
X192458027Y-186107614D02*
X192458027Y-185679042D01*
X192458027Y-185679042D02*
X192529455Y-185536185D01*
X192529455Y-185536185D02*
X192600884Y-185464757D01*
X192600884Y-185464757D02*
X192743741Y-185393328D01*
X192743741Y-185393328D02*
X192958027Y-185393328D01*
X192958027Y-185393328D02*
X193100884Y-185464757D01*
X193100884Y-185464757D02*
X193172313Y-185536185D01*
X193172313Y-185536185D02*
X193243741Y-185679042D01*
X193243741Y-185679042D02*
X193243741Y-186107614D01*
X193243741Y-186107614D02*
X193172313Y-186250471D01*
X193172313Y-186250471D02*
X193100884Y-186321900D01*
X193100884Y-186321900D02*
X192958027Y-186393328D01*
X192958027Y-186393328D02*
X192743741Y-186393328D01*
X194529456Y-186393328D02*
X194529456Y-184893328D01*
X194529456Y-186321900D02*
X194386598Y-186393328D01*
X194386598Y-186393328D02*
X194100884Y-186393328D01*
X194100884Y-186393328D02*
X193958027Y-186321900D01*
X193958027Y-186321900D02*
X193886598Y-186250471D01*
X193886598Y-186250471D02*
X193815170Y-186107614D01*
X193815170Y-186107614D02*
X193815170Y-185679042D01*
X193815170Y-185679042D02*
X193886598Y-185536185D01*
X193886598Y-185536185D02*
X193958027Y-185464757D01*
X193958027Y-185464757D02*
X194100884Y-185393328D01*
X194100884Y-185393328D02*
X194386598Y-185393328D01*
X194386598Y-185393328D02*
X194529456Y-185464757D01*
X195815170Y-186321900D02*
X195672313Y-186393328D01*
X195672313Y-186393328D02*
X195386599Y-186393328D01*
X195386599Y-186393328D02*
X195243741Y-186321900D01*
X195243741Y-186321900D02*
X195172313Y-186179042D01*
X195172313Y-186179042D02*
X195172313Y-185607614D01*
X195172313Y-185607614D02*
X195243741Y-185464757D01*
X195243741Y-185464757D02*
X195386599Y-185393328D01*
X195386599Y-185393328D02*
X195672313Y-185393328D01*
X195672313Y-185393328D02*
X195815170Y-185464757D01*
X195815170Y-185464757D02*
X195886599Y-185607614D01*
X195886599Y-185607614D02*
X195886599Y-185750471D01*
X195886599Y-185750471D02*
X195172313Y-185893328D01*
X196529455Y-186250471D02*
X196600884Y-186321900D01*
X196600884Y-186321900D02*
X196529455Y-186393328D01*
X196529455Y-186393328D02*
X196458027Y-186321900D01*
X196458027Y-186321900D02*
X196529455Y-186250471D01*
X196529455Y-186250471D02*
X196529455Y-186393328D01*
X197243741Y-186393328D02*
X197243741Y-184893328D01*
X197386599Y-185821900D02*
X197815170Y-186393328D01*
X197815170Y-185393328D02*
X197243741Y-185964757D01*
X198458027Y-186393328D02*
X198458027Y-185393328D01*
X198458027Y-184893328D02*
X198386599Y-184964757D01*
X198386599Y-184964757D02*
X198458027Y-185036185D01*
X198458027Y-185036185D02*
X198529456Y-184964757D01*
X198529456Y-184964757D02*
X198458027Y-184893328D01*
X198458027Y-184893328D02*
X198458027Y-185036185D01*
X199815171Y-186321900D02*
X199672313Y-186393328D01*
X199672313Y-186393328D02*
X199386599Y-186393328D01*
X199386599Y-186393328D02*
X199243742Y-186321900D01*
X199243742Y-186321900D02*
X199172313Y-186250471D01*
X199172313Y-186250471D02*
X199100885Y-186107614D01*
X199100885Y-186107614D02*
X199100885Y-185679042D01*
X199100885Y-185679042D02*
X199172313Y-185536185D01*
X199172313Y-185536185D02*
X199243742Y-185464757D01*
X199243742Y-185464757D02*
X199386599Y-185393328D01*
X199386599Y-185393328D02*
X199672313Y-185393328D01*
X199672313Y-185393328D02*
X199815171Y-185464757D01*
X201100885Y-186393328D02*
X201100885Y-185607614D01*
X201100885Y-185607614D02*
X201029456Y-185464757D01*
X201029456Y-185464757D02*
X200886599Y-185393328D01*
X200886599Y-185393328D02*
X200600885Y-185393328D01*
X200600885Y-185393328D02*
X200458027Y-185464757D01*
X201100885Y-186321900D02*
X200958027Y-186393328D01*
X200958027Y-186393328D02*
X200600885Y-186393328D01*
X200600885Y-186393328D02*
X200458027Y-186321900D01*
X200458027Y-186321900D02*
X200386599Y-186179042D01*
X200386599Y-186179042D02*
X200386599Y-186036185D01*
X200386599Y-186036185D02*
X200458027Y-185893328D01*
X200458027Y-185893328D02*
X200600885Y-185821900D01*
X200600885Y-185821900D02*
X200958027Y-185821900D01*
X200958027Y-185821900D02*
X201100885Y-185750471D01*
X202458028Y-186393328D02*
X202458028Y-184893328D01*
X202458028Y-186321900D02*
X202315170Y-186393328D01*
X202315170Y-186393328D02*
X202029456Y-186393328D01*
X202029456Y-186393328D02*
X201886599Y-186321900D01*
X201886599Y-186321900D02*
X201815170Y-186250471D01*
X201815170Y-186250471D02*
X201743742Y-186107614D01*
X201743742Y-186107614D02*
X201743742Y-185679042D01*
X201743742Y-185679042D02*
X201815170Y-185536185D01*
X201815170Y-185536185D02*
X201886599Y-185464757D01*
X201886599Y-185464757D02*
X202029456Y-185393328D01*
X202029456Y-185393328D02*
X202315170Y-185393328D01*
X202315170Y-185393328D02*
X202458028Y-185464757D01*
X202815171Y-186536185D02*
X203958028Y-186536185D01*
X204315170Y-185393328D02*
X204315170Y-186893328D01*
X204315170Y-185464757D02*
X204458028Y-185393328D01*
X204458028Y-185393328D02*
X204743742Y-185393328D01*
X204743742Y-185393328D02*
X204886599Y-185464757D01*
X204886599Y-185464757D02*
X204958028Y-185536185D01*
X204958028Y-185536185D02*
X205029456Y-185679042D01*
X205029456Y-185679042D02*
X205029456Y-186107614D01*
X205029456Y-186107614D02*
X204958028Y-186250471D01*
X204958028Y-186250471D02*
X204886599Y-186321900D01*
X204886599Y-186321900D02*
X204743742Y-186393328D01*
X204743742Y-186393328D02*
X204458028Y-186393328D01*
X204458028Y-186393328D02*
X204315170Y-186321900D01*
X206315171Y-186321900D02*
X206172313Y-186393328D01*
X206172313Y-186393328D02*
X205886599Y-186393328D01*
X205886599Y-186393328D02*
X205743742Y-186321900D01*
X205743742Y-186321900D02*
X205672313Y-186250471D01*
X205672313Y-186250471D02*
X205600885Y-186107614D01*
X205600885Y-186107614D02*
X205600885Y-185679042D01*
X205600885Y-185679042D02*
X205672313Y-185536185D01*
X205672313Y-185536185D02*
X205743742Y-185464757D01*
X205743742Y-185464757D02*
X205886599Y-185393328D01*
X205886599Y-185393328D02*
X206172313Y-185393328D01*
X206172313Y-185393328D02*
X206315171Y-185464757D01*
X206958027Y-186393328D02*
X206958027Y-184893328D01*
X206958027Y-185464757D02*
X207100885Y-185393328D01*
X207100885Y-185393328D02*
X207386599Y-185393328D01*
X207386599Y-185393328D02*
X207529456Y-185464757D01*
X207529456Y-185464757D02*
X207600885Y-185536185D01*
X207600885Y-185536185D02*
X207672313Y-185679042D01*
X207672313Y-185679042D02*
X207672313Y-186107614D01*
X207672313Y-186107614D02*
X207600885Y-186250471D01*
X207600885Y-186250471D02*
X207529456Y-186321900D01*
X207529456Y-186321900D02*
X207386599Y-186393328D01*
X207386599Y-186393328D02*
X207100885Y-186393328D01*
X207100885Y-186393328D02*
X206958027Y-186321900D01*
D10*
D11*
X177002200Y-181507200D02*
X285002200Y-181507200D01*
D10*
D11*
X178386598Y-183621900D02*
X178600884Y-183693328D01*
X178600884Y-183693328D02*
X178958026Y-183693328D01*
X178958026Y-183693328D02*
X179100884Y-183621900D01*
X179100884Y-183621900D02*
X179172312Y-183550471D01*
X179172312Y-183550471D02*
X179243741Y-183407614D01*
X179243741Y-183407614D02*
X179243741Y-183264757D01*
X179243741Y-183264757D02*
X179172312Y-183121900D01*
X179172312Y-183121900D02*
X179100884Y-183050471D01*
X179100884Y-183050471D02*
X178958026Y-182979042D01*
X178958026Y-182979042D02*
X178672312Y-182907614D01*
X178672312Y-182907614D02*
X178529455Y-182836185D01*
X178529455Y-182836185D02*
X178458026Y-182764757D01*
X178458026Y-182764757D02*
X178386598Y-182621900D01*
X178386598Y-182621900D02*
X178386598Y-182479042D01*
X178386598Y-182479042D02*
X178458026Y-182336185D01*
X178458026Y-182336185D02*
X178529455Y-182264757D01*
X178529455Y-182264757D02*
X178672312Y-182193328D01*
X178672312Y-182193328D02*
X179029455Y-182193328D01*
X179029455Y-182193328D02*
X179243741Y-182264757D01*
X179886597Y-183693328D02*
X179886597Y-182193328D01*
X180529455Y-183693328D02*
X180529455Y-182907614D01*
X180529455Y-182907614D02*
X180458026Y-182764757D01*
X180458026Y-182764757D02*
X180315169Y-182693328D01*
X180315169Y-182693328D02*
X180100883Y-182693328D01*
X180100883Y-182693328D02*
X179958026Y-182764757D01*
X179958026Y-182764757D02*
X179886597Y-182836185D01*
X181815169Y-183621900D02*
X181672312Y-183693328D01*
X181672312Y-183693328D02*
X181386598Y-183693328D01*
X181386598Y-183693328D02*
X181243740Y-183621900D01*
X181243740Y-183621900D02*
X181172312Y-183479042D01*
X181172312Y-183479042D02*
X181172312Y-182907614D01*
X181172312Y-182907614D02*
X181243740Y-182764757D01*
X181243740Y-182764757D02*
X181386598Y-182693328D01*
X181386598Y-182693328D02*
X181672312Y-182693328D01*
X181672312Y-182693328D02*
X181815169Y-182764757D01*
X181815169Y-182764757D02*
X181886598Y-182907614D01*
X181886598Y-182907614D02*
X181886598Y-183050471D01*
X181886598Y-183050471D02*
X181172312Y-183193328D01*
X183100883Y-183621900D02*
X182958026Y-183693328D01*
X182958026Y-183693328D02*
X182672312Y-183693328D01*
X182672312Y-183693328D02*
X182529454Y-183621900D01*
X182529454Y-183621900D02*
X182458026Y-183479042D01*
X182458026Y-183479042D02*
X182458026Y-182907614D01*
X182458026Y-182907614D02*
X182529454Y-182764757D01*
X182529454Y-182764757D02*
X182672312Y-182693328D01*
X182672312Y-182693328D02*
X182958026Y-182693328D01*
X182958026Y-182693328D02*
X183100883Y-182764757D01*
X183100883Y-182764757D02*
X183172312Y-182907614D01*
X183172312Y-182907614D02*
X183172312Y-183050471D01*
X183172312Y-183050471D02*
X182458026Y-183193328D01*
X183600883Y-182693328D02*
X184172311Y-182693328D01*
X183815168Y-182193328D02*
X183815168Y-183479042D01*
X183815168Y-183479042D02*
X183886597Y-183621900D01*
X183886597Y-183621900D02*
X184029454Y-183693328D01*
X184029454Y-183693328D02*
X184172311Y-183693328D01*
X184672311Y-183550471D02*
X184743740Y-183621900D01*
X184743740Y-183621900D02*
X184672311Y-183693328D01*
X184672311Y-183693328D02*
X184600883Y-183621900D01*
X184600883Y-183621900D02*
X184672311Y-183550471D01*
X184672311Y-183550471D02*
X184672311Y-183693328D01*
X184672311Y-182764757D02*
X184743740Y-182836185D01*
X184743740Y-182836185D02*
X184672311Y-182907614D01*
X184672311Y-182907614D02*
X184600883Y-182836185D01*
X184600883Y-182836185D02*
X184672311Y-182764757D01*
X184672311Y-182764757D02*
X184672311Y-182907614D01*
D10*
D12*
X178342425Y-179185528D02*
X179199568Y-179185528D01*
X178770996Y-180685528D02*
X178770996Y-179185528D01*
X179699567Y-180685528D02*
X179699567Y-179685528D01*
X179699567Y-179185528D02*
X179628139Y-179256957D01*
X179628139Y-179256957D02*
X179699567Y-179328385D01*
X179699567Y-179328385D02*
X179770996Y-179256957D01*
X179770996Y-179256957D02*
X179699567Y-179185528D01*
X179699567Y-179185528D02*
X179699567Y-179328385D01*
X180413853Y-179685528D02*
X180413853Y-180685528D01*
X180413853Y-179828385D02*
X180485282Y-179756957D01*
X180485282Y-179756957D02*
X180628139Y-179685528D01*
X180628139Y-179685528D02*
X180842425Y-179685528D01*
X180842425Y-179685528D02*
X180985282Y-179756957D01*
X180985282Y-179756957D02*
X181056711Y-179899814D01*
X181056711Y-179899814D02*
X181056711Y-180685528D01*
X181556711Y-179685528D02*
X182128139Y-179685528D01*
X181770996Y-179185528D02*
X181770996Y-180471242D01*
X181770996Y-180471242D02*
X181842425Y-180614100D01*
X181842425Y-180614100D02*
X181985282Y-180685528D01*
X181985282Y-180685528D02*
X182128139Y-180685528D01*
X183270997Y-180685528D02*
X183270997Y-179899814D01*
X183270997Y-179899814D02*
X183199568Y-179756957D01*
X183199568Y-179756957D02*
X183056711Y-179685528D01*
X183056711Y-179685528D02*
X182770997Y-179685528D01*
X182770997Y-179685528D02*
X182628139Y-179756957D01*
X183270997Y-180614100D02*
X183128139Y-180685528D01*
X183128139Y-180685528D02*
X182770997Y-180685528D01*
X182770997Y-180685528D02*
X182628139Y-180614100D01*
X182628139Y-180614100D02*
X182556711Y-180471242D01*
X182556711Y-180471242D02*
X182556711Y-180328385D01*
X182556711Y-180328385D02*
X182628139Y-180185528D01*
X182628139Y-180185528D02*
X182770997Y-180114100D01*
X182770997Y-180114100D02*
X183128139Y-180114100D01*
X183128139Y-180114100D02*
X183270997Y-180042671D01*
X184913854Y-179185528D02*
X185770997Y-179185528D01*
X185342425Y-180685528D02*
X185342425Y-179185528D01*
X186270996Y-180542671D02*
X186342425Y-180614100D01*
X186342425Y-180614100D02*
X186270996Y-180685528D01*
X186270996Y-180685528D02*
X186199568Y-180614100D01*
X186199568Y-180614100D02*
X186270996Y-180542671D01*
X186270996Y-180542671D02*
X186270996Y-180685528D01*
D10*
D11*
X197002200Y-191507200D02*
X197002200Y-194507200D01*
D10*
D11*
X261002200Y-191507200D02*
X261002200Y-198007200D01*
D12*
G36*
X166667Y-166667D02*
G01*
X-166667Y-166667D01*
X-166667Y166667D01*
X166667Y166667D01*
X166667Y-166667D01*
G37*
D14*
%TO.P,J1,1,Pin_1*%
%TO.N,+3.3V*%
X113900000Y-92225000D03*
D15*
%TO.P,J1,2,Pin_2*%
%TO.N,/SCL_EX*%
X113900000Y-93475000D03*
%TO.P,J1,3,Pin_3*%
%TO.N,/SDA_EX*%
X113900000Y-94725000D03*
%TO.P,J1,4,Pin_4*%
%TO.N,GND*%
X113900000Y-95975000D03*
%TD*%
D16*
%TO.P,U4,1,NET*%
%TO.N,unconnected-(U4-NET-Pad1)*%
X181870000Y-73905000D03*
%TO.P,U4,2,VCC*%
%TO.N,+4V*%
X179330000Y-73905000D03*
%TO.P,U4,3,RST*%
%TO.N,/SIM_RST*%
X176790000Y-73905000D03*
%TO.P,U4,4,RXD*%
%TO.N,Net-(U4-RXD)*%
X174250000Y-73905000D03*
%TO.P,U4,5,TXD*%
%TO.N,Net-(U4-TXD)*%
X171710000Y-73905000D03*
%TO.P,U4,6,GND*%
%TO.N,GND*%
X169170000Y-73905000D03*
%TO.P,U4,7,SPK-*%
%TO.N,unconnected-(U4-SPK--Pad7)*%
X166630000Y-95775000D03*
%TO.P,U4,8,SPK+*%
%TO.N,unconnected-(U4-SPK+-Pad8)*%
X169170000Y-95775000D03*
%TO.P,U4,9,MIC-*%
%TO.N,unconnected-(U4-MIC--Pad9)*%
X171710000Y-95775000D03*
%TO.P,U4,10,MIC+*%
%TO.N,unconnected-(U4-MIC+-Pad10)*%
X174250000Y-95775000D03*
%TO.P,U4,11,DTR*%
%TO.N,/SIM_SLP*%
X176790000Y-95775000D03*
%TO.P,U4,12,RING*%
%TO.N,/SIM_ISR*%
X179330000Y-95775000D03*
%TD*%
D14*
%TO.P,J6,1,Pin_1*%
%TO.N,+3.3V*%
X119250000Y-90975000D03*
D15*
%TO.P,J6,2,Pin_2*%
%TO.N,/CS_EX*%
X119250000Y-92225000D03*
%TO.P,J6,3,Pin_3*%
%TO.N,/SCK_EX*%
X119250000Y-93475000D03*
%TO.P,J6,4,Pin_4*%
%TO.N,/MISO_EX*%
X119250000Y-94725000D03*
%TO.P,J6,5,Pin_5*%
%TO.N,/MOSI_EX*%
X119250000Y-95975000D03*
%TO.P,J6,6,Pin_6*%
%TO.N,GND*%
X119250000Y-97225000D03*
%TD*%
D14*
%TO.P,J7,1,Pin_1*%
%TO.N,/EHUM_PWR*%
X108400000Y-92850000D03*
D15*
%TO.P,J7,2,Pin_2*%
%TO.N,/AN_E_HUM*%
X108400000Y-94100000D03*
%TO.P,J7,3,Pin_3*%
%TO.N,GND*%
X108400000Y-95350000D03*
%TD*%
D17*
%TO.P,J2,1,Pin_1*%
%TO.N,+3.3V*%
X144650000Y-72846319D03*
D18*
%TO.P,J2,2,Pin_2*%
%TO.N,Net-(J2-Pin_2)*%
X144650000Y-70306319D03*
%TD*%
D19*
%TO.P,BT1,N*%
%TO.N,GND*%
X190462888Y-77000000D03*
%TO.P,BT1,P*%
%TO.N,+Vbat*%
X111122888Y-77000000D03*
%TD*%
D20*
%TO.N,GND*%
X161028680Y-84171319D03*
X183378680Y-72371319D03*
X135228680Y-74871319D03*
X194078680Y-90621319D03*
X179278680Y-86271319D03*
X164778680Y-70271319D03*
X183378680Y-75021319D03*
X152578680Y-85321319D03*
D21*
X141928680Y-69071319D03*
D20*
X163328680Y-78971319D03*
X127478680Y-89871319D03*
X146178680Y-75721319D03*
X115228680Y-98671319D03*
X109728680Y-82571319D03*
X157078680Y-85671319D03*
X180728680Y-86271319D03*
X185878680Y-74109304D03*
X129878680Y-66971319D03*
X115328680Y-91371319D03*
X172728680Y-83171319D03*
X192628680Y-79321319D03*
X153278680Y-82471319D03*
X157428680Y-73646319D03*
X189407108Y-74771319D03*
X126378680Y-79871319D03*
X182178680Y-86271319D03*
X189442892Y-76571319D03*
X190450004Y-75671319D03*
X130528680Y-88821319D03*
X162228680Y-97271319D03*
X175628680Y-83171319D03*
X194078680Y-93421319D03*
X159678680Y-75471319D03*
X157428680Y-76196319D03*
X106828680Y-82571319D03*
X108278680Y-83871319D03*
X183378680Y-74137985D03*
X131178680Y-72971319D03*
X120728680Y-97221319D03*
X182928680Y-82221319D03*
X114728680Y-67821319D03*
X112328680Y-98671319D03*
X170578680Y-89921319D03*
X121778680Y-70721319D03*
X177728680Y-86271319D03*
X110878680Y-89171319D03*
X187300000Y-76571319D03*
X174828680Y-86271319D03*
X127628680Y-69371319D03*
X135228680Y-77871319D03*
X157978680Y-83271319D03*
X175478680Y-71571319D03*
X110378680Y-67821319D03*
X122978680Y-82421319D03*
X135228680Y-80221319D03*
D21*
X141978680Y-73771319D03*
D20*
X185878680Y-71475971D03*
X164478680Y-73671319D03*
X191585784Y-76571319D03*
X183207360Y-67492638D03*
X193692896Y-74771319D03*
X161678680Y-87221319D03*
X111578680Y-85621319D03*
X194078680Y-86271319D03*
X150278680Y-71521319D03*
X183378680Y-71504652D03*
X192592896Y-75671319D03*
X119778680Y-72371319D03*
X159328680Y-97271319D03*
X121428680Y-86571319D03*
X109428680Y-98671319D03*
X167978680Y-88671319D03*
X191550000Y-74771319D03*
X125078680Y-79850000D03*
X184707360Y-66692638D03*
X191585784Y-78421319D03*
X132628680Y-66971319D03*
X153328680Y-71571319D03*
X116178680Y-67821319D03*
X144128680Y-85071319D03*
X177628680Y-70671319D03*
X160778680Y-97271319D03*
X185878680Y-72342638D03*
X190485788Y-77471319D03*
X186228680Y-92321319D03*
X115328680Y-85671319D03*
X150292892Y-91548529D03*
X188342896Y-79321319D03*
X187300000Y-78421319D03*
X113778680Y-98671319D03*
X194078680Y-89171319D03*
X143278680Y-75721319D03*
X174178680Y-83171319D03*
X181807360Y-69492638D03*
X192628680Y-77471319D03*
X117628680Y-67821319D03*
X187507360Y-69492638D03*
X194078680Y-92071319D03*
X150724999Y-90150000D03*
X181478680Y-82221319D03*
X194078680Y-94871319D03*
X166128680Y-88671319D03*
X175428680Y-68471319D03*
X194078680Y-84821319D03*
X194078680Y-87721319D03*
X182628680Y-79621319D03*
X133728680Y-91521319D03*
X146449391Y-89192030D03*
X148748680Y-86951319D03*
X127628680Y-98571319D03*
X135228680Y-69471319D03*
X108978680Y-67821319D03*
X135228680Y-81771319D03*
X116678680Y-96121319D03*
X158728680Y-69471319D03*
X107528680Y-67821319D03*
X113278680Y-67821319D03*
X111828680Y-67821319D03*
X163278680Y-85971319D03*
X154976688Y-90721319D03*
X149228680Y-84071319D03*
X110878680Y-98671319D03*
X193728680Y-76571319D03*
X119778680Y-80671319D03*
X186157360Y-67442638D03*
X180028680Y-82221319D03*
X178528680Y-89021319D03*
X135228680Y-76321319D03*
X106828680Y-83871319D03*
X179578680Y-90021319D03*
X155178680Y-78171319D03*
X189442892Y-78421319D03*
X108278680Y-82571319D03*
X166328680Y-73671319D03*
X190485788Y-79321319D03*
X185878680Y-74992638D03*
X135228680Y-72221319D03*
X132028680Y-88821319D03*
X127228680Y-82221319D03*
X184628680Y-89721319D03*
X123728680Y-69971319D03*
X106828680Y-85321319D03*
X176278680Y-86271319D03*
X146828680Y-71521319D03*
X194078680Y-96321319D03*
X133878680Y-98571319D03*
X188342896Y-77471319D03*
X143028680Y-84071319D03*
X188307112Y-75671319D03*
X175628680Y-80121319D03*
X138428680Y-70849999D03*
X185878680Y-73225971D03*
X144728680Y-75721319D03*
X187264216Y-74771319D03*
X111078680Y-95821319D03*
X131178680Y-66971319D03*
X135228680Y-73571319D03*
X183378680Y-73254652D03*
X135228680Y-70771319D03*
X193728680Y-78421319D03*
%TO.N,/NRST*%
X150978680Y-88871319D03*
X150128680Y-77421319D03*
%TO.N,+3.3V*%
X148128680Y-76421319D03*
X145853680Y-80896318D03*
X167578680Y-76471319D03*
X156603680Y-77146319D03*
X132628680Y-79021319D03*
%TO.N,/BOOST_EN*%
X154428680Y-87371319D03*
X125028680Y-67221319D03*
%TO.N,+Vbat*%
X111085788Y-79171319D03*
X112185784Y-78271319D03*
X113228680Y-77321319D03*
X110042892Y-78271319D03*
X110042892Y-76421319D03*
X111085788Y-77321319D03*
X113228680Y-79171319D03*
X108942896Y-77321319D03*
X110007108Y-74621319D03*
X114328680Y-76421319D03*
X113192896Y-75521319D03*
X108907112Y-75521319D03*
X114292896Y-74621319D03*
X108942896Y-79171319D03*
X112185784Y-76421319D03*
X112150000Y-74621319D03*
X114328680Y-78271319D03*
X107900000Y-78271319D03*
X111050004Y-75521319D03*
X107864216Y-74621319D03*
X107900000Y-76421319D03*
%TO.N,/SCK*%
X171628680Y-89821319D03*
X176578680Y-90421319D03*
%TO.N,/NSS*%
X178628680Y-90471319D03*
X169778680Y-89171319D03*
%TO.N,/DIO1*%
X172628680Y-79021319D03*
X155000087Y-80449911D03*
%TO.N,/DIO0*%
X174628680Y-79071319D03*
X155528680Y-81071319D03*
%TO.N,/AN_BAT*%
X127828680Y-77321319D03*
X152298680Y-93621319D03*
%TO.N,/SIM_SLP*%
X151708400Y-83274696D03*
%TO.N,/SIM_ISR*%
X152240498Y-82774136D03*
%TO.N,/AN_E_HUM*%
X153428680Y-92071319D03*
X139575862Y-84068501D03*
%TO.N,/DIO2*%
X159731098Y-78863266D03*
X170578680Y-79071319D03*
%TO.N,/DIO3*%
X180628680Y-79271319D03*
X156628680Y-82271319D03*
%TO.N,/DIO4*%
X178578680Y-79171319D03*
X156128680Y-81671319D03*
%TO.N,/DIO5*%
X182628680Y-94071319D03*
D21*
X159579289Y-88175735D03*
%TO.N,/EHUM_PWR*%
X108028680Y-87621319D03*
X156978680Y-90471319D03*
D20*
%TO.N,/D_VBAT_EN*%
X122768680Y-77471319D03*
X155878680Y-90221319D03*
%TD*%
D22*
%TO.N,/NRST*%
X150128680Y-77421319D02*
X150978680Y-78271319D01*
X150978680Y-78271319D02*
X150978680Y-88871319D01*
%TO.N,+3.3V*%
X148603680Y-72846319D02*
X144650000Y-72846319D01*
X145853680Y-80896318D02*
X148128680Y-78621319D01*
X156603680Y-77146319D02*
X156578680Y-77171319D01*
X156628680Y-77171319D02*
X156603680Y-77146319D01*
X167578680Y-76471319D02*
X166878680Y-77171319D01*
D23*
X135378680Y-79021319D02*
X141553680Y-72846319D01*
D22*
X166878680Y-77171319D02*
X156628680Y-77171319D01*
X152928680Y-77171319D02*
X150078680Y-74321319D01*
X156578680Y-77171319D02*
X152928680Y-77171319D01*
D23*
X141553680Y-72846319D02*
X144650000Y-72846319D01*
D22*
X148128680Y-78621319D02*
X148128680Y-76421319D01*
X150078680Y-74321319D02*
X148603680Y-72846319D01*
X150078680Y-74471319D02*
X150078680Y-74321319D01*
X148128680Y-76421319D02*
X150078680Y-74471319D01*
D23*
X132628680Y-79021319D02*
X135378680Y-79021319D01*
D22*
%TO.N,/BOOST_EN*%
X125028680Y-73571319D02*
X125028680Y-67221319D01*
X151049999Y-90750000D02*
X147158832Y-90750000D01*
X139430151Y-83021319D02*
X134478680Y-83021319D01*
X154428680Y-87371319D02*
X151049999Y-90750000D01*
X134478680Y-83021319D02*
X125028680Y-73571319D01*
X147158832Y-90750000D02*
X139430151Y-83021319D01*
%TO.N,/SCK*%
X175978680Y-89821319D02*
X176578680Y-90421319D01*
X171628680Y-89821319D02*
X175978680Y-89821319D01*
%TO.N,/NSS*%
X169778680Y-89171319D02*
X177328680Y-89171319D01*
X177328680Y-89171319D02*
X178628680Y-90471319D01*
%TO.N,/DIO1*%
X172628680Y-79021319D02*
X171178680Y-80471319D01*
X171178680Y-80471319D02*
X155021495Y-80471319D01*
X155021495Y-80471319D02*
X155000087Y-80449911D01*
%TO.N,/DIO0*%
X172628680Y-81071319D02*
X155528680Y-81071319D01*
X174628680Y-79071319D02*
X172628680Y-81071319D01*
%TO.N,/AN_BAT*%
X127828680Y-77321319D02*
X134178680Y-83671319D01*
X148128680Y-93621319D02*
X152298680Y-93621319D01*
X138178680Y-83671319D02*
X148128680Y-93621319D01*
X134178680Y-83671319D02*
X138178680Y-83671319D01*
%TO.N,/SIM_SLP*%
X151708400Y-83274696D02*
X151732057Y-83274696D01*
X162628680Y-94171319D02*
X175186319Y-94171319D01*
X151732057Y-83274696D02*
X162628680Y-94171319D01*
X175186319Y-94171319D02*
X176790000Y-95775000D01*
%TO.N,/SIM_ISR*%
X177026319Y-93471319D02*
X179330000Y-95775000D01*
X152240498Y-82774136D02*
X152240498Y-82783137D01*
X152240498Y-82783137D02*
X162928680Y-93471319D01*
X162928680Y-93471319D02*
X177026319Y-93471319D01*
%TO.N,/AN_E_HUM*%
X152638680Y-92861319D02*
X148368680Y-92861319D01*
X148368680Y-92861319D02*
X139575862Y-84068501D01*
X153428680Y-92071319D02*
X152638680Y-92861319D01*
%TO.N,/DIO2*%
X159731098Y-78863266D02*
X160839151Y-79971319D01*
X169678680Y-79971319D02*
X170578680Y-79071319D01*
X160839151Y-79971319D02*
X169678680Y-79971319D01*
%TO.N,/DIO3*%
X180628680Y-79271319D02*
X177628680Y-82271319D01*
X177628680Y-82271319D02*
X156628680Y-82271319D01*
%TO.N,/DIO4*%
X176078680Y-81671319D02*
X156128680Y-81671319D01*
X178578680Y-79171319D02*
X176078680Y-81671319D01*
%TO.N,/DIO5*%
X164078680Y-92671319D02*
X159583096Y-88175735D01*
X182628680Y-94071319D02*
X181228680Y-92671319D01*
X181228680Y-92671319D02*
X164078680Y-92671319D01*
X159583096Y-88175735D02*
X159579289Y-88175735D01*
%TO.N,/EHUM_PWR*%
X147748680Y-95091319D02*
X152962940Y-95091319D01*
X152962940Y-95091319D02*
X156978680Y-91075579D01*
X108028680Y-87621319D02*
X140278680Y-87621319D01*
X156978680Y-91075579D02*
X156978680Y-90471319D01*
X140278680Y-87621319D02*
X147748680Y-95091319D01*
%TO.N,/D_VBAT_EN*%
X152828680Y-94371319D02*
X155878680Y-91321319D01*
X137778680Y-84272319D02*
X147877680Y-94371319D01*
X155878680Y-91321319D02*
X155878680Y-90221319D01*
X147877680Y-94371319D02*
X152828680Y-94371319D01*
X133829680Y-84272319D02*
X137778680Y-84272319D01*
X127028680Y-77471319D02*
X133829680Y-84272319D01*
X122768680Y-77471319D02*
X127028680Y-77471319D01*
%TD*%
%TA.AperFunction,Conductor*%
%TO.N,GND*%
G36*
X192704197Y-66200753D02*
G01*
X192800426Y-66206573D01*
X192992887Y-66218215D01*
X193009548Y-66220238D01*
X193014896Y-66221218D01*
X193289906Y-66271615D01*
X193306187Y-66275628D01*
X193578318Y-66360427D01*
X193593987Y-66366370D01*
X193853904Y-66483349D01*
X193868765Y-66491149D01*
X194065708Y-66610204D01*
X194112677Y-66638598D01*
X194112681Y-66638600D01*
X194126496Y-66648136D01*
X194350857Y-66823912D01*
X194363421Y-66835042D01*
X194564961Y-67036582D01*
X194576091Y-67049146D01*
X194751859Y-67273497D01*
X194761395Y-67287311D01*
X194908850Y-67531232D01*
X194916649Y-67546093D01*
X195033625Y-67806003D01*
X195039575Y-67821691D01*
X195124368Y-68093801D01*
X195128385Y-68110099D01*
X195179761Y-68390450D01*
X195181784Y-68407112D01*
X195199246Y-68695783D01*
X195199500Y-68704176D01*
X195199500Y-96695805D01*
X195199246Y-96704198D01*
X195181783Y-96992886D01*
X195179760Y-97009548D01*
X195128384Y-97289899D01*
X195124367Y-97306197D01*
X195039574Y-97578307D01*
X195033622Y-97594001D01*
X194916647Y-97853909D01*
X194908846Y-97868772D01*
X194761401Y-98112675D01*
X194751867Y-98126489D01*
X194576087Y-98350857D01*
X194564956Y-98363421D01*
X194363417Y-98564960D01*
X194350862Y-98576082D01*
X194182791Y-98707759D01*
X194126501Y-98751859D01*
X194112687Y-98761394D01*
X193868766Y-98908849D01*
X193853904Y-98916649D01*
X193594003Y-99033622D01*
X193578308Y-99039574D01*
X193306196Y-99124367D01*
X193289899Y-99128384D01*
X193009550Y-99179760D01*
X192992887Y-99181783D01*
X192704216Y-99199245D01*
X192695823Y-99199499D01*
X139207805Y-99199499D01*
X139192243Y-99198625D01*
X139181161Y-99197376D01*
X139104415Y-99188729D01*
X139074069Y-99181803D01*
X138998056Y-99155205D01*
X138970012Y-99141699D01*
X138901825Y-99098854D01*
X138877494Y-99079451D01*
X138820546Y-99022502D01*
X138801144Y-98998172D01*
X138801143Y-98998171D01*
X138758299Y-98929985D01*
X138744795Y-98901943D01*
X138718196Y-98825928D01*
X138711270Y-98795581D01*
X138701374Y-98707745D01*
X138700500Y-98692183D01*
X138700500Y-96378707D01*
X139378180Y-96378707D01*
X139378180Y-96621292D01*
X139403929Y-96816875D01*
X139409842Y-96861789D01*
X139449434Y-97009548D01*
X139472628Y-97096106D01*
X139565453Y-97320207D01*
X139565459Y-97320219D01*
X139686741Y-97530285D01*
X139686743Y-97530288D01*
X139834411Y-97722733D01*
X139834415Y-97722738D01*
X140005942Y-97894265D01*
X140005946Y-97894268D01*
X140198391Y-98041936D01*
X140198394Y-98041938D01*
X140408460Y-98163220D01*
X140408472Y-98163226D01*
X140581802Y-98235021D01*
X140632580Y-98256054D01*
X140866891Y-98318838D01*
X141107392Y-98350500D01*
X141107397Y-98350500D01*
X141349963Y-98350500D01*
X141349968Y-98350500D01*
X141590469Y-98318838D01*
X141824780Y-98256054D01*
X142048892Y-98163224D01*
X142258969Y-98041936D01*
X142451418Y-97894265D01*
X142622945Y-97722738D01*
X142770616Y-97530289D01*
X142891904Y-97320212D01*
X142984734Y-97096100D01*
X143047518Y-96861789D01*
X143079180Y-96621288D01*
X143079180Y-96378712D01*
X143047518Y-96138211D01*
X142984734Y-95903900D01*
X142941692Y-95799986D01*
X142891906Y-95679792D01*
X142891900Y-95679780D01*
X142770618Y-95469714D01*
X142770616Y-95469711D01*
X142622948Y-95277266D01*
X142622945Y-95277262D01*
X142451418Y-95105735D01*
X142443944Y-95100000D01*
X142258968Y-94958063D01*
X142258965Y-94958061D01*
X142048899Y-94836779D01*
X142048887Y-94836773D01*
X141824786Y-94743948D01*
X141824782Y-94743947D01*
X141824780Y-94743946D01*
X141590469Y-94681162D01*
X141590468Y-94681161D01*
X141590465Y-94681161D01*
X141349972Y-94649500D01*
X141349968Y-94649500D01*
X141107392Y-94649500D01*
X141107387Y-94649500D01*
X140866894Y-94681161D01*
X140632573Y-94743948D01*
X140408472Y-94836773D01*
X140408460Y-94836779D01*
X140198394Y-94958061D01*
X140198391Y-94958063D01*
X140005946Y-95105731D01*
X139834411Y-95277266D01*
X139686743Y-95469711D01*
X139686741Y-95469714D01*
X139565459Y-95679780D01*
X139565453Y-95679792D01*
X139472628Y-95903893D01*
X139409841Y-96138214D01*
X139378180Y-96378707D01*
X138700500Y-96378707D01*
X138700500Y-90757575D01*
X138700501Y-90757571D01*
X138700501Y-90592677D01*
X138669956Y-90380237D01*
X138669955Y-90380230D01*
X138609485Y-90174288D01*
X138520322Y-89979049D01*
X138520237Y-89978917D01*
X138404283Y-89798489D01*
X138404277Y-89798481D01*
X138263724Y-89636275D01*
X138263723Y-89636274D01*
X138101517Y-89495721D01*
X138101509Y-89495715D01*
X137920951Y-89379677D01*
X137920947Y-89379675D01*
X137725714Y-89290516D01*
X137725711Y-89290515D01*
X137519769Y-89230045D01*
X137519766Y-89230044D01*
X137519761Y-89230043D01*
X137307321Y-89199499D01*
X137307318Y-89199499D01*
X137265892Y-89199499D01*
X136134108Y-89199499D01*
X136125592Y-89199499D01*
X136125576Y-89199500D01*
X136092679Y-89199500D01*
X135880237Y-89230044D01*
X135674288Y-89290515D01*
X135479052Y-89379676D01*
X135479048Y-89379678D01*
X135298490Y-89495716D01*
X135298482Y-89495722D01*
X135136277Y-89636274D01*
X135136275Y-89636276D01*
X134995723Y-89798481D01*
X134995717Y-89798489D01*
X134879682Y-89979042D01*
X134879680Y-89979046D01*
X134790516Y-90174287D01*
X134730044Y-90380237D01*
X134699500Y-90592677D01*
X134699500Y-98692195D01*
X134698626Y-98707759D01*
X134688730Y-98795585D01*
X134681804Y-98825930D01*
X134655206Y-98901943D01*
X134641701Y-98929987D01*
X134598858Y-98998171D01*
X134579451Y-99022506D01*
X134522506Y-99079451D01*
X134498170Y-99098858D01*
X134429985Y-99141701D01*
X134401942Y-99155206D01*
X134325932Y-99181803D01*
X134295588Y-99188729D01*
X134233156Y-99195763D01*
X134207764Y-99198625D01*
X134192202Y-99199499D01*
X127207805Y-99199499D01*
X127192243Y-99198625D01*
X127181161Y-99197376D01*
X127104415Y-99188729D01*
X127074069Y-99181803D01*
X126998056Y-99155205D01*
X126970012Y-99141699D01*
X126901825Y-99098854D01*
X126877494Y-99079451D01*
X126820546Y-99022502D01*
X126801144Y-98998172D01*
X126801143Y-98998171D01*
X126758299Y-98929985D01*
X126744795Y-98901943D01*
X126718196Y-98825928D01*
X126711270Y-98795581D01*
X126701374Y-98707745D01*
X126700500Y-98692183D01*
X126700500Y-90757575D01*
X126700501Y-90757571D01*
X126700501Y-90592677D01*
X126669956Y-90380237D01*
X126669955Y-90380230D01*
X126609485Y-90174288D01*
X126520322Y-89979049D01*
X126520237Y-89978917D01*
X126404283Y-89798489D01*
X126404277Y-89798481D01*
X126263724Y-89636275D01*
X126263723Y-89636274D01*
X126101517Y-89495721D01*
X126101509Y-89495715D01*
X125920951Y-89379677D01*
X125920947Y-89379675D01*
X125725714Y-89290516D01*
X125725711Y-89290515D01*
X125519769Y-89230045D01*
X125519766Y-89230044D01*
X125519761Y-89230043D01*
X125307321Y-89199499D01*
X125307318Y-89199499D01*
X125265892Y-89199499D01*
X124134108Y-89199499D01*
X124125592Y-89199499D01*
X124125576Y-89199500D01*
X124092679Y-89199500D01*
X123880237Y-89230044D01*
X123674288Y-89290515D01*
X123479052Y-89379676D01*
X123479048Y-89379678D01*
X123298490Y-89495716D01*
X123298482Y-89495722D01*
X123136277Y-89636274D01*
X123136275Y-89636276D01*
X122995723Y-89798481D01*
X122995717Y-89798489D01*
X122879682Y-89979042D01*
X122879680Y-89979046D01*
X122790516Y-90174287D01*
X122730044Y-90380237D01*
X122699500Y-90592677D01*
X122699500Y-98692195D01*
X122698626Y-98707759D01*
X122688730Y-98795585D01*
X122681804Y-98825930D01*
X122655206Y-98901943D01*
X122641701Y-98929987D01*
X122598858Y-98998171D01*
X122579451Y-99022506D01*
X122522506Y-99079451D01*
X122498170Y-99098858D01*
X122429985Y-99141701D01*
X122401942Y-99155206D01*
X122325932Y-99181803D01*
X122295588Y-99188729D01*
X122233156Y-99195763D01*
X122207764Y-99198625D01*
X122192202Y-99199499D01*
X108704194Y-99199499D01*
X108695801Y-99199245D01*
X108407113Y-99181782D01*
X108390451Y-99179759D01*
X108110100Y-99128383D01*
X108093802Y-99124366D01*
X107821694Y-99039574D01*
X107805999Y-99033622D01*
X107781300Y-99022506D01*
X107546093Y-98916647D01*
X107531231Y-98908847D01*
X107492420Y-98885385D01*
X107287311Y-98761393D01*
X107273503Y-98751861D01*
X107049142Y-98576085D01*
X107036578Y-98564955D01*
X106973409Y-98501786D01*
X106835031Y-98363407D01*
X106823925Y-98350871D01*
X106648132Y-98126489D01*
X106638605Y-98112686D01*
X106491150Y-97868766D01*
X106483350Y-97853903D01*
X106366374Y-97593992D01*
X106360431Y-97578322D01*
X106328234Y-97475000D01*
X118081116Y-97475000D01*
X118086507Y-97502103D01*
X118086508Y-97502107D01*
X118158117Y-97674986D01*
X118158124Y-97674999D01*
X118262085Y-97830587D01*
X118394412Y-97962914D01*
X118550000Y-98066875D01*
X118550013Y-98066882D01*
X118722895Y-98138492D01*
X118722899Y-98138493D01*
X118906434Y-98175000D01*
X119000000Y-98175000D01*
X119500000Y-98175000D01*
X119593566Y-98175000D01*
X119777100Y-98138493D01*
X119777104Y-98138492D01*
X119949986Y-98066882D01*
X119949999Y-98066875D01*
X120105587Y-97962914D01*
X120237914Y-97830587D01*
X120341875Y-97674999D01*
X120341882Y-97674986D01*
X120413491Y-97502107D01*
X120413492Y-97502103D01*
X120418884Y-97475000D01*
X119500000Y-97475000D01*
X119500000Y-98175000D01*
X119000000Y-98175000D01*
X119000000Y-97475000D01*
X118081116Y-97475000D01*
X106328234Y-97475000D01*
X106275630Y-97306187D01*
X106271616Y-97289899D01*
X106220240Y-97009548D01*
X106218217Y-96992885D01*
X106217736Y-96984940D01*
X106217135Y-96975000D01*
X118081115Y-96975000D01*
X119083012Y-96975000D01*
X119065795Y-96984940D01*
X119009940Y-97040795D01*
X118970444Y-97109204D01*
X118950000Y-97185504D01*
X118950000Y-97264496D01*
X118970444Y-97340796D01*
X119009940Y-97409205D01*
X119065795Y-97465060D01*
X119134204Y-97504556D01*
X119210504Y-97525000D01*
X119289496Y-97525000D01*
X119365796Y-97504556D01*
X119434205Y-97465060D01*
X119490060Y-97409205D01*
X119529556Y-97340796D01*
X119550000Y-97264496D01*
X119550000Y-97185504D01*
X119529556Y-97109204D01*
X119490060Y-97040795D01*
X119434205Y-96984940D01*
X119416988Y-96975000D01*
X120418884Y-96975000D01*
X120413492Y-96947896D01*
X120413491Y-96947892D01*
X120341882Y-96775013D01*
X120341875Y-96775000D01*
X120237914Y-96619412D01*
X120159194Y-96540692D01*
X120123218Y-96478380D01*
X120123218Y-96406428D01*
X120141906Y-96365183D01*
X120165084Y-96330495D01*
X120221658Y-96193913D01*
X120250500Y-96048918D01*
X120250500Y-95901082D01*
X120221658Y-95756087D01*
X120165084Y-95619505D01*
X120082951Y-95496584D01*
X120034652Y-95448285D01*
X119998678Y-95385976D01*
X119998678Y-95314024D01*
X120034652Y-95251714D01*
X120082951Y-95203416D01*
X120165084Y-95080495D01*
X120221658Y-94943913D01*
X120250500Y-94798918D01*
X120250500Y-94651082D01*
X120221658Y-94506087D01*
X120165084Y-94369505D01*
X120082951Y-94246584D01*
X120034652Y-94198285D01*
X119998678Y-94135976D01*
X119998678Y-94064024D01*
X120034652Y-94001714D01*
X120082951Y-93953416D01*
X120165084Y-93830495D01*
X120221658Y-93693913D01*
X120250500Y-93548918D01*
X120250500Y-93401082D01*
X120221658Y-93256087D01*
X120168004Y-93126555D01*
X120165087Y-93119512D01*
X120165086Y-93119511D01*
X120165084Y-93119505D01*
X120082951Y-92996584D01*
X120034652Y-92948285D01*
X119998678Y-92885976D01*
X119998678Y-92814024D01*
X120034652Y-92751714D01*
X120082951Y-92703416D01*
X120165084Y-92580495D01*
X120221658Y-92443913D01*
X120250500Y-92298918D01*
X120250500Y-92151082D01*
X120221658Y-92006087D01*
X120165084Y-91869505D01*
X120084490Y-91748888D01*
X120061364Y-91680755D01*
X120075401Y-91610186D01*
X120094850Y-91583046D01*
X120094333Y-91582654D01*
X120141224Y-91520819D01*
X120187364Y-91459975D01*
X120240359Y-91325590D01*
X120250500Y-91241144D01*
X120250500Y-90708856D01*
X120247492Y-90683804D01*
X120240360Y-90624414D01*
X120240359Y-90624412D01*
X120240359Y-90624410D01*
X120187364Y-90490025D01*
X120100078Y-90374922D01*
X120065690Y-90348844D01*
X119984974Y-90287635D01*
X119889451Y-90249966D01*
X119850590Y-90234641D01*
X119850588Y-90234640D01*
X119850584Y-90234639D01*
X119850586Y-90234639D01*
X119766151Y-90224500D01*
X119766144Y-90224500D01*
X118733856Y-90224500D01*
X118733848Y-90224500D01*
X118649414Y-90234639D01*
X118515025Y-90287635D01*
X118399922Y-90374921D01*
X118399921Y-90374922D01*
X118312635Y-90490025D01*
X118259639Y-90624414D01*
X118249500Y-90708848D01*
X118249500Y-91241151D01*
X118259639Y-91325585D01*
X118312635Y-91459974D01*
X118405667Y-91582654D01*
X118404213Y-91583756D01*
X118434197Y-91635689D01*
X118434197Y-91707641D01*
X118415508Y-91748888D01*
X118334918Y-91869501D01*
X118334912Y-91869512D01*
X118278341Y-92006087D01*
X118278341Y-92006089D01*
X118249500Y-92151082D01*
X118249500Y-92298917D01*
X118278341Y-92443910D01*
X118278341Y-92443912D01*
X118334912Y-92580487D01*
X118334914Y-92580490D01*
X118334916Y-92580495D01*
X118417049Y-92703416D01*
X118465347Y-92751714D01*
X118501322Y-92814024D01*
X118501322Y-92885976D01*
X118465347Y-92948285D01*
X118433526Y-92980107D01*
X118417047Y-92996586D01*
X118334915Y-93119507D01*
X118334912Y-93119512D01*
X118278341Y-93256087D01*
X118278341Y-93256089D01*
X118249500Y-93401082D01*
X118249500Y-93548918D01*
X118256208Y-93582641D01*
X118278341Y-93693910D01*
X118278341Y-93693912D01*
X118334912Y-93830487D01*
X118334914Y-93830490D01*
X118334916Y-93830495D01*
X118417049Y-93953416D01*
X118465347Y-94001714D01*
X118501322Y-94064024D01*
X118501322Y-94135976D01*
X118465347Y-94198285D01*
X118417049Y-94246584D01*
X118417047Y-94246586D01*
X118334915Y-94369507D01*
X118334912Y-94369512D01*
X118278341Y-94506087D01*
X118278341Y-94506089D01*
X118249500Y-94651082D01*
X118249500Y-94798917D01*
X118278341Y-94943910D01*
X118278341Y-94943912D01*
X118334912Y-95080487D01*
X118334914Y-95080490D01*
X118334916Y-95080495D01*
X118417049Y-95203416D01*
X118465347Y-95251714D01*
X118501322Y-95314024D01*
X118501322Y-95385976D01*
X118465347Y-95448285D01*
X118438136Y-95475497D01*
X118417047Y-95496586D01*
X118386824Y-95541819D01*
X118354591Y-95590060D01*
X118334915Y-95619507D01*
X118334912Y-95619512D01*
X118278341Y-95756087D01*
X118278341Y-95756089D01*
X118249500Y-95901082D01*
X118249500Y-96048917D01*
X118278341Y-96193910D01*
X118278341Y-96193912D01*
X118334912Y-96330487D01*
X118334918Y-96330498D01*
X118358092Y-96365181D01*
X118381219Y-96433315D01*
X118367182Y-96503884D01*
X118340805Y-96540691D01*
X118262089Y-96619407D01*
X118262085Y-96619412D01*
X118158124Y-96775000D01*
X118158117Y-96775013D01*
X118086508Y-96947892D01*
X118086507Y-96947896D01*
X118081115Y-96975000D01*
X106217135Y-96975000D01*
X106210903Y-96871967D01*
X106200754Y-96704171D01*
X106200500Y-96695779D01*
X106200500Y-95600000D01*
X107231116Y-95600000D01*
X107236507Y-95627103D01*
X107236508Y-95627107D01*
X107308117Y-95799986D01*
X107308124Y-95799999D01*
X107412085Y-95955587D01*
X107544412Y-96087914D01*
X107700000Y-96191875D01*
X107700013Y-96191882D01*
X107872895Y-96263492D01*
X107872899Y-96263493D01*
X108056434Y-96300000D01*
X108150000Y-96300000D01*
X108650000Y-96300000D01*
X108743566Y-96300000D01*
X108927100Y-96263493D01*
X108927104Y-96263492D01*
X109020032Y-96225000D01*
X112731116Y-96225000D01*
X112736507Y-96252103D01*
X112736508Y-96252107D01*
X112808117Y-96424986D01*
X112808124Y-96424999D01*
X112912085Y-96580587D01*
X113044412Y-96712914D01*
X113200000Y-96816875D01*
X113200013Y-96816882D01*
X113372895Y-96888492D01*
X113372899Y-96888493D01*
X113556434Y-96925000D01*
X113650000Y-96925000D01*
X114150000Y-96925000D01*
X114243566Y-96925000D01*
X114427100Y-96888493D01*
X114427103Y-96888492D01*
X114438094Y-96883940D01*
X114438094Y-96883939D01*
X114599986Y-96816882D01*
X114599999Y-96816875D01*
X114755587Y-96712914D01*
X114887914Y-96580587D01*
X114991875Y-96424999D01*
X114991882Y-96424986D01*
X115063491Y-96252107D01*
X115063492Y-96252103D01*
X115068884Y-96225000D01*
X114150000Y-96225000D01*
X114150000Y-96925000D01*
X113650000Y-96925000D01*
X113650000Y-96225000D01*
X112731116Y-96225000D01*
X109020032Y-96225000D01*
X109099986Y-96191882D01*
X109099999Y-96191875D01*
X109255587Y-96087914D01*
X109387914Y-95955587D01*
X109491875Y-95799999D01*
X109491882Y-95799986D01*
X109522943Y-95725000D01*
X112731115Y-95725000D01*
X113733012Y-95725000D01*
X113715795Y-95734940D01*
X113659940Y-95790795D01*
X113620444Y-95859204D01*
X113600000Y-95935504D01*
X113600000Y-96014496D01*
X113620444Y-96090796D01*
X113659940Y-96159205D01*
X113715795Y-96215060D01*
X113784204Y-96254556D01*
X113860504Y-96275000D01*
X113939496Y-96275000D01*
X114015796Y-96254556D01*
X114084205Y-96215060D01*
X114140060Y-96159205D01*
X114179556Y-96090796D01*
X114200000Y-96014496D01*
X114200000Y-95935504D01*
X114179556Y-95859204D01*
X114140060Y-95790795D01*
X114084205Y-95734940D01*
X114066988Y-95725000D01*
X115068884Y-95725000D01*
X115063492Y-95697896D01*
X115063491Y-95697892D01*
X114991882Y-95525013D01*
X114991875Y-95525000D01*
X114887914Y-95369412D01*
X114809194Y-95290692D01*
X114773218Y-95228380D01*
X114773218Y-95156428D01*
X114791906Y-95115183D01*
X114815084Y-95080495D01*
X114871658Y-94943913D01*
X114900500Y-94798918D01*
X114900500Y-94651082D01*
X114871658Y-94506087D01*
X114815084Y-94369505D01*
X114732951Y-94246584D01*
X114684652Y-94198285D01*
X114648678Y-94135976D01*
X114648678Y-94064024D01*
X114684652Y-94001714D01*
X114732951Y-93953416D01*
X114815084Y-93830495D01*
X114871658Y-93693913D01*
X114900500Y-93548918D01*
X114900500Y-93401082D01*
X114871658Y-93256087D01*
X114818004Y-93126555D01*
X114815087Y-93119512D01*
X114815086Y-93119511D01*
X114815084Y-93119505D01*
X114734490Y-92998888D01*
X114711364Y-92930755D01*
X114725401Y-92860186D01*
X114744850Y-92833046D01*
X114744333Y-92832654D01*
X114795411Y-92765298D01*
X114837364Y-92709975D01*
X114890359Y-92575590D01*
X114900500Y-92491144D01*
X114900500Y-91958856D01*
X114898664Y-91943567D01*
X114890360Y-91874414D01*
X114890359Y-91874412D01*
X114890359Y-91874410D01*
X114837364Y-91740025D01*
X114750078Y-91624922D01*
X114684350Y-91575078D01*
X114634974Y-91537635D01*
X114551215Y-91504605D01*
X114500590Y-91484641D01*
X114500588Y-91484640D01*
X114500584Y-91484639D01*
X114500586Y-91484639D01*
X114416151Y-91474500D01*
X114416144Y-91474500D01*
X113383856Y-91474500D01*
X113383848Y-91474500D01*
X113299414Y-91484639D01*
X113165025Y-91537635D01*
X113049922Y-91624921D01*
X113049921Y-91624922D01*
X112962635Y-91740025D01*
X112909639Y-91874414D01*
X112899500Y-91958848D01*
X112899500Y-92491151D01*
X112909639Y-92575585D01*
X112962635Y-92709974D01*
X113055667Y-92832654D01*
X113054213Y-92833756D01*
X113084197Y-92885689D01*
X113084197Y-92957641D01*
X113065508Y-92998888D01*
X112984918Y-93119501D01*
X112984912Y-93119512D01*
X112928341Y-93256087D01*
X112928341Y-93256089D01*
X112899500Y-93401082D01*
X112899500Y-93548918D01*
X112906208Y-93582641D01*
X112928341Y-93693910D01*
X112928341Y-93693912D01*
X112984912Y-93830487D01*
X112984914Y-93830490D01*
X112984916Y-93830495D01*
X113067049Y-93953416D01*
X113115347Y-94001714D01*
X113151322Y-94064024D01*
X113151322Y-94135976D01*
X113115347Y-94198285D01*
X113067049Y-94246584D01*
X113067047Y-94246586D01*
X112984915Y-94369507D01*
X112984912Y-94369512D01*
X112928341Y-94506087D01*
X112928341Y-94506089D01*
X112899500Y-94651082D01*
X112899500Y-94798917D01*
X112928341Y-94943910D01*
X112928341Y-94943912D01*
X112984912Y-95080487D01*
X112984918Y-95080498D01*
X113008092Y-95115181D01*
X113031219Y-95183315D01*
X113017182Y-95253884D01*
X112990805Y-95290691D01*
X112912089Y-95369407D01*
X112912085Y-95369412D01*
X112808124Y-95525000D01*
X112808117Y-95525013D01*
X112736508Y-95697892D01*
X112736507Y-95697896D01*
X112731115Y-95725000D01*
X109522943Y-95725000D01*
X109529501Y-95709167D01*
X109563491Y-95627107D01*
X109563492Y-95627103D01*
X109568884Y-95600000D01*
X108650000Y-95600000D01*
X108650000Y-96300000D01*
X108150000Y-96300000D01*
X108150000Y-95600000D01*
X107231116Y-95600000D01*
X106200500Y-95600000D01*
X106200500Y-95100000D01*
X107231115Y-95100000D01*
X108233012Y-95100000D01*
X108215795Y-95109940D01*
X108159940Y-95165795D01*
X108120444Y-95234204D01*
X108100000Y-95310504D01*
X108100000Y-95389496D01*
X108120444Y-95465796D01*
X108159940Y-95534205D01*
X108215795Y-95590060D01*
X108284204Y-95629556D01*
X108360504Y-95650000D01*
X108439496Y-95650000D01*
X108515796Y-95629556D01*
X108584205Y-95590060D01*
X108640060Y-95534205D01*
X108679556Y-95465796D01*
X108700000Y-95389496D01*
X108700000Y-95310504D01*
X108679556Y-95234204D01*
X108640060Y-95165795D01*
X108584205Y-95109940D01*
X108566988Y-95100000D01*
X109568884Y-95100000D01*
X109563492Y-95072896D01*
X109563491Y-95072892D01*
X109491882Y-94900013D01*
X109491875Y-94900000D01*
X109387914Y-94744412D01*
X109309194Y-94665692D01*
X109273218Y-94603380D01*
X109273218Y-94531428D01*
X109291906Y-94490183D01*
X109315084Y-94455495D01*
X109371658Y-94318913D01*
X109400500Y-94173918D01*
X109400500Y-94026082D01*
X109371658Y-93881087D01*
X109315084Y-93744505D01*
X109234490Y-93623888D01*
X109211364Y-93555755D01*
X109225401Y-93485186D01*
X109244850Y-93458046D01*
X109244333Y-93457654D01*
X109255577Y-93442825D01*
X109337364Y-93334975D01*
X109390359Y-93200590D01*
X109394930Y-93162531D01*
X109399818Y-93121819D01*
X109400500Y-93116144D01*
X109400500Y-92583856D01*
X109399507Y-92575585D01*
X109390360Y-92499414D01*
X109390359Y-92499412D01*
X109390359Y-92499410D01*
X109337364Y-92365025D01*
X109250078Y-92249922D01*
X109241817Y-92243657D01*
X109134974Y-92162635D01*
X109051215Y-92129605D01*
X109000590Y-92109641D01*
X109000588Y-92109640D01*
X109000584Y-92109639D01*
X109000586Y-92109639D01*
X108916151Y-92099500D01*
X108916144Y-92099500D01*
X107883856Y-92099500D01*
X107883848Y-92099500D01*
X107799414Y-92109639D01*
X107665025Y-92162635D01*
X107549922Y-92249921D01*
X107549921Y-92249922D01*
X107462635Y-92365025D01*
X107409639Y-92499414D01*
X107399500Y-92583848D01*
X107399500Y-93116151D01*
X107409639Y-93200585D01*
X107462635Y-93334974D01*
X107555667Y-93457654D01*
X107554213Y-93458756D01*
X107584197Y-93510689D01*
X107584197Y-93582641D01*
X107565508Y-93623888D01*
X107484918Y-93744501D01*
X107484912Y-93744512D01*
X107428341Y-93881087D01*
X107428341Y-93881089D01*
X107399500Y-94026082D01*
X107399500Y-94173917D01*
X107428341Y-94318910D01*
X107428341Y-94318912D01*
X107484912Y-94455487D01*
X107484918Y-94455498D01*
X107508092Y-94490181D01*
X107531219Y-94558315D01*
X107517182Y-94628884D01*
X107490805Y-94665691D01*
X107412089Y-94744407D01*
X107412085Y-94744412D01*
X107308124Y-94900000D01*
X107308117Y-94900013D01*
X107236508Y-95072892D01*
X107236507Y-95072896D01*
X107231115Y-95100000D01*
X106200500Y-95100000D01*
X106200500Y-87542261D01*
X107428180Y-87542261D01*
X107428180Y-87700376D01*
X107469102Y-87853102D01*
X107469103Y-87853103D01*
X107548160Y-87990035D01*
X107659964Y-88101839D01*
X107796896Y-88180896D01*
X107949623Y-88221819D01*
X108107737Y-88221819D01*
X108260464Y-88180896D01*
X108397396Y-88101839D01*
X108397401Y-88101833D01*
X108399087Y-88100541D01*
X108401054Y-88099726D01*
X108405286Y-88097283D01*
X108405607Y-88097840D01*
X108465562Y-88073008D01*
X108483703Y-88071819D01*
X140034501Y-88071819D01*
X140104001Y-88090441D01*
X140132789Y-88112531D01*
X147472066Y-95451808D01*
X147513102Y-95475500D01*
X147574794Y-95511118D01*
X147689371Y-95541819D01*
X153022249Y-95541819D01*
X153112606Y-95517607D01*
X153112613Y-95517605D01*
X153136827Y-95511118D01*
X153239554Y-95451808D01*
X157339169Y-91352193D01*
X157398479Y-91249466D01*
X157411599Y-91200499D01*
X157420765Y-91166288D01*
X157429180Y-91134891D01*
X157429180Y-90926342D01*
X157447802Y-90856842D01*
X157457902Y-90841726D01*
X157459194Y-90840040D01*
X157459200Y-90840035D01*
X157538257Y-90703103D01*
X157579180Y-90550376D01*
X157579180Y-90392262D01*
X157573702Y-90371819D01*
X157538257Y-90239535D01*
X157520531Y-90208833D01*
X157459200Y-90102603D01*
X157347396Y-89990799D01*
X157251838Y-89935629D01*
X157210463Y-89911741D01*
X157057737Y-89870819D01*
X156899623Y-89870819D01*
X156746896Y-89911741D01*
X156609962Y-89990800D01*
X156609960Y-89990801D01*
X156593055Y-90007707D01*
X156530742Y-90043681D01*
X156458790Y-90043680D01*
X156396479Y-90007703D01*
X156374392Y-89978917D01*
X156333641Y-89908335D01*
X156319189Y-89883304D01*
X156216695Y-89780810D01*
X156182070Y-89760819D01*
X156091168Y-89708336D01*
X156091165Y-89708335D01*
X155951155Y-89670819D01*
X155806205Y-89670819D01*
X155666194Y-89708335D01*
X155666191Y-89708336D01*
X155540669Y-89780807D01*
X155540663Y-89780812D01*
X155438173Y-89883302D01*
X155438168Y-89883308D01*
X155365697Y-90008830D01*
X155365696Y-90008833D01*
X155332345Y-90133302D01*
X155328180Y-90148844D01*
X155328180Y-90293794D01*
X155365696Y-90433804D01*
X155409557Y-90509774D01*
X155428180Y-90579272D01*
X155428180Y-91077139D01*
X155409558Y-91146639D01*
X155387468Y-91175427D01*
X154184973Y-92377922D01*
X154122661Y-92413898D01*
X154050709Y-92413898D01*
X153988397Y-92377922D01*
X153952421Y-92315610D01*
X153952421Y-92243657D01*
X153963531Y-92202197D01*
X153979180Y-92143794D01*
X153979180Y-91998844D01*
X153941664Y-91858834D01*
X153869189Y-91733304D01*
X153766695Y-91630810D01*
X153756495Y-91624921D01*
X153641168Y-91558336D01*
X153641165Y-91558335D01*
X153501155Y-91520819D01*
X153356205Y-91520819D01*
X153216194Y-91558335D01*
X153216191Y-91558336D01*
X153090669Y-91630807D01*
X153090663Y-91630812D01*
X152988173Y-91733302D01*
X152988168Y-91733308D01*
X152915696Y-91858831D01*
X152892991Y-91943567D01*
X152857015Y-92005878D01*
X152563978Y-92298918D01*
X152492789Y-92370107D01*
X152430477Y-92406083D01*
X152394501Y-92410819D01*
X148612859Y-92410819D01*
X148543359Y-92392197D01*
X148514571Y-92370107D01*
X147582252Y-91437788D01*
X147546276Y-91375476D01*
X147546276Y-91303524D01*
X147582252Y-91241212D01*
X147644564Y-91205236D01*
X147680540Y-91200500D01*
X151109308Y-91200500D01*
X151199665Y-91176288D01*
X151199672Y-91176286D01*
X151202878Y-91175427D01*
X151223886Y-91169799D01*
X151326613Y-91110489D01*
X154494119Y-87942981D01*
X154556426Y-87907008D01*
X154641165Y-87884303D01*
X154766695Y-87811828D01*
X154869189Y-87709334D01*
X154941664Y-87583804D01*
X154977069Y-87451672D01*
X155013044Y-87389362D01*
X155075356Y-87353386D01*
X155147308Y-87353386D01*
X155209620Y-87389362D01*
X162352066Y-94531808D01*
X162454793Y-94591118D01*
X162479006Y-94597605D01*
X162548088Y-94616116D01*
X162569370Y-94621819D01*
X162569371Y-94621819D01*
X165679131Y-94621819D01*
X165748631Y-94640441D01*
X165799509Y-94691319D01*
X165818131Y-94760819D01*
X165799509Y-94830319D01*
X165777419Y-94859107D01*
X165676169Y-94960356D01*
X165560473Y-95119598D01*
X165471116Y-95294974D01*
X165412460Y-95475500D01*
X165410291Y-95482174D01*
X165379500Y-95676583D01*
X165379500Y-95873417D01*
X165407296Y-96048917D01*
X165410291Y-96067826D01*
X165471116Y-96255025D01*
X165560473Y-96430401D01*
X165676169Y-96589643D01*
X165815356Y-96728830D01*
X165974598Y-96844526D01*
X166028455Y-96871967D01*
X166149975Y-96933884D01*
X166337174Y-96994709D01*
X166531583Y-97025500D01*
X166531585Y-97025500D01*
X166728415Y-97025500D01*
X166728417Y-97025500D01*
X166922826Y-96994709D01*
X167110025Y-96933884D01*
X167285405Y-96844524D01*
X167444646Y-96728828D01*
X167583828Y-96589646D01*
X167699524Y-96430405D01*
X167776151Y-96280014D01*
X167824294Y-96226546D01*
X167892724Y-96204311D01*
X167963103Y-96219269D01*
X168016574Y-96267414D01*
X168023842Y-96280001D01*
X168067242Y-96365179D01*
X168100475Y-96430404D01*
X168216169Y-96589643D01*
X168355356Y-96728830D01*
X168514598Y-96844526D01*
X168568455Y-96871967D01*
X168689975Y-96933884D01*
X168877174Y-96994709D01*
X169071583Y-97025500D01*
X169071585Y-97025500D01*
X169268415Y-97025500D01*
X169268417Y-97025500D01*
X169462826Y-96994709D01*
X169650025Y-96933884D01*
X169825405Y-96844524D01*
X169984646Y-96728828D01*
X170123828Y-96589646D01*
X170239524Y-96430405D01*
X170316151Y-96280014D01*
X170364294Y-96226546D01*
X170432724Y-96204311D01*
X170503103Y-96219269D01*
X170556574Y-96267414D01*
X170563842Y-96280001D01*
X170607242Y-96365179D01*
X170640475Y-96430404D01*
X170756169Y-96589643D01*
X170895356Y-96728830D01*
X171054598Y-96844526D01*
X171108455Y-96871967D01*
X171229975Y-96933884D01*
X171417174Y-96994709D01*
X171611583Y-97025500D01*
X171611585Y-97025500D01*
X171808415Y-97025500D01*
X171808417Y-97025500D01*
X172002826Y-96994709D01*
X172190025Y-96933884D01*
X172365405Y-96844524D01*
X172524646Y-96728828D01*
X172663828Y-96589646D01*
X172779524Y-96430405D01*
X172856151Y-96280014D01*
X172904294Y-96226546D01*
X172972724Y-96204311D01*
X173043103Y-96219269D01*
X173096574Y-96267414D01*
X173103842Y-96280001D01*
X173147242Y-96365179D01*
X173180475Y-96430404D01*
X173296169Y-96589643D01*
X173435356Y-96728830D01*
X173594598Y-96844526D01*
X173648455Y-96871967D01*
X173769975Y-96933884D01*
X173957174Y-96994709D01*
X174151583Y-97025500D01*
X174151585Y-97025500D01*
X174348415Y-97025500D01*
X174348417Y-97025500D01*
X174542826Y-96994709D01*
X174730025Y-96933884D01*
X174905405Y-96844524D01*
X175064646Y-96728828D01*
X175203828Y-96589646D01*
X175319524Y-96430405D01*
X175396151Y-96280014D01*
X175444294Y-96226546D01*
X175512724Y-96204311D01*
X175583103Y-96219269D01*
X175636574Y-96267414D01*
X175643842Y-96280001D01*
X175687242Y-96365179D01*
X175720475Y-96430404D01*
X175836169Y-96589643D01*
X175975356Y-96728830D01*
X176134598Y-96844526D01*
X176188455Y-96871967D01*
X176309975Y-96933884D01*
X176497174Y-96994709D01*
X176691583Y-97025500D01*
X176691585Y-97025500D01*
X176888415Y-97025500D01*
X176888417Y-97025500D01*
X177082826Y-96994709D01*
X177270025Y-96933884D01*
X177445405Y-96844524D01*
X177604646Y-96728828D01*
X177743828Y-96589646D01*
X177859524Y-96430405D01*
X177936151Y-96280014D01*
X177984294Y-96226546D01*
X178052724Y-96204311D01*
X178123103Y-96219269D01*
X178176574Y-96267414D01*
X178183842Y-96280001D01*
X178227242Y-96365179D01*
X178260475Y-96430404D01*
X178376169Y-96589643D01*
X178515356Y-96728830D01*
X178674598Y-96844526D01*
X178728455Y-96871967D01*
X178849975Y-96933884D01*
X179037174Y-96994709D01*
X179231583Y-97025500D01*
X179231585Y-97025500D01*
X179428415Y-97025500D01*
X179428417Y-97025500D01*
X179622826Y-96994709D01*
X179810025Y-96933884D01*
X179985405Y-96844524D01*
X180144646Y-96728828D01*
X180283828Y-96589646D01*
X180399524Y-96430405D01*
X180488884Y-96255025D01*
X180549709Y-96067826D01*
X180580500Y-95873417D01*
X180580500Y-95676583D01*
X180549709Y-95482174D01*
X180488884Y-95294975D01*
X180399524Y-95119595D01*
X180348960Y-95050000D01*
X180283830Y-94960356D01*
X180144643Y-94821169D01*
X179985401Y-94705473D01*
X179810025Y-94616116D01*
X179622826Y-94555291D01*
X179428417Y-94524500D01*
X179231583Y-94524500D01*
X179101977Y-94545027D01*
X179037173Y-94555291D01*
X178899469Y-94600034D01*
X178827616Y-94603799D01*
X178763506Y-94571134D01*
X178758228Y-94566125D01*
X177551210Y-93359107D01*
X177515234Y-93296795D01*
X177515234Y-93224843D01*
X177551210Y-93162531D01*
X177613522Y-93126555D01*
X177649498Y-93121819D01*
X180984501Y-93121819D01*
X181054001Y-93140441D01*
X181082789Y-93162531D01*
X182057014Y-94136756D01*
X182092989Y-94199067D01*
X182115693Y-94283799D01*
X182115697Y-94283807D01*
X182180523Y-94396088D01*
X182188171Y-94409334D01*
X182290665Y-94511828D01*
X182325275Y-94531810D01*
X182416191Y-94584301D01*
X182416192Y-94584301D01*
X182416195Y-94584303D01*
X182556205Y-94621819D01*
X182701155Y-94621819D01*
X182841165Y-94584303D01*
X182966695Y-94511828D01*
X183069189Y-94409334D01*
X183141664Y-94283804D01*
X183179180Y-94143794D01*
X183179180Y-93998844D01*
X183141664Y-93858834D01*
X183125302Y-93830495D01*
X183075656Y-93744505D01*
X183069189Y-93733304D01*
X182966695Y-93630810D01*
X182950715Y-93621584D01*
X182841168Y-93558336D01*
X182841160Y-93558332D01*
X182756428Y-93535628D01*
X182694117Y-93499653D01*
X181505296Y-92310832D01*
X181505294Y-92310830D01*
X181458484Y-92283804D01*
X181402566Y-92251519D01*
X181378353Y-92245032D01*
X181287989Y-92220819D01*
X164322859Y-92220819D01*
X164253359Y-92202197D01*
X164224571Y-92180107D01*
X161143307Y-89098843D01*
X169228180Y-89098843D01*
X169228180Y-89243794D01*
X169265696Y-89383804D01*
X169265697Y-89383807D01*
X169330312Y-89495722D01*
X169338171Y-89509334D01*
X169440665Y-89611828D01*
X169457970Y-89621819D01*
X169566191Y-89684301D01*
X169566192Y-89684301D01*
X169566195Y-89684303D01*
X169706205Y-89721819D01*
X169851155Y-89721819D01*
X169991165Y-89684303D01*
X170067135Y-89640441D01*
X170136633Y-89621819D01*
X170939180Y-89621819D01*
X171008680Y-89640441D01*
X171059558Y-89691319D01*
X171078180Y-89760819D01*
X171078180Y-89893794D01*
X171115696Y-90033804D01*
X171115697Y-90033807D01*
X171188168Y-90159329D01*
X171188171Y-90159334D01*
X171290665Y-90261828D01*
X171335364Y-90287635D01*
X171416191Y-90334301D01*
X171416192Y-90334301D01*
X171416195Y-90334303D01*
X171556205Y-90371819D01*
X171701155Y-90371819D01*
X171841165Y-90334303D01*
X171917135Y-90290441D01*
X171986633Y-90271819D01*
X175734501Y-90271819D01*
X175752176Y-90276555D01*
X175770477Y-90276555D01*
X175786324Y-90285704D01*
X175804001Y-90290441D01*
X175832789Y-90312531D01*
X176007014Y-90486756D01*
X176042990Y-90549068D01*
X176042990Y-90549070D01*
X176065693Y-90633799D01*
X176065697Y-90633807D01*
X176109027Y-90708856D01*
X176138171Y-90759334D01*
X176240665Y-90861828D01*
X176254915Y-90870055D01*
X176366191Y-90934301D01*
X176366192Y-90934301D01*
X176366195Y-90934303D01*
X176506205Y-90971819D01*
X176651155Y-90971819D01*
X176791165Y-90934303D01*
X176916695Y-90861828D01*
X177019189Y-90759334D01*
X177091664Y-90633804D01*
X177129180Y-90493794D01*
X177129180Y-90348844D01*
X177125283Y-90334302D01*
X177105863Y-90261826D01*
X177091664Y-90208834D01*
X177086852Y-90200500D01*
X177019191Y-90083308D01*
X177019189Y-90083304D01*
X176916695Y-89980810D01*
X176913416Y-89978917D01*
X176791168Y-89908336D01*
X176791160Y-89908333D01*
X176741708Y-89895082D01*
X176679397Y-89859106D01*
X176643421Y-89796794D01*
X176643422Y-89724842D01*
X176679398Y-89662531D01*
X176741710Y-89626555D01*
X176777685Y-89621819D01*
X177084501Y-89621819D01*
X177154001Y-89640441D01*
X177182789Y-89662531D01*
X178057015Y-90536758D01*
X178092990Y-90599068D01*
X178115696Y-90683806D01*
X178188168Y-90809329D01*
X178188171Y-90809334D01*
X178290665Y-90911828D01*
X178315804Y-90926342D01*
X178416191Y-90984301D01*
X178416192Y-90984301D01*
X178416195Y-90984303D01*
X178556205Y-91021819D01*
X178701155Y-91021819D01*
X178841165Y-90984303D01*
X178966695Y-90911828D01*
X179069189Y-90809334D01*
X179141664Y-90683804D01*
X179179180Y-90543794D01*
X179179180Y-90398844D01*
X179177416Y-90392262D01*
X179161886Y-90334302D01*
X179141664Y-90258834D01*
X179141637Y-90258788D01*
X179092851Y-90174287D01*
X179069189Y-90133304D01*
X178966695Y-90030810D01*
X178928632Y-90008834D01*
X178841167Y-89958335D01*
X178756429Y-89935629D01*
X178694119Y-89899654D01*
X177605296Y-88810832D01*
X177605294Y-88810830D01*
X177546852Y-88777088D01*
X177502566Y-88751519D01*
X177478353Y-88745032D01*
X177387989Y-88720819D01*
X170136634Y-88720819D01*
X170067137Y-88702197D01*
X169991165Y-88658335D01*
X169851155Y-88620819D01*
X169706205Y-88620819D01*
X169566194Y-88658335D01*
X169566191Y-88658336D01*
X169440669Y-88730807D01*
X169440663Y-88730812D01*
X169338173Y-88833302D01*
X169338168Y-88833308D01*
X169265697Y-88958830D01*
X169265696Y-88958833D01*
X169228180Y-89098843D01*
X161143307Y-89098843D01*
X160219012Y-88174548D01*
X160183036Y-88112236D01*
X160180382Y-88098894D01*
X160179789Y-88096680D01*
X160179789Y-88096678D01*
X160138866Y-87943951D01*
X160059809Y-87807019D01*
X159948005Y-87695215D01*
X159879539Y-87655686D01*
X159811072Y-87616157D01*
X159658346Y-87575235D01*
X159500232Y-87575235D01*
X159347505Y-87616157D01*
X159210571Y-87695216D01*
X159210571Y-87695217D01*
X159098771Y-87807017D01*
X159098770Y-87807017D01*
X159019711Y-87943951D01*
X158978789Y-88096677D01*
X158978789Y-88254792D01*
X159019711Y-88407518D01*
X159019712Y-88407519D01*
X159098769Y-88544451D01*
X159210573Y-88656255D01*
X159347505Y-88735312D01*
X159500232Y-88776235D01*
X159500238Y-88776235D01*
X159506716Y-88777088D01*
X159573193Y-88804618D01*
X159586870Y-88816612D01*
X163553789Y-92783531D01*
X163589765Y-92845843D01*
X163589765Y-92917795D01*
X163553789Y-92980107D01*
X163491477Y-93016083D01*
X163455501Y-93020819D01*
X163172859Y-93020819D01*
X163103359Y-93002197D01*
X163074571Y-92980107D01*
X152815457Y-82720993D01*
X152779481Y-82658681D01*
X152753482Y-82561651D01*
X152681007Y-82436121D01*
X152578513Y-82333627D01*
X152578508Y-82333624D01*
X152452986Y-82261153D01*
X152452983Y-82261152D01*
X152312973Y-82223636D01*
X152168023Y-82223636D01*
X152028012Y-82261152D01*
X152028009Y-82261153D01*
X151902487Y-82333624D01*
X151902481Y-82333629D01*
X151799991Y-82436119D01*
X151799986Y-82436125D01*
X151727515Y-82561647D01*
X151727512Y-82561655D01*
X151708445Y-82632813D01*
X151708444Y-82632814D01*
X151708444Y-82632817D01*
X151695470Y-82655286D01*
X151672469Y-82695124D01*
X151672467Y-82695125D01*
X151672466Y-82695127D01*
X151641810Y-82712824D01*
X151610157Y-82731100D01*
X151610153Y-82731101D01*
X151604151Y-82732709D01*
X151532199Y-82732706D01*
X151469889Y-82696728D01*
X151433915Y-82634415D01*
X151429180Y-82598444D01*
X151429180Y-80377435D01*
X154449587Y-80377435D01*
X154449587Y-80522386D01*
X154487103Y-80662396D01*
X154487104Y-80662399D01*
X154529020Y-80734999D01*
X154559578Y-80787926D01*
X154662072Y-80890420D01*
X154724837Y-80926657D01*
X154787598Y-80962893D01*
X154787599Y-80962893D01*
X154787602Y-80962895D01*
X154875156Y-80986355D01*
X154937468Y-81022331D01*
X154973444Y-81084643D01*
X154978180Y-81120619D01*
X154978180Y-81143794D01*
X155015696Y-81283804D01*
X155015697Y-81283807D01*
X155088168Y-81409329D01*
X155088171Y-81409334D01*
X155190665Y-81511828D01*
X155253430Y-81548065D01*
X155316191Y-81584301D01*
X155316192Y-81584301D01*
X155316195Y-81584303D01*
X155456205Y-81621819D01*
X155456209Y-81621819D01*
X155458237Y-81622086D01*
X155460134Y-81622872D01*
X155465005Y-81624177D01*
X155464833Y-81624817D01*
X155524713Y-81649618D01*
X155568517Y-81706699D01*
X155577910Y-81741751D01*
X155578178Y-81743787D01*
X155615696Y-81883804D01*
X155615697Y-81883807D01*
X155688168Y-82009329D01*
X155688171Y-82009334D01*
X155790665Y-82111828D01*
X155853430Y-82148065D01*
X155916191Y-82184301D01*
X155916195Y-82184303D01*
X155975156Y-82200101D01*
X156037467Y-82236076D01*
X156073443Y-82298388D01*
X156078180Y-82334365D01*
X156078180Y-82343794D01*
X156115696Y-82483804D01*
X156115697Y-82483807D01*
X156188168Y-82609329D01*
X156188171Y-82609334D01*
X156290665Y-82711828D01*
X156307970Y-82721819D01*
X156416191Y-82784301D01*
X156416192Y-82784301D01*
X156416195Y-82784303D01*
X156556205Y-82821819D01*
X156701155Y-82821819D01*
X156841165Y-82784303D01*
X156917135Y-82740441D01*
X156986633Y-82721819D01*
X177687989Y-82721819D01*
X177778346Y-82697607D01*
X177778353Y-82697605D01*
X177802567Y-82691118D01*
X177905294Y-82631808D01*
X180254264Y-80282837D01*
X186232888Y-80282837D01*
X186239289Y-80342371D01*
X186239290Y-80342378D01*
X186289534Y-80477088D01*
X186289536Y-80477092D01*
X186375697Y-80592186D01*
X186375701Y-80592190D01*
X186490795Y-80678351D01*
X186490799Y-80678353D01*
X186625509Y-80728597D01*
X186625516Y-80728598D01*
X186685050Y-80734999D01*
X186685051Y-80735000D01*
X190212888Y-80735000D01*
X190712888Y-80735000D01*
X194240725Y-80735000D01*
X194240725Y-80734999D01*
X194300259Y-80728598D01*
X194300266Y-80728597D01*
X194434976Y-80678353D01*
X194434980Y-80678351D01*
X194550074Y-80592190D01*
X194550078Y-80592186D01*
X194636239Y-80477092D01*
X194636241Y-80477088D01*
X194686485Y-80342378D01*
X194686486Y-80342371D01*
X194692887Y-80282837D01*
X194692888Y-80282837D01*
X194692888Y-77250000D01*
X190712888Y-77250000D01*
X190712888Y-80735000D01*
X190212888Y-80735000D01*
X190212888Y-77250000D01*
X186232888Y-77250000D01*
X186232888Y-80282837D01*
X180254264Y-80282837D01*
X180694120Y-79842981D01*
X180756428Y-79807008D01*
X180841165Y-79784303D01*
X180966695Y-79711828D01*
X181069189Y-79609334D01*
X181141664Y-79483804D01*
X181179180Y-79343794D01*
X181179180Y-79198844D01*
X181141664Y-79058834D01*
X181069189Y-78933304D01*
X180966695Y-78830810D01*
X180928630Y-78808833D01*
X180841168Y-78758336D01*
X180841165Y-78758335D01*
X180701155Y-78720819D01*
X180556205Y-78720819D01*
X180416194Y-78758335D01*
X180416191Y-78758336D01*
X180290669Y-78830807D01*
X180290663Y-78830812D01*
X180188173Y-78933302D01*
X180188168Y-78933308D01*
X180115696Y-79058832D01*
X180092991Y-79143566D01*
X180057016Y-79205877D01*
X177482789Y-81780107D01*
X177420477Y-81816083D01*
X177384501Y-81820819D01*
X176901859Y-81820819D01*
X176832359Y-81802197D01*
X176781481Y-81751319D01*
X176762859Y-81681819D01*
X176781481Y-81612319D01*
X176803571Y-81583531D01*
X177243308Y-81143794D01*
X178644119Y-79742981D01*
X178706426Y-79707008D01*
X178791165Y-79684303D01*
X178916695Y-79611828D01*
X179019189Y-79509334D01*
X179091664Y-79383804D01*
X179129180Y-79243794D01*
X179129180Y-79098844D01*
X179091664Y-78958834D01*
X179085896Y-78948844D01*
X179019191Y-78833308D01*
X179019189Y-78833304D01*
X178916695Y-78730810D01*
X178899390Y-78720819D01*
X178791168Y-78658336D01*
X178791165Y-78658335D01*
X178651155Y-78620819D01*
X178506205Y-78620819D01*
X178366194Y-78658335D01*
X178366191Y-78658336D01*
X178240669Y-78730807D01*
X178240663Y-78730812D01*
X178138173Y-78833302D01*
X178138168Y-78833308D01*
X178065696Y-78958831D01*
X178042990Y-79043569D01*
X178007015Y-79105879D01*
X175932789Y-81180107D01*
X175870477Y-81216083D01*
X175834501Y-81220819D01*
X173451859Y-81220819D01*
X173382359Y-81202197D01*
X173331481Y-81151319D01*
X173312859Y-81081819D01*
X173331481Y-81012319D01*
X173353571Y-80983531D01*
X173674706Y-80662396D01*
X174694119Y-79642981D01*
X174756426Y-79607008D01*
X174841165Y-79584303D01*
X174966695Y-79511828D01*
X175069189Y-79409334D01*
X175141664Y-79283804D01*
X175179180Y-79143794D01*
X175179180Y-78998844D01*
X175141664Y-78858834D01*
X175125485Y-78830812D01*
X175083641Y-78758335D01*
X175069189Y-78733304D01*
X174966695Y-78630810D01*
X174949390Y-78620819D01*
X174841168Y-78558336D01*
X174841165Y-78558335D01*
X174701155Y-78520819D01*
X174556205Y-78520819D01*
X174416194Y-78558335D01*
X174416191Y-78558336D01*
X174290669Y-78630807D01*
X174290663Y-78630812D01*
X174188173Y-78733302D01*
X174188168Y-78733308D01*
X174115696Y-78858831D01*
X174092990Y-78943569D01*
X174057015Y-79005879D01*
X172482789Y-80580107D01*
X172420477Y-80616083D01*
X172384501Y-80620819D01*
X172001859Y-80620819D01*
X171932359Y-80602197D01*
X171881481Y-80551319D01*
X171862859Y-80481819D01*
X171881481Y-80412319D01*
X171903571Y-80383531D01*
X172297847Y-79989255D01*
X172694120Y-79592981D01*
X172756428Y-79557008D01*
X172841165Y-79534303D01*
X172966695Y-79461828D01*
X173069189Y-79359334D01*
X173141664Y-79233804D01*
X173179180Y-79093794D01*
X173179180Y-78948844D01*
X173175015Y-78933302D01*
X173169127Y-78911327D01*
X173141664Y-78808834D01*
X173133795Y-78795205D01*
X173099333Y-78735515D01*
X173069189Y-78683304D01*
X172966695Y-78580810D01*
X172966690Y-78580807D01*
X172841168Y-78508336D01*
X172841165Y-78508335D01*
X172701155Y-78470819D01*
X172556205Y-78470819D01*
X172416194Y-78508335D01*
X172416191Y-78508336D01*
X172290669Y-78580807D01*
X172290663Y-78580812D01*
X172188173Y-78683302D01*
X172188168Y-78683308D01*
X172115696Y-78808832D01*
X172092991Y-78893566D01*
X172057016Y-78955877D01*
X171032789Y-79980107D01*
X170970477Y-80016083D01*
X170934501Y-80020819D01*
X170601858Y-80020819D01*
X170584183Y-80016083D01*
X170565883Y-80016083D01*
X170550035Y-80006933D01*
X170532358Y-80002197D01*
X170519416Y-79989255D01*
X170503571Y-79980107D01*
X170494422Y-79964261D01*
X170481480Y-79951319D01*
X170476743Y-79933642D01*
X170467594Y-79917795D01*
X170467594Y-79899494D01*
X170462858Y-79881819D01*
X170467594Y-79864143D01*
X170467594Y-79845844D01*
X170476743Y-79829996D01*
X170481480Y-79812319D01*
X170503570Y-79783532D01*
X170644117Y-79642984D01*
X170706426Y-79607008D01*
X170791165Y-79584303D01*
X170916695Y-79511828D01*
X171019189Y-79409334D01*
X171091664Y-79283804D01*
X171129180Y-79143794D01*
X171129180Y-78998844D01*
X171091664Y-78858834D01*
X171075485Y-78830812D01*
X171033641Y-78758335D01*
X171019189Y-78733304D01*
X170916695Y-78630810D01*
X170899390Y-78620819D01*
X170791168Y-78558336D01*
X170791165Y-78558335D01*
X170651155Y-78520819D01*
X170506205Y-78520819D01*
X170366194Y-78558335D01*
X170366191Y-78558336D01*
X170240669Y-78630807D01*
X170240663Y-78630812D01*
X170138173Y-78733302D01*
X170138168Y-78733308D01*
X170065696Y-78858831D01*
X170042990Y-78943569D01*
X170007015Y-79005879D01*
X169532789Y-79480107D01*
X169470477Y-79516083D01*
X169434501Y-79520819D01*
X161083331Y-79520819D01*
X161013831Y-79502197D01*
X160985043Y-79480107D01*
X160302762Y-78797827D01*
X160266786Y-78735515D01*
X160266786Y-78735514D01*
X160244082Y-78650781D01*
X160244080Y-78650777D01*
X160171609Y-78525255D01*
X160171607Y-78525251D01*
X160069113Y-78422757D01*
X160069108Y-78422754D01*
X159943586Y-78350283D01*
X159943583Y-78350282D01*
X159803573Y-78312766D01*
X159658623Y-78312766D01*
X159518612Y-78350282D01*
X159518609Y-78350283D01*
X159393087Y-78422754D01*
X159393081Y-78422759D01*
X159290591Y-78525249D01*
X159290586Y-78525255D01*
X159218115Y-78650777D01*
X159218114Y-78650780D01*
X159180598Y-78790790D01*
X159180598Y-78935741D01*
X159218114Y-79075751D01*
X159218115Y-79075754D01*
X159289181Y-79198843D01*
X159290589Y-79201281D01*
X159393083Y-79303775D01*
X159455848Y-79340012D01*
X159518609Y-79376248D01*
X159518613Y-79376250D01*
X159603346Y-79398954D01*
X159665658Y-79434930D01*
X159665659Y-79434930D01*
X160014259Y-79783531D01*
X160050235Y-79845843D01*
X160050235Y-79917795D01*
X160014259Y-79980107D01*
X159951947Y-80016083D01*
X159915971Y-80020819D01*
X155395122Y-80020819D01*
X155325623Y-80002197D01*
X155325622Y-80002196D01*
X155212575Y-79936928D01*
X155212572Y-79936927D01*
X155072562Y-79899411D01*
X154927612Y-79899411D01*
X154787601Y-79936927D01*
X154787598Y-79936928D01*
X154662076Y-80009399D01*
X154662070Y-80009404D01*
X154559580Y-80111894D01*
X154559575Y-80111900D01*
X154487104Y-80237422D01*
X154487103Y-80237425D01*
X154449587Y-80377435D01*
X151429180Y-80377435D01*
X151429180Y-78212009D01*
X151420953Y-78181308D01*
X151398479Y-78097433D01*
X151398478Y-78097431D01*
X151376194Y-78058833D01*
X151376194Y-78058832D01*
X151339172Y-77994710D01*
X151339170Y-77994706D01*
X150700344Y-77355880D01*
X150664368Y-77293568D01*
X150664368Y-77293567D01*
X150641664Y-77208834D01*
X150641662Y-77208830D01*
X150598055Y-77133302D01*
X150569189Y-77083304D01*
X150466695Y-76980810D01*
X150466690Y-76980807D01*
X150341168Y-76908336D01*
X150341165Y-76908335D01*
X150201155Y-76870819D01*
X150056205Y-76870819D01*
X149916194Y-76908335D01*
X149916191Y-76908336D01*
X149790669Y-76980807D01*
X149790663Y-76980812D01*
X149688173Y-77083302D01*
X149688168Y-77083308D01*
X149615697Y-77208830D01*
X149615696Y-77208833D01*
X149578180Y-77348843D01*
X149578180Y-77493794D01*
X149615696Y-77633804D01*
X149615697Y-77633807D01*
X149688168Y-77759329D01*
X149688171Y-77759334D01*
X149790665Y-77861828D01*
X149853430Y-77898065D01*
X149916191Y-77934301D01*
X149916195Y-77934303D01*
X150000928Y-77957007D01*
X150063240Y-77992983D01*
X150063241Y-77992983D01*
X150487468Y-78417210D01*
X150523444Y-78479522D01*
X150528180Y-78515498D01*
X150528180Y-88513362D01*
X150509558Y-88582861D01*
X150465696Y-88658832D01*
X150465696Y-88658833D01*
X150428180Y-88798843D01*
X150428180Y-88943794D01*
X150465696Y-89083804D01*
X150465697Y-89083807D01*
X150474379Y-89098844D01*
X150538171Y-89209334D01*
X150640665Y-89311828D01*
X150703430Y-89348065D01*
X150766191Y-89384301D01*
X150766192Y-89384301D01*
X150766195Y-89384303D01*
X150906205Y-89421819D01*
X151051155Y-89421819D01*
X151191165Y-89384303D01*
X151316695Y-89311828D01*
X151419189Y-89209334D01*
X151491664Y-89083804D01*
X151529180Y-88943794D01*
X151529180Y-88798844D01*
X151523350Y-88777088D01*
X151512156Y-88735312D01*
X151491664Y-88658834D01*
X151491663Y-88658832D01*
X151447802Y-88582861D01*
X151429180Y-88513362D01*
X151429180Y-83950947D01*
X151433917Y-83933266D01*
X151433918Y-83914966D01*
X151443066Y-83899122D01*
X151447802Y-83881447D01*
X151460744Y-83868504D01*
X151469896Y-83852655D01*
X151485741Y-83843507D01*
X151498680Y-83830569D01*
X151516359Y-83825831D01*
X151532209Y-83816682D01*
X151550505Y-83816682D01*
X151568180Y-83811947D01*
X151604161Y-83816685D01*
X151612971Y-83819046D01*
X151675278Y-83855020D01*
X154410636Y-86590378D01*
X154446612Y-86652690D01*
X154446612Y-86724642D01*
X154410636Y-86786954D01*
X154348325Y-86822929D01*
X154216199Y-86858333D01*
X154216191Y-86858336D01*
X154090669Y-86930807D01*
X154090663Y-86930812D01*
X153988173Y-87033302D01*
X153988168Y-87033308D01*
X153915696Y-87158831D01*
X153892990Y-87243569D01*
X153857015Y-87305879D01*
X150904108Y-90258788D01*
X150841796Y-90294764D01*
X150805820Y-90299500D01*
X147403011Y-90299500D01*
X147333511Y-90280878D01*
X147304723Y-90258788D01*
X139706767Y-82660832D01*
X139706765Y-82660830D01*
X139658246Y-82632817D01*
X139604037Y-82601519D01*
X139579824Y-82595032D01*
X139489460Y-82570819D01*
X134722859Y-82570819D01*
X134653359Y-82552197D01*
X134624571Y-82530107D01*
X131043307Y-78948843D01*
X132078180Y-78948843D01*
X132078180Y-79093794D01*
X132115696Y-79233804D01*
X132115697Y-79233807D01*
X132156094Y-79303775D01*
X132188171Y-79359334D01*
X132290665Y-79461828D01*
X132328734Y-79483807D01*
X132416191Y-79534301D01*
X132416192Y-79534301D01*
X132416195Y-79534303D01*
X132556205Y-79571819D01*
X132701155Y-79571819D01*
X132841165Y-79534303D01*
X132841167Y-79534301D01*
X132841169Y-79534301D01*
X132845758Y-79532401D01*
X132898953Y-79521819D01*
X135444572Y-79521819D01*
X135571866Y-79487711D01*
X135685994Y-79421819D01*
X141720282Y-73387531D01*
X141782594Y-73351555D01*
X141818570Y-73346819D01*
X143360501Y-73346819D01*
X143430001Y-73365441D01*
X143480879Y-73416319D01*
X143499501Y-73485819D01*
X143499501Y-73741183D01*
X143502415Y-73766309D01*
X143502415Y-73766310D01*
X143547793Y-73869083D01*
X143547794Y-73869084D01*
X143627235Y-73948525D01*
X143730009Y-73993904D01*
X143755135Y-73996819D01*
X145544864Y-73996818D01*
X145569991Y-73993904D01*
X145672765Y-73948525D01*
X145752206Y-73869084D01*
X145797585Y-73766310D01*
X145800500Y-73741184D01*
X145800500Y-73435819D01*
X145819122Y-73366319D01*
X145870000Y-73315441D01*
X145939500Y-73296819D01*
X148359501Y-73296819D01*
X148429001Y-73315441D01*
X148457789Y-73337531D01*
X149418288Y-74298030D01*
X149454264Y-74360342D01*
X149454264Y-74432294D01*
X149418288Y-74494606D01*
X148063240Y-75849654D01*
X148000930Y-75885629D01*
X147916192Y-75908335D01*
X147790669Y-75980807D01*
X147790663Y-75980812D01*
X147688173Y-76083302D01*
X147688168Y-76083308D01*
X147615697Y-76208830D01*
X147615696Y-76208833D01*
X147602299Y-76258833D01*
X147578180Y-76348844D01*
X147578180Y-76493794D01*
X147615696Y-76633804D01*
X147659557Y-76709774D01*
X147678180Y-76779272D01*
X147678180Y-78377138D01*
X147659558Y-78446638D01*
X147637468Y-78475426D01*
X145788240Y-80324653D01*
X145725930Y-80360628D01*
X145641192Y-80383334D01*
X145515669Y-80455806D01*
X145515663Y-80455811D01*
X145413173Y-80558301D01*
X145413168Y-80558307D01*
X145340697Y-80683829D01*
X145340696Y-80683832D01*
X145303180Y-80823842D01*
X145303180Y-80968793D01*
X145340696Y-81108803D01*
X145340697Y-81108806D01*
X145413168Y-81234328D01*
X145413171Y-81234333D01*
X145515665Y-81336827D01*
X145578430Y-81373064D01*
X145641191Y-81409300D01*
X145641192Y-81409300D01*
X145641195Y-81409302D01*
X145781205Y-81446818D01*
X145926155Y-81446818D01*
X146066165Y-81409302D01*
X146191695Y-81336827D01*
X146294189Y-81234333D01*
X146366664Y-81108803D01*
X146389368Y-81024066D01*
X146425341Y-80961758D01*
X148489169Y-78897933D01*
X148548479Y-78795206D01*
X148562010Y-78744706D01*
X148579180Y-78680628D01*
X148579180Y-76779272D01*
X148589761Y-76726080D01*
X148593246Y-76717665D01*
X148641664Y-76633804D01*
X148666726Y-76540268D01*
X148670213Y-76531851D01*
X148686754Y-76510293D01*
X148700341Y-76486759D01*
X150055391Y-75131710D01*
X150117703Y-75095734D01*
X150189655Y-75095734D01*
X150251967Y-75131710D01*
X152652066Y-77531809D01*
X152754793Y-77591118D01*
X152776068Y-77596818D01*
X152776069Y-77596819D01*
X152776070Y-77596819D01*
X152869371Y-77621819D01*
X156289026Y-77621819D01*
X156358524Y-77640440D01*
X156391195Y-77659303D01*
X156531205Y-77696819D01*
X156676155Y-77696819D01*
X156816165Y-77659303D01*
X156848833Y-77640441D01*
X156918333Y-77621819D01*
X166937989Y-77621819D01*
X167031290Y-77596819D01*
X167052567Y-77591118D01*
X167155294Y-77531808D01*
X167644119Y-77042981D01*
X167706426Y-77007008D01*
X167791165Y-76984303D01*
X167916695Y-76911828D01*
X168019189Y-76809334D01*
X168091664Y-76683804D01*
X168129180Y-76543794D01*
X168129180Y-76398844D01*
X168091664Y-76258834D01*
X168019189Y-76133304D01*
X167916695Y-76030810D01*
X167916690Y-76030807D01*
X167791168Y-75958336D01*
X167791165Y-75958335D01*
X167651155Y-75920819D01*
X167506205Y-75920819D01*
X167366194Y-75958335D01*
X167366191Y-75958336D01*
X167240669Y-76030807D01*
X167240663Y-76030812D01*
X167138173Y-76133302D01*
X167138168Y-76133308D01*
X167065696Y-76258831D01*
X167042990Y-76343569D01*
X167007015Y-76405878D01*
X166732789Y-76680106D01*
X166670477Y-76716083D01*
X166634501Y-76720819D01*
X157004936Y-76720819D01*
X156935438Y-76702197D01*
X156935436Y-76702196D01*
X156816168Y-76633336D01*
X156816165Y-76633335D01*
X156676155Y-76595819D01*
X156531205Y-76595819D01*
X156391194Y-76633335D01*
X156391191Y-76633336D01*
X156271924Y-76702196D01*
X156202424Y-76720819D01*
X153172860Y-76720819D01*
X153103360Y-76702197D01*
X153074572Y-76680107D01*
X152315284Y-75920819D01*
X150355294Y-73960830D01*
X150185350Y-73790886D01*
X167720000Y-73790886D01*
X167720000Y-74019113D01*
X167755705Y-74244548D01*
X167826233Y-74461608D01*
X167929846Y-74664960D01*
X167929851Y-74664969D01*
X167983135Y-74738309D01*
X168727861Y-73993582D01*
X168750667Y-74078694D01*
X168809910Y-74181306D01*
X168893694Y-74265090D01*
X168996306Y-74324333D01*
X169081414Y-74347137D01*
X168336689Y-75091862D01*
X168336689Y-75091863D01*
X168410022Y-75145143D01*
X168410029Y-75145148D01*
X168613391Y-75248766D01*
X168830451Y-75319294D01*
X169055886Y-75355000D01*
X169284114Y-75355000D01*
X169509548Y-75319294D01*
X169726608Y-75248766D01*
X169929969Y-75145148D01*
X170003309Y-75091863D01*
X170003309Y-75091862D01*
X169258585Y-74347138D01*
X169343694Y-74324333D01*
X169446306Y-74265090D01*
X169530090Y-74181306D01*
X169589333Y-74078694D01*
X169612138Y-73993585D01*
X170356862Y-74738309D01*
X170356863Y-74738309D01*
X170410148Y-74664969D01*
X170433430Y-74619275D01*
X170481574Y-74565804D01*
X170550004Y-74543569D01*
X170620384Y-74558527D01*
X170669734Y-74600675D01*
X170756172Y-74719646D01*
X170895356Y-74858830D01*
X171054598Y-74974526D01*
X171140549Y-75018319D01*
X171229975Y-75063884D01*
X171417174Y-75124709D01*
X171611583Y-75155500D01*
X171611585Y-75155500D01*
X171808415Y-75155500D01*
X171808417Y-75155500D01*
X172002826Y-75124709D01*
X172190025Y-75063884D01*
X172365405Y-74974524D01*
X172524646Y-74858828D01*
X172663828Y-74719646D01*
X172779524Y-74560405D01*
X172856151Y-74410014D01*
X172904294Y-74356546D01*
X172972724Y-74334311D01*
X173043103Y-74349269D01*
X173096574Y-74397414D01*
X173103842Y-74410001D01*
X173115201Y-74432294D01*
X173180475Y-74560404D01*
X173296169Y-74719643D01*
X173435356Y-74858830D01*
X173594598Y-74974526D01*
X173680549Y-75018319D01*
X173769975Y-75063884D01*
X173957174Y-75124709D01*
X174151583Y-75155500D01*
X174151585Y-75155500D01*
X174348415Y-75155500D01*
X174348417Y-75155500D01*
X174542826Y-75124709D01*
X174730025Y-75063884D01*
X174905405Y-74974524D01*
X175064646Y-74858828D01*
X175203828Y-74719646D01*
X175319524Y-74560405D01*
X175396151Y-74410014D01*
X175444294Y-74356546D01*
X175512724Y-74334311D01*
X175583103Y-74349269D01*
X175636574Y-74397414D01*
X175643842Y-74410001D01*
X175655201Y-74432294D01*
X175720475Y-74560404D01*
X175836169Y-74719643D01*
X175975356Y-74858830D01*
X176134598Y-74974526D01*
X176220549Y-75018319D01*
X176309975Y-75063884D01*
X176497174Y-75124709D01*
X176691583Y-75155500D01*
X176691585Y-75155500D01*
X176888415Y-75155500D01*
X176888417Y-75155500D01*
X177082826Y-75124709D01*
X177270025Y-75063884D01*
X177445405Y-74974524D01*
X177604646Y-74858828D01*
X177743828Y-74719646D01*
X177859524Y-74560405D01*
X177936151Y-74410014D01*
X177984294Y-74356546D01*
X178052724Y-74334311D01*
X178123103Y-74349269D01*
X178176574Y-74397414D01*
X178183842Y-74410001D01*
X178195201Y-74432294D01*
X178260475Y-74560404D01*
X178376169Y-74719643D01*
X178515356Y-74858830D01*
X178674598Y-74974526D01*
X178760549Y-75018319D01*
X178849975Y-75063884D01*
X179037174Y-75124709D01*
X179231583Y-75155500D01*
X179231585Y-75155500D01*
X179428415Y-75155500D01*
X179428417Y-75155500D01*
X179622826Y-75124709D01*
X179810025Y-75063884D01*
X179985405Y-74974524D01*
X180144646Y-74858828D01*
X180283828Y-74719646D01*
X180399524Y-74560405D01*
X180476151Y-74410014D01*
X180524294Y-74356546D01*
X180592724Y-74334311D01*
X180663103Y-74349269D01*
X180716574Y-74397414D01*
X180723842Y-74410001D01*
X180735201Y-74432294D01*
X180800475Y-74560404D01*
X180916169Y-74719643D01*
X181055356Y-74858830D01*
X181214598Y-74974526D01*
X181300549Y-75018319D01*
X181389975Y-75063884D01*
X181577174Y-75124709D01*
X181771583Y-75155500D01*
X181771585Y-75155500D01*
X181968415Y-75155500D01*
X181968417Y-75155500D01*
X182162826Y-75124709D01*
X182350025Y-75063884D01*
X182525405Y-74974524D01*
X182684646Y-74858828D01*
X182823828Y-74719646D01*
X182939524Y-74560405D01*
X183028884Y-74385025D01*
X183089709Y-74197826D01*
X183120500Y-74003417D01*
X183120500Y-73806583D01*
X183106337Y-73717162D01*
X186232888Y-73717162D01*
X186232888Y-76750000D01*
X190212888Y-76750000D01*
X190712888Y-76750000D01*
X194692888Y-76750000D01*
X194692888Y-73717163D01*
X194692887Y-73717162D01*
X194686486Y-73657628D01*
X194686485Y-73657621D01*
X194636241Y-73522911D01*
X194636239Y-73522907D01*
X194550078Y-73407813D01*
X194550074Y-73407809D01*
X194434980Y-73321648D01*
X194434976Y-73321646D01*
X194300266Y-73271402D01*
X194300259Y-73271401D01*
X194240725Y-73265000D01*
X190712888Y-73265000D01*
X190712888Y-76750000D01*
X190212888Y-76750000D01*
X190212888Y-73265000D01*
X186685051Y-73265000D01*
X186625516Y-73271401D01*
X186625509Y-73271402D01*
X186490799Y-73321646D01*
X186490795Y-73321648D01*
X186375701Y-73407809D01*
X186375697Y-73407813D01*
X186289536Y-73522907D01*
X186289534Y-73522911D01*
X186239290Y-73657621D01*
X186239289Y-73657628D01*
X186232888Y-73717162D01*
X183106337Y-73717162D01*
X183089709Y-73612174D01*
X183028884Y-73424975D01*
X182963586Y-73296819D01*
X182939526Y-73249598D01*
X182932606Y-73240074D01*
X182863547Y-73145022D01*
X182823830Y-73090356D01*
X182684643Y-72951169D01*
X182525401Y-72835473D01*
X182350025Y-72746116D01*
X182162826Y-72685291D01*
X181968417Y-72654500D01*
X181771583Y-72654500D01*
X181641977Y-72675027D01*
X181577173Y-72685291D01*
X181389974Y-72746116D01*
X181214598Y-72835473D01*
X181055356Y-72951169D01*
X180916169Y-73090356D01*
X180800473Y-73249598D01*
X180723850Y-73399983D01*
X180675706Y-73453454D01*
X180607276Y-73475688D01*
X180536896Y-73460729D01*
X180483425Y-73412585D01*
X180476150Y-73399983D01*
X180399526Y-73249598D01*
X180392606Y-73240074D01*
X180323547Y-73145022D01*
X180283830Y-73090356D01*
X180144643Y-72951169D01*
X179985401Y-72835473D01*
X179810025Y-72746116D01*
X179622826Y-72685291D01*
X179428417Y-72654500D01*
X179231583Y-72654500D01*
X179101977Y-72675027D01*
X179037173Y-72685291D01*
X178849974Y-72746116D01*
X178674598Y-72835473D01*
X178515356Y-72951169D01*
X178376169Y-73090356D01*
X178260473Y-73249598D01*
X178183850Y-73399983D01*
X178135706Y-73453454D01*
X178067276Y-73475688D01*
X177996896Y-73460729D01*
X177943425Y-73412585D01*
X177936150Y-73399983D01*
X177859526Y-73249598D01*
X177852606Y-73240074D01*
X177783547Y-73145022D01*
X177743830Y-73090356D01*
X177604643Y-72951169D01*
X177445401Y-72835473D01*
X177270025Y-72746116D01*
X177082826Y-72685291D01*
X176888417Y-72654500D01*
X176691583Y-72654500D01*
X176561977Y-72675027D01*
X176497173Y-72685291D01*
X176309974Y-72746116D01*
X176134598Y-72835473D01*
X175975356Y-72951169D01*
X175836169Y-73090356D01*
X175720473Y-73249598D01*
X175643850Y-73399983D01*
X175595706Y-73453454D01*
X175527276Y-73475688D01*
X175456896Y-73460729D01*
X175403425Y-73412585D01*
X175396150Y-73399983D01*
X175319526Y-73249598D01*
X175312606Y-73240074D01*
X175243547Y-73145022D01*
X175203830Y-73090356D01*
X175064643Y-72951169D01*
X174905401Y-72835473D01*
X174730025Y-72746116D01*
X174542826Y-72685291D01*
X174348417Y-72654500D01*
X174151583Y-72654500D01*
X174021977Y-72675027D01*
X173957173Y-72685291D01*
X173769974Y-72746116D01*
X173594598Y-72835473D01*
X173435356Y-72951169D01*
X173296169Y-73090356D01*
X173180473Y-73249598D01*
X173103850Y-73399983D01*
X173055706Y-73453454D01*
X172987276Y-73475688D01*
X172916896Y-73460729D01*
X172863425Y-73412585D01*
X172856150Y-73399983D01*
X172779526Y-73249598D01*
X172772606Y-73240074D01*
X172703547Y-73145022D01*
X172663830Y-73090356D01*
X172524643Y-72951169D01*
X172365401Y-72835473D01*
X172190025Y-72746116D01*
X172002826Y-72685291D01*
X171808417Y-72654500D01*
X171611583Y-72654500D01*
X171481977Y-72675027D01*
X171417173Y-72685291D01*
X171229974Y-72746116D01*
X171054598Y-72835473D01*
X170895356Y-72951169D01*
X170756172Y-73090353D01*
X170669734Y-73209324D01*
X170613816Y-73254604D01*
X170542751Y-73265859D01*
X170475578Y-73240074D01*
X170433431Y-73190725D01*
X170410150Y-73145033D01*
X170410143Y-73145022D01*
X170356863Y-73071689D01*
X170356862Y-73071689D01*
X169612137Y-73816414D01*
X169589333Y-73731306D01*
X169530090Y-73628694D01*
X169446306Y-73544910D01*
X169343694Y-73485667D01*
X169258582Y-73462861D01*
X170003309Y-72718135D01*
X169929969Y-72664851D01*
X169929960Y-72664846D01*
X169726608Y-72561233D01*
X169509548Y-72490705D01*
X169284114Y-72455000D01*
X169055886Y-72455000D01*
X168830451Y-72490705D01*
X168613391Y-72561233D01*
X168410039Y-72664846D01*
X168410030Y-72664851D01*
X168336689Y-72718135D01*
X169081415Y-73462861D01*
X168996306Y-73485667D01*
X168893694Y-73544910D01*
X168809910Y-73628694D01*
X168750667Y-73731306D01*
X168727861Y-73816415D01*
X167983135Y-73071689D01*
X167929851Y-73145030D01*
X167929846Y-73145039D01*
X167826233Y-73348391D01*
X167755705Y-73565451D01*
X167720000Y-73790886D01*
X150185350Y-73790886D01*
X148880294Y-72485830D01*
X148852765Y-72469936D01*
X148777566Y-72426519D01*
X148753353Y-72420032D01*
X148662989Y-72395819D01*
X145939499Y-72395819D01*
X145869999Y-72377197D01*
X145819121Y-72326319D01*
X145800499Y-72256819D01*
X145800499Y-71951462D01*
X145800499Y-71951455D01*
X145797585Y-71926328D01*
X145752206Y-71823554D01*
X145672765Y-71744113D01*
X145672764Y-71744112D01*
X145615369Y-71718770D01*
X145569991Y-71698734D01*
X145569989Y-71698733D01*
X145544868Y-71695819D01*
X144974266Y-71695819D01*
X144904766Y-71677197D01*
X144853888Y-71626319D01*
X144835266Y-71556819D01*
X144853888Y-71487319D01*
X144904766Y-71436441D01*
X144931311Y-71424622D01*
X145091639Y-71372530D01*
X145252994Y-71290315D01*
X145399501Y-71183872D01*
X145527553Y-71055820D01*
X145633996Y-70909313D01*
X145716211Y-70747958D01*
X145772171Y-70575728D01*
X145800500Y-70396865D01*
X145800500Y-70215773D01*
X145772171Y-70036910D01*
X145772169Y-70036905D01*
X145772169Y-70036902D01*
X145751199Y-69972364D01*
X145716211Y-69864680D01*
X145633996Y-69703325D01*
X145633994Y-69703322D01*
X145633993Y-69703320D01*
X145633988Y-69703313D01*
X145527555Y-69556821D01*
X145527553Y-69556818D01*
X145399501Y-69428766D01*
X145389214Y-69421292D01*
X145253005Y-69322330D01*
X145252998Y-69322325D01*
X145250360Y-69320981D01*
X145091639Y-69240108D01*
X145056649Y-69228739D01*
X144919416Y-69184149D01*
X144885056Y-69178707D01*
X190299500Y-69178707D01*
X190299500Y-69421292D01*
X190331161Y-69661785D01*
X190331162Y-69661789D01*
X190342288Y-69703313D01*
X190393948Y-69896106D01*
X190486773Y-70120207D01*
X190486779Y-70120219D01*
X190608061Y-70330285D01*
X190608063Y-70330288D01*
X190608064Y-70330289D01*
X190755735Y-70522738D01*
X190927262Y-70694265D01*
X190927266Y-70694268D01*
X191119711Y-70841936D01*
X191119714Y-70841938D01*
X191329780Y-70963220D01*
X191329792Y-70963226D01*
X191503122Y-71035021D01*
X191553900Y-71056054D01*
X191788211Y-71118838D01*
X192028712Y-71150500D01*
X192028717Y-71150500D01*
X192271283Y-71150500D01*
X192271288Y-71150500D01*
X192511789Y-71118838D01*
X192746100Y-71056054D01*
X192970212Y-70963224D01*
X193180289Y-70841936D01*
X193372738Y-70694265D01*
X193544265Y-70522738D01*
X193691936Y-70330289D01*
X193813224Y-70120212D01*
X193906054Y-69896100D01*
X193968838Y-69661789D01*
X194000500Y-69421288D01*
X194000500Y-69178712D01*
X193968838Y-68938211D01*
X193906054Y-68703900D01*
X193813224Y-68479788D01*
X193813220Y-68479780D01*
X193691938Y-68269714D01*
X193691936Y-68269711D01*
X193544268Y-68077266D01*
X193544265Y-68077262D01*
X193372738Y-67905735D01*
X193298046Y-67848422D01*
X193180288Y-67758063D01*
X193180285Y-67758061D01*
X192970219Y-67636779D01*
X192970207Y-67636773D01*
X192746106Y-67543948D01*
X192746102Y-67543947D01*
X192746100Y-67543946D01*
X192511789Y-67481162D01*
X192511788Y-67481161D01*
X192511785Y-67481161D01*
X192271292Y-67449500D01*
X192271288Y-67449500D01*
X192028712Y-67449500D01*
X192028707Y-67449500D01*
X191788214Y-67481161D01*
X191681438Y-67509772D01*
X191561055Y-67542029D01*
X191553893Y-67543948D01*
X191329792Y-67636773D01*
X191329780Y-67636779D01*
X191119714Y-67758061D01*
X191119711Y-67758063D01*
X190927266Y-67905731D01*
X190755731Y-68077266D01*
X190608063Y-68269711D01*
X190608061Y-68269714D01*
X190486779Y-68479780D01*
X190486773Y-68479792D01*
X190393948Y-68703893D01*
X190393946Y-68703899D01*
X190393946Y-68703900D01*
X190369588Y-68794803D01*
X190331161Y-68938214D01*
X190299500Y-69178707D01*
X144885056Y-69178707D01*
X144740546Y-69155819D01*
X144559454Y-69155819D01*
X144444946Y-69173955D01*
X144380583Y-69184149D01*
X144208361Y-69240108D01*
X144047001Y-69322325D01*
X144046994Y-69322330D01*
X143900502Y-69428763D01*
X143900495Y-69428769D01*
X143772450Y-69556814D01*
X143772444Y-69556821D01*
X143666011Y-69703313D01*
X143666006Y-69703320D01*
X143583789Y-69864680D01*
X143527830Y-70036902D01*
X143527829Y-70036910D01*
X143499500Y-70215773D01*
X143499500Y-70396865D01*
X143519436Y-70522738D01*
X143527830Y-70575735D01*
X143566343Y-70694265D01*
X143583789Y-70747958D01*
X143631675Y-70841938D01*
X143666006Y-70909317D01*
X143666011Y-70909324D01*
X143772444Y-71055816D01*
X143772447Y-71055820D01*
X143900499Y-71183872D01*
X143900502Y-71183874D01*
X144046994Y-71290307D01*
X144047001Y-71290312D01*
X144047003Y-71290313D01*
X144047006Y-71290315D01*
X144208361Y-71372530D01*
X144368687Y-71424622D01*
X144429031Y-71463809D01*
X144461696Y-71527919D01*
X144457931Y-71599772D01*
X144418744Y-71660116D01*
X144354634Y-71692781D01*
X144325734Y-71695819D01*
X143755143Y-71695819D01*
X143755135Y-71695820D01*
X143730009Y-71698734D01*
X143730008Y-71698734D01*
X143627235Y-71744112D01*
X143627235Y-71744113D01*
X143547794Y-71823554D01*
X143547793Y-71823554D01*
X143502415Y-71926328D01*
X143502414Y-71926329D01*
X143499500Y-71951450D01*
X143499500Y-72206819D01*
X143480878Y-72276319D01*
X143430000Y-72327197D01*
X143360500Y-72345819D01*
X141487788Y-72345819D01*
X141360494Y-72379926D01*
X141360490Y-72379928D01*
X141246370Y-72445816D01*
X141246364Y-72445821D01*
X135212078Y-78480107D01*
X135149766Y-78516083D01*
X135113790Y-78520819D01*
X132898953Y-78520819D01*
X132845758Y-78510237D01*
X132841169Y-78508336D01*
X132701155Y-78470819D01*
X132556205Y-78470819D01*
X132416194Y-78508335D01*
X132416191Y-78508336D01*
X132290669Y-78580807D01*
X132290663Y-78580812D01*
X132188173Y-78683302D01*
X132188168Y-78683308D01*
X132115697Y-78808830D01*
X132115696Y-78808833D01*
X132078180Y-78948843D01*
X131043307Y-78948843D01*
X125519892Y-73425428D01*
X125483916Y-73363116D01*
X125479180Y-73327140D01*
X125479180Y-67579273D01*
X125497801Y-67509776D01*
X125541664Y-67433804D01*
X125579180Y-67293794D01*
X125579180Y-67148844D01*
X125541664Y-67008834D01*
X125469189Y-66883304D01*
X125366695Y-66780810D01*
X125366690Y-66780807D01*
X125241168Y-66708336D01*
X125241165Y-66708335D01*
X125101155Y-66670819D01*
X124956205Y-66670819D01*
X124816194Y-66708335D01*
X124816191Y-66708336D01*
X124690669Y-66780807D01*
X124690663Y-66780812D01*
X124588173Y-66883302D01*
X124588168Y-66883308D01*
X124515697Y-67008830D01*
X124515696Y-67008833D01*
X124506669Y-67042524D01*
X124478180Y-67148844D01*
X124478180Y-67293794D01*
X124515696Y-67433804D01*
X124559557Y-67509773D01*
X124578180Y-67579272D01*
X124578180Y-73630628D01*
X124595431Y-73695009D01*
X124595431Y-73695010D01*
X124608880Y-73745205D01*
X124668190Y-73847931D01*
X124668193Y-73847935D01*
X127497640Y-76677382D01*
X127533616Y-76739694D01*
X127533616Y-76811646D01*
X127501467Y-76869976D01*
X127492371Y-76879824D01*
X127490665Y-76880810D01*
X127388171Y-76983304D01*
X127373769Y-77008247D01*
X127363254Y-77019634D01*
X127345489Y-77030854D01*
X127330633Y-77045709D01*
X127315589Y-77049739D01*
X127302420Y-77058057D01*
X127281424Y-77058891D01*
X127261132Y-77064328D01*
X127241733Y-77060469D01*
X127230525Y-77060915D01*
X127222334Y-77056610D01*
X127207953Y-77053750D01*
X127202571Y-77051521D01*
X127177132Y-77044705D01*
X127087989Y-77020819D01*
X123126634Y-77020819D01*
X123057137Y-77002197D01*
X122981165Y-76958335D01*
X122841155Y-76920819D01*
X122696205Y-76920819D01*
X122556194Y-76958335D01*
X122556191Y-76958336D01*
X122430669Y-77030807D01*
X122430663Y-77030812D01*
X122328173Y-77133302D01*
X122328168Y-77133308D01*
X122255697Y-77258830D01*
X122255696Y-77258833D01*
X122218180Y-77398843D01*
X122218180Y-77543794D01*
X122255696Y-77683804D01*
X122255697Y-77683807D01*
X122328168Y-77809329D01*
X122328171Y-77809334D01*
X122430665Y-77911828D01*
X122447970Y-77921819D01*
X122556191Y-77984301D01*
X122556192Y-77984301D01*
X122556195Y-77984303D01*
X122696205Y-78021819D01*
X122841155Y-78021819D01*
X122981165Y-77984303D01*
X123057135Y-77940441D01*
X123126633Y-77921819D01*
X126784501Y-77921819D01*
X126854001Y-77940441D01*
X126882789Y-77962531D01*
X133553066Y-84632808D01*
X133612376Y-84667050D01*
X133655794Y-84692118D01*
X133770371Y-84722819D01*
X137534501Y-84722819D01*
X137604001Y-84741441D01*
X137632789Y-84763531D01*
X139802789Y-86933531D01*
X139838765Y-86995843D01*
X139838765Y-87067795D01*
X139802789Y-87130107D01*
X139740477Y-87166083D01*
X139704501Y-87170819D01*
X108483703Y-87170819D01*
X108414203Y-87152197D01*
X108399087Y-87142097D01*
X108397397Y-87140800D01*
X108397396Y-87140799D01*
X108275249Y-87070278D01*
X108260463Y-87061741D01*
X108107737Y-87020819D01*
X107949623Y-87020819D01*
X107796896Y-87061741D01*
X107659962Y-87140800D01*
X107659962Y-87140801D01*
X107548162Y-87252601D01*
X107548161Y-87252601D01*
X107469102Y-87389535D01*
X107428180Y-87542261D01*
X106200500Y-87542261D01*
X106200500Y-73720131D01*
X107092388Y-73720131D01*
X107092388Y-80279856D01*
X107092389Y-80279864D01*
X107095303Y-80304990D01*
X107095303Y-80304991D01*
X107140681Y-80407764D01*
X107140682Y-80407765D01*
X107220123Y-80487206D01*
X107322897Y-80532585D01*
X107348023Y-80535500D01*
X114897752Y-80535499D01*
X114922879Y-80532585D01*
X115025653Y-80487206D01*
X115105094Y-80407765D01*
X115150473Y-80304991D01*
X115153388Y-80279865D01*
X115153387Y-73720136D01*
X115150473Y-73695009D01*
X115105094Y-73592235D01*
X115025653Y-73512794D01*
X115025652Y-73512793D01*
X114964216Y-73485667D01*
X114922879Y-73467415D01*
X114922877Y-73467414D01*
X114897754Y-73464500D01*
X107348031Y-73464500D01*
X107348023Y-73464501D01*
X107322897Y-73467415D01*
X107322896Y-73467415D01*
X107220123Y-73512793D01*
X107220123Y-73512794D01*
X107140682Y-73592235D01*
X107140681Y-73592235D01*
X107095303Y-73695009D01*
X107092388Y-73720131D01*
X106200500Y-73720131D01*
X106200500Y-68704193D01*
X106200754Y-68695801D01*
X106218216Y-68407113D01*
X106220239Y-68390450D01*
X106271616Y-68110092D01*
X106275632Y-68093803D01*
X106280785Y-68077266D01*
X106360430Y-67821676D01*
X106366368Y-67806017D01*
X106483353Y-67546087D01*
X106491150Y-67531233D01*
X106638605Y-67287312D01*
X106648128Y-67273515D01*
X106823931Y-67049119D01*
X106835023Y-67036599D01*
X107036587Y-66835035D01*
X107049132Y-66823920D01*
X107273519Y-66648125D01*
X107287314Y-66638604D01*
X107531231Y-66491150D01*
X107546086Y-66483354D01*
X107806012Y-66366371D01*
X107821677Y-66360430D01*
X108093816Y-66275628D01*
X108110089Y-66271617D01*
X108390453Y-66220238D01*
X108407110Y-66218216D01*
X108476035Y-66214047D01*
X108695829Y-66200753D01*
X108704221Y-66200499D01*
X108765893Y-66200499D01*
X192634107Y-66200499D01*
X192695805Y-66200499D01*
X192704197Y-66200753D01*
G37*
%TD.AperFunction*%
%TD*%
M02*
