M48
; DRILL file {KiCad 8.0.0} date 2024-08-30T23:23:27+0200
; FORMAT={-:-/ absolute / metric / decimal}
; #@! TF.CreationDate,2024-08-30T23:23:27+02:00
; #@! TF.GenerationSoftware,Kicad,Pcbnew,8.0.0
; #@! TF.FileFunction,Plated,1,2,PTH
FMAT,2
METRIC
; #@! TA.AperFunction,Plated,PTH,ViaDrill
T1C0.300
; #@! TA.AperFunction,Plated,PTH,ComponentDrill
T2C0.600
; #@! TA.AperFunction,Plated,PTH,ComponentDrill
T3C0.900
; #@! TA.AperFunction,Plated,PTH,ComponentDrill
T4C1.000
%
G90
G05
T1
X107.229Y-84.271
X107.864Y-74.621
X107.9Y-76.421
X107.9Y-78.271
X108.179Y-68.321
X108.679Y-84.271
X108.907Y-75.521
X108.943Y-77.321
X108.943Y-79.171
X109.429Y-98.521
X109.629Y-68.321
X110.007Y-74.621
X110.043Y-76.421
X110.043Y-78.271
X110.129Y-84.271
X110.4Y-89.95
X110.879Y-98.521
X111.05Y-75.521
X111.079Y-95.821
X111.086Y-77.321
X111.086Y-79.171
X112.15Y-74.621
X112.186Y-76.421
X112.186Y-78.271
X112.329Y-98.521
X113.193Y-75.521
X113.229Y-77.321
X113.229Y-79.171
X113.779Y-98.521
X114.293Y-74.621
X114.329Y-76.421
X114.329Y-78.271
X114.879Y-68.321
X115.229Y-98.521
X115.329Y-85.671
X115.957Y-89.4
X116.329Y-68.321
X116.679Y-96.121
X117.779Y-68.321
X119.229Y-68.321
X119.679Y-73.571
X119.7Y-75.918
X119.722Y-82.223
X119.729Y-79.921
X120.029Y-87.371
X120.679Y-68.321
X122.129Y-68.321
X122.279Y-77.271
X123.479Y-68.321
X123.657Y-82.45
X124.85Y-73.5
X124.9Y-79.85
X124.929Y-68.321
X126.379Y-68.321
X127.229Y-82.221
X127.479Y-89.871
X127.55Y-92.75
X127.829Y-68.321
X129.279Y-68.321
X129.4Y-98.25
X130.729Y-68.321
X131.429Y-82.271
X131.429Y-88.921
X131.579Y-77.771
X131.79Y-92.609
X131.804Y-90.897
X132.575Y-97.075
X132.629Y-79.021
X133.029Y-71.121
X133.629Y-74.721
X133.729Y-91.321
X135.079Y-74.721
X135.429Y-80.871
X136.379Y-74.721
X136.879Y-80.871
X138.329Y-80.871
X138.979Y-83.471
X139.229Y-70.85
X139.529Y-78.071
X139.576Y-84.069
X140.979Y-78.071
X141.929Y-69.071
X141.979Y-73.771
X142.429Y-78.071
X143.279Y-75.721
X144.079Y-83.871
X144.579Y-86.771
X144.729Y-75.721
X145.579Y-82.371
X146.179Y-75.721
X146.449Y-89.192
X146.8Y-80.75
X146.829Y-71.521
X147.029Y-85.771
X149.079Y-83.871
X149.379Y-75.821
X150.129Y-77.471
X150.229Y-71.571
X150.301Y-91.549
X150.6Y-90.15
X150.979Y-88.871
X151.029Y-95.371
X151.708Y-83.275
X151.979Y-95.371
X152.24Y-82.774
X152.879Y-93.621
X153.279Y-82.471
X153.429Y-92.071
X154.879Y-87.571
X155.0Y-80.45
X155.179Y-78.171
X155.379Y-93.721
X155.529Y-81.071
X155.679Y-89.771
X156.129Y-81.671
X156.279Y-71.521
X156.604Y-77.146
X156.629Y-82.271
X156.879Y-92.421
X157.079Y-85.671
X157.079Y-90.621
X157.879Y-77.121
X157.979Y-83.271
X158.679Y-97.721
X159.731Y-78.863
X159.829Y-68.371
X159.829Y-71.921
X159.829Y-75.471
X160.129Y-97.721
X161.579Y-87.121
X161.579Y-97.721
X161.629Y-84.221
X163.079Y-84.221
X164.079Y-89.871
X164.729Y-70.371
X164.929Y-73.671
X164.929Y-78.371
X165.529Y-89.871
X166.979Y-89.871
X167.079Y-76.471
X167.129Y-77.971
X169.979Y-90.471
X170.0Y-79.0
X170.229Y-89.171
X171.079Y-89.821
X171.979Y-78.921
X173.029Y-88.021
X173.429Y-69.771
X173.979Y-79.021
X174.879Y-71.071
X175.479Y-68.471
X175.679Y-88.021
X176.0Y-90.471
X177.679Y-70.671
X177.979Y-79.021
X178.0Y-90.421
X179.279Y-86.571
X179.979Y-79.021
X180.029Y-82.221
X180.729Y-86.571
X181.179Y-69.471
X181.479Y-82.221
X182.0Y-94.021
X182.029Y-78.921
X182.179Y-86.571
X182.579Y-67.471
X182.729Y-71.521
X182.729Y-72.321
X182.729Y-75.121
X182.929Y-82.221
X184.029Y-93.971
X184.079Y-66.671
X185.329Y-71.455
X185.329Y-72.321
X185.329Y-73.205
X185.329Y-74.088
X185.329Y-74.971
X185.529Y-67.421
X186.879Y-69.471
X187.264Y-74.771
X187.3Y-76.571
X187.3Y-78.421
X188.307Y-75.671
X188.343Y-77.471
X188.343Y-79.321
X189.407Y-74.771
X189.443Y-76.571
X189.443Y-78.421
X190.45Y-75.671
X190.486Y-77.471
X190.486Y-79.321
X191.55Y-74.771
X191.586Y-76.571
X191.586Y-78.421
X192.593Y-75.671
X192.629Y-77.471
X192.629Y-79.321
X193.693Y-74.771
X193.729Y-76.571
X193.729Y-78.421
X194.079Y-84.821
X194.079Y-86.271
X194.079Y-87.721
X194.079Y-89.171
X194.079Y-90.621
X194.079Y-92.071
X194.079Y-93.421
X194.079Y-94.871
X194.079Y-96.321
T2
X108.4Y-92.85
X108.4Y-94.1
X108.4Y-95.35
X113.9Y-92.225
X113.9Y-93.475
X113.9Y-94.725
X113.9Y-95.975
X119.25Y-90.975
X119.25Y-92.225
X119.25Y-93.475
X119.25Y-94.725
X119.25Y-95.975
X119.25Y-97.225
T3
X166.63Y-95.775
X169.17Y-73.905
X169.17Y-95.775
X171.71Y-73.905
X171.71Y-95.775
X174.25Y-73.905
X174.25Y-95.775
X176.79Y-73.905
X176.79Y-95.775
X179.33Y-73.905
X179.33Y-95.775
X181.87Y-73.905
T4
X144.65Y-70.306
X144.65Y-72.846
M30
