M48
; DRILL file {KiCad 9.0.1} date 2025-07-03T23:24:30+0200
; FORMAT={-:-/ absolute / metric / decimal}
; #@! TF.CreationDate,2025-07-03T23:24:30+02:00
; #@! TF.GenerationSoftware,Kicad,Pcbnew,9.0.1
; #@! TF.FileFunction,Plated,1,2,PTH
FMAT,2
METRIC
; #@! TA.AperFunction,Plated,PTH,ViaDrill
T1C0.300
; #@! TA.AperFunction,Plated,PTH,ComponentDrill
T2C0.600
; #@! TA.AperFunction,Plated,PTH,ComponentDrill
T3C0.900
; #@! TA.AperFunction,Plated,PTH,ComponentDrill
T4C1.000
%
G90
G05
T1
X106.829Y-82.571
X106.829Y-83.871
X106.829Y-85.321
X107.529Y-67.821
X107.864Y-74.621
X107.9Y-76.421
X107.9Y-78.271
X108.029Y-87.621
X108.279Y-82.571
X108.279Y-83.871
X108.907Y-75.521
X108.943Y-77.321
X108.943Y-79.171
X108.979Y-67.821
X109.429Y-98.671
X109.729Y-82.571
X110.007Y-74.621
X110.043Y-76.421
X110.043Y-78.271
X110.379Y-67.821
X110.879Y-89.171
X110.879Y-98.671
X111.05Y-75.521
X111.079Y-95.821
X111.086Y-77.321
X111.086Y-79.171
X111.579Y-85.621
X111.829Y-67.821
X112.15Y-74.621
X112.186Y-76.421
X112.186Y-78.271
X112.329Y-98.671
X113.193Y-75.521
X113.229Y-77.321
X113.229Y-79.171
X113.279Y-67.821
X113.779Y-98.671
X114.293Y-74.621
X114.329Y-76.421
X114.329Y-78.271
X114.729Y-67.821
X115.229Y-98.671
X115.329Y-85.671
X115.329Y-91.371
X116.179Y-67.821
X116.679Y-96.121
X117.629Y-67.821
X119.779Y-72.371
X119.779Y-80.671
X120.729Y-97.221
X121.429Y-86.571
X121.779Y-70.721
X122.769Y-77.471
X122.979Y-82.421
X123.729Y-69.971
X125.029Y-67.221
X125.079Y-79.85
X126.379Y-79.871
X127.229Y-82.221
X127.479Y-89.871
X127.629Y-69.371
X127.629Y-98.571
X127.829Y-77.321
X129.879Y-66.971
X130.529Y-88.821
X131.179Y-66.971
X131.179Y-72.971
X132.029Y-88.821
X132.629Y-66.971
X132.629Y-79.021
X133.729Y-91.521
X133.879Y-98.571
X135.229Y-69.471
X135.229Y-70.771
X135.229Y-72.221
X135.229Y-73.571
X135.229Y-74.871
X135.229Y-76.321
X135.229Y-77.871
X135.229Y-80.221
X135.229Y-81.771
X138.429Y-70.85
X139.576Y-84.069
X141.929Y-69.071
X141.979Y-73.771
X143.029Y-84.071
X143.279Y-75.721
X144.129Y-85.071
X144.729Y-75.721
X145.854Y-80.896
X146.179Y-75.721
X146.449Y-89.192
X146.829Y-71.521
X148.129Y-76.421
X148.749Y-86.951
X149.229Y-84.071
X150.129Y-77.421
X150.279Y-71.521
X150.293Y-91.549
X150.725Y-90.15
X150.979Y-88.871
X151.708Y-83.275
X152.24Y-82.774
X152.299Y-93.621
X152.579Y-85.321
X153.279Y-82.471
X153.329Y-71.571
X153.429Y-92.071
X154.429Y-87.371
X154.977Y-90.721
X155.0Y-80.45
X155.179Y-78.171
X155.529Y-81.071
X155.879Y-90.221
X156.129Y-81.671
X156.604Y-77.146
X156.629Y-82.271
X156.979Y-90.471
X157.079Y-85.671
X157.429Y-73.646
X157.429Y-76.196
X157.979Y-83.271
X158.729Y-69.471
X159.329Y-97.271
X159.579Y-88.176
X159.679Y-75.471
X159.731Y-78.863
X160.779Y-97.271
X161.029Y-84.171
X161.679Y-87.221
X162.229Y-97.271
X163.279Y-85.971
X163.329Y-78.971
X164.479Y-73.671
X164.779Y-70.271
X166.129Y-88.671
X166.329Y-73.671
X167.579Y-76.471
X167.979Y-88.671
X169.779Y-89.171
X170.579Y-79.071
X170.579Y-89.921
X171.629Y-89.821
X172.629Y-79.021
X172.729Y-83.171
X174.179Y-83.171
X174.629Y-79.071
X174.829Y-86.271
X175.429Y-68.471
X175.479Y-71.571
X175.629Y-80.121
X175.629Y-83.171
X176.279Y-86.271
X176.579Y-90.421
X177.629Y-70.671
X177.729Y-86.271
X178.529Y-89.021
X178.579Y-79.171
X178.629Y-90.471
X179.279Y-86.271
X179.579Y-90.021
X180.029Y-82.221
X180.629Y-79.271
X180.729Y-86.271
X181.479Y-82.221
X181.807Y-69.493
X182.179Y-86.271
X182.629Y-79.621
X182.629Y-94.071
X182.929Y-82.221
X183.207Y-67.493
X183.379Y-71.505
X183.379Y-72.371
X183.379Y-73.255
X183.379Y-74.138
X183.379Y-75.021
X184.629Y-89.721
X184.707Y-66.693
X185.879Y-71.476
X185.879Y-72.343
X185.879Y-73.226
X185.879Y-74.109
X185.879Y-74.993
X186.157Y-67.443
X186.229Y-92.321
X187.264Y-74.771
X187.3Y-76.571
X187.3Y-78.421
X187.507Y-69.493
X188.307Y-75.671
X188.343Y-77.471
X188.343Y-79.321
X189.407Y-74.771
X189.443Y-76.571
X189.443Y-78.421
X190.45Y-75.671
X190.486Y-77.471
X190.486Y-79.321
X191.55Y-74.771
X191.586Y-76.571
X191.586Y-78.421
X192.593Y-75.671
X192.629Y-77.471
X192.629Y-79.321
X193.693Y-74.771
X193.729Y-76.571
X193.729Y-78.421
X194.079Y-84.821
X194.079Y-86.271
X194.079Y-87.721
X194.079Y-89.171
X194.079Y-90.621
X194.079Y-92.071
X194.079Y-93.421
X194.079Y-94.871
X194.079Y-96.321
T2
X108.4Y-92.85
X108.4Y-94.1
X108.4Y-95.35
X113.9Y-92.225
X113.9Y-93.475
X113.9Y-94.725
X113.9Y-95.975
X119.25Y-90.975
X119.25Y-92.225
X119.25Y-93.475
X119.25Y-94.725
X119.25Y-95.975
X119.25Y-97.225
T3
X166.63Y-95.775
X169.17Y-73.905
X169.17Y-95.775
X171.71Y-73.905
X171.71Y-95.775
X174.25Y-73.905
X174.25Y-95.775
X176.79Y-73.905
X176.79Y-95.775
X179.33Y-73.905
X179.33Y-95.775
X181.87Y-73.905
T4
X144.65Y-70.306
X144.65Y-72.846
M30
