%TF.GenerationSoftware,KiCad,Pcbnew,8.0.0*%
%TF.CreationDate,2024-08-30T23:23:31+02:00*%
%TF.ProjectId,LoRa_Node,4c6f5261-5f4e-46f6-9465-2e6b69636164,rev?*%
%TF.SameCoordinates,Original*%
%TF.FileFunction,Paste,Top*%
%TF.FilePolarity,Positive*%
%FSLAX46Y46*%
G04 Gerber Fmt 4.6, Leading zero omitted, Abs format (unit mm)*
G04 Created by KiCad (PCBNEW 8.0.0) date 2024-08-30 23:23:31*
%MOMM*%
%LPD*%
G01*
G04 APERTURE LIST*
G04 Aperture macros list*
%AMRoundRect*
0 Rectangle with rounded corners*
0 $1 Rounding radius*
0 $2 $3 $4 $5 $6 $7 $8 $9 X,Y pos of 4 corners*
0 Add a 4 corners polygon primitive as box body*
4,1,4,$2,$3,$4,$5,$6,$7,$8,$9,$2,$3,0*
0 Add four circle primitives for the rounded corners*
1,1,$1+$1,$2,$3*
1,1,$1+$1,$4,$5*
1,1,$1+$1,$6,$7*
1,1,$1+$1,$8,$9*
0 Add four rect primitives between the rounded corners*
20,1,$1+$1,$2,$3,$4,$5,0*
20,1,$1+$1,$4,$5,$6,$7,0*
20,1,$1+$1,$6,$7,$8,$9,0*
20,1,$1+$1,$8,$9,$2,$3,0*%
%AMRotRect*
0 Rectangle, with rotation*
0 The origin of the aperture is its center*
0 $1 length*
0 $2 width*
0 $3 Rotation angle, in degrees counterclockwise*
0 Add horizontal line*
21,1,$1,$2,0,0,$3*%
G04 Aperture macros list end*
%ADD10RoundRect,0.200000X-0.335876X-0.053033X-0.053033X-0.335876X0.335876X0.053033X0.053033X0.335876X0*%
%ADD11R,1.000000X2.580000*%
%ADD12RoundRect,0.200000X0.200000X0.275000X-0.200000X0.275000X-0.200000X-0.275000X0.200000X-0.275000X0*%
%ADD13RoundRect,0.140000X0.219203X0.021213X0.021213X0.219203X-0.219203X-0.021213X-0.021213X-0.219203X0*%
%ADD14RoundRect,0.225000X-0.225000X-0.250000X0.225000X-0.250000X0.225000X0.250000X-0.225000X0.250000X0*%
%ADD15RoundRect,0.225000X-0.250000X0.225000X-0.250000X-0.225000X0.250000X-0.225000X0.250000X0.225000X0*%
%ADD16RoundRect,0.317500X0.317500X-1.157500X0.317500X1.157500X-0.317500X1.157500X-0.317500X-1.157500X0*%
%ADD17R,1.150000X0.600000*%
%ADD18RoundRect,0.200000X-0.200000X-0.275000X0.200000X-0.275000X0.200000X0.275000X-0.200000X0.275000X0*%
%ADD19RotRect,1.000000X1.800000X135.000000*%
%ADD20RoundRect,0.225000X0.225000X0.250000X-0.225000X0.250000X-0.225000X-0.250000X0.225000X-0.250000X0*%
%ADD21R,0.350000X0.500000*%
%ADD22RoundRect,0.200000X0.275000X-0.200000X0.275000X0.200000X-0.275000X0.200000X-0.275000X-0.200000X0*%
%ADD23R,1.000000X1.000000*%
%ADD24R,1.050000X2.200000*%
%ADD25RoundRect,0.200000X-0.275000X0.200000X-0.275000X-0.200000X0.275000X-0.200000X0.275000X0.200000X0*%
%ADD26RotRect,0.400000X1.900000X315.000000*%
%ADD27RoundRect,0.250000X-0.650000X0.325000X-0.650000X-0.325000X0.650000X-0.325000X0.650000X0.325000X0*%
%ADD28RoundRect,0.075000X-0.415425X-0.521491X0.521491X0.415425X0.415425X0.521491X-0.521491X-0.415425X0*%
%ADD29RoundRect,0.075000X0.415425X-0.521491X0.521491X-0.415425X-0.415425X0.521491X-0.521491X0.415425X0*%
%ADD30RoundRect,0.140000X0.021213X-0.219203X0.219203X-0.021213X-0.021213X0.219203X-0.219203X0.021213X0*%
%ADD31RoundRect,0.140000X-0.219203X-0.021213X-0.021213X-0.219203X0.219203X0.021213X0.021213X0.219203X0*%
%ADD32R,1.000000X0.900000*%
%ADD33RoundRect,0.225000X-0.335876X-0.017678X-0.017678X-0.335876X0.335876X0.017678X0.017678X0.335876X0*%
%ADD34RoundRect,0.140000X-0.021213X0.219203X-0.219203X0.021213X0.021213X-0.219203X0.219203X-0.021213X0*%
%ADD35RoundRect,0.200000X0.053033X-0.335876X0.335876X-0.053033X-0.053033X0.335876X-0.335876X0.053033X0*%
%ADD36RoundRect,0.200000X0.335876X0.053033X0.053033X0.335876X-0.335876X-0.053033X-0.053033X-0.335876X0*%
G04 APERTURE END LIST*
D10*
%TO.C,R5*%
X153112043Y-77904682D03*
X151945317Y-76737956D03*
%TD*%
D11*
%TO.C,J4*%
X148278680Y-73656319D03*
X148278680Y-69486319D03*
X150278680Y-73656319D03*
X150278680Y-69486319D03*
X152278680Y-73656319D03*
X152278680Y-69486319D03*
X154278680Y-73656319D03*
X154278680Y-69486319D03*
X156278680Y-73656319D03*
X156278680Y-69486319D03*
%TD*%
D12*
%TO.C,R10*%
X171553680Y-71221319D03*
X169903680Y-71221319D03*
%TD*%
D13*
%TO.C,C10*%
X151739411Y-90389411D03*
X151060589Y-89710589D03*
%TD*%
%TO.C,C14*%
X147788802Y-89881441D03*
X147109980Y-89202619D03*
%TD*%
D14*
%TO.C,C28*%
X118503680Y-88100000D03*
X120053680Y-88100000D03*
%TD*%
D15*
%TO.C,C25*%
X131450000Y-72725000D03*
X131450000Y-74275000D03*
%TD*%
D16*
%TO.C,U2*%
X170000000Y-92275000D03*
X172000000Y-92275000D03*
X174000000Y-92275000D03*
X176000000Y-92275000D03*
X178000000Y-92275000D03*
X180000000Y-92275000D03*
X182000000Y-92275000D03*
X184000000Y-92275000D03*
X184000000Y-77225000D03*
X182000000Y-77225000D03*
X180000000Y-77225000D03*
X178000000Y-77225000D03*
X176000000Y-77225000D03*
X174000000Y-77225000D03*
X172000000Y-77225000D03*
X170000000Y-77225000D03*
%TD*%
D17*
%TO.C,IC2*%
X123850000Y-72550000D03*
X123850000Y-73500000D03*
X123850000Y-74450000D03*
X126350000Y-74450000D03*
X126350000Y-72550000D03*
%TD*%
D15*
%TO.C,C15*%
X121832500Y-79095000D03*
X121832500Y-80645000D03*
%TD*%
D14*
%TO.C,C1*%
X129425000Y-97500000D03*
X130975000Y-97500000D03*
%TD*%
D18*
%TO.C,R7*%
X124307500Y-82450000D03*
X125957500Y-82450000D03*
%TD*%
D15*
%TO.C,C17*%
X131412500Y-79055000D03*
X131412500Y-80605000D03*
%TD*%
D13*
%TO.C,C7*%
X148839411Y-86089411D03*
X148160589Y-85410589D03*
%TD*%
D19*
%TO.C,Y2*%
X144644797Y-89237436D03*
X146412563Y-91005202D03*
%TD*%
D13*
%TO.C,C5*%
X150888802Y-92981441D03*
X150209980Y-92302619D03*
%TD*%
D20*
%TO.C,C3*%
X140003680Y-74521319D03*
X138453680Y-74521319D03*
%TD*%
D21*
%TO.C,U1*%
X129225000Y-94200000D03*
X129875000Y-94200000D03*
X130525000Y-94200000D03*
X131175000Y-94200000D03*
X131175000Y-95800000D03*
X130525000Y-95800000D03*
X129875000Y-95800000D03*
X129225000Y-95800000D03*
%TD*%
D22*
%TO.C,R9*%
X129800000Y-77575000D03*
X129800000Y-75925000D03*
%TD*%
D23*
%TO.C,J3*%
X184050000Y-71000000D03*
D24*
X182575000Y-69500000D03*
D23*
X184050000Y-68000000D03*
D24*
X185525000Y-69500000D03*
%TD*%
D15*
%TO.C,C19*%
X167878680Y-76446319D03*
X167878680Y-77996319D03*
%TD*%
D25*
%TO.C,R8*%
X128150000Y-75925000D03*
X128150000Y-77575000D03*
%TD*%
D26*
%TO.C,Y1*%
X147750863Y-92393502D03*
X148599391Y-93242030D03*
X149447919Y-94090558D03*
%TD*%
D27*
%TO.C,C16*%
X119722500Y-78415000D03*
X119722500Y-81365000D03*
%TD*%
D20*
%TO.C,C2*%
X129875000Y-92750000D03*
X128325000Y-92750000D03*
%TD*%
D28*
%TO.C,U3*%
X150312124Y-85148788D03*
X150665678Y-85502342D03*
X151019231Y-85855895D03*
X151372785Y-86209449D03*
X151726338Y-86563002D03*
X152079891Y-86916555D03*
X152433445Y-87270109D03*
X152786998Y-87623662D03*
X153140551Y-87977215D03*
X153494105Y-88330769D03*
X153847658Y-88684322D03*
X154201212Y-89037876D03*
D29*
X156198788Y-89037876D03*
X156552342Y-88684322D03*
X156905895Y-88330769D03*
X157259449Y-87977215D03*
X157613002Y-87623662D03*
X157966555Y-87270109D03*
X158320109Y-86916555D03*
X158673662Y-86563002D03*
X159027215Y-86209449D03*
X159380769Y-85855895D03*
X159734322Y-85502342D03*
X160087876Y-85148788D03*
D28*
X160087876Y-83151212D03*
X159734322Y-82797658D03*
X159380769Y-82444105D03*
X159027215Y-82090551D03*
X158673662Y-81736998D03*
X158320109Y-81383445D03*
X157966555Y-81029891D03*
X157613002Y-80676338D03*
X157259449Y-80322785D03*
X156905895Y-79969231D03*
X156552342Y-79615678D03*
X156198788Y-79262124D03*
D29*
X154201212Y-79262124D03*
X153847658Y-79615678D03*
X153494105Y-79969231D03*
X153140551Y-80322785D03*
X152786998Y-80676338D03*
X152433445Y-81029891D03*
X152079891Y-81383445D03*
X151726338Y-81736998D03*
X151372785Y-82090551D03*
X151019231Y-82444105D03*
X150665678Y-82797658D03*
X150312124Y-83151212D03*
%TD*%
D30*
%TO.C,C8*%
X148589269Y-82260730D03*
X149268091Y-81581908D03*
%TD*%
D15*
%TO.C,C18*%
X129782500Y-79055000D03*
X129782500Y-80605000D03*
%TD*%
D17*
%TO.C,IC1*%
X123882500Y-78910000D03*
X123882500Y-79860000D03*
X123882500Y-80810000D03*
X126382500Y-80810000D03*
X126382500Y-78910000D03*
%TD*%
D25*
%TO.C,R4*%
X158578680Y-72296319D03*
X158578680Y-70646319D03*
%TD*%
D31*
%TO.C,C13*%
X145759980Y-87852619D03*
X146438802Y-88531441D03*
%TD*%
D27*
%TO.C,C21*%
X119700000Y-72075000D03*
X119700000Y-75025000D03*
%TD*%
D22*
%TO.C,R6*%
X128152500Y-80665000D03*
X128152500Y-79015000D03*
%TD*%
D32*
%TO.C,SW1*%
X138428680Y-72921319D03*
X138428680Y-68821319D03*
X140028680Y-72921319D03*
X140028680Y-68821319D03*
%TD*%
D18*
%TO.C,R15*%
X124225000Y-76100000D03*
X125875000Y-76100000D03*
%TD*%
D33*
%TO.C,C26*%
X153880672Y-91473311D03*
X154976688Y-92569327D03*
%TD*%
D14*
%TO.C,C23*%
X108025000Y-89950000D03*
X109575000Y-89950000D03*
%TD*%
%TO.C,C27*%
X113625000Y-89400000D03*
X115175000Y-89400000D03*
%TD*%
D34*
%TO.C,C11*%
X161868091Y-86081908D03*
X161189269Y-86760730D03*
%TD*%
D35*
%TO.C,R1*%
X147366637Y-81283363D03*
X148533363Y-80116637D03*
%TD*%
D33*
%TO.C,C20*%
X153380672Y-93123311D03*
X154476688Y-94219327D03*
%TD*%
D13*
%TO.C,C6*%
X148089411Y-86839411D03*
X147410589Y-86160589D03*
%TD*%
D36*
%TO.C,R2*%
X150695317Y-77987956D03*
X151862043Y-79154682D03*
%TD*%
D13*
%TO.C,C12*%
X152489411Y-89639411D03*
X151810589Y-88960589D03*
%TD*%
D15*
%TO.C,C22*%
X121800000Y-72725000D03*
X121800000Y-74275000D03*
%TD*%
D12*
%TO.C,R11*%
X171553680Y-69371319D03*
X169903680Y-69371319D03*
%TD*%
D31*
%TO.C,C4*%
X148859980Y-90952619D03*
X149538802Y-91631441D03*
%TD*%
D22*
%TO.C,R14*%
X128150000Y-74325000D03*
X128150000Y-72675000D03*
%TD*%
D15*
%TO.C,C24*%
X129800000Y-72725000D03*
X129800000Y-74275000D03*
%TD*%
D31*
%TO.C,C9*%
X157039269Y-77581908D03*
X157718091Y-78260730D03*
%TD*%
M02*
