%TF.GenerationSoftware,KiCad,Pcbnew,9.0.1*%
%TF.CreationDate,2025-07-03T23:24:32+02:00*%
%TF.ProjectId,LoRa_Node,4c6f5261-5f4e-46f6-9465-2e6b69636164,4.0*%
%TF.SameCoordinates,Original*%
%TF.FileFunction,Paste,Top*%
%TF.FilePolarity,Positive*%
%FSLAX46Y46*%
G04 Gerber Fmt 4.6, Leading zero omitted, Abs format (unit mm)*
G04 Created by KiCad (PCBNEW 9.0.1) date 2025-07-03 23:24:32*
%MOMM*%
%LPD*%
G01*
G04 APERTURE LIST*
G04 Aperture macros list*
%AMRoundRect*
0 Rectangle with rounded corners*
0 $1 Rounding radius*
0 $2 $3 $4 $5 $6 $7 $8 $9 X,Y pos of 4 corners*
0 Add a 4 corners polygon primitive as box body*
4,1,4,$2,$3,$4,$5,$6,$7,$8,$9,$2,$3,0*
0 Add four circle primitives for the rounded corners*
1,1,$1+$1,$2,$3*
1,1,$1+$1,$4,$5*
1,1,$1+$1,$6,$7*
1,1,$1+$1,$8,$9*
0 Add four rect primitives between the rounded corners*
20,1,$1+$1,$2,$3,$4,$5,0*
20,1,$1+$1,$4,$5,$6,$7,0*
20,1,$1+$1,$6,$7,$8,$9,0*
20,1,$1+$1,$8,$9,$2,$3,0*%
%AMRotRect*
0 Rectangle, with rotation*
0 The origin of the aperture is its center*
0 $1 length*
0 $2 width*
0 $3 Rotation angle, in degrees counterclockwise*
0 Add horizontal line*
21,1,$1,$2,0,0,$3*%
G04 Aperture macros list end*
%ADD10C,0.100000*%
%ADD11C,0.150000*%
%ADD12C,0.300000*%
%ADD13C,0.400000*%
%ADD14RoundRect,0.200000X0.200000X0.275000X-0.200000X0.275000X-0.200000X-0.275000X0.200000X-0.275000X0*%
%ADD15RoundRect,0.140000X-0.021213X0.219203X-0.219203X0.021213X0.021213X-0.219203X0.219203X-0.021213X0*%
%ADD16RoundRect,0.200000X-0.335876X-0.053033X-0.053033X-0.335876X0.335876X0.053033X0.053033X0.335876X0*%
%ADD17R,1.000000X2.580000*%
%ADD18RoundRect,0.140000X0.219203X0.021213X0.021213X0.219203X-0.219203X-0.021213X-0.021213X-0.219203X0*%
%ADD19RoundRect,0.225000X-0.225000X-0.250000X0.225000X-0.250000X0.225000X0.250000X-0.225000X0.250000X0*%
%ADD20RoundRect,0.250000X0.650000X-0.325000X0.650000X0.325000X-0.650000X0.325000X-0.650000X-0.325000X0*%
%ADD21RoundRect,0.200000X-0.275000X0.200000X-0.275000X-0.200000X0.275000X-0.200000X0.275000X0.200000X0*%
%ADD22RoundRect,0.317500X0.317500X-1.157500X0.317500X1.157500X-0.317500X1.157500X-0.317500X-1.157500X0*%
%ADD23RoundRect,0.200000X-0.200000X-0.275000X0.200000X-0.275000X0.200000X0.275000X-0.200000X0.275000X0*%
%ADD24RoundRect,0.225000X0.225000X0.250000X-0.225000X0.250000X-0.225000X-0.250000X0.225000X-0.250000X0*%
%ADD25RoundRect,0.225000X-0.250000X0.225000X-0.250000X-0.225000X0.250000X-0.225000X0.250000X0.225000X0*%
%ADD26R,1.700000X3.700000*%
%ADD27R,1.000000X0.550000*%
%ADD28RotRect,1.000000X1.800000X135.000000*%
%ADD29RoundRect,0.225000X0.250000X-0.225000X0.250000X0.225000X-0.250000X0.225000X-0.250000X-0.225000X0*%
%ADD30RoundRect,0.150000X0.587500X0.150000X-0.587500X0.150000X-0.587500X-0.150000X0.587500X-0.150000X0*%
%ADD31R,0.350000X0.500000*%
%ADD32R,1.000000X1.000000*%
%ADD33R,1.050000X2.200000*%
%ADD34RotRect,0.400000X1.900000X315.000000*%
%ADD35RoundRect,0.250000X-0.650000X0.325000X-0.650000X-0.325000X0.650000X-0.325000X0.650000X0.325000X0*%
%ADD36RoundRect,0.140000X0.021213X-0.219203X0.219203X-0.021213X-0.021213X0.219203X-0.219203X0.021213X0*%
%ADD37R,1.150000X0.600000*%
%ADD38RoundRect,0.200000X0.053033X-0.335876X0.335876X-0.053033X-0.053033X0.335876X-0.335876X0.053033X0*%
%ADD39RoundRect,0.140000X-0.219203X-0.021213X-0.021213X-0.219203X0.219203X0.021213X0.021213X0.219203X0*%
%ADD40RoundRect,0.200000X0.275000X-0.200000X0.275000X0.200000X-0.275000X0.200000X-0.275000X-0.200000X0*%
%ADD41R,1.000000X0.900000*%
%ADD42RoundRect,0.250000X1.000000X0.650000X-1.000000X0.650000X-1.000000X-0.650000X1.000000X-0.650000X0*%
%ADD43RoundRect,0.225000X-0.335876X-0.017678X-0.017678X-0.335876X0.335876X0.017678X0.017678X0.335876X0*%
%ADD44RoundRect,0.075000X-0.415425X-0.521491X0.521491X0.415425X0.415425X0.521491X-0.521491X-0.415425X0*%
%ADD45RoundRect,0.075000X0.415425X-0.521491X0.521491X-0.415425X-0.415425X0.521491X-0.521491X0.415425X0*%
%ADD46RoundRect,0.200000X0.335876X0.053033X0.053033X0.335876X-0.335876X-0.053033X-0.053033X-0.335876X0*%
G04 APERTURE END LIST*
D10*
D11*
X177002200Y-166007200D02*
X285002200Y-166007200D01*
X285002200Y-198007200D01*
X177002200Y-198007200D01*
X177002200Y-166007200D01*
D10*
D11*
X10000000Y-10000000D02*
X287002200Y-10000000D01*
X287002200Y-200007200D01*
X10000000Y-200007200D01*
X10000000Y-10000000D01*
D10*
D11*
X12000000Y-12000000D02*
X285002200Y-12000000D01*
X285002200Y-198007200D01*
X12000000Y-198007200D01*
X12000000Y-12000000D01*
D10*
D11*
X60000000Y-12000000D02*
X60000000Y-10000000D01*
D10*
D11*
X110000000Y-12000000D02*
X110000000Y-10000000D01*
D10*
D11*
X160000000Y-12000000D02*
X160000000Y-10000000D01*
D10*
D11*
X210000000Y-12000000D02*
X210000000Y-10000000D01*
D10*
D11*
X260000000Y-12000000D02*
X260000000Y-10000000D01*
D10*
D11*
X36089160Y-11593604D02*
X35346303Y-11593604D01*
X35717731Y-11593604D02*
X35717731Y-10293604D01*
X35717731Y-10293604D02*
X35593922Y-10479319D01*
X35593922Y-10479319D02*
X35470112Y-10603128D01*
X35470112Y-10603128D02*
X35346303Y-10665033D01*
D10*
D11*
X85346303Y-10417414D02*
X85408207Y-10355509D01*
X85408207Y-10355509D02*
X85532017Y-10293604D01*
X85532017Y-10293604D02*
X85841541Y-10293604D01*
X85841541Y-10293604D02*
X85965350Y-10355509D01*
X85965350Y-10355509D02*
X86027255Y-10417414D01*
X86027255Y-10417414D02*
X86089160Y-10541223D01*
X86089160Y-10541223D02*
X86089160Y-10665033D01*
X86089160Y-10665033D02*
X86027255Y-10850747D01*
X86027255Y-10850747D02*
X85284398Y-11593604D01*
X85284398Y-11593604D02*
X86089160Y-11593604D01*
D10*
D11*
X135284398Y-10293604D02*
X136089160Y-10293604D01*
X136089160Y-10293604D02*
X135655826Y-10788842D01*
X135655826Y-10788842D02*
X135841541Y-10788842D01*
X135841541Y-10788842D02*
X135965350Y-10850747D01*
X135965350Y-10850747D02*
X136027255Y-10912652D01*
X136027255Y-10912652D02*
X136089160Y-11036461D01*
X136089160Y-11036461D02*
X136089160Y-11345985D01*
X136089160Y-11345985D02*
X136027255Y-11469795D01*
X136027255Y-11469795D02*
X135965350Y-11531700D01*
X135965350Y-11531700D02*
X135841541Y-11593604D01*
X135841541Y-11593604D02*
X135470112Y-11593604D01*
X135470112Y-11593604D02*
X135346303Y-11531700D01*
X135346303Y-11531700D02*
X135284398Y-11469795D01*
D10*
D11*
X185965350Y-10726938D02*
X185965350Y-11593604D01*
X185655826Y-10231700D02*
X185346303Y-11160271D01*
X185346303Y-11160271D02*
X186151064Y-11160271D01*
D10*
D11*
X236027255Y-10293604D02*
X235408207Y-10293604D01*
X235408207Y-10293604D02*
X235346303Y-10912652D01*
X235346303Y-10912652D02*
X235408207Y-10850747D01*
X235408207Y-10850747D02*
X235532017Y-10788842D01*
X235532017Y-10788842D02*
X235841541Y-10788842D01*
X235841541Y-10788842D02*
X235965350Y-10850747D01*
X235965350Y-10850747D02*
X236027255Y-10912652D01*
X236027255Y-10912652D02*
X236089160Y-11036461D01*
X236089160Y-11036461D02*
X236089160Y-11345985D01*
X236089160Y-11345985D02*
X236027255Y-11469795D01*
X236027255Y-11469795D02*
X235965350Y-11531700D01*
X235965350Y-11531700D02*
X235841541Y-11593604D01*
X235841541Y-11593604D02*
X235532017Y-11593604D01*
X235532017Y-11593604D02*
X235408207Y-11531700D01*
X235408207Y-11531700D02*
X235346303Y-11469795D01*
D10*
D11*
X285965350Y-10293604D02*
X285717731Y-10293604D01*
X285717731Y-10293604D02*
X285593922Y-10355509D01*
X285593922Y-10355509D02*
X285532017Y-10417414D01*
X285532017Y-10417414D02*
X285408207Y-10603128D01*
X285408207Y-10603128D02*
X285346303Y-10850747D01*
X285346303Y-10850747D02*
X285346303Y-11345985D01*
X285346303Y-11345985D02*
X285408207Y-11469795D01*
X285408207Y-11469795D02*
X285470112Y-11531700D01*
X285470112Y-11531700D02*
X285593922Y-11593604D01*
X285593922Y-11593604D02*
X285841541Y-11593604D01*
X285841541Y-11593604D02*
X285965350Y-11531700D01*
X285965350Y-11531700D02*
X286027255Y-11469795D01*
X286027255Y-11469795D02*
X286089160Y-11345985D01*
X286089160Y-11345985D02*
X286089160Y-11036461D01*
X286089160Y-11036461D02*
X286027255Y-10912652D01*
X286027255Y-10912652D02*
X285965350Y-10850747D01*
X285965350Y-10850747D02*
X285841541Y-10788842D01*
X285841541Y-10788842D02*
X285593922Y-10788842D01*
X285593922Y-10788842D02*
X285470112Y-10850747D01*
X285470112Y-10850747D02*
X285408207Y-10912652D01*
X285408207Y-10912652D02*
X285346303Y-11036461D01*
D10*
D11*
X60000000Y-198007200D02*
X60000000Y-200007200D01*
D10*
D11*
X110000000Y-198007200D02*
X110000000Y-200007200D01*
D10*
D11*
X160000000Y-198007200D02*
X160000000Y-200007200D01*
D10*
D11*
X210000000Y-198007200D02*
X210000000Y-200007200D01*
D10*
D11*
X260000000Y-198007200D02*
X260000000Y-200007200D01*
D10*
D11*
X36089160Y-199600804D02*
X35346303Y-199600804D01*
X35717731Y-199600804D02*
X35717731Y-198300804D01*
X35717731Y-198300804D02*
X35593922Y-198486519D01*
X35593922Y-198486519D02*
X35470112Y-198610328D01*
X35470112Y-198610328D02*
X35346303Y-198672233D01*
D10*
D11*
X85346303Y-198424614D02*
X85408207Y-198362709D01*
X85408207Y-198362709D02*
X85532017Y-198300804D01*
X85532017Y-198300804D02*
X85841541Y-198300804D01*
X85841541Y-198300804D02*
X85965350Y-198362709D01*
X85965350Y-198362709D02*
X86027255Y-198424614D01*
X86027255Y-198424614D02*
X86089160Y-198548423D01*
X86089160Y-198548423D02*
X86089160Y-198672233D01*
X86089160Y-198672233D02*
X86027255Y-198857947D01*
X86027255Y-198857947D02*
X85284398Y-199600804D01*
X85284398Y-199600804D02*
X86089160Y-199600804D01*
D10*
D11*
X135284398Y-198300804D02*
X136089160Y-198300804D01*
X136089160Y-198300804D02*
X135655826Y-198796042D01*
X135655826Y-198796042D02*
X135841541Y-198796042D01*
X135841541Y-198796042D02*
X135965350Y-198857947D01*
X135965350Y-198857947D02*
X136027255Y-198919852D01*
X136027255Y-198919852D02*
X136089160Y-199043661D01*
X136089160Y-199043661D02*
X136089160Y-199353185D01*
X136089160Y-199353185D02*
X136027255Y-199476995D01*
X136027255Y-199476995D02*
X135965350Y-199538900D01*
X135965350Y-199538900D02*
X135841541Y-199600804D01*
X135841541Y-199600804D02*
X135470112Y-199600804D01*
X135470112Y-199600804D02*
X135346303Y-199538900D01*
X135346303Y-199538900D02*
X135284398Y-199476995D01*
D10*
D11*
X185965350Y-198734138D02*
X185965350Y-199600804D01*
X185655826Y-198238900D02*
X185346303Y-199167471D01*
X185346303Y-199167471D02*
X186151064Y-199167471D01*
D10*
D11*
X236027255Y-198300804D02*
X235408207Y-198300804D01*
X235408207Y-198300804D02*
X235346303Y-198919852D01*
X235346303Y-198919852D02*
X235408207Y-198857947D01*
X235408207Y-198857947D02*
X235532017Y-198796042D01*
X235532017Y-198796042D02*
X235841541Y-198796042D01*
X235841541Y-198796042D02*
X235965350Y-198857947D01*
X235965350Y-198857947D02*
X236027255Y-198919852D01*
X236027255Y-198919852D02*
X236089160Y-199043661D01*
X236089160Y-199043661D02*
X236089160Y-199353185D01*
X236089160Y-199353185D02*
X236027255Y-199476995D01*
X236027255Y-199476995D02*
X235965350Y-199538900D01*
X235965350Y-199538900D02*
X235841541Y-199600804D01*
X235841541Y-199600804D02*
X235532017Y-199600804D01*
X235532017Y-199600804D02*
X235408207Y-199538900D01*
X235408207Y-199538900D02*
X235346303Y-199476995D01*
D10*
D11*
X285965350Y-198300804D02*
X285717731Y-198300804D01*
X285717731Y-198300804D02*
X285593922Y-198362709D01*
X285593922Y-198362709D02*
X285532017Y-198424614D01*
X285532017Y-198424614D02*
X285408207Y-198610328D01*
X285408207Y-198610328D02*
X285346303Y-198857947D01*
X285346303Y-198857947D02*
X285346303Y-199353185D01*
X285346303Y-199353185D02*
X285408207Y-199476995D01*
X285408207Y-199476995D02*
X285470112Y-199538900D01*
X285470112Y-199538900D02*
X285593922Y-199600804D01*
X285593922Y-199600804D02*
X285841541Y-199600804D01*
X285841541Y-199600804D02*
X285965350Y-199538900D01*
X285965350Y-199538900D02*
X286027255Y-199476995D01*
X286027255Y-199476995D02*
X286089160Y-199353185D01*
X286089160Y-199353185D02*
X286089160Y-199043661D01*
X286089160Y-199043661D02*
X286027255Y-198919852D01*
X286027255Y-198919852D02*
X285965350Y-198857947D01*
X285965350Y-198857947D02*
X285841541Y-198796042D01*
X285841541Y-198796042D02*
X285593922Y-198796042D01*
X285593922Y-198796042D02*
X285470112Y-198857947D01*
X285470112Y-198857947D02*
X285408207Y-198919852D01*
X285408207Y-198919852D02*
X285346303Y-199043661D01*
D10*
D11*
X10000000Y-60000000D02*
X12000000Y-60000000D01*
D10*
D11*
X10000000Y-110000000D02*
X12000000Y-110000000D01*
D10*
D11*
X10000000Y-160000000D02*
X12000000Y-160000000D01*
D10*
D11*
X10690476Y-35222176D02*
X11309523Y-35222176D01*
X10566666Y-35593604D02*
X10999999Y-34293604D01*
X10999999Y-34293604D02*
X11433333Y-35593604D01*
D10*
D11*
X11092857Y-84912652D02*
X11278571Y-84974557D01*
X11278571Y-84974557D02*
X11340476Y-85036461D01*
X11340476Y-85036461D02*
X11402380Y-85160271D01*
X11402380Y-85160271D02*
X11402380Y-85345985D01*
X11402380Y-85345985D02*
X11340476Y-85469795D01*
X11340476Y-85469795D02*
X11278571Y-85531700D01*
X11278571Y-85531700D02*
X11154761Y-85593604D01*
X11154761Y-85593604D02*
X10659523Y-85593604D01*
X10659523Y-85593604D02*
X10659523Y-84293604D01*
X10659523Y-84293604D02*
X11092857Y-84293604D01*
X11092857Y-84293604D02*
X11216666Y-84355509D01*
X11216666Y-84355509D02*
X11278571Y-84417414D01*
X11278571Y-84417414D02*
X11340476Y-84541223D01*
X11340476Y-84541223D02*
X11340476Y-84665033D01*
X11340476Y-84665033D02*
X11278571Y-84788842D01*
X11278571Y-84788842D02*
X11216666Y-84850747D01*
X11216666Y-84850747D02*
X11092857Y-84912652D01*
X11092857Y-84912652D02*
X10659523Y-84912652D01*
D10*
D11*
X11402380Y-135469795D02*
X11340476Y-135531700D01*
X11340476Y-135531700D02*
X11154761Y-135593604D01*
X11154761Y-135593604D02*
X11030952Y-135593604D01*
X11030952Y-135593604D02*
X10845238Y-135531700D01*
X10845238Y-135531700D02*
X10721428Y-135407890D01*
X10721428Y-135407890D02*
X10659523Y-135284080D01*
X10659523Y-135284080D02*
X10597619Y-135036461D01*
X10597619Y-135036461D02*
X10597619Y-134850747D01*
X10597619Y-134850747D02*
X10659523Y-134603128D01*
X10659523Y-134603128D02*
X10721428Y-134479319D01*
X10721428Y-134479319D02*
X10845238Y-134355509D01*
X10845238Y-134355509D02*
X11030952Y-134293604D01*
X11030952Y-134293604D02*
X11154761Y-134293604D01*
X11154761Y-134293604D02*
X11340476Y-134355509D01*
X11340476Y-134355509D02*
X11402380Y-134417414D01*
D10*
D11*
X10659523Y-185593604D02*
X10659523Y-184293604D01*
X10659523Y-184293604D02*
X10969047Y-184293604D01*
X10969047Y-184293604D02*
X11154761Y-184355509D01*
X11154761Y-184355509D02*
X11278571Y-184479319D01*
X11278571Y-184479319D02*
X11340476Y-184603128D01*
X11340476Y-184603128D02*
X11402380Y-184850747D01*
X11402380Y-184850747D02*
X11402380Y-185036461D01*
X11402380Y-185036461D02*
X11340476Y-185284080D01*
X11340476Y-185284080D02*
X11278571Y-185407890D01*
X11278571Y-185407890D02*
X11154761Y-185531700D01*
X11154761Y-185531700D02*
X10969047Y-185593604D01*
X10969047Y-185593604D02*
X10659523Y-185593604D01*
D10*
D11*
X287002200Y-60000000D02*
X285002200Y-60000000D01*
D10*
D11*
X287002200Y-110000000D02*
X285002200Y-110000000D01*
D10*
D11*
X287002200Y-160000000D02*
X285002200Y-160000000D01*
D10*
D11*
X285692676Y-35222176D02*
X286311723Y-35222176D01*
X285568866Y-35593604D02*
X286002199Y-34293604D01*
X286002199Y-34293604D02*
X286435533Y-35593604D01*
D10*
D11*
X286095057Y-84912652D02*
X286280771Y-84974557D01*
X286280771Y-84974557D02*
X286342676Y-85036461D01*
X286342676Y-85036461D02*
X286404580Y-85160271D01*
X286404580Y-85160271D02*
X286404580Y-85345985D01*
X286404580Y-85345985D02*
X286342676Y-85469795D01*
X286342676Y-85469795D02*
X286280771Y-85531700D01*
X286280771Y-85531700D02*
X286156961Y-85593604D01*
X286156961Y-85593604D02*
X285661723Y-85593604D01*
X285661723Y-85593604D02*
X285661723Y-84293604D01*
X285661723Y-84293604D02*
X286095057Y-84293604D01*
X286095057Y-84293604D02*
X286218866Y-84355509D01*
X286218866Y-84355509D02*
X286280771Y-84417414D01*
X286280771Y-84417414D02*
X286342676Y-84541223D01*
X286342676Y-84541223D02*
X286342676Y-84665033D01*
X286342676Y-84665033D02*
X286280771Y-84788842D01*
X286280771Y-84788842D02*
X286218866Y-84850747D01*
X286218866Y-84850747D02*
X286095057Y-84912652D01*
X286095057Y-84912652D02*
X285661723Y-84912652D01*
D10*
D11*
X286404580Y-135469795D02*
X286342676Y-135531700D01*
X286342676Y-135531700D02*
X286156961Y-135593604D01*
X286156961Y-135593604D02*
X286033152Y-135593604D01*
X286033152Y-135593604D02*
X285847438Y-135531700D01*
X285847438Y-135531700D02*
X285723628Y-135407890D01*
X285723628Y-135407890D02*
X285661723Y-135284080D01*
X285661723Y-135284080D02*
X285599819Y-135036461D01*
X285599819Y-135036461D02*
X285599819Y-134850747D01*
X285599819Y-134850747D02*
X285661723Y-134603128D01*
X285661723Y-134603128D02*
X285723628Y-134479319D01*
X285723628Y-134479319D02*
X285847438Y-134355509D01*
X285847438Y-134355509D02*
X286033152Y-134293604D01*
X286033152Y-134293604D02*
X286156961Y-134293604D01*
X286156961Y-134293604D02*
X286342676Y-134355509D01*
X286342676Y-134355509D02*
X286404580Y-134417414D01*
D10*
D11*
X285661723Y-185593604D02*
X285661723Y-184293604D01*
X285661723Y-184293604D02*
X285971247Y-184293604D01*
X285971247Y-184293604D02*
X286156961Y-184355509D01*
X286156961Y-184355509D02*
X286280771Y-184479319D01*
X286280771Y-184479319D02*
X286342676Y-184603128D01*
X286342676Y-184603128D02*
X286404580Y-184850747D01*
X286404580Y-184850747D02*
X286404580Y-185036461D01*
X286404580Y-185036461D02*
X286342676Y-185284080D01*
X286342676Y-185284080D02*
X286280771Y-185407890D01*
X286280771Y-185407890D02*
X286156961Y-185531700D01*
X286156961Y-185531700D02*
X285971247Y-185593604D01*
X285971247Y-185593604D02*
X285661723Y-185593604D01*
D10*
D11*
X200458026Y-193793328D02*
X200458026Y-192293328D01*
X200458026Y-192293328D02*
X200815169Y-192293328D01*
X200815169Y-192293328D02*
X201029455Y-192364757D01*
X201029455Y-192364757D02*
X201172312Y-192507614D01*
X201172312Y-192507614D02*
X201243741Y-192650471D01*
X201243741Y-192650471D02*
X201315169Y-192936185D01*
X201315169Y-192936185D02*
X201315169Y-193150471D01*
X201315169Y-193150471D02*
X201243741Y-193436185D01*
X201243741Y-193436185D02*
X201172312Y-193579042D01*
X201172312Y-193579042D02*
X201029455Y-193721900D01*
X201029455Y-193721900D02*
X200815169Y-193793328D01*
X200815169Y-193793328D02*
X200458026Y-193793328D01*
X202600884Y-193793328D02*
X202600884Y-193007614D01*
X202600884Y-193007614D02*
X202529455Y-192864757D01*
X202529455Y-192864757D02*
X202386598Y-192793328D01*
X202386598Y-192793328D02*
X202100884Y-192793328D01*
X202100884Y-192793328D02*
X201958026Y-192864757D01*
X202600884Y-193721900D02*
X202458026Y-193793328D01*
X202458026Y-193793328D02*
X202100884Y-193793328D01*
X202100884Y-193793328D02*
X201958026Y-193721900D01*
X201958026Y-193721900D02*
X201886598Y-193579042D01*
X201886598Y-193579042D02*
X201886598Y-193436185D01*
X201886598Y-193436185D02*
X201958026Y-193293328D01*
X201958026Y-193293328D02*
X202100884Y-193221900D01*
X202100884Y-193221900D02*
X202458026Y-193221900D01*
X202458026Y-193221900D02*
X202600884Y-193150471D01*
X203100884Y-192793328D02*
X203672312Y-192793328D01*
X203315169Y-192293328D02*
X203315169Y-193579042D01*
X203315169Y-193579042D02*
X203386598Y-193721900D01*
X203386598Y-193721900D02*
X203529455Y-193793328D01*
X203529455Y-193793328D02*
X203672312Y-193793328D01*
X204743741Y-193721900D02*
X204600884Y-193793328D01*
X204600884Y-193793328D02*
X204315170Y-193793328D01*
X204315170Y-193793328D02*
X204172312Y-193721900D01*
X204172312Y-193721900D02*
X204100884Y-193579042D01*
X204100884Y-193579042D02*
X204100884Y-193007614D01*
X204100884Y-193007614D02*
X204172312Y-192864757D01*
X204172312Y-192864757D02*
X204315170Y-192793328D01*
X204315170Y-192793328D02*
X204600884Y-192793328D01*
X204600884Y-192793328D02*
X204743741Y-192864757D01*
X204743741Y-192864757D02*
X204815170Y-193007614D01*
X204815170Y-193007614D02*
X204815170Y-193150471D01*
X204815170Y-193150471D02*
X204100884Y-193293328D01*
X205458026Y-193650471D02*
X205529455Y-193721900D01*
X205529455Y-193721900D02*
X205458026Y-193793328D01*
X205458026Y-193793328D02*
X205386598Y-193721900D01*
X205386598Y-193721900D02*
X205458026Y-193650471D01*
X205458026Y-193650471D02*
X205458026Y-193793328D01*
X205458026Y-192864757D02*
X205529455Y-192936185D01*
X205529455Y-192936185D02*
X205458026Y-193007614D01*
X205458026Y-193007614D02*
X205386598Y-192936185D01*
X205386598Y-192936185D02*
X205458026Y-192864757D01*
X205458026Y-192864757D02*
X205458026Y-193007614D01*
X207243741Y-192436185D02*
X207315169Y-192364757D01*
X207315169Y-192364757D02*
X207458027Y-192293328D01*
X207458027Y-192293328D02*
X207815169Y-192293328D01*
X207815169Y-192293328D02*
X207958027Y-192364757D01*
X207958027Y-192364757D02*
X208029455Y-192436185D01*
X208029455Y-192436185D02*
X208100884Y-192579042D01*
X208100884Y-192579042D02*
X208100884Y-192721900D01*
X208100884Y-192721900D02*
X208029455Y-192936185D01*
X208029455Y-192936185D02*
X207172312Y-193793328D01*
X207172312Y-193793328D02*
X208100884Y-193793328D01*
X209029455Y-192293328D02*
X209172312Y-192293328D01*
X209172312Y-192293328D02*
X209315169Y-192364757D01*
X209315169Y-192364757D02*
X209386598Y-192436185D01*
X209386598Y-192436185D02*
X209458026Y-192579042D01*
X209458026Y-192579042D02*
X209529455Y-192864757D01*
X209529455Y-192864757D02*
X209529455Y-193221900D01*
X209529455Y-193221900D02*
X209458026Y-193507614D01*
X209458026Y-193507614D02*
X209386598Y-193650471D01*
X209386598Y-193650471D02*
X209315169Y-193721900D01*
X209315169Y-193721900D02*
X209172312Y-193793328D01*
X209172312Y-193793328D02*
X209029455Y-193793328D01*
X209029455Y-193793328D02*
X208886598Y-193721900D01*
X208886598Y-193721900D02*
X208815169Y-193650471D01*
X208815169Y-193650471D02*
X208743740Y-193507614D01*
X208743740Y-193507614D02*
X208672312Y-193221900D01*
X208672312Y-193221900D02*
X208672312Y-192864757D01*
X208672312Y-192864757D02*
X208743740Y-192579042D01*
X208743740Y-192579042D02*
X208815169Y-192436185D01*
X208815169Y-192436185D02*
X208886598Y-192364757D01*
X208886598Y-192364757D02*
X209029455Y-192293328D01*
X210100883Y-192436185D02*
X210172311Y-192364757D01*
X210172311Y-192364757D02*
X210315169Y-192293328D01*
X210315169Y-192293328D02*
X210672311Y-192293328D01*
X210672311Y-192293328D02*
X210815169Y-192364757D01*
X210815169Y-192364757D02*
X210886597Y-192436185D01*
X210886597Y-192436185D02*
X210958026Y-192579042D01*
X210958026Y-192579042D02*
X210958026Y-192721900D01*
X210958026Y-192721900D02*
X210886597Y-192936185D01*
X210886597Y-192936185D02*
X210029454Y-193793328D01*
X210029454Y-193793328D02*
X210958026Y-193793328D01*
X212315168Y-192293328D02*
X211600882Y-192293328D01*
X211600882Y-192293328D02*
X211529454Y-193007614D01*
X211529454Y-193007614D02*
X211600882Y-192936185D01*
X211600882Y-192936185D02*
X211743740Y-192864757D01*
X211743740Y-192864757D02*
X212100882Y-192864757D01*
X212100882Y-192864757D02*
X212243740Y-192936185D01*
X212243740Y-192936185D02*
X212315168Y-193007614D01*
X212315168Y-193007614D02*
X212386597Y-193150471D01*
X212386597Y-193150471D02*
X212386597Y-193507614D01*
X212386597Y-193507614D02*
X212315168Y-193650471D01*
X212315168Y-193650471D02*
X212243740Y-193721900D01*
X212243740Y-193721900D02*
X212100882Y-193793328D01*
X212100882Y-193793328D02*
X211743740Y-193793328D01*
X211743740Y-193793328D02*
X211600882Y-193721900D01*
X211600882Y-193721900D02*
X211529454Y-193650471D01*
X213029453Y-193221900D02*
X214172311Y-193221900D01*
X215172311Y-192293328D02*
X215315168Y-192293328D01*
X215315168Y-192293328D02*
X215458025Y-192364757D01*
X215458025Y-192364757D02*
X215529454Y-192436185D01*
X215529454Y-192436185D02*
X215600882Y-192579042D01*
X215600882Y-192579042D02*
X215672311Y-192864757D01*
X215672311Y-192864757D02*
X215672311Y-193221900D01*
X215672311Y-193221900D02*
X215600882Y-193507614D01*
X215600882Y-193507614D02*
X215529454Y-193650471D01*
X215529454Y-193650471D02*
X215458025Y-193721900D01*
X215458025Y-193721900D02*
X215315168Y-193793328D01*
X215315168Y-193793328D02*
X215172311Y-193793328D01*
X215172311Y-193793328D02*
X215029454Y-193721900D01*
X215029454Y-193721900D02*
X214958025Y-193650471D01*
X214958025Y-193650471D02*
X214886596Y-193507614D01*
X214886596Y-193507614D02*
X214815168Y-193221900D01*
X214815168Y-193221900D02*
X214815168Y-192864757D01*
X214815168Y-192864757D02*
X214886596Y-192579042D01*
X214886596Y-192579042D02*
X214958025Y-192436185D01*
X214958025Y-192436185D02*
X215029454Y-192364757D01*
X215029454Y-192364757D02*
X215172311Y-192293328D01*
X217029453Y-192293328D02*
X216315167Y-192293328D01*
X216315167Y-192293328D02*
X216243739Y-193007614D01*
X216243739Y-193007614D02*
X216315167Y-192936185D01*
X216315167Y-192936185D02*
X216458025Y-192864757D01*
X216458025Y-192864757D02*
X216815167Y-192864757D01*
X216815167Y-192864757D02*
X216958025Y-192936185D01*
X216958025Y-192936185D02*
X217029453Y-193007614D01*
X217029453Y-193007614D02*
X217100882Y-193150471D01*
X217100882Y-193150471D02*
X217100882Y-193507614D01*
X217100882Y-193507614D02*
X217029453Y-193650471D01*
X217029453Y-193650471D02*
X216958025Y-193721900D01*
X216958025Y-193721900D02*
X216815167Y-193793328D01*
X216815167Y-193793328D02*
X216458025Y-193793328D01*
X216458025Y-193793328D02*
X216315167Y-193721900D01*
X216315167Y-193721900D02*
X216243739Y-193650471D01*
X217743738Y-193221900D02*
X218886596Y-193221900D01*
X219529453Y-192436185D02*
X219600881Y-192364757D01*
X219600881Y-192364757D02*
X219743739Y-192293328D01*
X219743739Y-192293328D02*
X220100881Y-192293328D01*
X220100881Y-192293328D02*
X220243739Y-192364757D01*
X220243739Y-192364757D02*
X220315167Y-192436185D01*
X220315167Y-192436185D02*
X220386596Y-192579042D01*
X220386596Y-192579042D02*
X220386596Y-192721900D01*
X220386596Y-192721900D02*
X220315167Y-192936185D01*
X220315167Y-192936185D02*
X219458024Y-193793328D01*
X219458024Y-193793328D02*
X220386596Y-193793328D01*
X221672310Y-192793328D02*
X221672310Y-193793328D01*
X221315167Y-192221900D02*
X220958024Y-193293328D01*
X220958024Y-193293328D02*
X221886595Y-193293328D01*
D10*
D11*
X177002200Y-194507200D02*
X285002200Y-194507200D01*
D10*
D11*
X178458026Y-196593328D02*
X178458026Y-195093328D01*
X179315169Y-196593328D02*
X178672312Y-195736185D01*
X179315169Y-195093328D02*
X178458026Y-195950471D01*
X179958026Y-196593328D02*
X179958026Y-195593328D01*
X179958026Y-195093328D02*
X179886598Y-195164757D01*
X179886598Y-195164757D02*
X179958026Y-195236185D01*
X179958026Y-195236185D02*
X180029455Y-195164757D01*
X180029455Y-195164757D02*
X179958026Y-195093328D01*
X179958026Y-195093328D02*
X179958026Y-195236185D01*
X181529455Y-196450471D02*
X181458027Y-196521900D01*
X181458027Y-196521900D02*
X181243741Y-196593328D01*
X181243741Y-196593328D02*
X181100884Y-196593328D01*
X181100884Y-196593328D02*
X180886598Y-196521900D01*
X180886598Y-196521900D02*
X180743741Y-196379042D01*
X180743741Y-196379042D02*
X180672312Y-196236185D01*
X180672312Y-196236185D02*
X180600884Y-195950471D01*
X180600884Y-195950471D02*
X180600884Y-195736185D01*
X180600884Y-195736185D02*
X180672312Y-195450471D01*
X180672312Y-195450471D02*
X180743741Y-195307614D01*
X180743741Y-195307614D02*
X180886598Y-195164757D01*
X180886598Y-195164757D02*
X181100884Y-195093328D01*
X181100884Y-195093328D02*
X181243741Y-195093328D01*
X181243741Y-195093328D02*
X181458027Y-195164757D01*
X181458027Y-195164757D02*
X181529455Y-195236185D01*
X182815170Y-196593328D02*
X182815170Y-195807614D01*
X182815170Y-195807614D02*
X182743741Y-195664757D01*
X182743741Y-195664757D02*
X182600884Y-195593328D01*
X182600884Y-195593328D02*
X182315170Y-195593328D01*
X182315170Y-195593328D02*
X182172312Y-195664757D01*
X182815170Y-196521900D02*
X182672312Y-196593328D01*
X182672312Y-196593328D02*
X182315170Y-196593328D01*
X182315170Y-196593328D02*
X182172312Y-196521900D01*
X182172312Y-196521900D02*
X182100884Y-196379042D01*
X182100884Y-196379042D02*
X182100884Y-196236185D01*
X182100884Y-196236185D02*
X182172312Y-196093328D01*
X182172312Y-196093328D02*
X182315170Y-196021900D01*
X182315170Y-196021900D02*
X182672312Y-196021900D01*
X182672312Y-196021900D02*
X182815170Y-195950471D01*
X184172313Y-196593328D02*
X184172313Y-195093328D01*
X184172313Y-196521900D02*
X184029455Y-196593328D01*
X184029455Y-196593328D02*
X183743741Y-196593328D01*
X183743741Y-196593328D02*
X183600884Y-196521900D01*
X183600884Y-196521900D02*
X183529455Y-196450471D01*
X183529455Y-196450471D02*
X183458027Y-196307614D01*
X183458027Y-196307614D02*
X183458027Y-195879042D01*
X183458027Y-195879042D02*
X183529455Y-195736185D01*
X183529455Y-195736185D02*
X183600884Y-195664757D01*
X183600884Y-195664757D02*
X183743741Y-195593328D01*
X183743741Y-195593328D02*
X184029455Y-195593328D01*
X184029455Y-195593328D02*
X184172313Y-195664757D01*
X186029455Y-195807614D02*
X186529455Y-195807614D01*
X186743741Y-196593328D02*
X186029455Y-196593328D01*
X186029455Y-196593328D02*
X186029455Y-195093328D01*
X186029455Y-195093328D02*
X186743741Y-195093328D01*
X187386598Y-196450471D02*
X187458027Y-196521900D01*
X187458027Y-196521900D02*
X187386598Y-196593328D01*
X187386598Y-196593328D02*
X187315170Y-196521900D01*
X187315170Y-196521900D02*
X187386598Y-196450471D01*
X187386598Y-196450471D02*
X187386598Y-196593328D01*
X188100884Y-196593328D02*
X188100884Y-195093328D01*
X188100884Y-195093328D02*
X188458027Y-195093328D01*
X188458027Y-195093328D02*
X188672313Y-195164757D01*
X188672313Y-195164757D02*
X188815170Y-195307614D01*
X188815170Y-195307614D02*
X188886599Y-195450471D01*
X188886599Y-195450471D02*
X188958027Y-195736185D01*
X188958027Y-195736185D02*
X188958027Y-195950471D01*
X188958027Y-195950471D02*
X188886599Y-196236185D01*
X188886599Y-196236185D02*
X188815170Y-196379042D01*
X188815170Y-196379042D02*
X188672313Y-196521900D01*
X188672313Y-196521900D02*
X188458027Y-196593328D01*
X188458027Y-196593328D02*
X188100884Y-196593328D01*
X189600884Y-196450471D02*
X189672313Y-196521900D01*
X189672313Y-196521900D02*
X189600884Y-196593328D01*
X189600884Y-196593328D02*
X189529456Y-196521900D01*
X189529456Y-196521900D02*
X189600884Y-196450471D01*
X189600884Y-196450471D02*
X189600884Y-196593328D01*
X190243742Y-196164757D02*
X190958028Y-196164757D01*
X190100885Y-196593328D02*
X190600885Y-195093328D01*
X190600885Y-195093328D02*
X191100885Y-196593328D01*
X191600884Y-196450471D02*
X191672313Y-196521900D01*
X191672313Y-196521900D02*
X191600884Y-196593328D01*
X191600884Y-196593328D02*
X191529456Y-196521900D01*
X191529456Y-196521900D02*
X191600884Y-196450471D01*
X191600884Y-196450471D02*
X191600884Y-196593328D01*
X193529456Y-196593328D02*
X193815170Y-196593328D01*
X193815170Y-196593328D02*
X193958027Y-196521900D01*
X193958027Y-196521900D02*
X194029456Y-196450471D01*
X194029456Y-196450471D02*
X194172313Y-196236185D01*
X194172313Y-196236185D02*
X194243742Y-195950471D01*
X194243742Y-195950471D02*
X194243742Y-195379042D01*
X194243742Y-195379042D02*
X194172313Y-195236185D01*
X194172313Y-195236185D02*
X194100885Y-195164757D01*
X194100885Y-195164757D02*
X193958027Y-195093328D01*
X193958027Y-195093328D02*
X193672313Y-195093328D01*
X193672313Y-195093328D02*
X193529456Y-195164757D01*
X193529456Y-195164757D02*
X193458027Y-195236185D01*
X193458027Y-195236185D02*
X193386599Y-195379042D01*
X193386599Y-195379042D02*
X193386599Y-195736185D01*
X193386599Y-195736185D02*
X193458027Y-195879042D01*
X193458027Y-195879042D02*
X193529456Y-195950471D01*
X193529456Y-195950471D02*
X193672313Y-196021900D01*
X193672313Y-196021900D02*
X193958027Y-196021900D01*
X193958027Y-196021900D02*
X194100885Y-195950471D01*
X194100885Y-195950471D02*
X194172313Y-195879042D01*
X194172313Y-195879042D02*
X194243742Y-195736185D01*
X194886598Y-196450471D02*
X194958027Y-196521900D01*
X194958027Y-196521900D02*
X194886598Y-196593328D01*
X194886598Y-196593328D02*
X194815170Y-196521900D01*
X194815170Y-196521900D02*
X194886598Y-196450471D01*
X194886598Y-196450471D02*
X194886598Y-196593328D01*
X195886599Y-195093328D02*
X196029456Y-195093328D01*
X196029456Y-195093328D02*
X196172313Y-195164757D01*
X196172313Y-195164757D02*
X196243742Y-195236185D01*
X196243742Y-195236185D02*
X196315170Y-195379042D01*
X196315170Y-195379042D02*
X196386599Y-195664757D01*
X196386599Y-195664757D02*
X196386599Y-196021900D01*
X196386599Y-196021900D02*
X196315170Y-196307614D01*
X196315170Y-196307614D02*
X196243742Y-196450471D01*
X196243742Y-196450471D02*
X196172313Y-196521900D01*
X196172313Y-196521900D02*
X196029456Y-196593328D01*
X196029456Y-196593328D02*
X195886599Y-196593328D01*
X195886599Y-196593328D02*
X195743742Y-196521900D01*
X195743742Y-196521900D02*
X195672313Y-196450471D01*
X195672313Y-196450471D02*
X195600884Y-196307614D01*
X195600884Y-196307614D02*
X195529456Y-196021900D01*
X195529456Y-196021900D02*
X195529456Y-195664757D01*
X195529456Y-195664757D02*
X195600884Y-195379042D01*
X195600884Y-195379042D02*
X195672313Y-195236185D01*
X195672313Y-195236185D02*
X195743742Y-195164757D01*
X195743742Y-195164757D02*
X195886599Y-195093328D01*
X197029455Y-196450471D02*
X197100884Y-196521900D01*
X197100884Y-196521900D02*
X197029455Y-196593328D01*
X197029455Y-196593328D02*
X196958027Y-196521900D01*
X196958027Y-196521900D02*
X197029455Y-196450471D01*
X197029455Y-196450471D02*
X197029455Y-196593328D01*
X198529456Y-196593328D02*
X197672313Y-196593328D01*
X198100884Y-196593328D02*
X198100884Y-195093328D01*
X198100884Y-195093328D02*
X197958027Y-195307614D01*
X197958027Y-195307614D02*
X197815170Y-195450471D01*
X197815170Y-195450471D02*
X197672313Y-195521900D01*
D10*
D11*
X177002200Y-191507200D02*
X285002200Y-191507200D01*
D10*
D12*
X264413853Y-193785528D02*
X263913853Y-193071242D01*
X263556710Y-193785528D02*
X263556710Y-192285528D01*
X263556710Y-192285528D02*
X264128139Y-192285528D01*
X264128139Y-192285528D02*
X264270996Y-192356957D01*
X264270996Y-192356957D02*
X264342425Y-192428385D01*
X264342425Y-192428385D02*
X264413853Y-192571242D01*
X264413853Y-192571242D02*
X264413853Y-192785528D01*
X264413853Y-192785528D02*
X264342425Y-192928385D01*
X264342425Y-192928385D02*
X264270996Y-192999814D01*
X264270996Y-192999814D02*
X264128139Y-193071242D01*
X264128139Y-193071242D02*
X263556710Y-193071242D01*
X265628139Y-193714100D02*
X265485282Y-193785528D01*
X265485282Y-193785528D02*
X265199568Y-193785528D01*
X265199568Y-193785528D02*
X265056710Y-193714100D01*
X265056710Y-193714100D02*
X264985282Y-193571242D01*
X264985282Y-193571242D02*
X264985282Y-192999814D01*
X264985282Y-192999814D02*
X265056710Y-192856957D01*
X265056710Y-192856957D02*
X265199568Y-192785528D01*
X265199568Y-192785528D02*
X265485282Y-192785528D01*
X265485282Y-192785528D02*
X265628139Y-192856957D01*
X265628139Y-192856957D02*
X265699568Y-192999814D01*
X265699568Y-192999814D02*
X265699568Y-193142671D01*
X265699568Y-193142671D02*
X264985282Y-193285528D01*
X266199567Y-192785528D02*
X266556710Y-193785528D01*
X266556710Y-193785528D02*
X266913853Y-192785528D01*
X267485281Y-193642671D02*
X267556710Y-193714100D01*
X267556710Y-193714100D02*
X267485281Y-193785528D01*
X267485281Y-193785528D02*
X267413853Y-193714100D01*
X267413853Y-193714100D02*
X267485281Y-193642671D01*
X267485281Y-193642671D02*
X267485281Y-193785528D01*
X267485281Y-192856957D02*
X267556710Y-192928385D01*
X267556710Y-192928385D02*
X267485281Y-192999814D01*
X267485281Y-192999814D02*
X267413853Y-192928385D01*
X267413853Y-192928385D02*
X267485281Y-192856957D01*
X267485281Y-192856957D02*
X267485281Y-192999814D01*
X269985282Y-192785528D02*
X269985282Y-193785528D01*
X269628139Y-192214100D02*
X269270996Y-193285528D01*
X269270996Y-193285528D02*
X270199567Y-193285528D01*
X270770995Y-193642671D02*
X270842424Y-193714100D01*
X270842424Y-193714100D02*
X270770995Y-193785528D01*
X270770995Y-193785528D02*
X270699567Y-193714100D01*
X270699567Y-193714100D02*
X270770995Y-193642671D01*
X270770995Y-193642671D02*
X270770995Y-193785528D01*
X271770996Y-192285528D02*
X271913853Y-192285528D01*
X271913853Y-192285528D02*
X272056710Y-192356957D01*
X272056710Y-192356957D02*
X272128139Y-192428385D01*
X272128139Y-192428385D02*
X272199567Y-192571242D01*
X272199567Y-192571242D02*
X272270996Y-192856957D01*
X272270996Y-192856957D02*
X272270996Y-193214100D01*
X272270996Y-193214100D02*
X272199567Y-193499814D01*
X272199567Y-193499814D02*
X272128139Y-193642671D01*
X272128139Y-193642671D02*
X272056710Y-193714100D01*
X272056710Y-193714100D02*
X271913853Y-193785528D01*
X271913853Y-193785528D02*
X271770996Y-193785528D01*
X271770996Y-193785528D02*
X271628139Y-193714100D01*
X271628139Y-193714100D02*
X271556710Y-193642671D01*
X271556710Y-193642671D02*
X271485281Y-193499814D01*
X271485281Y-193499814D02*
X271413853Y-193214100D01*
X271413853Y-193214100D02*
X271413853Y-192856957D01*
X271413853Y-192856957D02*
X271485281Y-192571242D01*
X271485281Y-192571242D02*
X271556710Y-192428385D01*
X271556710Y-192428385D02*
X271628139Y-192356957D01*
X271628139Y-192356957D02*
X271770996Y-192285528D01*
D10*
D11*
X178386598Y-193721900D02*
X178600884Y-193793328D01*
X178600884Y-193793328D02*
X178958026Y-193793328D01*
X178958026Y-193793328D02*
X179100884Y-193721900D01*
X179100884Y-193721900D02*
X179172312Y-193650471D01*
X179172312Y-193650471D02*
X179243741Y-193507614D01*
X179243741Y-193507614D02*
X179243741Y-193364757D01*
X179243741Y-193364757D02*
X179172312Y-193221900D01*
X179172312Y-193221900D02*
X179100884Y-193150471D01*
X179100884Y-193150471D02*
X178958026Y-193079042D01*
X178958026Y-193079042D02*
X178672312Y-193007614D01*
X178672312Y-193007614D02*
X178529455Y-192936185D01*
X178529455Y-192936185D02*
X178458026Y-192864757D01*
X178458026Y-192864757D02*
X178386598Y-192721900D01*
X178386598Y-192721900D02*
X178386598Y-192579042D01*
X178386598Y-192579042D02*
X178458026Y-192436185D01*
X178458026Y-192436185D02*
X178529455Y-192364757D01*
X178529455Y-192364757D02*
X178672312Y-192293328D01*
X178672312Y-192293328D02*
X179029455Y-192293328D01*
X179029455Y-192293328D02*
X179243741Y-192364757D01*
X179886597Y-193793328D02*
X179886597Y-192793328D01*
X179886597Y-192293328D02*
X179815169Y-192364757D01*
X179815169Y-192364757D02*
X179886597Y-192436185D01*
X179886597Y-192436185D02*
X179958026Y-192364757D01*
X179958026Y-192364757D02*
X179886597Y-192293328D01*
X179886597Y-192293328D02*
X179886597Y-192436185D01*
X180458026Y-192793328D02*
X181243741Y-192793328D01*
X181243741Y-192793328D02*
X180458026Y-193793328D01*
X180458026Y-193793328D02*
X181243741Y-193793328D01*
X182386598Y-193721900D02*
X182243741Y-193793328D01*
X182243741Y-193793328D02*
X181958027Y-193793328D01*
X181958027Y-193793328D02*
X181815169Y-193721900D01*
X181815169Y-193721900D02*
X181743741Y-193579042D01*
X181743741Y-193579042D02*
X181743741Y-193007614D01*
X181743741Y-193007614D02*
X181815169Y-192864757D01*
X181815169Y-192864757D02*
X181958027Y-192793328D01*
X181958027Y-192793328D02*
X182243741Y-192793328D01*
X182243741Y-192793328D02*
X182386598Y-192864757D01*
X182386598Y-192864757D02*
X182458027Y-193007614D01*
X182458027Y-193007614D02*
X182458027Y-193150471D01*
X182458027Y-193150471D02*
X181743741Y-193293328D01*
X183100883Y-193650471D02*
X183172312Y-193721900D01*
X183172312Y-193721900D02*
X183100883Y-193793328D01*
X183100883Y-193793328D02*
X183029455Y-193721900D01*
X183029455Y-193721900D02*
X183100883Y-193650471D01*
X183100883Y-193650471D02*
X183100883Y-193793328D01*
X183100883Y-192864757D02*
X183172312Y-192936185D01*
X183172312Y-192936185D02*
X183100883Y-193007614D01*
X183100883Y-193007614D02*
X183029455Y-192936185D01*
X183029455Y-192936185D02*
X183100883Y-192864757D01*
X183100883Y-192864757D02*
X183100883Y-193007614D01*
X184886598Y-193364757D02*
X185600884Y-193364757D01*
X184743741Y-193793328D02*
X185243741Y-192293328D01*
X185243741Y-192293328D02*
X185743741Y-193793328D01*
X186886598Y-192793328D02*
X186886598Y-193793328D01*
X186529455Y-192221900D02*
X186172312Y-193293328D01*
X186172312Y-193293328D02*
X187100883Y-193293328D01*
D10*
D11*
X263458026Y-196593328D02*
X263458026Y-195093328D01*
X264815170Y-196593328D02*
X264815170Y-195093328D01*
X264815170Y-196521900D02*
X264672312Y-196593328D01*
X264672312Y-196593328D02*
X264386598Y-196593328D01*
X264386598Y-196593328D02*
X264243741Y-196521900D01*
X264243741Y-196521900D02*
X264172312Y-196450471D01*
X264172312Y-196450471D02*
X264100884Y-196307614D01*
X264100884Y-196307614D02*
X264100884Y-195879042D01*
X264100884Y-195879042D02*
X264172312Y-195736185D01*
X264172312Y-195736185D02*
X264243741Y-195664757D01*
X264243741Y-195664757D02*
X264386598Y-195593328D01*
X264386598Y-195593328D02*
X264672312Y-195593328D01*
X264672312Y-195593328D02*
X264815170Y-195664757D01*
X265529455Y-196450471D02*
X265600884Y-196521900D01*
X265600884Y-196521900D02*
X265529455Y-196593328D01*
X265529455Y-196593328D02*
X265458027Y-196521900D01*
X265458027Y-196521900D02*
X265529455Y-196450471D01*
X265529455Y-196450471D02*
X265529455Y-196593328D01*
X265529455Y-195664757D02*
X265600884Y-195736185D01*
X265600884Y-195736185D02*
X265529455Y-195807614D01*
X265529455Y-195807614D02*
X265458027Y-195736185D01*
X265458027Y-195736185D02*
X265529455Y-195664757D01*
X265529455Y-195664757D02*
X265529455Y-195807614D01*
X267243741Y-195093328D02*
X268172313Y-195093328D01*
X268172313Y-195093328D02*
X267672313Y-195664757D01*
X267672313Y-195664757D02*
X267886598Y-195664757D01*
X267886598Y-195664757D02*
X268029456Y-195736185D01*
X268029456Y-195736185D02*
X268100884Y-195807614D01*
X268100884Y-195807614D02*
X268172313Y-195950471D01*
X268172313Y-195950471D02*
X268172313Y-196307614D01*
X268172313Y-196307614D02*
X268100884Y-196450471D01*
X268100884Y-196450471D02*
X268029456Y-196521900D01*
X268029456Y-196521900D02*
X267886598Y-196593328D01*
X267886598Y-196593328D02*
X267458027Y-196593328D01*
X267458027Y-196593328D02*
X267315170Y-196521900D01*
X267315170Y-196521900D02*
X267243741Y-196450471D01*
X269886598Y-195021900D02*
X268600884Y-196950471D01*
X270458027Y-196593328D02*
X270743741Y-196593328D01*
X270743741Y-196593328D02*
X270886598Y-196521900D01*
X270886598Y-196521900D02*
X270958027Y-196450471D01*
X270958027Y-196450471D02*
X271100884Y-196236185D01*
X271100884Y-196236185D02*
X271172313Y-195950471D01*
X271172313Y-195950471D02*
X271172313Y-195379042D01*
X271172313Y-195379042D02*
X271100884Y-195236185D01*
X271100884Y-195236185D02*
X271029456Y-195164757D01*
X271029456Y-195164757D02*
X270886598Y-195093328D01*
X270886598Y-195093328D02*
X270600884Y-195093328D01*
X270600884Y-195093328D02*
X270458027Y-195164757D01*
X270458027Y-195164757D02*
X270386598Y-195236185D01*
X270386598Y-195236185D02*
X270315170Y-195379042D01*
X270315170Y-195379042D02*
X270315170Y-195736185D01*
X270315170Y-195736185D02*
X270386598Y-195879042D01*
X270386598Y-195879042D02*
X270458027Y-195950471D01*
X270458027Y-195950471D02*
X270600884Y-196021900D01*
X270600884Y-196021900D02*
X270886598Y-196021900D01*
X270886598Y-196021900D02*
X271029456Y-195950471D01*
X271029456Y-195950471D02*
X271100884Y-195879042D01*
X271100884Y-195879042D02*
X271172313Y-195736185D01*
D10*
D11*
X177002200Y-187507200D02*
X285002200Y-187507200D01*
D10*
D13*
X178693928Y-188211638D02*
X179836785Y-188211638D01*
X179015357Y-190211638D02*
X179265357Y-188211638D01*
X180253452Y-190211638D02*
X180420119Y-188878304D01*
X180503452Y-188211638D02*
X180396309Y-188306876D01*
X180396309Y-188306876D02*
X180479643Y-188402114D01*
X180479643Y-188402114D02*
X180586786Y-188306876D01*
X180586786Y-188306876D02*
X180503452Y-188211638D01*
X180503452Y-188211638D02*
X180479643Y-188402114D01*
X181086786Y-188878304D02*
X181848690Y-188878304D01*
X181455833Y-188211638D02*
X181241548Y-189925923D01*
X181241548Y-189925923D02*
X181312976Y-190116400D01*
X181312976Y-190116400D02*
X181491548Y-190211638D01*
X181491548Y-190211638D02*
X181682024Y-190211638D01*
X182634405Y-190211638D02*
X182455833Y-190116400D01*
X182455833Y-190116400D02*
X182384405Y-189925923D01*
X182384405Y-189925923D02*
X182598690Y-188211638D01*
X184170119Y-190116400D02*
X183967738Y-190211638D01*
X183967738Y-190211638D02*
X183586785Y-190211638D01*
X183586785Y-190211638D02*
X183408214Y-190116400D01*
X183408214Y-190116400D02*
X183336785Y-189925923D01*
X183336785Y-189925923D02*
X183432024Y-189164019D01*
X183432024Y-189164019D02*
X183551071Y-188973542D01*
X183551071Y-188973542D02*
X183753452Y-188878304D01*
X183753452Y-188878304D02*
X184134404Y-188878304D01*
X184134404Y-188878304D02*
X184312976Y-188973542D01*
X184312976Y-188973542D02*
X184384404Y-189164019D01*
X184384404Y-189164019D02*
X184360595Y-189354495D01*
X184360595Y-189354495D02*
X183384404Y-189544971D01*
X185134405Y-190021161D02*
X185217738Y-190116400D01*
X185217738Y-190116400D02*
X185110595Y-190211638D01*
X185110595Y-190211638D02*
X185027262Y-190116400D01*
X185027262Y-190116400D02*
X185134405Y-190021161D01*
X185134405Y-190021161D02*
X185110595Y-190211638D01*
X185265357Y-188973542D02*
X185348690Y-189068780D01*
X185348690Y-189068780D02*
X185241548Y-189164019D01*
X185241548Y-189164019D02*
X185158214Y-189068780D01*
X185158214Y-189068780D02*
X185265357Y-188973542D01*
X185265357Y-188973542D02*
X185241548Y-189164019D01*
X188872501Y-188306876D02*
X188693929Y-188211638D01*
X188693929Y-188211638D02*
X188408215Y-188211638D01*
X188408215Y-188211638D02*
X188110596Y-188306876D01*
X188110596Y-188306876D02*
X187896310Y-188497352D01*
X187896310Y-188497352D02*
X187777262Y-188687828D01*
X187777262Y-188687828D02*
X187634405Y-189068780D01*
X187634405Y-189068780D02*
X187598691Y-189354495D01*
X187598691Y-189354495D02*
X187646310Y-189735447D01*
X187646310Y-189735447D02*
X187717739Y-189925923D01*
X187717739Y-189925923D02*
X187884405Y-190116400D01*
X187884405Y-190116400D02*
X188158215Y-190211638D01*
X188158215Y-190211638D02*
X188348691Y-190211638D01*
X188348691Y-190211638D02*
X188646310Y-190116400D01*
X188646310Y-190116400D02*
X188753453Y-190021161D01*
X188753453Y-190021161D02*
X188836786Y-189354495D01*
X188836786Y-189354495D02*
X188455834Y-189354495D01*
X189586786Y-190211638D02*
X189753453Y-188878304D01*
X189705834Y-189259257D02*
X189824881Y-189068780D01*
X189824881Y-189068780D02*
X189932024Y-188973542D01*
X189932024Y-188973542D02*
X190134405Y-188878304D01*
X190134405Y-188878304D02*
X190324881Y-188878304D01*
X191598691Y-190116400D02*
X191396310Y-190211638D01*
X191396310Y-190211638D02*
X191015357Y-190211638D01*
X191015357Y-190211638D02*
X190836786Y-190116400D01*
X190836786Y-190116400D02*
X190765357Y-189925923D01*
X190765357Y-189925923D02*
X190860596Y-189164019D01*
X190860596Y-189164019D02*
X190979643Y-188973542D01*
X190979643Y-188973542D02*
X191182024Y-188878304D01*
X191182024Y-188878304D02*
X191562976Y-188878304D01*
X191562976Y-188878304D02*
X191741548Y-188973542D01*
X191741548Y-188973542D02*
X191812976Y-189164019D01*
X191812976Y-189164019D02*
X191789167Y-189354495D01*
X191789167Y-189354495D02*
X190812976Y-189544971D01*
X193312977Y-190116400D02*
X193110596Y-190211638D01*
X193110596Y-190211638D02*
X192729643Y-190211638D01*
X192729643Y-190211638D02*
X192551072Y-190116400D01*
X192551072Y-190116400D02*
X192479643Y-189925923D01*
X192479643Y-189925923D02*
X192574882Y-189164019D01*
X192574882Y-189164019D02*
X192693929Y-188973542D01*
X192693929Y-188973542D02*
X192896310Y-188878304D01*
X192896310Y-188878304D02*
X193277262Y-188878304D01*
X193277262Y-188878304D02*
X193455834Y-188973542D01*
X193455834Y-188973542D02*
X193527262Y-189164019D01*
X193527262Y-189164019D02*
X193503453Y-189354495D01*
X193503453Y-189354495D02*
X192527262Y-189544971D01*
X194420120Y-188878304D02*
X194253453Y-190211638D01*
X194396310Y-189068780D02*
X194503453Y-188973542D01*
X194503453Y-188973542D02*
X194705834Y-188878304D01*
X194705834Y-188878304D02*
X194991548Y-188878304D01*
X194991548Y-188878304D02*
X195170120Y-188973542D01*
X195170120Y-188973542D02*
X195241548Y-189164019D01*
X195241548Y-189164019D02*
X195110596Y-190211638D01*
X196062977Y-190211638D02*
X196312977Y-188211638D01*
X196920120Y-190211638D02*
X197051072Y-189164019D01*
X197051072Y-189164019D02*
X196979644Y-188973542D01*
X196979644Y-188973542D02*
X196801072Y-188878304D01*
X196801072Y-188878304D02*
X196515358Y-188878304D01*
X196515358Y-188878304D02*
X196312977Y-188973542D01*
X196312977Y-188973542D02*
X196205834Y-189068780D01*
X198158216Y-190211638D02*
X197979644Y-190116400D01*
X197979644Y-190116400D02*
X197896311Y-190021161D01*
X197896311Y-190021161D02*
X197824882Y-189830685D01*
X197824882Y-189830685D02*
X197896311Y-189259257D01*
X197896311Y-189259257D02*
X198015358Y-189068780D01*
X198015358Y-189068780D02*
X198122501Y-188973542D01*
X198122501Y-188973542D02*
X198324882Y-188878304D01*
X198324882Y-188878304D02*
X198610596Y-188878304D01*
X198610596Y-188878304D02*
X198789168Y-188973542D01*
X198789168Y-188973542D02*
X198872501Y-189068780D01*
X198872501Y-189068780D02*
X198943930Y-189259257D01*
X198943930Y-189259257D02*
X198872501Y-189830685D01*
X198872501Y-189830685D02*
X198753454Y-190021161D01*
X198753454Y-190021161D02*
X198646311Y-190116400D01*
X198646311Y-190116400D02*
X198443930Y-190211638D01*
X198443930Y-190211638D02*
X198158216Y-190211638D01*
X200705835Y-188878304D02*
X200539168Y-190211638D01*
X199848692Y-188878304D02*
X199717740Y-189925923D01*
X199717740Y-189925923D02*
X199789168Y-190116400D01*
X199789168Y-190116400D02*
X199967740Y-190211638D01*
X199967740Y-190211638D02*
X200253454Y-190211638D01*
X200253454Y-190211638D02*
X200455835Y-190116400D01*
X200455835Y-190116400D02*
X200562978Y-190021161D01*
X201408216Y-190116400D02*
X201586787Y-190211638D01*
X201586787Y-190211638D02*
X201967740Y-190211638D01*
X201967740Y-190211638D02*
X202170121Y-190116400D01*
X202170121Y-190116400D02*
X202289168Y-189925923D01*
X202289168Y-189925923D02*
X202301073Y-189830685D01*
X202301073Y-189830685D02*
X202229644Y-189640209D01*
X202229644Y-189640209D02*
X202051073Y-189544971D01*
X202051073Y-189544971D02*
X201765359Y-189544971D01*
X201765359Y-189544971D02*
X201586787Y-189449733D01*
X201586787Y-189449733D02*
X201515359Y-189259257D01*
X201515359Y-189259257D02*
X201527264Y-189164019D01*
X201527264Y-189164019D02*
X201646311Y-188973542D01*
X201646311Y-188973542D02*
X201848692Y-188878304D01*
X201848692Y-188878304D02*
X202134406Y-188878304D01*
X202134406Y-188878304D02*
X202312978Y-188973542D01*
X203884407Y-190116400D02*
X203682026Y-190211638D01*
X203682026Y-190211638D02*
X203301073Y-190211638D01*
X203301073Y-190211638D02*
X203122502Y-190116400D01*
X203122502Y-190116400D02*
X203051073Y-189925923D01*
X203051073Y-189925923D02*
X203146312Y-189164019D01*
X203146312Y-189164019D02*
X203265359Y-188973542D01*
X203265359Y-188973542D02*
X203467740Y-188878304D01*
X203467740Y-188878304D02*
X203848692Y-188878304D01*
X203848692Y-188878304D02*
X204027264Y-188973542D01*
X204027264Y-188973542D02*
X204098692Y-189164019D01*
X204098692Y-189164019D02*
X204074883Y-189354495D01*
X204074883Y-189354495D02*
X203098692Y-189544971D01*
X207301074Y-190211638D02*
X206348693Y-190211638D01*
X206348693Y-190211638D02*
X206598693Y-188211638D01*
X208253456Y-190211638D02*
X208074884Y-190116400D01*
X208074884Y-190116400D02*
X207991551Y-190021161D01*
X207991551Y-190021161D02*
X207920122Y-189830685D01*
X207920122Y-189830685D02*
X207991551Y-189259257D01*
X207991551Y-189259257D02*
X208110598Y-189068780D01*
X208110598Y-189068780D02*
X208217741Y-188973542D01*
X208217741Y-188973542D02*
X208420122Y-188878304D01*
X208420122Y-188878304D02*
X208705836Y-188878304D01*
X208705836Y-188878304D02*
X208884408Y-188973542D01*
X208884408Y-188973542D02*
X208967741Y-189068780D01*
X208967741Y-189068780D02*
X209039170Y-189259257D01*
X209039170Y-189259257D02*
X208967741Y-189830685D01*
X208967741Y-189830685D02*
X208848694Y-190021161D01*
X208848694Y-190021161D02*
X208741551Y-190116400D01*
X208741551Y-190116400D02*
X208539170Y-190211638D01*
X208539170Y-190211638D02*
X208253456Y-190211638D01*
X210920122Y-190211638D02*
X210372503Y-189259257D01*
X209777265Y-190211638D02*
X210027265Y-188211638D01*
X210027265Y-188211638D02*
X210789170Y-188211638D01*
X210789170Y-188211638D02*
X210967741Y-188306876D01*
X210967741Y-188306876D02*
X211051075Y-188402114D01*
X211051075Y-188402114D02*
X211122503Y-188592590D01*
X211122503Y-188592590D02*
X211086789Y-188878304D01*
X211086789Y-188878304D02*
X210967741Y-189068780D01*
X210967741Y-189068780D02*
X210860599Y-189164019D01*
X210860599Y-189164019D02*
X210658218Y-189259257D01*
X210658218Y-189259257D02*
X209896313Y-189259257D01*
X212634408Y-190211638D02*
X212765360Y-189164019D01*
X212765360Y-189164019D02*
X212693932Y-188973542D01*
X212693932Y-188973542D02*
X212515360Y-188878304D01*
X212515360Y-188878304D02*
X212134408Y-188878304D01*
X212134408Y-188878304D02*
X211932027Y-188973542D01*
X212646313Y-190116400D02*
X212443932Y-190211638D01*
X212443932Y-190211638D02*
X211967741Y-190211638D01*
X211967741Y-190211638D02*
X211789170Y-190116400D01*
X211789170Y-190116400D02*
X211717741Y-189925923D01*
X211717741Y-189925923D02*
X211741551Y-189735447D01*
X211741551Y-189735447D02*
X211860599Y-189544971D01*
X211860599Y-189544971D02*
X212062980Y-189449733D01*
X212062980Y-189449733D02*
X212539170Y-189449733D01*
X212539170Y-189449733D02*
X212741551Y-189354495D01*
X215110599Y-190211638D02*
X215360599Y-188211638D01*
X215360599Y-188211638D02*
X216253456Y-190211638D01*
X216253456Y-190211638D02*
X216503456Y-188211638D01*
X217491552Y-190211638D02*
X217312980Y-190116400D01*
X217312980Y-190116400D02*
X217229647Y-190021161D01*
X217229647Y-190021161D02*
X217158218Y-189830685D01*
X217158218Y-189830685D02*
X217229647Y-189259257D01*
X217229647Y-189259257D02*
X217348694Y-189068780D01*
X217348694Y-189068780D02*
X217455837Y-188973542D01*
X217455837Y-188973542D02*
X217658218Y-188878304D01*
X217658218Y-188878304D02*
X217943932Y-188878304D01*
X217943932Y-188878304D02*
X218122504Y-188973542D01*
X218122504Y-188973542D02*
X218205837Y-189068780D01*
X218205837Y-189068780D02*
X218277266Y-189259257D01*
X218277266Y-189259257D02*
X218205837Y-189830685D01*
X218205837Y-189830685D02*
X218086790Y-190021161D01*
X218086790Y-190021161D02*
X217979647Y-190116400D01*
X217979647Y-190116400D02*
X217777266Y-190211638D01*
X217777266Y-190211638D02*
X217491552Y-190211638D01*
X219872504Y-190211638D02*
X220122504Y-188211638D01*
X219884409Y-190116400D02*
X219682028Y-190211638D01*
X219682028Y-190211638D02*
X219301076Y-190211638D01*
X219301076Y-190211638D02*
X219122504Y-190116400D01*
X219122504Y-190116400D02*
X219039171Y-190021161D01*
X219039171Y-190021161D02*
X218967742Y-189830685D01*
X218967742Y-189830685D02*
X219039171Y-189259257D01*
X219039171Y-189259257D02*
X219158218Y-189068780D01*
X219158218Y-189068780D02*
X219265361Y-188973542D01*
X219265361Y-188973542D02*
X219467742Y-188878304D01*
X219467742Y-188878304D02*
X219848695Y-188878304D01*
X219848695Y-188878304D02*
X220027266Y-188973542D01*
X221598695Y-190116400D02*
X221396314Y-190211638D01*
X221396314Y-190211638D02*
X221015361Y-190211638D01*
X221015361Y-190211638D02*
X220836790Y-190116400D01*
X220836790Y-190116400D02*
X220765361Y-189925923D01*
X220765361Y-189925923D02*
X220860600Y-189164019D01*
X220860600Y-189164019D02*
X220979647Y-188973542D01*
X220979647Y-188973542D02*
X221182028Y-188878304D01*
X221182028Y-188878304D02*
X221562980Y-188878304D01*
X221562980Y-188878304D02*
X221741552Y-188973542D01*
X221741552Y-188973542D02*
X221812980Y-189164019D01*
X221812980Y-189164019D02*
X221789171Y-189354495D01*
X221789171Y-189354495D02*
X220812980Y-189544971D01*
X224539172Y-190973542D02*
X224455838Y-190878304D01*
X224455838Y-190878304D02*
X224301076Y-190592590D01*
X224301076Y-190592590D02*
X224229648Y-190402114D01*
X224229648Y-190402114D02*
X224170124Y-190116400D01*
X224170124Y-190116400D02*
X224134410Y-189640209D01*
X224134410Y-189640209D02*
X224182029Y-189259257D01*
X224182029Y-189259257D02*
X224336791Y-188783066D01*
X224336791Y-188783066D02*
X224467743Y-188497352D01*
X224467743Y-188497352D02*
X224586791Y-188306876D01*
X224586791Y-188306876D02*
X224812981Y-188021161D01*
X224812981Y-188021161D02*
X224920124Y-187925923D01*
X225312981Y-190116400D02*
X225586790Y-190211638D01*
X225586790Y-190211638D02*
X226062981Y-190211638D01*
X226062981Y-190211638D02*
X226265362Y-190116400D01*
X226265362Y-190116400D02*
X226372505Y-190021161D01*
X226372505Y-190021161D02*
X226491552Y-189830685D01*
X226491552Y-189830685D02*
X226515362Y-189640209D01*
X226515362Y-189640209D02*
X226443933Y-189449733D01*
X226443933Y-189449733D02*
X226360600Y-189354495D01*
X226360600Y-189354495D02*
X226182029Y-189259257D01*
X226182029Y-189259257D02*
X225812981Y-189164019D01*
X225812981Y-189164019D02*
X225634409Y-189068780D01*
X225634409Y-189068780D02*
X225551076Y-188973542D01*
X225551076Y-188973542D02*
X225479648Y-188783066D01*
X225479648Y-188783066D02*
X225503457Y-188592590D01*
X225503457Y-188592590D02*
X225622505Y-188402114D01*
X225622505Y-188402114D02*
X225729648Y-188306876D01*
X225729648Y-188306876D02*
X225932029Y-188211638D01*
X225932029Y-188211638D02*
X226408219Y-188211638D01*
X226408219Y-188211638D02*
X226682029Y-188306876D01*
X227301076Y-190211638D02*
X227551076Y-188211638D01*
X228253457Y-190211638D02*
X228503457Y-188211638D01*
X228503457Y-188211638D02*
X228991552Y-189640209D01*
X228991552Y-189640209D02*
X229836791Y-188211638D01*
X229836791Y-188211638D02*
X229586791Y-190211638D01*
X230253457Y-190973542D02*
X230360600Y-190878304D01*
X230360600Y-190878304D02*
X230586790Y-190592590D01*
X230586790Y-190592590D02*
X230705838Y-190402114D01*
X230705838Y-190402114D02*
X230836790Y-190116400D01*
X230836790Y-190116400D02*
X230991552Y-189640209D01*
X230991552Y-189640209D02*
X231039171Y-189259257D01*
X231039171Y-189259257D02*
X231003457Y-188783066D01*
X231003457Y-188783066D02*
X230943933Y-188497352D01*
X230943933Y-188497352D02*
X230872505Y-188306876D01*
X230872505Y-188306876D02*
X230717743Y-188021161D01*
X230717743Y-188021161D02*
X230634409Y-187925923D01*
D10*
D11*
X178958026Y-185607614D02*
X178458026Y-185607614D01*
X178458026Y-186393328D02*
X178458026Y-184893328D01*
X178458026Y-184893328D02*
X179172312Y-184893328D01*
X179743740Y-186393328D02*
X179743740Y-185393328D01*
X179743740Y-184893328D02*
X179672312Y-184964757D01*
X179672312Y-184964757D02*
X179743740Y-185036185D01*
X179743740Y-185036185D02*
X179815169Y-184964757D01*
X179815169Y-184964757D02*
X179743740Y-184893328D01*
X179743740Y-184893328D02*
X179743740Y-185036185D01*
X180672312Y-186393328D02*
X180529455Y-186321900D01*
X180529455Y-186321900D02*
X180458026Y-186179042D01*
X180458026Y-186179042D02*
X180458026Y-184893328D01*
X181815169Y-186321900D02*
X181672312Y-186393328D01*
X181672312Y-186393328D02*
X181386598Y-186393328D01*
X181386598Y-186393328D02*
X181243740Y-186321900D01*
X181243740Y-186321900D02*
X181172312Y-186179042D01*
X181172312Y-186179042D02*
X181172312Y-185607614D01*
X181172312Y-185607614D02*
X181243740Y-185464757D01*
X181243740Y-185464757D02*
X181386598Y-185393328D01*
X181386598Y-185393328D02*
X181672312Y-185393328D01*
X181672312Y-185393328D02*
X181815169Y-185464757D01*
X181815169Y-185464757D02*
X181886598Y-185607614D01*
X181886598Y-185607614D02*
X181886598Y-185750471D01*
X181886598Y-185750471D02*
X181172312Y-185893328D01*
X182529454Y-186250471D02*
X182600883Y-186321900D01*
X182600883Y-186321900D02*
X182529454Y-186393328D01*
X182529454Y-186393328D02*
X182458026Y-186321900D01*
X182458026Y-186321900D02*
X182529454Y-186250471D01*
X182529454Y-186250471D02*
X182529454Y-186393328D01*
X182529454Y-185464757D02*
X182600883Y-185536185D01*
X182600883Y-185536185D02*
X182529454Y-185607614D01*
X182529454Y-185607614D02*
X182458026Y-185536185D01*
X182458026Y-185536185D02*
X182529454Y-185464757D01*
X182529454Y-185464757D02*
X182529454Y-185607614D01*
X185100883Y-186393328D02*
X184386597Y-186393328D01*
X184386597Y-186393328D02*
X184386597Y-184893328D01*
X185815169Y-186393328D02*
X185672312Y-186321900D01*
X185672312Y-186321900D02*
X185600883Y-186250471D01*
X185600883Y-186250471D02*
X185529455Y-186107614D01*
X185529455Y-186107614D02*
X185529455Y-185679042D01*
X185529455Y-185679042D02*
X185600883Y-185536185D01*
X185600883Y-185536185D02*
X185672312Y-185464757D01*
X185672312Y-185464757D02*
X185815169Y-185393328D01*
X185815169Y-185393328D02*
X186029455Y-185393328D01*
X186029455Y-185393328D02*
X186172312Y-185464757D01*
X186172312Y-185464757D02*
X186243741Y-185536185D01*
X186243741Y-185536185D02*
X186315169Y-185679042D01*
X186315169Y-185679042D02*
X186315169Y-186107614D01*
X186315169Y-186107614D02*
X186243741Y-186250471D01*
X186243741Y-186250471D02*
X186172312Y-186321900D01*
X186172312Y-186321900D02*
X186029455Y-186393328D01*
X186029455Y-186393328D02*
X185815169Y-186393328D01*
X187815169Y-186393328D02*
X187315169Y-185679042D01*
X186958026Y-186393328D02*
X186958026Y-184893328D01*
X186958026Y-184893328D02*
X187529455Y-184893328D01*
X187529455Y-184893328D02*
X187672312Y-184964757D01*
X187672312Y-184964757D02*
X187743741Y-185036185D01*
X187743741Y-185036185D02*
X187815169Y-185179042D01*
X187815169Y-185179042D02*
X187815169Y-185393328D01*
X187815169Y-185393328D02*
X187743741Y-185536185D01*
X187743741Y-185536185D02*
X187672312Y-185607614D01*
X187672312Y-185607614D02*
X187529455Y-185679042D01*
X187529455Y-185679042D02*
X186958026Y-185679042D01*
X189100884Y-186393328D02*
X189100884Y-185607614D01*
X189100884Y-185607614D02*
X189029455Y-185464757D01*
X189029455Y-185464757D02*
X188886598Y-185393328D01*
X188886598Y-185393328D02*
X188600884Y-185393328D01*
X188600884Y-185393328D02*
X188458026Y-185464757D01*
X189100884Y-186321900D02*
X188958026Y-186393328D01*
X188958026Y-186393328D02*
X188600884Y-186393328D01*
X188600884Y-186393328D02*
X188458026Y-186321900D01*
X188458026Y-186321900D02*
X188386598Y-186179042D01*
X188386598Y-186179042D02*
X188386598Y-186036185D01*
X188386598Y-186036185D02*
X188458026Y-185893328D01*
X188458026Y-185893328D02*
X188600884Y-185821900D01*
X188600884Y-185821900D02*
X188958026Y-185821900D01*
X188958026Y-185821900D02*
X189100884Y-185750471D01*
X189458027Y-186536185D02*
X190600884Y-186536185D01*
X190958026Y-186393328D02*
X190958026Y-184893328D01*
X190958026Y-184893328D02*
X191815169Y-186393328D01*
X191815169Y-186393328D02*
X191815169Y-184893328D01*
X192743741Y-186393328D02*
X192600884Y-186321900D01*
X192600884Y-186321900D02*
X192529455Y-186250471D01*
X192529455Y-186250471D02*
X192458027Y-186107614D01*
X192458027Y-186107614D02*
X192458027Y-185679042D01*
X192458027Y-185679042D02*
X192529455Y-185536185D01*
X192529455Y-185536185D02*
X192600884Y-185464757D01*
X192600884Y-185464757D02*
X192743741Y-185393328D01*
X192743741Y-185393328D02*
X192958027Y-185393328D01*
X192958027Y-185393328D02*
X193100884Y-185464757D01*
X193100884Y-185464757D02*
X193172313Y-185536185D01*
X193172313Y-185536185D02*
X193243741Y-185679042D01*
X193243741Y-185679042D02*
X193243741Y-186107614D01*
X193243741Y-186107614D02*
X193172313Y-186250471D01*
X193172313Y-186250471D02*
X193100884Y-186321900D01*
X193100884Y-186321900D02*
X192958027Y-186393328D01*
X192958027Y-186393328D02*
X192743741Y-186393328D01*
X194529456Y-186393328D02*
X194529456Y-184893328D01*
X194529456Y-186321900D02*
X194386598Y-186393328D01*
X194386598Y-186393328D02*
X194100884Y-186393328D01*
X194100884Y-186393328D02*
X193958027Y-186321900D01*
X193958027Y-186321900D02*
X193886598Y-186250471D01*
X193886598Y-186250471D02*
X193815170Y-186107614D01*
X193815170Y-186107614D02*
X193815170Y-185679042D01*
X193815170Y-185679042D02*
X193886598Y-185536185D01*
X193886598Y-185536185D02*
X193958027Y-185464757D01*
X193958027Y-185464757D02*
X194100884Y-185393328D01*
X194100884Y-185393328D02*
X194386598Y-185393328D01*
X194386598Y-185393328D02*
X194529456Y-185464757D01*
X195815170Y-186321900D02*
X195672313Y-186393328D01*
X195672313Y-186393328D02*
X195386599Y-186393328D01*
X195386599Y-186393328D02*
X195243741Y-186321900D01*
X195243741Y-186321900D02*
X195172313Y-186179042D01*
X195172313Y-186179042D02*
X195172313Y-185607614D01*
X195172313Y-185607614D02*
X195243741Y-185464757D01*
X195243741Y-185464757D02*
X195386599Y-185393328D01*
X195386599Y-185393328D02*
X195672313Y-185393328D01*
X195672313Y-185393328D02*
X195815170Y-185464757D01*
X195815170Y-185464757D02*
X195886599Y-185607614D01*
X195886599Y-185607614D02*
X195886599Y-185750471D01*
X195886599Y-185750471D02*
X195172313Y-185893328D01*
X196529455Y-186250471D02*
X196600884Y-186321900D01*
X196600884Y-186321900D02*
X196529455Y-186393328D01*
X196529455Y-186393328D02*
X196458027Y-186321900D01*
X196458027Y-186321900D02*
X196529455Y-186250471D01*
X196529455Y-186250471D02*
X196529455Y-186393328D01*
X197243741Y-186393328D02*
X197243741Y-184893328D01*
X197386599Y-185821900D02*
X197815170Y-186393328D01*
X197815170Y-185393328D02*
X197243741Y-185964757D01*
X198458027Y-186393328D02*
X198458027Y-185393328D01*
X198458027Y-184893328D02*
X198386599Y-184964757D01*
X198386599Y-184964757D02*
X198458027Y-185036185D01*
X198458027Y-185036185D02*
X198529456Y-184964757D01*
X198529456Y-184964757D02*
X198458027Y-184893328D01*
X198458027Y-184893328D02*
X198458027Y-185036185D01*
X199815171Y-186321900D02*
X199672313Y-186393328D01*
X199672313Y-186393328D02*
X199386599Y-186393328D01*
X199386599Y-186393328D02*
X199243742Y-186321900D01*
X199243742Y-186321900D02*
X199172313Y-186250471D01*
X199172313Y-186250471D02*
X199100885Y-186107614D01*
X199100885Y-186107614D02*
X199100885Y-185679042D01*
X199100885Y-185679042D02*
X199172313Y-185536185D01*
X199172313Y-185536185D02*
X199243742Y-185464757D01*
X199243742Y-185464757D02*
X199386599Y-185393328D01*
X199386599Y-185393328D02*
X199672313Y-185393328D01*
X199672313Y-185393328D02*
X199815171Y-185464757D01*
X201100885Y-186393328D02*
X201100885Y-185607614D01*
X201100885Y-185607614D02*
X201029456Y-185464757D01*
X201029456Y-185464757D02*
X200886599Y-185393328D01*
X200886599Y-185393328D02*
X200600885Y-185393328D01*
X200600885Y-185393328D02*
X200458027Y-185464757D01*
X201100885Y-186321900D02*
X200958027Y-186393328D01*
X200958027Y-186393328D02*
X200600885Y-186393328D01*
X200600885Y-186393328D02*
X200458027Y-186321900D01*
X200458027Y-186321900D02*
X200386599Y-186179042D01*
X200386599Y-186179042D02*
X200386599Y-186036185D01*
X200386599Y-186036185D02*
X200458027Y-185893328D01*
X200458027Y-185893328D02*
X200600885Y-185821900D01*
X200600885Y-185821900D02*
X200958027Y-185821900D01*
X200958027Y-185821900D02*
X201100885Y-185750471D01*
X202458028Y-186393328D02*
X202458028Y-184893328D01*
X202458028Y-186321900D02*
X202315170Y-186393328D01*
X202315170Y-186393328D02*
X202029456Y-186393328D01*
X202029456Y-186393328D02*
X201886599Y-186321900D01*
X201886599Y-186321900D02*
X201815170Y-186250471D01*
X201815170Y-186250471D02*
X201743742Y-186107614D01*
X201743742Y-186107614D02*
X201743742Y-185679042D01*
X201743742Y-185679042D02*
X201815170Y-185536185D01*
X201815170Y-185536185D02*
X201886599Y-185464757D01*
X201886599Y-185464757D02*
X202029456Y-185393328D01*
X202029456Y-185393328D02*
X202315170Y-185393328D01*
X202315170Y-185393328D02*
X202458028Y-185464757D01*
X202815171Y-186536185D02*
X203958028Y-186536185D01*
X204315170Y-185393328D02*
X204315170Y-186893328D01*
X204315170Y-185464757D02*
X204458028Y-185393328D01*
X204458028Y-185393328D02*
X204743742Y-185393328D01*
X204743742Y-185393328D02*
X204886599Y-185464757D01*
X204886599Y-185464757D02*
X204958028Y-185536185D01*
X204958028Y-185536185D02*
X205029456Y-185679042D01*
X205029456Y-185679042D02*
X205029456Y-186107614D01*
X205029456Y-186107614D02*
X204958028Y-186250471D01*
X204958028Y-186250471D02*
X204886599Y-186321900D01*
X204886599Y-186321900D02*
X204743742Y-186393328D01*
X204743742Y-186393328D02*
X204458028Y-186393328D01*
X204458028Y-186393328D02*
X204315170Y-186321900D01*
X206315171Y-186321900D02*
X206172313Y-186393328D01*
X206172313Y-186393328D02*
X205886599Y-186393328D01*
X205886599Y-186393328D02*
X205743742Y-186321900D01*
X205743742Y-186321900D02*
X205672313Y-186250471D01*
X205672313Y-186250471D02*
X205600885Y-186107614D01*
X205600885Y-186107614D02*
X205600885Y-185679042D01*
X205600885Y-185679042D02*
X205672313Y-185536185D01*
X205672313Y-185536185D02*
X205743742Y-185464757D01*
X205743742Y-185464757D02*
X205886599Y-185393328D01*
X205886599Y-185393328D02*
X206172313Y-185393328D01*
X206172313Y-185393328D02*
X206315171Y-185464757D01*
X206958027Y-186393328D02*
X206958027Y-184893328D01*
X206958027Y-185464757D02*
X207100885Y-185393328D01*
X207100885Y-185393328D02*
X207386599Y-185393328D01*
X207386599Y-185393328D02*
X207529456Y-185464757D01*
X207529456Y-185464757D02*
X207600885Y-185536185D01*
X207600885Y-185536185D02*
X207672313Y-185679042D01*
X207672313Y-185679042D02*
X207672313Y-186107614D01*
X207672313Y-186107614D02*
X207600885Y-186250471D01*
X207600885Y-186250471D02*
X207529456Y-186321900D01*
X207529456Y-186321900D02*
X207386599Y-186393328D01*
X207386599Y-186393328D02*
X207100885Y-186393328D01*
X207100885Y-186393328D02*
X206958027Y-186321900D01*
D10*
D11*
X177002200Y-181507200D02*
X285002200Y-181507200D01*
D10*
D11*
X178386598Y-183621900D02*
X178600884Y-183693328D01*
X178600884Y-183693328D02*
X178958026Y-183693328D01*
X178958026Y-183693328D02*
X179100884Y-183621900D01*
X179100884Y-183621900D02*
X179172312Y-183550471D01*
X179172312Y-183550471D02*
X179243741Y-183407614D01*
X179243741Y-183407614D02*
X179243741Y-183264757D01*
X179243741Y-183264757D02*
X179172312Y-183121900D01*
X179172312Y-183121900D02*
X179100884Y-183050471D01*
X179100884Y-183050471D02*
X178958026Y-182979042D01*
X178958026Y-182979042D02*
X178672312Y-182907614D01*
X178672312Y-182907614D02*
X178529455Y-182836185D01*
X178529455Y-182836185D02*
X178458026Y-182764757D01*
X178458026Y-182764757D02*
X178386598Y-182621900D01*
X178386598Y-182621900D02*
X178386598Y-182479042D01*
X178386598Y-182479042D02*
X178458026Y-182336185D01*
X178458026Y-182336185D02*
X178529455Y-182264757D01*
X178529455Y-182264757D02*
X178672312Y-182193328D01*
X178672312Y-182193328D02*
X179029455Y-182193328D01*
X179029455Y-182193328D02*
X179243741Y-182264757D01*
X179886597Y-183693328D02*
X179886597Y-182193328D01*
X180529455Y-183693328D02*
X180529455Y-182907614D01*
X180529455Y-182907614D02*
X180458026Y-182764757D01*
X180458026Y-182764757D02*
X180315169Y-182693328D01*
X180315169Y-182693328D02*
X180100883Y-182693328D01*
X180100883Y-182693328D02*
X179958026Y-182764757D01*
X179958026Y-182764757D02*
X179886597Y-182836185D01*
X181815169Y-183621900D02*
X181672312Y-183693328D01*
X181672312Y-183693328D02*
X181386598Y-183693328D01*
X181386598Y-183693328D02*
X181243740Y-183621900D01*
X181243740Y-183621900D02*
X181172312Y-183479042D01*
X181172312Y-183479042D02*
X181172312Y-182907614D01*
X181172312Y-182907614D02*
X181243740Y-182764757D01*
X181243740Y-182764757D02*
X181386598Y-182693328D01*
X181386598Y-182693328D02*
X181672312Y-182693328D01*
X181672312Y-182693328D02*
X181815169Y-182764757D01*
X181815169Y-182764757D02*
X181886598Y-182907614D01*
X181886598Y-182907614D02*
X181886598Y-183050471D01*
X181886598Y-183050471D02*
X181172312Y-183193328D01*
X183100883Y-183621900D02*
X182958026Y-183693328D01*
X182958026Y-183693328D02*
X182672312Y-183693328D01*
X182672312Y-183693328D02*
X182529454Y-183621900D01*
X182529454Y-183621900D02*
X182458026Y-183479042D01*
X182458026Y-183479042D02*
X182458026Y-182907614D01*
X182458026Y-182907614D02*
X182529454Y-182764757D01*
X182529454Y-182764757D02*
X182672312Y-182693328D01*
X182672312Y-182693328D02*
X182958026Y-182693328D01*
X182958026Y-182693328D02*
X183100883Y-182764757D01*
X183100883Y-182764757D02*
X183172312Y-182907614D01*
X183172312Y-182907614D02*
X183172312Y-183050471D01*
X183172312Y-183050471D02*
X182458026Y-183193328D01*
X183600883Y-182693328D02*
X184172311Y-182693328D01*
X183815168Y-182193328D02*
X183815168Y-183479042D01*
X183815168Y-183479042D02*
X183886597Y-183621900D01*
X183886597Y-183621900D02*
X184029454Y-183693328D01*
X184029454Y-183693328D02*
X184172311Y-183693328D01*
X184672311Y-183550471D02*
X184743740Y-183621900D01*
X184743740Y-183621900D02*
X184672311Y-183693328D01*
X184672311Y-183693328D02*
X184600883Y-183621900D01*
X184600883Y-183621900D02*
X184672311Y-183550471D01*
X184672311Y-183550471D02*
X184672311Y-183693328D01*
X184672311Y-182764757D02*
X184743740Y-182836185D01*
X184743740Y-182836185D02*
X184672311Y-182907614D01*
X184672311Y-182907614D02*
X184600883Y-182836185D01*
X184600883Y-182836185D02*
X184672311Y-182764757D01*
X184672311Y-182764757D02*
X184672311Y-182907614D01*
D10*
D12*
X178342425Y-179185528D02*
X179199568Y-179185528D01*
X178770996Y-180685528D02*
X178770996Y-179185528D01*
X179699567Y-180685528D02*
X179699567Y-179685528D01*
X179699567Y-179185528D02*
X179628139Y-179256957D01*
X179628139Y-179256957D02*
X179699567Y-179328385D01*
X179699567Y-179328385D02*
X179770996Y-179256957D01*
X179770996Y-179256957D02*
X179699567Y-179185528D01*
X179699567Y-179185528D02*
X179699567Y-179328385D01*
X180413853Y-179685528D02*
X180413853Y-180685528D01*
X180413853Y-179828385D02*
X180485282Y-179756957D01*
X180485282Y-179756957D02*
X180628139Y-179685528D01*
X180628139Y-179685528D02*
X180842425Y-179685528D01*
X180842425Y-179685528D02*
X180985282Y-179756957D01*
X180985282Y-179756957D02*
X181056711Y-179899814D01*
X181056711Y-179899814D02*
X181056711Y-180685528D01*
X181556711Y-179685528D02*
X182128139Y-179685528D01*
X181770996Y-179185528D02*
X181770996Y-180471242D01*
X181770996Y-180471242D02*
X181842425Y-180614100D01*
X181842425Y-180614100D02*
X181985282Y-180685528D01*
X181985282Y-180685528D02*
X182128139Y-180685528D01*
X183270997Y-180685528D02*
X183270997Y-179899814D01*
X183270997Y-179899814D02*
X183199568Y-179756957D01*
X183199568Y-179756957D02*
X183056711Y-179685528D01*
X183056711Y-179685528D02*
X182770997Y-179685528D01*
X182770997Y-179685528D02*
X182628139Y-179756957D01*
X183270997Y-180614100D02*
X183128139Y-180685528D01*
X183128139Y-180685528D02*
X182770997Y-180685528D01*
X182770997Y-180685528D02*
X182628139Y-180614100D01*
X182628139Y-180614100D02*
X182556711Y-180471242D01*
X182556711Y-180471242D02*
X182556711Y-180328385D01*
X182556711Y-180328385D02*
X182628139Y-180185528D01*
X182628139Y-180185528D02*
X182770997Y-180114100D01*
X182770997Y-180114100D02*
X183128139Y-180114100D01*
X183128139Y-180114100D02*
X183270997Y-180042671D01*
X184913854Y-179185528D02*
X185770997Y-179185528D01*
X185342425Y-180685528D02*
X185342425Y-179185528D01*
X186270996Y-180542671D02*
X186342425Y-180614100D01*
X186342425Y-180614100D02*
X186270996Y-180685528D01*
X186270996Y-180685528D02*
X186199568Y-180614100D01*
X186199568Y-180614100D02*
X186270996Y-180542671D01*
X186270996Y-180542671D02*
X186270996Y-180685528D01*
D10*
D11*
X197002200Y-191507200D02*
X197002200Y-194507200D01*
D10*
D11*
X261002200Y-191507200D02*
X261002200Y-198007200D01*
D14*
%TO.C,R10*%
X172503680Y-71171319D03*
X170853680Y-71171319D03*
%TD*%
D15*
%TO.C,C10*%
X161843091Y-86056908D03*
X161164269Y-86735730D03*
%TD*%
D16*
%TO.C,R16*%
X156095317Y-91437956D03*
X157262043Y-92604682D03*
%TD*%
D17*
%TO.C,J4*%
X148278680Y-73656319D03*
X148278680Y-69486319D03*
X150278680Y-73656319D03*
X150278680Y-69486319D03*
X152278680Y-73656319D03*
X152278680Y-69486319D03*
X154278680Y-73656319D03*
X154278680Y-69486319D03*
X156278680Y-73656319D03*
X156278680Y-69486319D03*
%TD*%
D18*
%TO.C,C14*%
X147788802Y-89881441D03*
X147109980Y-89202619D03*
%TD*%
D19*
%TO.C,C28*%
X118503680Y-88100000D03*
X120053680Y-88100000D03*
%TD*%
D20*
%TO.C,C21*%
X119778680Y-73846319D03*
X119778680Y-70896319D03*
%TD*%
D21*
%TO.C,R18*%
X166478680Y-76396319D03*
X166478680Y-78046319D03*
%TD*%
D22*
%TO.C,U2*%
X170628680Y-92296319D03*
X172628680Y-92296319D03*
X174628680Y-92296319D03*
X176628680Y-92296319D03*
X178628680Y-92296319D03*
X180628680Y-92296319D03*
X182628680Y-92296319D03*
X184628680Y-92296319D03*
X184628680Y-77246319D03*
X182628680Y-77246319D03*
X180628680Y-77246319D03*
X178628680Y-77246319D03*
X176628680Y-77246319D03*
X174628680Y-77246319D03*
X172628680Y-77246319D03*
X170628680Y-77246319D03*
%TD*%
D23*
%TO.C,R14*%
X128753680Y-70321319D03*
X130403680Y-70321319D03*
%TD*%
D24*
%TO.C,C25*%
X133653680Y-68621319D03*
X132103680Y-68621319D03*
%TD*%
D25*
%TO.C,C15*%
X121832500Y-79095000D03*
X121832500Y-80645000D03*
%TD*%
D19*
%TO.C,C1*%
X129425000Y-97500000D03*
X130975000Y-97500000D03*
%TD*%
D14*
%TO.C,R3*%
X162303680Y-88771319D03*
X160653680Y-88771319D03*
%TD*%
D23*
%TO.C,R7*%
X124307500Y-82450000D03*
X125957500Y-82450000D03*
%TD*%
D25*
%TO.C,C17*%
X131412500Y-79055000D03*
X131412500Y-80605000D03*
%TD*%
D26*
%TO.C,L1*%
X123728680Y-72421319D03*
X126428680Y-72421319D03*
%TD*%
D27*
%TO.C,U5*%
X126428680Y-69121319D03*
X126428680Y-68171319D03*
X126428680Y-67221319D03*
X123728680Y-67221319D03*
X123728680Y-68171319D03*
X123728680Y-69121319D03*
%TD*%
D18*
%TO.C,C7*%
X148568091Y-85810730D03*
X147889269Y-85131908D03*
%TD*%
D28*
%TO.C,Y2*%
X144644797Y-89237436D03*
X146412563Y-91005202D03*
%TD*%
D29*
%TO.C,C22*%
X121828680Y-73946319D03*
X121828680Y-72396319D03*
%TD*%
D18*
%TO.C,C5*%
X150888802Y-92981441D03*
X150209980Y-92302619D03*
%TD*%
D30*
%TO.C,Q1*%
X121516180Y-77471319D03*
X121516180Y-75571319D03*
X119641180Y-76521319D03*
%TD*%
D24*
%TO.C,C3*%
X140003680Y-74521319D03*
X138453680Y-74521319D03*
%TD*%
D31*
%TO.C,U1*%
X129225000Y-94200000D03*
X129875000Y-94200000D03*
X130525000Y-94200000D03*
X131175000Y-94200000D03*
X131175000Y-95800000D03*
X130525000Y-95800000D03*
X129875000Y-95800000D03*
X129225000Y-95800000D03*
%TD*%
D23*
%TO.C,R9*%
X125293680Y-77281319D03*
X126943680Y-77281319D03*
%TD*%
D32*
%TO.C,J3*%
X184678680Y-71021319D03*
D33*
X183203680Y-69521319D03*
D32*
X184678680Y-68021319D03*
D33*
X186153680Y-69521319D03*
%TD*%
D14*
%TO.C,R19*%
X184253680Y-95071319D03*
X182603680Y-95071319D03*
%TD*%
D25*
%TO.C,C19*%
X168428680Y-76446319D03*
X168428680Y-77996319D03*
%TD*%
D14*
%TO.C,R8*%
X126943680Y-75681319D03*
X125293680Y-75681319D03*
%TD*%
D34*
%TO.C,Y1*%
X147750863Y-92393502D03*
X148599391Y-93242030D03*
X149447919Y-94090558D03*
%TD*%
D35*
%TO.C,C16*%
X119778680Y-79196319D03*
X119778680Y-82146319D03*
%TD*%
D24*
%TO.C,C2*%
X129903680Y-92821319D03*
X128353680Y-92821319D03*
%TD*%
D21*
%TO.C,R17*%
X164828680Y-76396319D03*
X164828680Y-78046319D03*
%TD*%
D36*
%TO.C,C8*%
X148589269Y-82260730D03*
X149268091Y-81581908D03*
%TD*%
D16*
%TO.C,R21*%
X147545317Y-76987956D03*
X148712043Y-78154682D03*
%TD*%
D25*
%TO.C,C18*%
X129782500Y-79055000D03*
X129782500Y-80605000D03*
%TD*%
D37*
%TO.C,IC1*%
X123882500Y-78910000D03*
X123882500Y-79860000D03*
X123882500Y-80810000D03*
X126382500Y-80810000D03*
X126382500Y-78910000D03*
%TD*%
D21*
%TO.C,R4*%
X158678680Y-72896319D03*
X158678680Y-74546319D03*
%TD*%
D38*
%TO.C,R22*%
X146373997Y-80376001D03*
X147540723Y-79209275D03*
%TD*%
D39*
%TO.C,C13*%
X145759980Y-87852619D03*
X146438802Y-88531441D03*
%TD*%
D14*
%TO.C,R12*%
X163153680Y-90271319D03*
X161503680Y-90271319D03*
%TD*%
D40*
%TO.C,R6*%
X128152500Y-80665000D03*
X128152500Y-79015000D03*
%TD*%
D24*
%TO.C,C29*%
X133653680Y-70321319D03*
X132103680Y-70321319D03*
%TD*%
D41*
%TO.C,SW1*%
X138428680Y-72921319D03*
X138428680Y-68821319D03*
X140028680Y-72921319D03*
X140028680Y-68821319D03*
%TD*%
D42*
%TO.C,D1*%
X133178680Y-72971319D03*
X129178680Y-72971319D03*
%TD*%
D43*
%TO.C,C26*%
X153880672Y-91473311D03*
X154976688Y-92569327D03*
%TD*%
D16*
%TO.C,R5*%
X151945317Y-76737956D03*
X153112043Y-77904682D03*
%TD*%
D44*
%TO.C,U3*%
X150300695Y-85143552D03*
X150654249Y-85497106D03*
X151007802Y-85850659D03*
X151361356Y-86204213D03*
X151714909Y-86557766D03*
X152068462Y-86911319D03*
X152422016Y-87264873D03*
X152775569Y-87618426D03*
X153129122Y-87971979D03*
X153482676Y-88325533D03*
X153836229Y-88679086D03*
X154189783Y-89032640D03*
D45*
X156187359Y-89032640D03*
X156540913Y-88679086D03*
X156894466Y-88325533D03*
X157248020Y-87971979D03*
X157601573Y-87618426D03*
X157955126Y-87264873D03*
X158308680Y-86911319D03*
X158662233Y-86557766D03*
X159015786Y-86204213D03*
X159369340Y-85850659D03*
X159722893Y-85497106D03*
X160076447Y-85143552D03*
D44*
X160076447Y-83145976D03*
X159722893Y-82792422D03*
X159369340Y-82438869D03*
X159015786Y-82085315D03*
X158662233Y-81731762D03*
X158308680Y-81378209D03*
X157955126Y-81024655D03*
X157601573Y-80671102D03*
X157248020Y-80317549D03*
X156894466Y-79963995D03*
X156540913Y-79610442D03*
X156187359Y-79256888D03*
D45*
X154189783Y-79256888D03*
X153836229Y-79610442D03*
X153482676Y-79963995D03*
X153129122Y-80317549D03*
X152775569Y-80671102D03*
X152422016Y-81024655D03*
X152068462Y-81378209D03*
X151714909Y-81731762D03*
X151361356Y-82085315D03*
X151007802Y-82438869D03*
X150654249Y-82792422D03*
X150300695Y-83145976D03*
%TD*%
D19*
%TO.C,C23*%
X108025000Y-89950000D03*
X109575000Y-89950000D03*
%TD*%
%TO.C,C27*%
X113625000Y-89400000D03*
X115175000Y-89400000D03*
%TD*%
D40*
%TO.C,R13*%
X162228680Y-84496319D03*
X162228680Y-82846319D03*
%TD*%
D18*
%TO.C,C11*%
X151818091Y-90360730D03*
X151139269Y-89681908D03*
%TD*%
D38*
%TO.C,R1*%
X147445317Y-81454682D03*
X148612043Y-80287956D03*
%TD*%
D43*
%TO.C,C20*%
X153380672Y-93123311D03*
X154476688Y-94219327D03*
%TD*%
D23*
%TO.C,R20*%
X107953680Y-88421319D03*
X109603680Y-88421319D03*
%TD*%
D18*
%TO.C,C6*%
X147818091Y-86560730D03*
X147139269Y-85881908D03*
%TD*%
D46*
%TO.C,R2*%
X151862043Y-79154682D03*
X150695317Y-77987956D03*
%TD*%
D18*
%TO.C,C12*%
X152514411Y-89664411D03*
X151835589Y-88985589D03*
%TD*%
D40*
%TO.C,R23*%
X123768680Y-77306319D03*
X123768680Y-75656319D03*
%TD*%
D23*
%TO.C,R11*%
X170853680Y-69371319D03*
X172503680Y-69371319D03*
%TD*%
D39*
%TO.C,C4*%
X148859980Y-90952619D03*
X149538802Y-91631441D03*
%TD*%
D14*
%TO.C,R15*%
X130403680Y-68621319D03*
X128753680Y-68621319D03*
%TD*%
D25*
%TO.C,C24*%
X121828680Y-67496319D03*
X121828680Y-69046319D03*
%TD*%
D39*
%TO.C,C9*%
X157039269Y-77581908D03*
X157718091Y-78260730D03*
%TD*%
M02*
