%TF.GenerationSoftware,KiCad,Pcbnew,8.0.0*%
%TF.CreationDate,2024-08-30T23:23:32+02:00*%
%TF.ProjectId,LoRa_Node,4c6f5261-5f4e-46f6-9465-2e6b69636164,rev?*%
%TF.SameCoordinates,Original*%
%TF.FileFunction,Legend,Bot*%
%TF.FilePolarity,Positive*%
%FSLAX46Y46*%
G04 Gerber Fmt 4.6, Leading zero omitted, Abs format (unit mm)*
G04 Created by KiCad (PCBNEW 8.0.0) date 2024-08-30 23:23:32*
%MOMM*%
%LPD*%
G01*
G04 APERTURE LIST*
%ADD10C,0.150000*%
%ADD11C,0.127000*%
G04 APERTURE END LIST*
D10*
X150214394Y-76952328D02*
X150071537Y-76999947D01*
X150071537Y-76999947D02*
X150023918Y-77047566D01*
X150023918Y-77047566D02*
X149976299Y-77142804D01*
X149976299Y-77142804D02*
X149976299Y-77285661D01*
X149976299Y-77285661D02*
X150023918Y-77380899D01*
X150023918Y-77380899D02*
X150071537Y-77428519D01*
X150071537Y-77428519D02*
X150166775Y-77476138D01*
X150166775Y-77476138D02*
X150547727Y-77476138D01*
X150547727Y-77476138D02*
X150547727Y-76476138D01*
X150547727Y-76476138D02*
X150214394Y-76476138D01*
X150214394Y-76476138D02*
X150119156Y-76523757D01*
X150119156Y-76523757D02*
X150071537Y-76571376D01*
X150071537Y-76571376D02*
X150023918Y-76666614D01*
X150023918Y-76666614D02*
X150023918Y-76761852D01*
X150023918Y-76761852D02*
X150071537Y-76857090D01*
X150071537Y-76857090D02*
X150119156Y-76904709D01*
X150119156Y-76904709D02*
X150214394Y-76952328D01*
X150214394Y-76952328D02*
X150547727Y-76952328D01*
X149690584Y-76476138D02*
X149119156Y-76476138D01*
X149404870Y-77476138D02*
X149404870Y-76476138D01*
X148262013Y-77476138D02*
X148833441Y-77476138D01*
X148547727Y-77476138D02*
X148547727Y-76476138D01*
X148547727Y-76476138D02*
X148642965Y-76618995D01*
X148642965Y-76618995D02*
X148738203Y-76714233D01*
X148738203Y-76714233D02*
X148833441Y-76761852D01*
D11*
%TO.C,BT1*%
X107542888Y-81500000D02*
X108542888Y-81500000D01*
X108042888Y-82000000D02*
X108042888Y-81000000D01*
X112267888Y-66675000D02*
X189317888Y-66675000D01*
X112267888Y-73450000D02*
X112267888Y-66675000D01*
X112267888Y-87325000D02*
X112267888Y-80550000D01*
X189317888Y-66675000D02*
X189317888Y-73450000D01*
X189317888Y-80550000D02*
X189317888Y-87325000D01*
X189317888Y-87325000D02*
X112267888Y-87325000D01*
X193042888Y-81000000D02*
X194042888Y-81000000D01*
%TD*%
M02*
