%TF.GenerationSoftware,KiCad,Pcbnew,8.0.0*%
%TF.CreationDate,2024-08-30T23:23:31+02:00*%
%TF.ProjectId,LoRa_Node,4c6f5261-5f4e-46f6-9465-2e6b69636164,rev?*%
%TF.SameCoordinates,Original*%
%TF.FileFunction,Copper,L2,Bot*%
%TF.FilePolarity,Positive*%
%FSLAX46Y46*%
G04 Gerber Fmt 4.6, Leading zero omitted, Abs format (unit mm)*
G04 Created by KiCad (PCBNEW 8.0.0) date 2024-08-30 23:23:31*
%MOMM*%
%LPD*%
G01*
G04 APERTURE LIST*
G04 Aperture macros list*
%AMRoundRect*
0 Rectangle with rounded corners*
0 $1 Rounding radius*
0 $2 $3 $4 $5 $6 $7 $8 $9 X,Y pos of 4 corners*
0 Add a 4 corners polygon primitive as box body*
4,1,4,$2,$3,$4,$5,$6,$7,$8,$9,$2,$3,0*
0 Add four circle primitives for the rounded corners*
1,1,$1+$1,$2,$3*
1,1,$1+$1,$4,$5*
1,1,$1+$1,$6,$7*
1,1,$1+$1,$8,$9*
0 Add four rect primitives between the rounded corners*
20,1,$1+$1,$2,$3,$4,$5,0*
20,1,$1+$1,$4,$5,$6,$7,0*
20,1,$1+$1,$6,$7,$8,$9,0*
20,1,$1+$1,$8,$9,$2,$3,0*%
G04 Aperture macros list end*
%TA.AperFunction,ComponentPad*%
%ADD10RoundRect,0.225000X-0.475000X0.225000X-0.475000X-0.225000X0.475000X-0.225000X0.475000X0.225000X0*%
%TD*%
%TA.AperFunction,ComponentPad*%
%ADD11O,1.400000X0.900000*%
%TD*%
%TA.AperFunction,ComponentPad*%
%ADD12C,1.900000*%
%TD*%
%TA.AperFunction,ComponentPad*%
%ADD13R,1.700000X1.700000*%
%TD*%
%TA.AperFunction,ComponentPad*%
%ADD14O,1.700000X1.700000*%
%TD*%
%TA.AperFunction,SMDPad,CuDef*%
%ADD15R,7.460000X6.470000*%
%TD*%
%TA.AperFunction,ViaPad*%
%ADD16C,0.600000*%
%TD*%
%TA.AperFunction,ViaPad*%
%ADD17C,0.500000*%
%TD*%
%TA.AperFunction,Conductor*%
%ADD18C,0.300000*%
%TD*%
%TA.AperFunction,Conductor*%
%ADD19C,0.400000*%
%TD*%
G04 APERTURE END LIST*
D10*
%TO.P,J1,1,Pin_1*%
%TO.N,+3.3V*%
X113900000Y-92225000D03*
D11*
%TO.P,J1,2,Pin_2*%
%TO.N,/SCL_EX*%
X113900000Y-93475000D03*
%TO.P,J1,3,Pin_3*%
%TO.N,/SDA_EX*%
X113900000Y-94725000D03*
%TO.P,J1,4,Pin_4*%
%TO.N,GND*%
X113900000Y-95975000D03*
%TD*%
D12*
%TO.P,U4,1,NET*%
%TO.N,unconnected-(U4-NET-Pad1)*%
X181870000Y-73905000D03*
%TO.P,U4,2,VCC*%
%TO.N,+4V*%
X179330000Y-73905000D03*
%TO.P,U4,3,RST*%
%TO.N,/SIM_RST*%
X176790000Y-73905000D03*
%TO.P,U4,4,RXD*%
%TO.N,Net-(U4-RXD)*%
X174250000Y-73905000D03*
%TO.P,U4,5,TXD*%
%TO.N,Net-(U4-TXD)*%
X171710000Y-73905000D03*
%TO.P,U4,6,GND*%
%TO.N,GND*%
X169170000Y-73905000D03*
%TO.P,U4,7,SPK-*%
%TO.N,unconnected-(U4-SPK--Pad7)*%
X166630000Y-95775000D03*
%TO.P,U4,8,SPK+*%
%TO.N,unconnected-(U4-SPK+-Pad8)*%
X169170000Y-95775000D03*
%TO.P,U4,9,MIC-*%
%TO.N,unconnected-(U4-MIC--Pad9)*%
X171710000Y-95775000D03*
%TO.P,U4,10,MIC+*%
%TO.N,unconnected-(U4-MIC+-Pad10)*%
X174250000Y-95775000D03*
%TO.P,U4,11,DTR*%
%TO.N,/SIM_SLP*%
X176790000Y-95775000D03*
%TO.P,U4,12,RING*%
%TO.N,/SIM_ISR*%
X179330000Y-95775000D03*
%TD*%
D11*
%TO.P,J6,6,Pin_6*%
%TO.N,GND*%
X119250000Y-97225000D03*
%TO.P,J6,5,Pin_5*%
%TO.N,/MOSI_EX*%
X119250000Y-95975000D03*
%TO.P,J6,4,Pin_4*%
%TO.N,/MISO_EX*%
X119250000Y-94725000D03*
%TO.P,J6,3,Pin_3*%
%TO.N,/SCK_EX*%
X119250000Y-93475000D03*
%TO.P,J6,2,Pin_2*%
%TO.N,/CS_EX*%
X119250000Y-92225000D03*
D10*
%TO.P,J6,1,Pin_1*%
%TO.N,+3.3V*%
X119250000Y-90975000D03*
%TD*%
%TO.P,J7,1,Pin_1*%
%TO.N,+3.3V*%
X108400000Y-92850000D03*
D11*
%TO.P,J7,2,Pin_2*%
%TO.N,/AN_E_HUM*%
X108400000Y-94100000D03*
%TO.P,J7,3,Pin_3*%
%TO.N,GND*%
X108400000Y-95350000D03*
%TD*%
D13*
%TO.P,J2,1,Pin_1*%
%TO.N,+3.3V*%
X144650000Y-72846319D03*
D14*
%TO.P,J2,2,Pin_2*%
%TO.N,Net-(J2-Pin_2)*%
X144650000Y-70306319D03*
%TD*%
D15*
%TO.P,BT1,N*%
%TO.N,GND*%
X190462888Y-77000000D03*
%TO.P,BT1,P*%
%TO.N,+Vbat*%
X111122888Y-77000000D03*
%TD*%
D16*
%TO.N,/NRST*%
X150128680Y-77471319D03*
%TO.N,GND*%
X146828680Y-71521319D03*
X141978680Y-73771319D03*
X141928680Y-69071319D03*
X175678680Y-88021319D03*
X173028680Y-88021319D03*
X164928680Y-78371319D03*
X164928680Y-73671319D03*
X164728680Y-70371319D03*
X159828680Y-75471319D03*
X177678680Y-70671319D03*
X175478680Y-68471319D03*
X174878680Y-71071319D03*
X173428680Y-69771319D03*
X159828680Y-71921319D03*
X159828680Y-68371319D03*
X156278680Y-71521319D03*
X150228680Y-71571319D03*
X149378680Y-75821319D03*
X155178680Y-78171319D03*
X157878680Y-77121319D03*
%TO.N,+3.3V*%
X156603680Y-77146319D03*
D17*
%TO.N,GND*%
X149078680Y-83871319D03*
X151028680Y-95371319D03*
X131578680Y-77771319D03*
X194078680Y-90621319D03*
X123478680Y-68321319D03*
X136878680Y-80871319D03*
X179278680Y-86571319D03*
X124928680Y-68321319D03*
X140978680Y-78071319D03*
X127478680Y-89871319D03*
X146178680Y-75721319D03*
X130728680Y-68321319D03*
X115228680Y-98521319D03*
X110128680Y-84271319D03*
X157078680Y-85671319D03*
X180728680Y-86571319D03*
X185328680Y-74087985D03*
X115957361Y-89400000D03*
X133028680Y-71121319D03*
X192628680Y-79321319D03*
X153278680Y-82471319D03*
X161628680Y-84221319D03*
X155378680Y-93721319D03*
X189407108Y-74771319D03*
X182178680Y-86571319D03*
X189442892Y-76571319D03*
X190450004Y-75671319D03*
X131428680Y-88921319D03*
X161578680Y-97721319D03*
X194078680Y-93421319D03*
X107228680Y-84271319D03*
X182928680Y-82221319D03*
X119228680Y-68321319D03*
X112328680Y-98521319D03*
X169978680Y-90471319D03*
X182728680Y-75121319D03*
X110399999Y-89950000D03*
X187300000Y-76571319D03*
X157978680Y-83271319D03*
X114878680Y-68321319D03*
X123657361Y-82450000D03*
X132575000Y-97075000D03*
X127550000Y-92750000D03*
X185328680Y-71454652D03*
X191585784Y-76571319D03*
X138328680Y-80871319D03*
X182578680Y-67471319D03*
X193692896Y-74771319D03*
X161578680Y-87121319D03*
X131428680Y-82271319D03*
X194078680Y-86271319D03*
X167128680Y-77971319D03*
X145578680Y-82371319D03*
X192592896Y-75671319D03*
X158678680Y-97721319D03*
X156878680Y-92421319D03*
X109428680Y-98521319D03*
X166978680Y-89871319D03*
X151978680Y-95371319D03*
X191550000Y-74771319D03*
X124900000Y-79850000D03*
X184078680Y-66671319D03*
X191585784Y-78421319D03*
X120678680Y-68321319D03*
X144578680Y-86771319D03*
X119678680Y-73571319D03*
X119722500Y-82222560D03*
X160128680Y-97721319D03*
X185328680Y-72321319D03*
X190485788Y-77471319D03*
X115328680Y-85671319D03*
X150301470Y-91548529D03*
X188342896Y-79321319D03*
X187300000Y-78421319D03*
X113778680Y-98521319D03*
X194078680Y-89171319D03*
X143278680Y-75721319D03*
X181178680Y-69471319D03*
X192628680Y-77471319D03*
X122128680Y-68321319D03*
X186878680Y-69471319D03*
X194078680Y-92071319D03*
X150600000Y-90150000D03*
X181478680Y-82221319D03*
X147028680Y-85771319D03*
X194078680Y-94871319D03*
X122278680Y-77271319D03*
X165528680Y-89871319D03*
X194078680Y-84821319D03*
X194078680Y-87721319D03*
X133728680Y-91321319D03*
X146449391Y-89192030D03*
X129400000Y-98250000D03*
X144078680Y-83871319D03*
X136378680Y-74721319D03*
X142428680Y-78071319D03*
X127828680Y-68321319D03*
X109628680Y-68321319D03*
X154878680Y-87571319D03*
X116678680Y-96121319D03*
X108178680Y-68321319D03*
X117778680Y-68321319D03*
X182028680Y-78921319D03*
X116328680Y-68321319D03*
X163078680Y-84221319D03*
X184028680Y-93971319D03*
X119700000Y-75917667D03*
X110878680Y-98521319D03*
X193728680Y-76571319D03*
X119728680Y-79921319D03*
X126378680Y-68321319D03*
X185528680Y-67421319D03*
X180028680Y-82221319D03*
X139528680Y-78071319D03*
X124850000Y-73500000D03*
X182728680Y-71521319D03*
X129278680Y-68321319D03*
X189442892Y-78421319D03*
X182728680Y-72321319D03*
X108678680Y-84271319D03*
X135428680Y-80871319D03*
X146800000Y-80750000D03*
X190485788Y-79321319D03*
X185328680Y-74971319D03*
X133628680Y-74721319D03*
X127228680Y-82221319D03*
X120028680Y-87371319D03*
X164078680Y-89871319D03*
X194078680Y-96321319D03*
X188342896Y-77471319D03*
X188307112Y-75671319D03*
X139228680Y-70849999D03*
X185328680Y-73204652D03*
X144728680Y-75721319D03*
X187264216Y-74771319D03*
X111078680Y-95821319D03*
X155678680Y-89771319D03*
X135078680Y-74721319D03*
X193728680Y-78421319D03*
%TO.N,/NRST*%
X150978680Y-88871319D03*
%TO.N,+3.3V*%
X167078680Y-76471319D03*
X132628680Y-79021319D03*
%TO.N,/SCL*%
X131804415Y-90897054D03*
X131789565Y-92608963D03*
%TO.N,+Vbat*%
X111085788Y-79171319D03*
X112185784Y-78271319D03*
X113228680Y-77321319D03*
X110042892Y-78271319D03*
X110042892Y-76421319D03*
X111085788Y-77321319D03*
X113228680Y-79171319D03*
X108942896Y-77321319D03*
X110007108Y-74621319D03*
X114328680Y-76421319D03*
X113192896Y-75521319D03*
X108907112Y-75521319D03*
X114292896Y-74621319D03*
X108942896Y-79171319D03*
X112185784Y-76421319D03*
X112150000Y-74621319D03*
X114328680Y-78271319D03*
X107900000Y-78271319D03*
X111050004Y-75521319D03*
X107864216Y-74621319D03*
X107900000Y-76421319D03*
%TO.N,/SCK*%
X171078680Y-89821319D03*
X176000000Y-90471319D03*
%TO.N,/NSS*%
X178000000Y-90421319D03*
X170228680Y-89171319D03*
%TO.N,/DIO1*%
X171978680Y-78921319D03*
X155000087Y-80449911D03*
%TO.N,/DIO0*%
X173978680Y-79021319D03*
X155528680Y-81071319D03*
%TO.N,/AN_BAT*%
X138978680Y-83471319D03*
X152878680Y-93621319D03*
%TO.N,/SIM_SLP*%
X151708400Y-83274696D03*
%TO.N,/SIM_ISR*%
X152240498Y-82774136D03*
%TO.N,/AN_E_HUM*%
X153428680Y-92071319D03*
X139575862Y-84068501D03*
%TO.N,/DIO2*%
X159731098Y-78863266D03*
X170000000Y-78999999D03*
%TO.N,/DIO3*%
X179978680Y-79021319D03*
X156628680Y-82271319D03*
%TO.N,/DIO4*%
X177978680Y-79021319D03*
X156128680Y-81671319D03*
%TO.N,/DIO5*%
X182000000Y-94021319D03*
X157078680Y-90621319D03*
%TD*%
D18*
%TO.N,+3.3V*%
X152928680Y-77171319D02*
X148603680Y-72846319D01*
X156578680Y-77171319D02*
X152928680Y-77171319D01*
X148603680Y-72846319D02*
X144650000Y-72846319D01*
X156603680Y-77146319D02*
X156578680Y-77171319D01*
X157278680Y-76471319D02*
X167078680Y-76471319D01*
X156603680Y-77146319D02*
X157278680Y-76471319D01*
%TO.N,/NRST*%
X150978680Y-78321319D02*
X150128680Y-77471319D01*
X150978680Y-88871319D02*
X150978680Y-78321319D01*
D19*
%TO.N,+3.3V*%
X135378680Y-79021319D02*
X141553680Y-72846319D01*
X132628680Y-79021319D02*
X135378680Y-79021319D01*
X141553680Y-72846319D02*
X144650000Y-72846319D01*
D18*
%TO.N,/DIO2*%
X169028680Y-79971319D02*
X170000000Y-78999999D01*
X160839151Y-79971319D02*
X169028680Y-79971319D01*
X159731098Y-78863266D02*
X160839151Y-79971319D01*
%TO.N,/SCL*%
X131789565Y-90911904D02*
X131789565Y-92608963D01*
X131804415Y-90897054D02*
X131789565Y-90911904D01*
%TO.N,/SCK*%
X176000000Y-90471319D02*
X176000000Y-90442639D01*
X176000000Y-90442639D02*
X175378680Y-89821319D01*
X175378680Y-89821319D02*
X171078680Y-89821319D01*
%TO.N,/NSS*%
X178000000Y-90392639D02*
X176778680Y-89171319D01*
X176778680Y-89171319D02*
X170228680Y-89171319D01*
X178000000Y-90421319D02*
X178000000Y-90392639D01*
%TO.N,/DIO1*%
X155000087Y-80449911D02*
X155021495Y-80471319D01*
X170428680Y-80471319D02*
X171978680Y-78921319D01*
X155021495Y-80471319D02*
X170428680Y-80471319D01*
%TO.N,/DIO0*%
X173978680Y-79021319D02*
X171928680Y-81071319D01*
X171928680Y-81071319D02*
X155528680Y-81071319D01*
%TO.N,/AN_BAT*%
X138975862Y-83474137D02*
X138975862Y-84368501D01*
X138975862Y-84368501D02*
X148228680Y-93621319D01*
X148228680Y-93621319D02*
X152878680Y-93621319D01*
X138978680Y-83471319D02*
X138975862Y-83474137D01*
%TO.N,/SIM_SLP*%
X151708400Y-83274696D02*
X151732057Y-83274696D01*
X162628680Y-94171319D02*
X175186319Y-94171319D01*
X151732057Y-83274696D02*
X162628680Y-94171319D01*
X175186319Y-94171319D02*
X176790000Y-95775000D01*
%TO.N,/SIM_ISR*%
X177026319Y-93471319D02*
X179330000Y-95775000D01*
X152240498Y-82774136D02*
X152240498Y-82783137D01*
X152240498Y-82783137D02*
X162928680Y-93471319D01*
X162928680Y-93471319D02*
X177026319Y-93471319D01*
%TO.N,/AN_E_HUM*%
X147655890Y-92148529D02*
X139575862Y-84068501D01*
X153428680Y-92071319D02*
X153351470Y-92148529D01*
X153351470Y-92148529D02*
X147655890Y-92148529D01*
%TO.N,/DIO3*%
X176728680Y-82271319D02*
X179978680Y-79021319D01*
X156628680Y-82271319D02*
X176728680Y-82271319D01*
%TO.N,/DIO4*%
X156128680Y-81671319D02*
X175328680Y-81671319D01*
X175328680Y-81671319D02*
X177978680Y-79021319D01*
%TO.N,/DIO5*%
X182000000Y-95549999D02*
X180128680Y-97421319D01*
X163878680Y-97421319D02*
X157078680Y-90621319D01*
X180128680Y-97421319D02*
X163878680Y-97421319D01*
X182000000Y-94021319D02*
X182000000Y-95549999D01*
%TD*%
%TA.AperFunction,Conductor*%
%TO.N,GND*%
G36*
X192704197Y-66200753D02*
G01*
X192800426Y-66206573D01*
X192992887Y-66218215D01*
X193009548Y-66220238D01*
X193014896Y-66221218D01*
X193289906Y-66271615D01*
X193306187Y-66275628D01*
X193578318Y-66360427D01*
X193593987Y-66366370D01*
X193853904Y-66483349D01*
X193868765Y-66491149D01*
X194065708Y-66610204D01*
X194112677Y-66638598D01*
X194112681Y-66638600D01*
X194126496Y-66648136D01*
X194350857Y-66823912D01*
X194363421Y-66835042D01*
X194564961Y-67036582D01*
X194576091Y-67049146D01*
X194751859Y-67273497D01*
X194761395Y-67287311D01*
X194908850Y-67531232D01*
X194916649Y-67546093D01*
X195033625Y-67806003D01*
X195039575Y-67821691D01*
X195124368Y-68093801D01*
X195128385Y-68110099D01*
X195179761Y-68390450D01*
X195181784Y-68407112D01*
X195199246Y-68695783D01*
X195199500Y-68704176D01*
X195199500Y-96695805D01*
X195199246Y-96704198D01*
X195181783Y-96992886D01*
X195179760Y-97009548D01*
X195128384Y-97289899D01*
X195124367Y-97306197D01*
X195039574Y-97578307D01*
X195033622Y-97594001D01*
X194916647Y-97853909D01*
X194908846Y-97868772D01*
X194761401Y-98112675D01*
X194751867Y-98126489D01*
X194576087Y-98350857D01*
X194564956Y-98363421D01*
X194363417Y-98564960D01*
X194350862Y-98576082D01*
X194182791Y-98707759D01*
X194126501Y-98751859D01*
X194112687Y-98761394D01*
X193868766Y-98908849D01*
X193853904Y-98916649D01*
X193594003Y-99033622D01*
X193578308Y-99039574D01*
X193306196Y-99124367D01*
X193289899Y-99128384D01*
X193009550Y-99179760D01*
X192992887Y-99181783D01*
X192704216Y-99199245D01*
X192695823Y-99199499D01*
X139207805Y-99199499D01*
X139192243Y-99198625D01*
X139181161Y-99197376D01*
X139104415Y-99188729D01*
X139074069Y-99181803D01*
X138998056Y-99155205D01*
X138970012Y-99141699D01*
X138901825Y-99098854D01*
X138877494Y-99079451D01*
X138820546Y-99022502D01*
X138801144Y-98998172D01*
X138801143Y-98998171D01*
X138758299Y-98929985D01*
X138744795Y-98901943D01*
X138718196Y-98825928D01*
X138711270Y-98795581D01*
X138701374Y-98707745D01*
X138700500Y-98692183D01*
X138700500Y-96621292D01*
X139378180Y-96621292D01*
X139401160Y-96795843D01*
X139409842Y-96861789D01*
X139449434Y-97009548D01*
X139472628Y-97096106D01*
X139565453Y-97320207D01*
X139565459Y-97320219D01*
X139686741Y-97530285D01*
X139686743Y-97530288D01*
X139834411Y-97722733D01*
X139834415Y-97722738D01*
X140005942Y-97894265D01*
X140005946Y-97894268D01*
X140198391Y-98041936D01*
X140198394Y-98041938D01*
X140408460Y-98163220D01*
X140408472Y-98163226D01*
X140581802Y-98235021D01*
X140632580Y-98256054D01*
X140866891Y-98318838D01*
X141107392Y-98350500D01*
X141107397Y-98350500D01*
X141349963Y-98350500D01*
X141349968Y-98350500D01*
X141590469Y-98318838D01*
X141824780Y-98256054D01*
X142048892Y-98163224D01*
X142258969Y-98041936D01*
X142451418Y-97894265D01*
X142622945Y-97722738D01*
X142770616Y-97530289D01*
X142891904Y-97320212D01*
X142984734Y-97096100D01*
X143047518Y-96861789D01*
X143079180Y-96621288D01*
X143079180Y-96378712D01*
X143047518Y-96138211D01*
X142984734Y-95903900D01*
X142891904Y-95679788D01*
X142891900Y-95679780D01*
X142770618Y-95469714D01*
X142770616Y-95469711D01*
X142622948Y-95277266D01*
X142622945Y-95277262D01*
X142451418Y-95105735D01*
X142443944Y-95100000D01*
X142258968Y-94958063D01*
X142258965Y-94958061D01*
X142048899Y-94836779D01*
X142048887Y-94836773D01*
X141824786Y-94743948D01*
X141824782Y-94743947D01*
X141824780Y-94743946D01*
X141590469Y-94681162D01*
X141590468Y-94681161D01*
X141590465Y-94681161D01*
X141349972Y-94649500D01*
X141349968Y-94649500D01*
X141107392Y-94649500D01*
X141107387Y-94649500D01*
X140866894Y-94681161D01*
X140632573Y-94743948D01*
X140408472Y-94836773D01*
X140408460Y-94836779D01*
X140198394Y-94958061D01*
X140198391Y-94958063D01*
X140005946Y-95105731D01*
X139834411Y-95277266D01*
X139686743Y-95469711D01*
X139686741Y-95469714D01*
X139565459Y-95679780D01*
X139565456Y-95679788D01*
X139472628Y-95903893D01*
X139409841Y-96138214D01*
X139378180Y-96378707D01*
X139378180Y-96621292D01*
X138700500Y-96621292D01*
X138700500Y-90757575D01*
X138700501Y-90757571D01*
X138700501Y-90592677D01*
X138669956Y-90380237D01*
X138669955Y-90380230D01*
X138609485Y-90174288D01*
X138520322Y-89979049D01*
X138511316Y-89965036D01*
X138404283Y-89798489D01*
X138404277Y-89798481D01*
X138263724Y-89636275D01*
X138263723Y-89636274D01*
X138101517Y-89495721D01*
X138101509Y-89495715D01*
X137920951Y-89379677D01*
X137920947Y-89379675D01*
X137725714Y-89290516D01*
X137725711Y-89290515D01*
X137519769Y-89230045D01*
X137519766Y-89230044D01*
X137519761Y-89230043D01*
X137307321Y-89199499D01*
X137307318Y-89199499D01*
X137265892Y-89199499D01*
X136134108Y-89199499D01*
X136125592Y-89199499D01*
X136125576Y-89199500D01*
X136092679Y-89199500D01*
X135880237Y-89230044D01*
X135674288Y-89290515D01*
X135479052Y-89379676D01*
X135479048Y-89379678D01*
X135298490Y-89495716D01*
X135298482Y-89495722D01*
X135136277Y-89636274D01*
X135136275Y-89636276D01*
X134995723Y-89798481D01*
X134995717Y-89798489D01*
X134879682Y-89979042D01*
X134879680Y-89979046D01*
X134790516Y-90174287D01*
X134730044Y-90380237D01*
X134699500Y-90592677D01*
X134699500Y-98692195D01*
X134698626Y-98707759D01*
X134688730Y-98795585D01*
X134681804Y-98825930D01*
X134655206Y-98901943D01*
X134641701Y-98929987D01*
X134598858Y-98998171D01*
X134579451Y-99022506D01*
X134522506Y-99079451D01*
X134498170Y-99098858D01*
X134429985Y-99141701D01*
X134401942Y-99155206D01*
X134325932Y-99181803D01*
X134295588Y-99188729D01*
X134233156Y-99195763D01*
X134207764Y-99198625D01*
X134192202Y-99199499D01*
X127207805Y-99199499D01*
X127192243Y-99198625D01*
X127181161Y-99197376D01*
X127104415Y-99188729D01*
X127074069Y-99181803D01*
X126998056Y-99155205D01*
X126970012Y-99141699D01*
X126901825Y-99098854D01*
X126877494Y-99079451D01*
X126820546Y-99022502D01*
X126801144Y-98998172D01*
X126801143Y-98998171D01*
X126758299Y-98929985D01*
X126744795Y-98901943D01*
X126718196Y-98825928D01*
X126711270Y-98795581D01*
X126701374Y-98707745D01*
X126700500Y-98692183D01*
X126700500Y-92608963D01*
X131234315Y-92608963D01*
X131253234Y-92752668D01*
X131253237Y-92752680D01*
X131308701Y-92886585D01*
X131396942Y-93001582D01*
X131396945Y-93001585D01*
X131511942Y-93089826D01*
X131645847Y-93145290D01*
X131645851Y-93145291D01*
X131645856Y-93145293D01*
X131789565Y-93164213D01*
X131933274Y-93145293D01*
X131933280Y-93145290D01*
X131933282Y-93145290D01*
X132067187Y-93089826D01*
X132073492Y-93084988D01*
X132182186Y-93001584D01*
X132270426Y-92886588D01*
X132270426Y-92886587D01*
X132270428Y-92886585D01*
X132325892Y-92752680D01*
X132325892Y-92752678D01*
X132325895Y-92752672D01*
X132344815Y-92608963D01*
X132325895Y-92465254D01*
X132325351Y-92463941D01*
X132284379Y-92365025D01*
X132270426Y-92331338D01*
X132270425Y-92331336D01*
X132268786Y-92329200D01*
X132267755Y-92326712D01*
X132265870Y-92323446D01*
X132266300Y-92323197D01*
X132241254Y-92262725D01*
X132240065Y-92244586D01*
X132240065Y-91280783D01*
X132258687Y-91211283D01*
X132268790Y-91196163D01*
X132285276Y-91174679D01*
X132340745Y-91040763D01*
X132359665Y-90897054D01*
X132340745Y-90753345D01*
X132340743Y-90753340D01*
X132340742Y-90753336D01*
X132285278Y-90619431D01*
X132197037Y-90504434D01*
X132197034Y-90504431D01*
X132082037Y-90416190D01*
X131948132Y-90360726D01*
X131948120Y-90360723D01*
X131804415Y-90341804D01*
X131660709Y-90360723D01*
X131660697Y-90360726D01*
X131526792Y-90416190D01*
X131411795Y-90504431D01*
X131411792Y-90504434D01*
X131323551Y-90619431D01*
X131268087Y-90753336D01*
X131268084Y-90753348D01*
X131249165Y-90897054D01*
X131268084Y-91040759D01*
X131268087Y-91040771D01*
X131327040Y-91183097D01*
X131324431Y-91184177D01*
X131339065Y-91238788D01*
X131339065Y-92244586D01*
X131320443Y-92314086D01*
X131310344Y-92329200D01*
X131308704Y-92331336D01*
X131308704Y-92331337D01*
X131253236Y-92465248D01*
X131253234Y-92465257D01*
X131234315Y-92608963D01*
X126700500Y-92608963D01*
X126700500Y-90757575D01*
X126700501Y-90757571D01*
X126700501Y-90592677D01*
X126669956Y-90380237D01*
X126669955Y-90380230D01*
X126609485Y-90174288D01*
X126520322Y-89979049D01*
X126511316Y-89965036D01*
X126404283Y-89798489D01*
X126404277Y-89798481D01*
X126263724Y-89636275D01*
X126263723Y-89636274D01*
X126101517Y-89495721D01*
X126101509Y-89495715D01*
X125920951Y-89379677D01*
X125920947Y-89379675D01*
X125725714Y-89290516D01*
X125725711Y-89290515D01*
X125519769Y-89230045D01*
X125519766Y-89230044D01*
X125519761Y-89230043D01*
X125307321Y-89199499D01*
X125307318Y-89199499D01*
X125265892Y-89199499D01*
X124134108Y-89199499D01*
X124125592Y-89199499D01*
X124125576Y-89199500D01*
X124092679Y-89199500D01*
X123880237Y-89230044D01*
X123674288Y-89290515D01*
X123479052Y-89379676D01*
X123479048Y-89379678D01*
X123298490Y-89495716D01*
X123298482Y-89495722D01*
X123136277Y-89636274D01*
X123136275Y-89636276D01*
X122995723Y-89798481D01*
X122995717Y-89798489D01*
X122879682Y-89979042D01*
X122879680Y-89979046D01*
X122790516Y-90174287D01*
X122730044Y-90380237D01*
X122699500Y-90592677D01*
X122699500Y-98692195D01*
X122698626Y-98707759D01*
X122688730Y-98795585D01*
X122681804Y-98825930D01*
X122655206Y-98901943D01*
X122641701Y-98929987D01*
X122598858Y-98998171D01*
X122579451Y-99022506D01*
X122522506Y-99079451D01*
X122498170Y-99098858D01*
X122429985Y-99141701D01*
X122401942Y-99155206D01*
X122325932Y-99181803D01*
X122295588Y-99188729D01*
X122233156Y-99195763D01*
X122207764Y-99198625D01*
X122192202Y-99199499D01*
X108704194Y-99199499D01*
X108695801Y-99199245D01*
X108407113Y-99181782D01*
X108390451Y-99179759D01*
X108110100Y-99128383D01*
X108093802Y-99124366D01*
X107821694Y-99039574D01*
X107805999Y-99033622D01*
X107781300Y-99022506D01*
X107546093Y-98916647D01*
X107531231Y-98908847D01*
X107492420Y-98885385D01*
X107287311Y-98761393D01*
X107273503Y-98751861D01*
X107049142Y-98576085D01*
X107036578Y-98564955D01*
X106973409Y-98501786D01*
X106835031Y-98363407D01*
X106823925Y-98350871D01*
X106648132Y-98126489D01*
X106638605Y-98112686D01*
X106491150Y-97868766D01*
X106483350Y-97853903D01*
X106366374Y-97593992D01*
X106360429Y-97578317D01*
X106328234Y-97475000D01*
X118081116Y-97475000D01*
X118086507Y-97502103D01*
X118086508Y-97502107D01*
X118158117Y-97674986D01*
X118158124Y-97674999D01*
X118262085Y-97830587D01*
X118394412Y-97962914D01*
X118550000Y-98066875D01*
X118550013Y-98066882D01*
X118722895Y-98138492D01*
X118722899Y-98138493D01*
X118906434Y-98175000D01*
X119000000Y-98175000D01*
X119000000Y-97475000D01*
X118081116Y-97475000D01*
X106328234Y-97475000D01*
X106275630Y-97306187D01*
X106271616Y-97289899D01*
X106220240Y-97009548D01*
X106218217Y-96992885D01*
X106217736Y-96984940D01*
X106217135Y-96975000D01*
X118081115Y-96975000D01*
X119083012Y-96975000D01*
X119065795Y-96984940D01*
X119009940Y-97040795D01*
X118970444Y-97109204D01*
X118950000Y-97185504D01*
X118950000Y-97264496D01*
X118970444Y-97340796D01*
X119009940Y-97409205D01*
X119065795Y-97465060D01*
X119134204Y-97504556D01*
X119210504Y-97525000D01*
X119289496Y-97525000D01*
X119365796Y-97504556D01*
X119416988Y-97475000D01*
X119500000Y-97475000D01*
X119500000Y-98175000D01*
X119593566Y-98175000D01*
X119777100Y-98138493D01*
X119777104Y-98138492D01*
X119949986Y-98066882D01*
X119949999Y-98066875D01*
X120105587Y-97962914D01*
X120237914Y-97830587D01*
X120341875Y-97674999D01*
X120341882Y-97674986D01*
X120413491Y-97502107D01*
X120413492Y-97502103D01*
X120418884Y-97475000D01*
X119500000Y-97475000D01*
X119416988Y-97475000D01*
X119434205Y-97465060D01*
X119490060Y-97409205D01*
X119529556Y-97340796D01*
X119550000Y-97264496D01*
X119550000Y-97185504D01*
X119529556Y-97109204D01*
X119490060Y-97040795D01*
X119434205Y-96984940D01*
X119416988Y-96975000D01*
X120418884Y-96975000D01*
X120413492Y-96947896D01*
X120413491Y-96947892D01*
X120341882Y-96775013D01*
X120341875Y-96775000D01*
X120237914Y-96619412D01*
X120159194Y-96540692D01*
X120123218Y-96478380D01*
X120123218Y-96406428D01*
X120141906Y-96365183D01*
X120165084Y-96330495D01*
X120221658Y-96193913D01*
X120250500Y-96048918D01*
X120250500Y-95901082D01*
X120221658Y-95756087D01*
X120165084Y-95619505D01*
X120082951Y-95496584D01*
X120034652Y-95448285D01*
X119998678Y-95385976D01*
X119998678Y-95314024D01*
X120034652Y-95251714D01*
X120082951Y-95203416D01*
X120165084Y-95080495D01*
X120221658Y-94943913D01*
X120250500Y-94798918D01*
X120250500Y-94651082D01*
X120221658Y-94506087D01*
X120165084Y-94369505D01*
X120082951Y-94246584D01*
X120034652Y-94198285D01*
X119998678Y-94135976D01*
X119998678Y-94064024D01*
X120034652Y-94001714D01*
X120082951Y-93953416D01*
X120165084Y-93830495D01*
X120221658Y-93693913D01*
X120250500Y-93548918D01*
X120250500Y-93401082D01*
X120221658Y-93256087D01*
X120183602Y-93164212D01*
X120165087Y-93119512D01*
X120165086Y-93119511D01*
X120165084Y-93119505D01*
X120082951Y-92996584D01*
X120034652Y-92948285D01*
X119998678Y-92885976D01*
X119998678Y-92814024D01*
X120034652Y-92751714D01*
X120082951Y-92703416D01*
X120165084Y-92580495D01*
X120221658Y-92443913D01*
X120250500Y-92298918D01*
X120250500Y-92151082D01*
X120221658Y-92006087D01*
X120165084Y-91869505D01*
X120084490Y-91748888D01*
X120061364Y-91680755D01*
X120075401Y-91610186D01*
X120094850Y-91583046D01*
X120094333Y-91582654D01*
X120130477Y-91534991D01*
X120187364Y-91459975D01*
X120240359Y-91325590D01*
X120250500Y-91241144D01*
X120250500Y-90708856D01*
X120249309Y-90698941D01*
X120240360Y-90624414D01*
X120240359Y-90624412D01*
X120240359Y-90624410D01*
X120187364Y-90490025D01*
X120100078Y-90374922D01*
X120081356Y-90360724D01*
X119984974Y-90287635D01*
X119889451Y-90249966D01*
X119850590Y-90234641D01*
X119850588Y-90234640D01*
X119850584Y-90234639D01*
X119850586Y-90234639D01*
X119766151Y-90224500D01*
X119766144Y-90224500D01*
X118733856Y-90224500D01*
X118733848Y-90224500D01*
X118649414Y-90234639D01*
X118515025Y-90287635D01*
X118399922Y-90374921D01*
X118399921Y-90374922D01*
X118312635Y-90490025D01*
X118259639Y-90624414D01*
X118249500Y-90708848D01*
X118249500Y-91241151D01*
X118259639Y-91325585D01*
X118312635Y-91459974D01*
X118405667Y-91582654D01*
X118404213Y-91583756D01*
X118434197Y-91635689D01*
X118434197Y-91707641D01*
X118415508Y-91748888D01*
X118334918Y-91869501D01*
X118334912Y-91869512D01*
X118278341Y-92006087D01*
X118278341Y-92006089D01*
X118257744Y-92109639D01*
X118249500Y-92151082D01*
X118249500Y-92298918D01*
X118255949Y-92331337D01*
X118278341Y-92443910D01*
X118278341Y-92443912D01*
X118334912Y-92580487D01*
X118334914Y-92580490D01*
X118334916Y-92580495D01*
X118417049Y-92703416D01*
X118465347Y-92751714D01*
X118501322Y-92814024D01*
X118501322Y-92885976D01*
X118465347Y-92948285D01*
X118433526Y-92980107D01*
X118417047Y-92996586D01*
X118380342Y-93051520D01*
X118340713Y-93110830D01*
X118334915Y-93119507D01*
X118334912Y-93119512D01*
X118278341Y-93256087D01*
X118278341Y-93256089D01*
X118249500Y-93401082D01*
X118249500Y-93548917D01*
X118278341Y-93693910D01*
X118278341Y-93693912D01*
X118334912Y-93830487D01*
X118334914Y-93830490D01*
X118334916Y-93830495D01*
X118417049Y-93953416D01*
X118465347Y-94001714D01*
X118501322Y-94064024D01*
X118501322Y-94135976D01*
X118465347Y-94198285D01*
X118417049Y-94246584D01*
X118417047Y-94246586D01*
X118368722Y-94318910D01*
X118355626Y-94338511D01*
X118334915Y-94369507D01*
X118334912Y-94369512D01*
X118278341Y-94506087D01*
X118278341Y-94506089D01*
X118249500Y-94651082D01*
X118249500Y-94798917D01*
X118278341Y-94943910D01*
X118278341Y-94943912D01*
X118334912Y-95080487D01*
X118334914Y-95080490D01*
X118334916Y-95080495D01*
X118417049Y-95203416D01*
X118465347Y-95251714D01*
X118501322Y-95314024D01*
X118501322Y-95385976D01*
X118465347Y-95448285D01*
X118438133Y-95475500D01*
X118417047Y-95496586D01*
X118376665Y-95557023D01*
X118341730Y-95609308D01*
X118334915Y-95619507D01*
X118334912Y-95619512D01*
X118278341Y-95756087D01*
X118278341Y-95756089D01*
X118249500Y-95901082D01*
X118249500Y-96048917D01*
X118278341Y-96193910D01*
X118278341Y-96193912D01*
X118334912Y-96330487D01*
X118334918Y-96330498D01*
X118358092Y-96365181D01*
X118381219Y-96433315D01*
X118367182Y-96503884D01*
X118340805Y-96540691D01*
X118262089Y-96619407D01*
X118262085Y-96619412D01*
X118158124Y-96775000D01*
X118158117Y-96775013D01*
X118086508Y-96947892D01*
X118086507Y-96947896D01*
X118081115Y-96975000D01*
X106217135Y-96975000D01*
X106214111Y-96925000D01*
X106200754Y-96704171D01*
X106200500Y-96695779D01*
X106200500Y-95600000D01*
X107231116Y-95600000D01*
X107236507Y-95627103D01*
X107236508Y-95627107D01*
X107308117Y-95799986D01*
X107308124Y-95799999D01*
X107412085Y-95955587D01*
X107544412Y-96087914D01*
X107700000Y-96191875D01*
X107700013Y-96191882D01*
X107872895Y-96263492D01*
X107872899Y-96263493D01*
X108056434Y-96300000D01*
X108150000Y-96300000D01*
X108150000Y-95600000D01*
X107231116Y-95600000D01*
X106200500Y-95600000D01*
X106200500Y-95100000D01*
X107231115Y-95100000D01*
X108233012Y-95100000D01*
X108215795Y-95109940D01*
X108159940Y-95165795D01*
X108120444Y-95234204D01*
X108100000Y-95310504D01*
X108100000Y-95389496D01*
X108120444Y-95465796D01*
X108159940Y-95534205D01*
X108215795Y-95590060D01*
X108284204Y-95629556D01*
X108360504Y-95650000D01*
X108439496Y-95650000D01*
X108515796Y-95629556D01*
X108566988Y-95600000D01*
X108650000Y-95600000D01*
X108650000Y-96300000D01*
X108743566Y-96300000D01*
X108927100Y-96263493D01*
X108927104Y-96263492D01*
X109020032Y-96225000D01*
X112731116Y-96225000D01*
X112736507Y-96252103D01*
X112736508Y-96252107D01*
X112808117Y-96424986D01*
X112808124Y-96424999D01*
X112912085Y-96580587D01*
X113044412Y-96712914D01*
X113200000Y-96816875D01*
X113200013Y-96816882D01*
X113372895Y-96888492D01*
X113372899Y-96888493D01*
X113556434Y-96925000D01*
X113650000Y-96925000D01*
X113650000Y-96225000D01*
X112731116Y-96225000D01*
X109020032Y-96225000D01*
X109099986Y-96191882D01*
X109099999Y-96191875D01*
X109255587Y-96087914D01*
X109387914Y-95955587D01*
X109491875Y-95799999D01*
X109491882Y-95799986D01*
X109522942Y-95725000D01*
X112731115Y-95725000D01*
X113733012Y-95725000D01*
X113715795Y-95734940D01*
X113659940Y-95790795D01*
X113620444Y-95859204D01*
X113600000Y-95935504D01*
X113600000Y-96014496D01*
X113620444Y-96090796D01*
X113659940Y-96159205D01*
X113715795Y-96215060D01*
X113784204Y-96254556D01*
X113860504Y-96275000D01*
X113939496Y-96275000D01*
X114015796Y-96254556D01*
X114066988Y-96225000D01*
X114150000Y-96225000D01*
X114150000Y-96925000D01*
X114243566Y-96925000D01*
X114427100Y-96888493D01*
X114427104Y-96888492D01*
X114599986Y-96816882D01*
X114599999Y-96816875D01*
X114755587Y-96712914D01*
X114887914Y-96580587D01*
X114991875Y-96424999D01*
X114991882Y-96424986D01*
X115063491Y-96252107D01*
X115063492Y-96252103D01*
X115068884Y-96225000D01*
X114150000Y-96225000D01*
X114066988Y-96225000D01*
X114084205Y-96215060D01*
X114140060Y-96159205D01*
X114179556Y-96090796D01*
X114200000Y-96014496D01*
X114200000Y-95935504D01*
X114179556Y-95859204D01*
X114140060Y-95790795D01*
X114084205Y-95734940D01*
X114066988Y-95725000D01*
X115068884Y-95725000D01*
X115063492Y-95697896D01*
X115063491Y-95697892D01*
X114991882Y-95525013D01*
X114991875Y-95525000D01*
X114887914Y-95369412D01*
X114809194Y-95290692D01*
X114773218Y-95228380D01*
X114773218Y-95156428D01*
X114791906Y-95115183D01*
X114815084Y-95080495D01*
X114871658Y-94943913D01*
X114900500Y-94798918D01*
X114900500Y-94651082D01*
X114871658Y-94506087D01*
X114815084Y-94369505D01*
X114732951Y-94246584D01*
X114684652Y-94198285D01*
X114648678Y-94135976D01*
X114648678Y-94064024D01*
X114684652Y-94001714D01*
X114732951Y-93953416D01*
X114815084Y-93830495D01*
X114871658Y-93693913D01*
X114900500Y-93548918D01*
X114900500Y-93401082D01*
X114871658Y-93256087D01*
X114833602Y-93164212D01*
X114815087Y-93119512D01*
X114815086Y-93119511D01*
X114815084Y-93119505D01*
X114734490Y-92998888D01*
X114711364Y-92930755D01*
X114725401Y-92860186D01*
X114744850Y-92833046D01*
X114744333Y-92832654D01*
X114788808Y-92774005D01*
X114837364Y-92709975D01*
X114890359Y-92575590D01*
X114893171Y-92552180D01*
X114900499Y-92491151D01*
X114900500Y-92491147D01*
X114900500Y-91958853D01*
X114900499Y-91958848D01*
X114890360Y-91874414D01*
X114890359Y-91874412D01*
X114890359Y-91874410D01*
X114837364Y-91740025D01*
X114750078Y-91624922D01*
X114684350Y-91575078D01*
X114634974Y-91537635D01*
X114551215Y-91504605D01*
X114500590Y-91484641D01*
X114500588Y-91484640D01*
X114500584Y-91484639D01*
X114500586Y-91484639D01*
X114416151Y-91474500D01*
X114416144Y-91474500D01*
X113383856Y-91474500D01*
X113383848Y-91474500D01*
X113299414Y-91484639D01*
X113165025Y-91537635D01*
X113049922Y-91624921D01*
X113049921Y-91624922D01*
X112962635Y-91740025D01*
X112909639Y-91874414D01*
X112899500Y-91958848D01*
X112899500Y-92491151D01*
X112909639Y-92575585D01*
X112962635Y-92709974D01*
X113055667Y-92832654D01*
X113054213Y-92833756D01*
X113084197Y-92885689D01*
X113084197Y-92957641D01*
X113065508Y-92998888D01*
X112984918Y-93119501D01*
X112984912Y-93119512D01*
X112928341Y-93256087D01*
X112928341Y-93256089D01*
X112899500Y-93401082D01*
X112899500Y-93548917D01*
X112928341Y-93693910D01*
X112928341Y-93693912D01*
X112984912Y-93830487D01*
X112984914Y-93830490D01*
X112984916Y-93830495D01*
X113067049Y-93953416D01*
X113115347Y-94001714D01*
X113151322Y-94064024D01*
X113151322Y-94135976D01*
X113115347Y-94198285D01*
X113067049Y-94246584D01*
X113067047Y-94246586D01*
X113018722Y-94318910D01*
X113005626Y-94338511D01*
X112984915Y-94369507D01*
X112984912Y-94369512D01*
X112928341Y-94506087D01*
X112928341Y-94506089D01*
X112899500Y-94651082D01*
X112899500Y-94798917D01*
X112928341Y-94943910D01*
X112928341Y-94943912D01*
X112984912Y-95080487D01*
X112984918Y-95080498D01*
X113008092Y-95115181D01*
X113031219Y-95183315D01*
X113017182Y-95253884D01*
X112990805Y-95290691D01*
X112912089Y-95369407D01*
X112912085Y-95369412D01*
X112808124Y-95525000D01*
X112808117Y-95525013D01*
X112736508Y-95697892D01*
X112736507Y-95697896D01*
X112731115Y-95725000D01*
X109522942Y-95725000D01*
X109563491Y-95627107D01*
X109563492Y-95627103D01*
X109568884Y-95600000D01*
X108650000Y-95600000D01*
X108566988Y-95600000D01*
X108584205Y-95590060D01*
X108640060Y-95534205D01*
X108679556Y-95465796D01*
X108700000Y-95389496D01*
X108700000Y-95310504D01*
X108679556Y-95234204D01*
X108640060Y-95165795D01*
X108584205Y-95109940D01*
X108566988Y-95100000D01*
X109568884Y-95100000D01*
X109563492Y-95072896D01*
X109563491Y-95072892D01*
X109491882Y-94900013D01*
X109491875Y-94900000D01*
X109387914Y-94744412D01*
X109309194Y-94665692D01*
X109273218Y-94603380D01*
X109273218Y-94531428D01*
X109291906Y-94490183D01*
X109315084Y-94455495D01*
X109371658Y-94318913D01*
X109400500Y-94173918D01*
X109400500Y-94026082D01*
X109371658Y-93881087D01*
X109315084Y-93744505D01*
X109234490Y-93623888D01*
X109211364Y-93555755D01*
X109225401Y-93485186D01*
X109244850Y-93458046D01*
X109244333Y-93457654D01*
X109287233Y-93401082D01*
X109337364Y-93334975D01*
X109390359Y-93200590D01*
X109394728Y-93164213D01*
X109398823Y-93130107D01*
X109400500Y-93116144D01*
X109400500Y-92583856D01*
X109396696Y-92552180D01*
X109390360Y-92499414D01*
X109390359Y-92499412D01*
X109390359Y-92499410D01*
X109337364Y-92365025D01*
X109250078Y-92249922D01*
X109243042Y-92244586D01*
X109134974Y-92162635D01*
X109051215Y-92129605D01*
X109000590Y-92109641D01*
X109000588Y-92109640D01*
X109000584Y-92109639D01*
X109000586Y-92109639D01*
X108916151Y-92099500D01*
X108916144Y-92099500D01*
X107883856Y-92099500D01*
X107883848Y-92099500D01*
X107799414Y-92109639D01*
X107665025Y-92162635D01*
X107549922Y-92249921D01*
X107549921Y-92249922D01*
X107462635Y-92365025D01*
X107409639Y-92499414D01*
X107399500Y-92583848D01*
X107399500Y-93116151D01*
X107409639Y-93200585D01*
X107462635Y-93334974D01*
X107555667Y-93457654D01*
X107554213Y-93458756D01*
X107584197Y-93510689D01*
X107584197Y-93582641D01*
X107565508Y-93623888D01*
X107484918Y-93744501D01*
X107484912Y-93744512D01*
X107428341Y-93881087D01*
X107428341Y-93881089D01*
X107408306Y-93981811D01*
X107399500Y-94026082D01*
X107399500Y-94173918D01*
X107404348Y-94198288D01*
X107428341Y-94318910D01*
X107428341Y-94318912D01*
X107484912Y-94455487D01*
X107484918Y-94455498D01*
X107508092Y-94490181D01*
X107531219Y-94558315D01*
X107517182Y-94628884D01*
X107490805Y-94665691D01*
X107412089Y-94744407D01*
X107412085Y-94744412D01*
X107308124Y-94900000D01*
X107308117Y-94900013D01*
X107236508Y-95072892D01*
X107236507Y-95072896D01*
X107231115Y-95100000D01*
X106200500Y-95100000D01*
X106200500Y-83471319D01*
X138423430Y-83471319D01*
X138442349Y-83615024D01*
X138442352Y-83615036D01*
X138497817Y-83748941D01*
X138502375Y-83756836D01*
X138500896Y-83757689D01*
X138524172Y-83813873D01*
X138525362Y-83832023D01*
X138525362Y-84427810D01*
X138540018Y-84482505D01*
X138556063Y-84542388D01*
X138615373Y-84645115D01*
X147952066Y-93981809D01*
X147982585Y-93999429D01*
X148054790Y-94041117D01*
X148054788Y-94041117D01*
X148062461Y-94043172D01*
X148079006Y-94047605D01*
X148140281Y-94064024D01*
X148169370Y-94071819D01*
X148169371Y-94071819D01*
X152514304Y-94071819D01*
X152583804Y-94090441D01*
X152598922Y-94100543D01*
X152601058Y-94102182D01*
X152734962Y-94157646D01*
X152734966Y-94157647D01*
X152734971Y-94157649D01*
X152878680Y-94176569D01*
X153022389Y-94157649D01*
X153022395Y-94157646D01*
X153022397Y-94157646D01*
X153156302Y-94102182D01*
X153159146Y-94100000D01*
X153271301Y-94013940D01*
X153359541Y-93898944D01*
X153359541Y-93898943D01*
X153359543Y-93898941D01*
X153415007Y-93765036D01*
X153415007Y-93765034D01*
X153415010Y-93765028D01*
X153433930Y-93621319D01*
X153415010Y-93477610D01*
X153415008Y-93477605D01*
X153415007Y-93477601D01*
X153359543Y-93343696D01*
X153271302Y-93228699D01*
X153271299Y-93228696D01*
X153156302Y-93140455D01*
X153022397Y-93084991D01*
X153022385Y-93084988D01*
X152878680Y-93066069D01*
X152734974Y-93084988D01*
X152734962Y-93084991D01*
X152601058Y-93140455D01*
X152598922Y-93142095D01*
X152596434Y-93143125D01*
X152593167Y-93145012D01*
X152592918Y-93144581D01*
X152532448Y-93169630D01*
X152514304Y-93170819D01*
X148472860Y-93170819D01*
X148403360Y-93152197D01*
X148374572Y-93130107D01*
X148080782Y-92836317D01*
X148044806Y-92774005D01*
X148044806Y-92702053D01*
X148080782Y-92639741D01*
X148143094Y-92603765D01*
X148179070Y-92599029D01*
X153236512Y-92599029D01*
X153275760Y-92606836D01*
X153276174Y-92605292D01*
X153284970Y-92607649D01*
X153301688Y-92609850D01*
X153428680Y-92626569D01*
X153572389Y-92607649D01*
X153572395Y-92607646D01*
X153572397Y-92607646D01*
X153706302Y-92552182D01*
X153706305Y-92552180D01*
X153821301Y-92463940D01*
X153909541Y-92348944D01*
X153909541Y-92348943D01*
X153909543Y-92348941D01*
X153965007Y-92215036D01*
X153965007Y-92215034D01*
X153965010Y-92215028D01*
X153983930Y-92071319D01*
X153965010Y-91927610D01*
X153965008Y-91927605D01*
X153965007Y-91927601D01*
X153909543Y-91793696D01*
X153821302Y-91678699D01*
X153821299Y-91678696D01*
X153706302Y-91590455D01*
X153572397Y-91534991D01*
X153572385Y-91534988D01*
X153428680Y-91516069D01*
X153284974Y-91534988D01*
X153284962Y-91534991D01*
X153151057Y-91590455D01*
X153048300Y-91669305D01*
X152981825Y-91696840D01*
X152963682Y-91698029D01*
X147900069Y-91698029D01*
X147830569Y-91679407D01*
X147801781Y-91657317D01*
X140152065Y-84007601D01*
X140116089Y-83945289D01*
X140112542Y-83927457D01*
X140112192Y-83924792D01*
X140056723Y-83790876D01*
X139968483Y-83675880D01*
X139968481Y-83675878D01*
X139853484Y-83587637D01*
X139719579Y-83532173D01*
X139719567Y-83532170D01*
X139644553Y-83522294D01*
X139578078Y-83494759D01*
X139534277Y-83437675D01*
X139524886Y-83402626D01*
X139515010Y-83327613D01*
X139515010Y-83327610D01*
X139515008Y-83327605D01*
X139515007Y-83327601D01*
X139459543Y-83193696D01*
X139371302Y-83078699D01*
X139371299Y-83078696D01*
X139256302Y-82990455D01*
X139122397Y-82934991D01*
X139122385Y-82934988D01*
X138978680Y-82916069D01*
X138834974Y-82934988D01*
X138834962Y-82934991D01*
X138701057Y-82990455D01*
X138586060Y-83078696D01*
X138586057Y-83078699D01*
X138497816Y-83193696D01*
X138442352Y-83327601D01*
X138442349Y-83327613D01*
X138423430Y-83471319D01*
X106200500Y-83471319D01*
X106200500Y-80279856D01*
X107092388Y-80279856D01*
X107092389Y-80279864D01*
X107095303Y-80304990D01*
X107095303Y-80304991D01*
X107140681Y-80407764D01*
X107140682Y-80407765D01*
X107220123Y-80487206D01*
X107322897Y-80532585D01*
X107348023Y-80535500D01*
X114897752Y-80535499D01*
X114922879Y-80532585D01*
X115025653Y-80487206D01*
X115105094Y-80407765D01*
X115150473Y-80304991D01*
X115153388Y-80279865D01*
X115153388Y-79021319D01*
X132073430Y-79021319D01*
X132092349Y-79165024D01*
X132092352Y-79165036D01*
X132147816Y-79298941D01*
X132236057Y-79413938D01*
X132236060Y-79413941D01*
X132351057Y-79502182D01*
X132484962Y-79557646D01*
X132484966Y-79557647D01*
X132484971Y-79557649D01*
X132628680Y-79576569D01*
X132772389Y-79557649D01*
X132833349Y-79532398D01*
X132886541Y-79521819D01*
X135444572Y-79521819D01*
X135571866Y-79487711D01*
X135685994Y-79421819D01*
X137636494Y-77471319D01*
X149522998Y-77471319D01*
X149543635Y-77628077D01*
X149543637Y-77628086D01*
X149604143Y-77774159D01*
X149604144Y-77774161D01*
X149700393Y-77899596D01*
X149700402Y-77899605D01*
X149825837Y-77995854D01*
X149825839Y-77995855D01*
X149971912Y-78056361D01*
X149971914Y-78056361D01*
X149971918Y-78056363D01*
X150045713Y-78066078D01*
X150112188Y-78093612D01*
X150125859Y-78105601D01*
X150487468Y-78467210D01*
X150523444Y-78529522D01*
X150528180Y-78565498D01*
X150528180Y-88506942D01*
X150509558Y-88576442D01*
X150499459Y-88591556D01*
X150497819Y-88593692D01*
X150497819Y-88593693D01*
X150442351Y-88727604D01*
X150442349Y-88727613D01*
X150423430Y-88871319D01*
X150442349Y-89015024D01*
X150442352Y-89015036D01*
X150497816Y-89148941D01*
X150586057Y-89263938D01*
X150586060Y-89263941D01*
X150701057Y-89352182D01*
X150834962Y-89407646D01*
X150834966Y-89407647D01*
X150834971Y-89407649D01*
X150978680Y-89426569D01*
X151122389Y-89407649D01*
X151122395Y-89407646D01*
X151122397Y-89407646D01*
X151256302Y-89352182D01*
X151256305Y-89352180D01*
X151371301Y-89263940D01*
X151459541Y-89148944D01*
X151459541Y-89148943D01*
X151459543Y-89148941D01*
X151515007Y-89015036D01*
X151515007Y-89015034D01*
X151515010Y-89015028D01*
X151533930Y-88871319D01*
X151515010Y-88727610D01*
X151512197Y-88720819D01*
X151489877Y-88666934D01*
X151459541Y-88593694D01*
X151459540Y-88593692D01*
X151457901Y-88591556D01*
X151456870Y-88589068D01*
X151454985Y-88585802D01*
X151455415Y-88585553D01*
X151430369Y-88525081D01*
X151429180Y-88506942D01*
X151429180Y-83951684D01*
X151447802Y-83882184D01*
X151498680Y-83831306D01*
X151568180Y-83812684D01*
X151586318Y-83813873D01*
X151594606Y-83814964D01*
X151661080Y-83842502D01*
X151674744Y-83854486D01*
X162352066Y-94531808D01*
X162454793Y-94591118D01*
X162470866Y-94595424D01*
X162470867Y-94595425D01*
X162470868Y-94595425D01*
X162569371Y-94621819D01*
X165679131Y-94621819D01*
X165748631Y-94640441D01*
X165799509Y-94691319D01*
X165818131Y-94760819D01*
X165799509Y-94830319D01*
X165777422Y-94859102D01*
X165668402Y-94968123D01*
X165668399Y-94968126D01*
X165668399Y-94968127D01*
X165542899Y-95147359D01*
X165450426Y-95345667D01*
X165393792Y-95557026D01*
X165374723Y-95774998D01*
X165374723Y-95775001D01*
X165393792Y-95992973D01*
X165393792Y-95992976D01*
X165393793Y-95992977D01*
X165450425Y-96204330D01*
X165455429Y-96215060D01*
X165542899Y-96402641D01*
X165668399Y-96581873D01*
X165668402Y-96581877D01*
X165820056Y-96733531D01*
X165856032Y-96795843D01*
X165856032Y-96867795D01*
X165820056Y-96930107D01*
X165757744Y-96966083D01*
X165721768Y-96970819D01*
X164122859Y-96970819D01*
X164053359Y-96952197D01*
X164024571Y-96930107D01*
X157654883Y-90560419D01*
X157618907Y-90498107D01*
X157615360Y-90480275D01*
X157615010Y-90477610D01*
X157559541Y-90343694D01*
X157471301Y-90228698D01*
X157471299Y-90228696D01*
X157356302Y-90140455D01*
X157222397Y-90084991D01*
X157222385Y-90084988D01*
X157078680Y-90066069D01*
X156934974Y-90084988D01*
X156934962Y-90084991D01*
X156801057Y-90140455D01*
X156686060Y-90228696D01*
X156686057Y-90228699D01*
X156597816Y-90343696D01*
X156542352Y-90477601D01*
X156542349Y-90477613D01*
X156523430Y-90621319D01*
X156542349Y-90765024D01*
X156542352Y-90765036D01*
X156597816Y-90898941D01*
X156686057Y-91013938D01*
X156686059Y-91013940D01*
X156801055Y-91102180D01*
X156934971Y-91157649D01*
X156937629Y-91157998D01*
X156940106Y-91159024D01*
X156943772Y-91160007D01*
X156943642Y-91160489D01*
X157004104Y-91185529D01*
X157017780Y-91197522D01*
X163602066Y-97781808D01*
X163704793Y-97841118D01*
X163729006Y-97847605D01*
X163802218Y-97867222D01*
X163819370Y-97871819D01*
X163819371Y-97871819D01*
X180187989Y-97871819D01*
X180278346Y-97847607D01*
X180278353Y-97847605D01*
X180278357Y-97847604D01*
X180302567Y-97841118D01*
X180405294Y-97781808D01*
X182360489Y-95826613D01*
X182419799Y-95723886D01*
X182431615Y-95679788D01*
X182450500Y-95609308D01*
X182450500Y-94385695D01*
X182469122Y-94316195D01*
X182479224Y-94301077D01*
X182480861Y-94298944D01*
X182522554Y-94198288D01*
X182536327Y-94165036D01*
X182536327Y-94165034D01*
X182536330Y-94165028D01*
X182555250Y-94021319D01*
X182536330Y-93877610D01*
X182536328Y-93877605D01*
X182536327Y-93877601D01*
X182480863Y-93743696D01*
X182392622Y-93628699D01*
X182392619Y-93628696D01*
X182277622Y-93540455D01*
X182143717Y-93484991D01*
X182143705Y-93484988D01*
X182000000Y-93466069D01*
X181856294Y-93484988D01*
X181856282Y-93484991D01*
X181722377Y-93540455D01*
X181607380Y-93628696D01*
X181607377Y-93628699D01*
X181519136Y-93743696D01*
X181463672Y-93877601D01*
X181463669Y-93877613D01*
X181444750Y-94021319D01*
X181463669Y-94165024D01*
X181463672Y-94165036D01*
X181519136Y-94298940D01*
X181520776Y-94301077D01*
X181521806Y-94303564D01*
X181523693Y-94306832D01*
X181523262Y-94307080D01*
X181548311Y-94367551D01*
X181549500Y-94385695D01*
X181549500Y-95305820D01*
X181530878Y-95375320D01*
X181508788Y-95404108D01*
X180802215Y-96110680D01*
X180739903Y-96146656D01*
X180667951Y-96146656D01*
X180605639Y-96110680D01*
X180569663Y-96048368D01*
X180567529Y-95999184D01*
X180565678Y-95999023D01*
X180585277Y-95775001D01*
X180585277Y-95774998D01*
X180566207Y-95557026D01*
X180566207Y-95557023D01*
X180509575Y-95345670D01*
X180417102Y-95147362D01*
X180291598Y-94968123D01*
X180136877Y-94813402D01*
X180116192Y-94798918D01*
X179957641Y-94687899D01*
X179943194Y-94681162D01*
X179759330Y-94595425D01*
X179547977Y-94538793D01*
X179547976Y-94538792D01*
X179547973Y-94538792D01*
X179330002Y-94519723D01*
X179329998Y-94519723D01*
X179112026Y-94538792D01*
X179039166Y-94558315D01*
X178900670Y-94595425D01*
X178900668Y-94595425D01*
X178894808Y-94596996D01*
X178894512Y-94595892D01*
X178829246Y-94601599D01*
X178764037Y-94571187D01*
X178755103Y-94563000D01*
X177302935Y-93110832D01*
X177302933Y-93110830D01*
X177258179Y-93084991D01*
X177200205Y-93051519D01*
X177175992Y-93045032D01*
X177085628Y-93020819D01*
X163172859Y-93020819D01*
X163103359Y-93002197D01*
X163074571Y-92980107D01*
X159265783Y-89171319D01*
X169673430Y-89171319D01*
X169692349Y-89315024D01*
X169692352Y-89315036D01*
X169747816Y-89448941D01*
X169836057Y-89563938D01*
X169836060Y-89563941D01*
X169951057Y-89652182D01*
X170084962Y-89707646D01*
X170084966Y-89707647D01*
X170084971Y-89707649D01*
X170228680Y-89726569D01*
X170368337Y-89708182D01*
X170439671Y-89717573D01*
X170496755Y-89761375D01*
X170524290Y-89827849D01*
X170524290Y-89827850D01*
X170542349Y-89965024D01*
X170542352Y-89965036D01*
X170597816Y-90098941D01*
X170686057Y-90213938D01*
X170686060Y-90213941D01*
X170801057Y-90302182D01*
X170934962Y-90357646D01*
X170934966Y-90357647D01*
X170934971Y-90357649D01*
X171078680Y-90376569D01*
X171222389Y-90357649D01*
X171222395Y-90357646D01*
X171222397Y-90357646D01*
X171356301Y-90302182D01*
X171356301Y-90302181D01*
X171356305Y-90302180D01*
X171358438Y-90300542D01*
X171360925Y-90299512D01*
X171364193Y-90297626D01*
X171364441Y-90298056D01*
X171424912Y-90273008D01*
X171443056Y-90271819D01*
X175134501Y-90271819D01*
X175204001Y-90290441D01*
X175232789Y-90312531D01*
X175419447Y-90499189D01*
X175455423Y-90561501D01*
X175458969Y-90579329D01*
X175462944Y-90609520D01*
X175463669Y-90615024D01*
X175463670Y-90615027D01*
X175463671Y-90615035D01*
X175519136Y-90748941D01*
X175607377Y-90863938D01*
X175607380Y-90863941D01*
X175722377Y-90952182D01*
X175856282Y-91007646D01*
X175856286Y-91007647D01*
X175856291Y-91007649D01*
X176000000Y-91026569D01*
X176143709Y-91007649D01*
X176143715Y-91007646D01*
X176143717Y-91007646D01*
X176277622Y-90952182D01*
X176342783Y-90902182D01*
X176392621Y-90863940D01*
X176480861Y-90748944D01*
X176480861Y-90748943D01*
X176480863Y-90748941D01*
X176536327Y-90615036D01*
X176536327Y-90615034D01*
X176536330Y-90615028D01*
X176555250Y-90471319D01*
X176536330Y-90327610D01*
X176536328Y-90327605D01*
X176536327Y-90327601D01*
X176480863Y-90193696D01*
X176392622Y-90078699D01*
X176392619Y-90078696D01*
X176327457Y-90028696D01*
X176277625Y-89990458D01*
X176144915Y-89935488D01*
X176099823Y-89905359D01*
X176053571Y-89859107D01*
X176017595Y-89796795D01*
X176017595Y-89724843D01*
X176053571Y-89662531D01*
X176115883Y-89626555D01*
X176151859Y-89621819D01*
X176534501Y-89621819D01*
X176604001Y-89640441D01*
X176632789Y-89662531D01*
X177419447Y-90449189D01*
X177455423Y-90511501D01*
X177458969Y-90529329D01*
X177459394Y-90532553D01*
X177463669Y-90565024D01*
X177463670Y-90565027D01*
X177463671Y-90565035D01*
X177519136Y-90698941D01*
X177607377Y-90813938D01*
X177607380Y-90813941D01*
X177722377Y-90902182D01*
X177856282Y-90957646D01*
X177856286Y-90957647D01*
X177856291Y-90957649D01*
X178000000Y-90976569D01*
X178143709Y-90957649D01*
X178143715Y-90957646D01*
X178143717Y-90957646D01*
X178277622Y-90902182D01*
X178284305Y-90897054D01*
X178392621Y-90813940D01*
X178480861Y-90698944D01*
X178480861Y-90698943D01*
X178480863Y-90698941D01*
X178536327Y-90565036D01*
X178536327Y-90565034D01*
X178536330Y-90565028D01*
X178555250Y-90421319D01*
X178536330Y-90277610D01*
X178536328Y-90277605D01*
X178536327Y-90277601D01*
X178480863Y-90143696D01*
X178392622Y-90028699D01*
X178392619Y-90028696D01*
X178342786Y-89990458D01*
X178277625Y-89940458D01*
X178144915Y-89885488D01*
X178099823Y-89855359D01*
X177055296Y-88810832D01*
X177055294Y-88810830D01*
X176952567Y-88751520D01*
X176921116Y-88743093D01*
X176837989Y-88720819D01*
X170593056Y-88720819D01*
X170523556Y-88702197D01*
X170508438Y-88692095D01*
X170506301Y-88690455D01*
X170372397Y-88634991D01*
X170372385Y-88634988D01*
X170228680Y-88616069D01*
X170084974Y-88634988D01*
X170084962Y-88634991D01*
X169951057Y-88690455D01*
X169836060Y-88778696D01*
X169836057Y-88778699D01*
X169747816Y-88893696D01*
X169692352Y-89027601D01*
X169692349Y-89027613D01*
X169673430Y-89171319D01*
X159265783Y-89171319D01*
X152818066Y-82723602D01*
X152782090Y-82661290D01*
X152778543Y-82643454D01*
X152776829Y-82630432D01*
X152776827Y-82630425D01*
X152721359Y-82496511D01*
X152633119Y-82381515D01*
X152633117Y-82381513D01*
X152518120Y-82293272D01*
X152384215Y-82237808D01*
X152384203Y-82237805D01*
X152240498Y-82218886D01*
X152096792Y-82237805D01*
X152096780Y-82237808D01*
X151962875Y-82293272D01*
X151847878Y-82381513D01*
X151847875Y-82381516D01*
X151759634Y-82496513D01*
X151704169Y-82630421D01*
X151703327Y-82633565D01*
X151701699Y-82636383D01*
X151700681Y-82638843D01*
X151700357Y-82638708D01*
X151667351Y-82695877D01*
X151605039Y-82731854D01*
X151587168Y-82735406D01*
X151586285Y-82735522D01*
X151514951Y-82726110D01*
X151457880Y-82682293D01*
X151430364Y-82615811D01*
X151429180Y-82597706D01*
X151429180Y-80449911D01*
X154444837Y-80449911D01*
X154463756Y-80593616D01*
X154463759Y-80593628D01*
X154519223Y-80727533D01*
X154524953Y-80735000D01*
X154607466Y-80842532D01*
X154722462Y-80930772D01*
X154856378Y-80986241D01*
X154858341Y-80986499D01*
X154860174Y-80987258D01*
X154865180Y-80988600D01*
X154865003Y-80989258D01*
X154924817Y-81014029D01*
X154968622Y-81071108D01*
X154978018Y-81106168D01*
X154992349Y-81215024D01*
X154992352Y-81215036D01*
X155047816Y-81348941D01*
X155136057Y-81463938D01*
X155136060Y-81463941D01*
X155251057Y-81552182D01*
X155384962Y-81607646D01*
X155384966Y-81607647D01*
X155384971Y-81607649D01*
X155462477Y-81617853D01*
X155528952Y-81645388D01*
X155572753Y-81702471D01*
X155582145Y-81737520D01*
X155592349Y-81815024D01*
X155592352Y-81815036D01*
X155647816Y-81948941D01*
X155736057Y-82063938D01*
X155736059Y-82063940D01*
X155851055Y-82152180D01*
X155984971Y-82207649D01*
X155984972Y-82207649D01*
X155993388Y-82211135D01*
X155992234Y-82213920D01*
X156040562Y-82241815D01*
X156076546Y-82304122D01*
X156080098Y-82321971D01*
X156092349Y-82415024D01*
X156092352Y-82415036D01*
X156147816Y-82548941D01*
X156236057Y-82663938D01*
X156236060Y-82663941D01*
X156351057Y-82752182D01*
X156484962Y-82807646D01*
X156484966Y-82807647D01*
X156484971Y-82807649D01*
X156628680Y-82826569D01*
X156772389Y-82807649D01*
X156772395Y-82807646D01*
X156772397Y-82807646D01*
X156906301Y-82752182D01*
X156906301Y-82752181D01*
X156906305Y-82752180D01*
X156908438Y-82750542D01*
X156910925Y-82749512D01*
X156914193Y-82747626D01*
X156914441Y-82748056D01*
X156974912Y-82723008D01*
X156993056Y-82721819D01*
X176787989Y-82721819D01*
X176878346Y-82697607D01*
X176878353Y-82697605D01*
X176884803Y-82695877D01*
X176902567Y-82691118D01*
X177005294Y-82631808D01*
X180039580Y-79597520D01*
X180101890Y-79561546D01*
X180119726Y-79557999D01*
X180122389Y-79557649D01*
X180256305Y-79502180D01*
X180371301Y-79413940D01*
X180459541Y-79298944D01*
X180459541Y-79298943D01*
X180459543Y-79298941D01*
X180515007Y-79165036D01*
X180515007Y-79165034D01*
X180515010Y-79165028D01*
X180533930Y-79021319D01*
X180515010Y-78877610D01*
X180515007Y-78877602D01*
X180515007Y-78877601D01*
X180459543Y-78743696D01*
X180371302Y-78628699D01*
X180371299Y-78628696D01*
X180256302Y-78540455D01*
X180122397Y-78484991D01*
X180122385Y-78484988D01*
X179978680Y-78466069D01*
X179834974Y-78484988D01*
X179834962Y-78484991D01*
X179701057Y-78540455D01*
X179586060Y-78628696D01*
X179586057Y-78628699D01*
X179497816Y-78743696D01*
X179442350Y-78877605D01*
X179442349Y-78877609D01*
X179441997Y-78880287D01*
X179440965Y-78882776D01*
X179439994Y-78886403D01*
X179439516Y-78886274D01*
X179414456Y-78946759D01*
X179402476Y-78960418D01*
X176582789Y-81780107D01*
X176520477Y-81816083D01*
X176484501Y-81820819D01*
X176151859Y-81820819D01*
X176082359Y-81802197D01*
X176031481Y-81751319D01*
X176012859Y-81681819D01*
X176031481Y-81612319D01*
X176053571Y-81583531D01*
X176530934Y-81106168D01*
X178039580Y-79597520D01*
X178101890Y-79561546D01*
X178119726Y-79557999D01*
X178122389Y-79557649D01*
X178256305Y-79502180D01*
X178371301Y-79413940D01*
X178459541Y-79298944D01*
X178459541Y-79298943D01*
X178459543Y-79298941D01*
X178515007Y-79165036D01*
X178515007Y-79165034D01*
X178515010Y-79165028D01*
X178533930Y-79021319D01*
X178515010Y-78877610D01*
X178515007Y-78877602D01*
X178515007Y-78877601D01*
X178459543Y-78743696D01*
X178371302Y-78628699D01*
X178371299Y-78628696D01*
X178256302Y-78540455D01*
X178122397Y-78484991D01*
X178122385Y-78484988D01*
X177978680Y-78466069D01*
X177834974Y-78484988D01*
X177834962Y-78484991D01*
X177701057Y-78540455D01*
X177586060Y-78628696D01*
X177586057Y-78628699D01*
X177497816Y-78743696D01*
X177442350Y-78877605D01*
X177442349Y-78877609D01*
X177441997Y-78880287D01*
X177440965Y-78882776D01*
X177439994Y-78886403D01*
X177439516Y-78886274D01*
X177414456Y-78946759D01*
X177402476Y-78960418D01*
X175182789Y-81180107D01*
X175120477Y-81216083D01*
X175084501Y-81220819D01*
X172751859Y-81220819D01*
X172682359Y-81202197D01*
X172631481Y-81151319D01*
X172612859Y-81081819D01*
X172631481Y-81012319D01*
X172653571Y-80983531D01*
X173332113Y-80304989D01*
X174039581Y-79597520D01*
X174101891Y-79561546D01*
X174119723Y-79557999D01*
X174122389Y-79557649D01*
X174256305Y-79502180D01*
X174371301Y-79413940D01*
X174459541Y-79298944D01*
X174459541Y-79298943D01*
X174459543Y-79298941D01*
X174515007Y-79165036D01*
X174515007Y-79165034D01*
X174515010Y-79165028D01*
X174533930Y-79021319D01*
X174515010Y-78877610D01*
X174515007Y-78877602D01*
X174515007Y-78877601D01*
X174459543Y-78743696D01*
X174371302Y-78628699D01*
X174371299Y-78628696D01*
X174256302Y-78540455D01*
X174122397Y-78484991D01*
X174122385Y-78484988D01*
X173978680Y-78466069D01*
X173834974Y-78484988D01*
X173834962Y-78484991D01*
X173701057Y-78540455D01*
X173586060Y-78628696D01*
X173586057Y-78628699D01*
X173497816Y-78743696D01*
X173442351Y-78877602D01*
X173442349Y-78877613D01*
X173441997Y-78880286D01*
X173440967Y-78882771D01*
X173439994Y-78886404D01*
X173439515Y-78886275D01*
X173414456Y-78946758D01*
X173402476Y-78960417D01*
X171782789Y-80580107D01*
X171720477Y-80616083D01*
X171684501Y-80620819D01*
X171251859Y-80620819D01*
X171182359Y-80602197D01*
X171131481Y-80551319D01*
X171112859Y-80481819D01*
X171131481Y-80412319D01*
X171153571Y-80383531D01*
X171364816Y-80172286D01*
X172039580Y-79497520D01*
X172101890Y-79461546D01*
X172119726Y-79457999D01*
X172122389Y-79457649D01*
X172256305Y-79402180D01*
X172371301Y-79313940D01*
X172459541Y-79198944D01*
X172459541Y-79198943D01*
X172459543Y-79198941D01*
X172515007Y-79065036D01*
X172515007Y-79065034D01*
X172515010Y-79065028D01*
X172533930Y-78921319D01*
X172515010Y-78777610D01*
X172515008Y-78777605D01*
X172515007Y-78777601D01*
X172459543Y-78643696D01*
X172371302Y-78528699D01*
X172371299Y-78528696D01*
X172256302Y-78440455D01*
X172122397Y-78384991D01*
X172122385Y-78384988D01*
X171978680Y-78366069D01*
X171834974Y-78384988D01*
X171834962Y-78384991D01*
X171701057Y-78440455D01*
X171586060Y-78528696D01*
X171586057Y-78528699D01*
X171497816Y-78643696D01*
X171442350Y-78777605D01*
X171442349Y-78777609D01*
X171441997Y-78780287D01*
X171440965Y-78782776D01*
X171439994Y-78786403D01*
X171439516Y-78786274D01*
X171414456Y-78846759D01*
X171402476Y-78860418D01*
X170282789Y-79980107D01*
X170220477Y-80016083D01*
X170184501Y-80020819D01*
X169951859Y-80020819D01*
X169882359Y-80002197D01*
X169831481Y-79951319D01*
X169812859Y-79881819D01*
X169831481Y-79812319D01*
X169853571Y-79783532D01*
X170060898Y-79576203D01*
X170123210Y-79540226D01*
X170141046Y-79536679D01*
X170143709Y-79536329D01*
X170277625Y-79480860D01*
X170392621Y-79392620D01*
X170480861Y-79277624D01*
X170480861Y-79277623D01*
X170480863Y-79277621D01*
X170536327Y-79143716D01*
X170536327Y-79143714D01*
X170536330Y-79143708D01*
X170555250Y-78999999D01*
X170536330Y-78856290D01*
X170536328Y-78856285D01*
X170536327Y-78856281D01*
X170480863Y-78722376D01*
X170392622Y-78607379D01*
X170392619Y-78607376D01*
X170277622Y-78519135D01*
X170143717Y-78463671D01*
X170143705Y-78463668D01*
X170000000Y-78444749D01*
X169856294Y-78463668D01*
X169856282Y-78463671D01*
X169722377Y-78519135D01*
X169607380Y-78607376D01*
X169607377Y-78607379D01*
X169519136Y-78722376D01*
X169463670Y-78856285D01*
X169463669Y-78856289D01*
X169463317Y-78858967D01*
X169462285Y-78861456D01*
X169461314Y-78865083D01*
X169460836Y-78864954D01*
X169435776Y-78925439D01*
X169423796Y-78939098D01*
X168882789Y-79480107D01*
X168820477Y-79516083D01*
X168784501Y-79520819D01*
X161083331Y-79520819D01*
X161013831Y-79502197D01*
X160985043Y-79480107D01*
X160307301Y-78802366D01*
X160271325Y-78740054D01*
X160267778Y-78722222D01*
X160267428Y-78719557D01*
X160211959Y-78585641D01*
X160134725Y-78484988D01*
X160123720Y-78470646D01*
X160123717Y-78470643D01*
X160008720Y-78382402D01*
X159874815Y-78326938D01*
X159874803Y-78326935D01*
X159731098Y-78308016D01*
X159587392Y-78326935D01*
X159587380Y-78326938D01*
X159453475Y-78382402D01*
X159338478Y-78470643D01*
X159338475Y-78470646D01*
X159250234Y-78585643D01*
X159194770Y-78719548D01*
X159194767Y-78719560D01*
X159175848Y-78863266D01*
X159194767Y-79006971D01*
X159194770Y-79006983D01*
X159250234Y-79140888D01*
X159338475Y-79255885D01*
X159338477Y-79255887D01*
X159453473Y-79344127D01*
X159587389Y-79399596D01*
X159590047Y-79399945D01*
X159592524Y-79400971D01*
X159596190Y-79401954D01*
X159596060Y-79402436D01*
X159656522Y-79427476D01*
X159670198Y-79439469D01*
X160014259Y-79783531D01*
X160050235Y-79845843D01*
X160050235Y-79917795D01*
X160014259Y-79980107D01*
X159951947Y-80016083D01*
X159915971Y-80020819D01*
X155392362Y-80020819D01*
X155322862Y-80002197D01*
X155307754Y-79992102D01*
X155277712Y-79969050D01*
X155277710Y-79969049D01*
X155277706Y-79969046D01*
X155143804Y-79913583D01*
X155143792Y-79913580D01*
X155000087Y-79894661D01*
X154856381Y-79913580D01*
X154856369Y-79913583D01*
X154722464Y-79969047D01*
X154607467Y-80057288D01*
X154607464Y-80057291D01*
X154519223Y-80172288D01*
X154463759Y-80306193D01*
X154463756Y-80306205D01*
X154444837Y-80449911D01*
X151429180Y-80449911D01*
X151429180Y-78262009D01*
X151420953Y-78231308D01*
X151398479Y-78147433D01*
X151357815Y-78077001D01*
X151339170Y-78044706D01*
X150762962Y-77468498D01*
X150726986Y-77406186D01*
X150723439Y-77388352D01*
X150713724Y-77314557D01*
X150708971Y-77303083D01*
X150653216Y-77168478D01*
X150653215Y-77168476D01*
X150556966Y-77043041D01*
X150556957Y-77043032D01*
X150431522Y-76946783D01*
X150431520Y-76946782D01*
X150285447Y-76886276D01*
X150285438Y-76886274D01*
X150128680Y-76865637D01*
X149971921Y-76886274D01*
X149971912Y-76886276D01*
X149825839Y-76946782D01*
X149825837Y-76946783D01*
X149700402Y-77043032D01*
X149700393Y-77043041D01*
X149604144Y-77168476D01*
X149604143Y-77168478D01*
X149543637Y-77314551D01*
X149543635Y-77314560D01*
X149522998Y-77471319D01*
X137636494Y-77471319D01*
X141720282Y-73387531D01*
X141782594Y-73351555D01*
X141818570Y-73346819D01*
X143360501Y-73346819D01*
X143430001Y-73365441D01*
X143480879Y-73416319D01*
X143499501Y-73485819D01*
X143499501Y-73741183D01*
X143502415Y-73766309D01*
X143502415Y-73766310D01*
X143547793Y-73869083D01*
X143547794Y-73869084D01*
X143627235Y-73948525D01*
X143730009Y-73993904D01*
X143755135Y-73996819D01*
X145544864Y-73996818D01*
X145569991Y-73993904D01*
X145672765Y-73948525D01*
X145752206Y-73869084D01*
X145797585Y-73766310D01*
X145800500Y-73741184D01*
X145800500Y-73435819D01*
X145819122Y-73366319D01*
X145870000Y-73315441D01*
X145939500Y-73296819D01*
X148359501Y-73296819D01*
X148429001Y-73315441D01*
X148457788Y-73337530D01*
X152652066Y-77531809D01*
X152754793Y-77591118D01*
X152776068Y-77596818D01*
X152776069Y-77596819D01*
X152776070Y-77596819D01*
X152869371Y-77621819D01*
X156189750Y-77621819D01*
X156259250Y-77640441D01*
X156274368Y-77650543D01*
X156300840Y-77670856D01*
X156446912Y-77731361D01*
X156446914Y-77731361D01*
X156446918Y-77731363D01*
X156603680Y-77752001D01*
X156760442Y-77731363D01*
X156906521Y-77670855D01*
X157003007Y-77596819D01*
X157031957Y-77574605D01*
X157031957Y-77574604D01*
X157031962Y-77574601D01*
X157128216Y-77449160D01*
X157188724Y-77303081D01*
X157195712Y-77250000D01*
X186232888Y-77250000D01*
X186232888Y-80282837D01*
X186239289Y-80342371D01*
X186239290Y-80342378D01*
X186289534Y-80477088D01*
X186289536Y-80477092D01*
X186375697Y-80592186D01*
X186375701Y-80592190D01*
X186490795Y-80678351D01*
X186490799Y-80678353D01*
X186625509Y-80728597D01*
X186625516Y-80728598D01*
X186685050Y-80734999D01*
X186685051Y-80735000D01*
X190212888Y-80735000D01*
X190212888Y-77250000D01*
X190712888Y-77250000D01*
X190712888Y-80735000D01*
X194240725Y-80735000D01*
X194240725Y-80734999D01*
X194300259Y-80728598D01*
X194300266Y-80728597D01*
X194434976Y-80678353D01*
X194434980Y-80678351D01*
X194550074Y-80592190D01*
X194550078Y-80592186D01*
X194636239Y-80477092D01*
X194636241Y-80477088D01*
X194686485Y-80342378D01*
X194686486Y-80342371D01*
X194692887Y-80282837D01*
X194692888Y-80282837D01*
X194692888Y-77250000D01*
X190712888Y-77250000D01*
X190212888Y-77250000D01*
X186232888Y-77250000D01*
X157195712Y-77250000D01*
X157198439Y-77229282D01*
X157225973Y-77162809D01*
X157237963Y-77149138D01*
X157424572Y-76962531D01*
X157486884Y-76926555D01*
X157522859Y-76921819D01*
X166714304Y-76921819D01*
X166783804Y-76940441D01*
X166798922Y-76950543D01*
X166801058Y-76952182D01*
X166934962Y-77007646D01*
X166934966Y-77007647D01*
X166934971Y-77007649D01*
X167078680Y-77026569D01*
X167222389Y-77007649D01*
X167222395Y-77007646D01*
X167222397Y-77007646D01*
X167356302Y-76952182D01*
X167363338Y-76946783D01*
X167471301Y-76863940D01*
X167558731Y-76750000D01*
X186232888Y-76750000D01*
X190212888Y-76750000D01*
X190212888Y-73265000D01*
X190712888Y-73265000D01*
X190712888Y-76750000D01*
X194692888Y-76750000D01*
X194692888Y-73717163D01*
X194692887Y-73717162D01*
X194686486Y-73657628D01*
X194686485Y-73657621D01*
X194636241Y-73522911D01*
X194636239Y-73522907D01*
X194550078Y-73407813D01*
X194550074Y-73407809D01*
X194434980Y-73321648D01*
X194434976Y-73321646D01*
X194300266Y-73271402D01*
X194300259Y-73271401D01*
X194240725Y-73265000D01*
X190712888Y-73265000D01*
X190212888Y-73265000D01*
X186685051Y-73265000D01*
X186625516Y-73271401D01*
X186625509Y-73271402D01*
X186490799Y-73321646D01*
X186490795Y-73321648D01*
X186375701Y-73407809D01*
X186375697Y-73407813D01*
X186289536Y-73522907D01*
X186289534Y-73522911D01*
X186239290Y-73657621D01*
X186239289Y-73657628D01*
X186232888Y-73717162D01*
X186232888Y-76750000D01*
X167558731Y-76750000D01*
X167559541Y-76748944D01*
X167559541Y-76748943D01*
X167559543Y-76748941D01*
X167615007Y-76615036D01*
X167615007Y-76615034D01*
X167615010Y-76615028D01*
X167633930Y-76471319D01*
X167615010Y-76327610D01*
X167615008Y-76327605D01*
X167615007Y-76327601D01*
X167559543Y-76193696D01*
X167471302Y-76078699D01*
X167471299Y-76078696D01*
X167356302Y-75990455D01*
X167222397Y-75934991D01*
X167222385Y-75934988D01*
X167078680Y-75916069D01*
X166934974Y-75934988D01*
X166934962Y-75934991D01*
X166801058Y-75990455D01*
X166798922Y-75992095D01*
X166796434Y-75993125D01*
X166793167Y-75995012D01*
X166792918Y-75994581D01*
X166732448Y-76019630D01*
X166714304Y-76020819D01*
X157219371Y-76020819D01*
X157129008Y-76045030D01*
X157129009Y-76045031D01*
X157104791Y-76051520D01*
X157104788Y-76051521D01*
X157002067Y-76110829D01*
X157002063Y-76110832D01*
X156600859Y-76512035D01*
X156538547Y-76548011D01*
X156520716Y-76551558D01*
X156446920Y-76561274D01*
X156446912Y-76561276D01*
X156300840Y-76621781D01*
X156235148Y-76672188D01*
X156209205Y-76692095D01*
X156142732Y-76719630D01*
X156124589Y-76720819D01*
X153172860Y-76720819D01*
X153103360Y-76702197D01*
X153074572Y-76680107D01*
X150299466Y-73905002D01*
X167715031Y-73905002D01*
X167734875Y-74144479D01*
X167793866Y-74377433D01*
X167890388Y-74597480D01*
X167890397Y-74597496D01*
X167982688Y-74738757D01*
X168727861Y-73993583D01*
X168750667Y-74078694D01*
X168809910Y-74181306D01*
X168893694Y-74265090D01*
X168996306Y-74324333D01*
X169081414Y-74347137D01*
X168335572Y-75092979D01*
X168374210Y-75123053D01*
X168585546Y-75237421D01*
X168812830Y-75315448D01*
X169049848Y-75354999D01*
X169049855Y-75355000D01*
X169290145Y-75355000D01*
X169290151Y-75354999D01*
X169527169Y-75315448D01*
X169754451Y-75237422D01*
X169965798Y-75123047D01*
X169965799Y-75123046D01*
X170004426Y-75092980D01*
X170004427Y-75092980D01*
X169258585Y-74347138D01*
X169343694Y-74324333D01*
X169446306Y-74265090D01*
X169530090Y-74181306D01*
X169589333Y-74078694D01*
X169612138Y-73993585D01*
X170357310Y-74738757D01*
X170442791Y-74607920D01*
X170496394Y-74559923D01*
X170566814Y-74545157D01*
X170635183Y-74567580D01*
X170673019Y-74604219D01*
X170748399Y-74711874D01*
X170748402Y-74711877D01*
X170903123Y-74866598D01*
X171082361Y-74992102D01*
X171280670Y-75084575D01*
X171492023Y-75141207D01*
X171622809Y-75152649D01*
X171709998Y-75160277D01*
X171710000Y-75160277D01*
X171710002Y-75160277D01*
X171782659Y-75153920D01*
X171927977Y-75141207D01*
X172139330Y-75084575D01*
X172337639Y-74992102D01*
X172516877Y-74866598D01*
X172671598Y-74711877D01*
X172797102Y-74532639D01*
X172854023Y-74410570D01*
X172900273Y-74355453D01*
X172967885Y-74330844D01*
X173038744Y-74343338D01*
X173093862Y-74389588D01*
X173105975Y-74410568D01*
X173162898Y-74532639D01*
X173288402Y-74711877D01*
X173443123Y-74866598D01*
X173622361Y-74992102D01*
X173820670Y-75084575D01*
X174032023Y-75141207D01*
X174162809Y-75152649D01*
X174249998Y-75160277D01*
X174250000Y-75160277D01*
X174250002Y-75160277D01*
X174322659Y-75153920D01*
X174467977Y-75141207D01*
X174679330Y-75084575D01*
X174877639Y-74992102D01*
X175056877Y-74866598D01*
X175211598Y-74711877D01*
X175337102Y-74532639D01*
X175394023Y-74410570D01*
X175440273Y-74355453D01*
X175507885Y-74330844D01*
X175578744Y-74343338D01*
X175633862Y-74389588D01*
X175645975Y-74410568D01*
X175702898Y-74532639D01*
X175828402Y-74711877D01*
X175983123Y-74866598D01*
X176162361Y-74992102D01*
X176360670Y-75084575D01*
X176572023Y-75141207D01*
X176702809Y-75152649D01*
X176789998Y-75160277D01*
X176790000Y-75160277D01*
X176790002Y-75160277D01*
X176862659Y-75153920D01*
X177007977Y-75141207D01*
X177219330Y-75084575D01*
X177417639Y-74992102D01*
X177596877Y-74866598D01*
X177751598Y-74711877D01*
X177877102Y-74532639D01*
X177934023Y-74410570D01*
X177980273Y-74355453D01*
X178047885Y-74330844D01*
X178118744Y-74343338D01*
X178173862Y-74389588D01*
X178185975Y-74410568D01*
X178242898Y-74532639D01*
X178368402Y-74711877D01*
X178523123Y-74866598D01*
X178702361Y-74992102D01*
X178900670Y-75084575D01*
X179112023Y-75141207D01*
X179242809Y-75152649D01*
X179329998Y-75160277D01*
X179330000Y-75160277D01*
X179330002Y-75160277D01*
X179402659Y-75153920D01*
X179547977Y-75141207D01*
X179759330Y-75084575D01*
X179957639Y-74992102D01*
X180136877Y-74866598D01*
X180291598Y-74711877D01*
X180417102Y-74532639D01*
X180474023Y-74410570D01*
X180520273Y-74355453D01*
X180587885Y-74330844D01*
X180658744Y-74343338D01*
X180713862Y-74389588D01*
X180725975Y-74410568D01*
X180782898Y-74532639D01*
X180908402Y-74711877D01*
X181063123Y-74866598D01*
X181242361Y-74992102D01*
X181440670Y-75084575D01*
X181652023Y-75141207D01*
X181782809Y-75152649D01*
X181869998Y-75160277D01*
X181870000Y-75160277D01*
X181870002Y-75160277D01*
X181942659Y-75153920D01*
X182087977Y-75141207D01*
X182299330Y-75084575D01*
X182497639Y-74992102D01*
X182676877Y-74866598D01*
X182831598Y-74711877D01*
X182957102Y-74532639D01*
X183049575Y-74334330D01*
X183106207Y-74122977D01*
X183125277Y-73905000D01*
X183106207Y-73687023D01*
X183049575Y-73475670D01*
X182957102Y-73277362D01*
X182831598Y-73098123D01*
X182676877Y-72943402D01*
X182676873Y-72943399D01*
X182497641Y-72817899D01*
X182299332Y-72725426D01*
X182299330Y-72725425D01*
X182087977Y-72668793D01*
X182087976Y-72668792D01*
X182087973Y-72668792D01*
X181870002Y-72649723D01*
X181869998Y-72649723D01*
X181652026Y-72668792D01*
X181584264Y-72686949D01*
X181440670Y-72725425D01*
X181440669Y-72725425D01*
X181440667Y-72725426D01*
X181242359Y-72817899D01*
X181063127Y-72943399D01*
X181063123Y-72943402D01*
X180908402Y-73098123D01*
X180908399Y-73098126D01*
X180908399Y-73098127D01*
X180782898Y-73277360D01*
X180782896Y-73277363D01*
X180725976Y-73399429D01*
X180679726Y-73454547D01*
X180612114Y-73479155D01*
X180541255Y-73466660D01*
X180486137Y-73420410D01*
X180474024Y-73399429D01*
X180417103Y-73277363D01*
X180417101Y-73277360D01*
X180371699Y-73212520D01*
X180291598Y-73098123D01*
X180136877Y-72943402D01*
X180136873Y-72943399D01*
X179957641Y-72817899D01*
X179759332Y-72725426D01*
X179759330Y-72725425D01*
X179547977Y-72668793D01*
X179547976Y-72668792D01*
X179547973Y-72668792D01*
X179330002Y-72649723D01*
X179329998Y-72649723D01*
X179112026Y-72668792D01*
X179044264Y-72686949D01*
X178900670Y-72725425D01*
X178900669Y-72725425D01*
X178900667Y-72725426D01*
X178702359Y-72817899D01*
X178523127Y-72943399D01*
X178523123Y-72943402D01*
X178368402Y-73098123D01*
X178368399Y-73098126D01*
X178368399Y-73098127D01*
X178242898Y-73277360D01*
X178242896Y-73277363D01*
X178185976Y-73399429D01*
X178139726Y-73454547D01*
X178072114Y-73479155D01*
X178001255Y-73466660D01*
X177946137Y-73420410D01*
X177934024Y-73399429D01*
X177877103Y-73277363D01*
X177877101Y-73277360D01*
X177831699Y-73212520D01*
X177751598Y-73098123D01*
X177596877Y-72943402D01*
X177596873Y-72943399D01*
X177417641Y-72817899D01*
X177219332Y-72725426D01*
X177219330Y-72725425D01*
X177007977Y-72668793D01*
X177007976Y-72668792D01*
X177007973Y-72668792D01*
X176790002Y-72649723D01*
X176789998Y-72649723D01*
X176572026Y-72668792D01*
X176504264Y-72686949D01*
X176360670Y-72725425D01*
X176360669Y-72725425D01*
X176360667Y-72725426D01*
X176162359Y-72817899D01*
X175983127Y-72943399D01*
X175983123Y-72943402D01*
X175828402Y-73098123D01*
X175828399Y-73098126D01*
X175828399Y-73098127D01*
X175702898Y-73277360D01*
X175702896Y-73277363D01*
X175645976Y-73399429D01*
X175599726Y-73454547D01*
X175532114Y-73479155D01*
X175461255Y-73466660D01*
X175406137Y-73420410D01*
X175394024Y-73399429D01*
X175337103Y-73277363D01*
X175337101Y-73277360D01*
X175291699Y-73212520D01*
X175211598Y-73098123D01*
X175056877Y-72943402D01*
X175056873Y-72943399D01*
X174877641Y-72817899D01*
X174679332Y-72725426D01*
X174679330Y-72725425D01*
X174467977Y-72668793D01*
X174467976Y-72668792D01*
X174467973Y-72668792D01*
X174250002Y-72649723D01*
X174249998Y-72649723D01*
X174032026Y-72668792D01*
X173964264Y-72686949D01*
X173820670Y-72725425D01*
X173820669Y-72725425D01*
X173820667Y-72725426D01*
X173622359Y-72817899D01*
X173443127Y-72943399D01*
X173443123Y-72943402D01*
X173288402Y-73098123D01*
X173288399Y-73098126D01*
X173288399Y-73098127D01*
X173162898Y-73277360D01*
X173162896Y-73277363D01*
X173105976Y-73399429D01*
X173059726Y-73454547D01*
X172992114Y-73479155D01*
X172921255Y-73466660D01*
X172866137Y-73420410D01*
X172854024Y-73399429D01*
X172797103Y-73277363D01*
X172797101Y-73277360D01*
X172751699Y-73212520D01*
X172671598Y-73098123D01*
X172516877Y-72943402D01*
X172516873Y-72943399D01*
X172337641Y-72817899D01*
X172139332Y-72725426D01*
X172139330Y-72725425D01*
X171927977Y-72668793D01*
X171927976Y-72668792D01*
X171927973Y-72668792D01*
X171710002Y-72649723D01*
X171709998Y-72649723D01*
X171492026Y-72668792D01*
X171424264Y-72686949D01*
X171280670Y-72725425D01*
X171280669Y-72725425D01*
X171280667Y-72725426D01*
X171082359Y-72817899D01*
X170903127Y-72943399D01*
X170903123Y-72943402D01*
X170775284Y-73071241D01*
X170748402Y-73098123D01*
X170673019Y-73205781D01*
X170617900Y-73252030D01*
X170547042Y-73264524D01*
X170479429Y-73239915D01*
X170442791Y-73202079D01*
X170357310Y-73071241D01*
X169612137Y-73816414D01*
X169589333Y-73731306D01*
X169530090Y-73628694D01*
X169446306Y-73544910D01*
X169343694Y-73485667D01*
X169258583Y-73462861D01*
X170004426Y-72717019D01*
X170004426Y-72717018D01*
X169965794Y-72686949D01*
X169965791Y-72686947D01*
X169754453Y-72572578D01*
X169527169Y-72494551D01*
X169290151Y-72455000D01*
X169049848Y-72455000D01*
X168812830Y-72494551D01*
X168585548Y-72572577D01*
X168374207Y-72686949D01*
X168335572Y-72717019D01*
X169081414Y-73462861D01*
X168996306Y-73485667D01*
X168893694Y-73544910D01*
X168809910Y-73628694D01*
X168750667Y-73731306D01*
X168727861Y-73816414D01*
X167982688Y-73071241D01*
X167890396Y-73212506D01*
X167890388Y-73212520D01*
X167793866Y-73432566D01*
X167734875Y-73665520D01*
X167715031Y-73904997D01*
X167715031Y-73905002D01*
X150299466Y-73905002D01*
X148880296Y-72485832D01*
X148880294Y-72485830D01*
X148852765Y-72469936D01*
X148777566Y-72426519D01*
X148753353Y-72420032D01*
X148662989Y-72395819D01*
X145939499Y-72395819D01*
X145869999Y-72377197D01*
X145819121Y-72326319D01*
X145800499Y-72256819D01*
X145800499Y-71951462D01*
X145800499Y-71951455D01*
X145797585Y-71926328D01*
X145752206Y-71823554D01*
X145672765Y-71744113D01*
X145672764Y-71744112D01*
X145615369Y-71718770D01*
X145569991Y-71698734D01*
X145569989Y-71698733D01*
X145544868Y-71695819D01*
X144978116Y-71695819D01*
X144908616Y-71677197D01*
X144857738Y-71626319D01*
X144839116Y-71556819D01*
X144857738Y-71487319D01*
X144908616Y-71436441D01*
X144952572Y-71420187D01*
X144966198Y-71417640D01*
X145165019Y-71340617D01*
X145346302Y-71228371D01*
X145503872Y-71084726D01*
X145632366Y-70914574D01*
X145727405Y-70723708D01*
X145785756Y-70518629D01*
X145805429Y-70306319D01*
X145785756Y-70094009D01*
X145727405Y-69888930D01*
X145632366Y-69698064D01*
X145503872Y-69527912D01*
X145386916Y-69421292D01*
X190299500Y-69421292D01*
X190331161Y-69661785D01*
X190393948Y-69896106D01*
X190486773Y-70120207D01*
X190486779Y-70120219D01*
X190608061Y-70330285D01*
X190608063Y-70330288D01*
X190608064Y-70330289D01*
X190755735Y-70522738D01*
X190927262Y-70694265D01*
X190927266Y-70694268D01*
X191119711Y-70841936D01*
X191119714Y-70841938D01*
X191329780Y-70963220D01*
X191329792Y-70963226D01*
X191503122Y-71035021D01*
X191553900Y-71056054D01*
X191788211Y-71118838D01*
X192028712Y-71150500D01*
X192028717Y-71150500D01*
X192271283Y-71150500D01*
X192271288Y-71150500D01*
X192511789Y-71118838D01*
X192746100Y-71056054D01*
X192970212Y-70963224D01*
X193180289Y-70841936D01*
X193372738Y-70694265D01*
X193544265Y-70522738D01*
X193691936Y-70330289D01*
X193813224Y-70120212D01*
X193906054Y-69896100D01*
X193968838Y-69661789D01*
X194000500Y-69421288D01*
X194000500Y-69178712D01*
X193968838Y-68938211D01*
X193906054Y-68703900D01*
X193813224Y-68479788D01*
X193813220Y-68479780D01*
X193691938Y-68269714D01*
X193691936Y-68269711D01*
X193544268Y-68077266D01*
X193544265Y-68077262D01*
X193372738Y-67905735D01*
X193298046Y-67848422D01*
X193180288Y-67758063D01*
X193180285Y-67758061D01*
X192970219Y-67636779D01*
X192970207Y-67636773D01*
X192746106Y-67543948D01*
X192746102Y-67543947D01*
X192746100Y-67543946D01*
X192511789Y-67481162D01*
X192511788Y-67481161D01*
X192511785Y-67481161D01*
X192271292Y-67449500D01*
X192271288Y-67449500D01*
X192028712Y-67449500D01*
X192028707Y-67449500D01*
X191788214Y-67481161D01*
X191645902Y-67519294D01*
X191574509Y-67538424D01*
X191553893Y-67543948D01*
X191329792Y-67636773D01*
X191329780Y-67636779D01*
X191119714Y-67758061D01*
X191119711Y-67758063D01*
X190927266Y-67905731D01*
X190755731Y-68077266D01*
X190608063Y-68269711D01*
X190608061Y-68269714D01*
X190486779Y-68479780D01*
X190486773Y-68479792D01*
X190393948Y-68703893D01*
X190393946Y-68703899D01*
X190393946Y-68703900D01*
X190369588Y-68794803D01*
X190331161Y-68938214D01*
X190299500Y-69178707D01*
X190299500Y-69421292D01*
X145386916Y-69421292D01*
X145346302Y-69384267D01*
X145165019Y-69272021D01*
X144966198Y-69194998D01*
X144879103Y-69178717D01*
X144756612Y-69155819D01*
X144756610Y-69155819D01*
X144543390Y-69155819D01*
X144543387Y-69155819D01*
X144333807Y-69194997D01*
X144333798Y-69194999D01*
X144134980Y-69272021D01*
X143953700Y-69384265D01*
X143953699Y-69384266D01*
X143796130Y-69527909D01*
X143667634Y-69698063D01*
X143572596Y-69888927D01*
X143514243Y-70094012D01*
X143494571Y-70306318D01*
X143494571Y-70306319D01*
X143514243Y-70518625D01*
X143514243Y-70518628D01*
X143514244Y-70518629D01*
X143572595Y-70723708D01*
X143667634Y-70914574D01*
X143796128Y-71084726D01*
X143953698Y-71228371D01*
X144134981Y-71340617D01*
X144333802Y-71417640D01*
X144347425Y-71420186D01*
X144412318Y-71451259D01*
X144452982Y-71510618D01*
X144458519Y-71582356D01*
X144427445Y-71647252D01*
X144368086Y-71687916D01*
X144321885Y-71695819D01*
X143755143Y-71695819D01*
X143755135Y-71695820D01*
X143730009Y-71698734D01*
X143730008Y-71698734D01*
X143627235Y-71744112D01*
X143627235Y-71744113D01*
X143547794Y-71823554D01*
X143547793Y-71823554D01*
X143502415Y-71926328D01*
X143502414Y-71926329D01*
X143499500Y-71951450D01*
X143499500Y-72206819D01*
X143480878Y-72276319D01*
X143430000Y-72327197D01*
X143360500Y-72345819D01*
X141487788Y-72345819D01*
X141360494Y-72379926D01*
X141360490Y-72379928D01*
X141246370Y-72445816D01*
X141246364Y-72445821D01*
X135212078Y-78480107D01*
X135149766Y-78516083D01*
X135113790Y-78520819D01*
X132886541Y-78520819D01*
X132833349Y-78510239D01*
X132772387Y-78484988D01*
X132628680Y-78466069D01*
X132484974Y-78484988D01*
X132484962Y-78484991D01*
X132351057Y-78540455D01*
X132236060Y-78628696D01*
X132236057Y-78628699D01*
X132147816Y-78743696D01*
X132092352Y-78877601D01*
X132092349Y-78877613D01*
X132073430Y-79021319D01*
X115153388Y-79021319D01*
X115153387Y-73720136D01*
X115150473Y-73695009D01*
X115105094Y-73592235D01*
X115025653Y-73512794D01*
X115025652Y-73512793D01*
X114964216Y-73485667D01*
X114922879Y-73467415D01*
X114922877Y-73467414D01*
X114897754Y-73464500D01*
X107348031Y-73464500D01*
X107348023Y-73464501D01*
X107322897Y-73467415D01*
X107322896Y-73467415D01*
X107220123Y-73512793D01*
X107220123Y-73512794D01*
X107140682Y-73592235D01*
X107140681Y-73592235D01*
X107095303Y-73695009D01*
X107095302Y-73695010D01*
X107092388Y-73720131D01*
X107092388Y-80279856D01*
X106200500Y-80279856D01*
X106200500Y-68704193D01*
X106200754Y-68695801D01*
X106218216Y-68407113D01*
X106220239Y-68390450D01*
X106271616Y-68110092D01*
X106275632Y-68093803D01*
X106280785Y-68077266D01*
X106360430Y-67821676D01*
X106366368Y-67806017D01*
X106483353Y-67546087D01*
X106491150Y-67531233D01*
X106638605Y-67287312D01*
X106648128Y-67273515D01*
X106823931Y-67049119D01*
X106835023Y-67036599D01*
X107036587Y-66835035D01*
X107049132Y-66823920D01*
X107273519Y-66648125D01*
X107287314Y-66638604D01*
X107531231Y-66491150D01*
X107546086Y-66483354D01*
X107806012Y-66366371D01*
X107821677Y-66360430D01*
X108093816Y-66275628D01*
X108110089Y-66271617D01*
X108390453Y-66220238D01*
X108407110Y-66218216D01*
X108476035Y-66214047D01*
X108695829Y-66200753D01*
X108704221Y-66200499D01*
X108765893Y-66200499D01*
X192634107Y-66200499D01*
X192695805Y-66200499D01*
X192704197Y-66200753D01*
G37*
%TD.AperFunction*%
%TD*%
M02*
