%TF.GenerationSoftware,KiCad,Pcbnew,9.0.1*%
%TF.CreationDate,2025-05-24T22:02:27+02:00*%
%TF.ProjectId,LoRa_Node,4c6f5261-5f4e-46f6-9465-2e6b69636164,3.1*%
%TF.SameCoordinates,Original*%
%TF.FileFunction,Soldermask,Top*%
%TF.FilePolarity,Negative*%
%FSLAX46Y46*%
G04 Gerber Fmt 4.6, Leading zero omitted, Abs format (unit mm)*
G04 Created by KiCad (PCBNEW 9.0.1) date 2025-05-24 22:02:27*
%MOMM*%
%LPD*%
G01*
G04 APERTURE LIST*
G04 Aperture macros list*
%AMRoundRect*
0 Rectangle with rounded corners*
0 $1 Rounding radius*
0 $2 $3 $4 $5 $6 $7 $8 $9 X,Y pos of 4 corners*
0 Add a 4 corners polygon primitive as box body*
4,1,4,$2,$3,$4,$5,$6,$7,$8,$9,$2,$3,0*
0 Add four circle primitives for the rounded corners*
1,1,$1+$1,$2,$3*
1,1,$1+$1,$4,$5*
1,1,$1+$1,$6,$7*
1,1,$1+$1,$8,$9*
0 Add four rect primitives between the rounded corners*
20,1,$1+$1,$2,$3,$4,$5,0*
20,1,$1+$1,$4,$5,$6,$7,0*
20,1,$1+$1,$6,$7,$8,$9,0*
20,1,$1+$1,$8,$9,$2,$3,0*%
%AMRotRect*
0 Rectangle, with rotation*
0 The origin of the aperture is its center*
0 $1 length*
0 $2 width*
0 $3 Rotation angle, in degrees counterclockwise*
0 Add horizontal line*
21,1,$1,$2,0,0,$3*%
%AMFreePoly0*
4,1,23,0.550000,-0.750000,0.000000,-0.750000,0.000000,-0.745722,-0.065263,-0.745722,-0.191342,-0.711940,-0.304381,-0.646677,-0.396677,-0.554381,-0.461940,-0.441342,-0.495722,-0.315263,-0.495722,-0.250000,-0.500000,-0.250000,-0.500000,0.250000,-0.495722,0.250000,-0.495722,0.315263,-0.461940,0.441342,-0.396677,0.554381,-0.304381,0.646677,-0.191342,0.711940,-0.065263,0.745722,0.000000,0.745722,
0.000000,0.750000,0.550000,0.750000,0.550000,-0.750000,0.550000,-0.750000,$1*%
%AMFreePoly1*
4,1,23,0.000000,0.745722,0.065263,0.745722,0.191342,0.711940,0.304381,0.646677,0.396677,0.554381,0.461940,0.441342,0.495722,0.315263,0.495722,0.250000,0.500000,0.250000,0.500000,-0.250000,0.495722,-0.250000,0.495722,-0.315263,0.461940,-0.441342,0.396677,-0.554381,0.304381,-0.646677,0.191342,-0.711940,0.065263,-0.745722,0.000000,-0.745722,0.000000,-0.750000,-0.550000,-0.750000,
-0.550000,0.750000,0.000000,0.750000,0.000000,0.745722,0.000000,0.745722,$1*%
G04 Aperture macros list end*
%ADD10RoundRect,0.200000X0.200000X0.275000X-0.200000X0.275000X-0.200000X-0.275000X0.200000X-0.275000X0*%
%ADD11RoundRect,0.140000X-0.021213X0.219203X-0.219203X0.021213X0.021213X-0.219203X0.219203X-0.021213X0*%
%ADD12RoundRect,0.225000X-0.475000X0.225000X-0.475000X-0.225000X0.475000X-0.225000X0.475000X0.225000X0*%
%ADD13O,1.400000X0.900000*%
%ADD14RoundRect,0.200000X-0.335876X-0.053033X-0.053033X-0.335876X0.335876X0.053033X0.053033X0.335876X0*%
%ADD15R,1.000000X2.580000*%
%ADD16RoundRect,0.140000X0.219203X0.021213X0.021213X0.219203X-0.219203X-0.021213X-0.021213X-0.219203X0*%
%ADD17C,3.200000*%
%ADD18RoundRect,0.225000X-0.225000X-0.250000X0.225000X-0.250000X0.225000X0.250000X-0.225000X0.250000X0*%
%ADD19RoundRect,0.250000X0.650000X-0.325000X0.650000X0.325000X-0.650000X0.325000X-0.650000X-0.325000X0*%
%ADD20RoundRect,0.200000X-0.275000X0.200000X-0.275000X-0.200000X0.275000X-0.200000X0.275000X0.200000X0*%
%ADD21RoundRect,0.317500X0.317500X-1.157500X0.317500X1.157500X-0.317500X1.157500X-0.317500X-1.157500X0*%
%ADD22C,1.900000*%
%ADD23RoundRect,0.200000X-0.200000X-0.275000X0.200000X-0.275000X0.200000X0.275000X-0.200000X0.275000X0*%
%ADD24RoundRect,0.225000X0.225000X0.250000X-0.225000X0.250000X-0.225000X-0.250000X0.225000X-0.250000X0*%
%ADD25RoundRect,0.225000X-0.250000X0.225000X-0.250000X-0.225000X0.250000X-0.225000X0.250000X0.225000X0*%
%ADD26R,1.700000X3.700000*%
%ADD27RoundRect,0.102000X0.500000X0.275000X-0.500000X0.275000X-0.500000X-0.275000X0.500000X-0.275000X0*%
%ADD28RotRect,1.000000X1.800000X135.000000*%
%ADD29RoundRect,0.225000X0.250000X-0.225000X0.250000X0.225000X-0.250000X0.225000X-0.250000X-0.225000X0*%
%ADD30RoundRect,0.150000X0.587500X0.150000X-0.587500X0.150000X-0.587500X-0.150000X0.587500X-0.150000X0*%
%ADD31R,0.350000X0.500000*%
%ADD32R,1.000000X1.000000*%
%ADD33R,1.050000X2.200000*%
%ADD34RotRect,0.400000X1.900000X315.000000*%
%ADD35RoundRect,0.250000X-0.650000X0.325000X-0.650000X-0.325000X0.650000X-0.325000X0.650000X0.325000X0*%
%ADD36RoundRect,0.075000X-0.415425X-0.521491X0.521491X0.415425X0.415425X0.521491X-0.521491X-0.415425X0*%
%ADD37RoundRect,0.075000X0.415425X-0.521491X0.521491X-0.415425X-0.415425X0.521491X-0.521491X0.415425X0*%
%ADD38RoundRect,0.140000X0.021213X-0.219203X0.219203X-0.021213X-0.021213X0.219203X-0.219203X0.021213X0*%
%ADD39R,1.150000X0.600000*%
%ADD40R,1.700000X1.700000*%
%ADD41O,1.700000X1.700000*%
%ADD42RoundRect,0.200000X0.053033X-0.335876X0.335876X-0.053033X-0.053033X0.335876X-0.335876X0.053033X0*%
%ADD43RoundRect,0.140000X-0.219203X-0.021213X-0.021213X-0.219203X0.219203X0.021213X0.021213X0.219203X0*%
%ADD44RoundRect,0.200000X0.275000X-0.200000X0.275000X0.200000X-0.275000X0.200000X-0.275000X-0.200000X0*%
%ADD45R,1.000000X0.900000*%
%ADD46RoundRect,0.250000X1.000000X0.650000X-1.000000X0.650000X-1.000000X-0.650000X1.000000X-0.650000X0*%
%ADD47FreePoly0,270.000000*%
%ADD48R,1.500000X1.000000*%
%ADD49FreePoly1,270.000000*%
%ADD50RoundRect,0.225000X-0.335876X-0.017678X-0.017678X-0.335876X0.335876X0.017678X0.017678X0.335876X0*%
%ADD51RoundRect,0.200000X0.335876X0.053033X0.053033X0.335876X-0.335876X-0.053033X-0.053033X-0.335876X0*%
G04 APERTURE END LIST*
D10*
%TO.C,R10*%
X172503680Y-71171319D03*
X170853680Y-71171319D03*
%TD*%
D11*
%TO.C,C10*%
X161843091Y-86056908D03*
X161164269Y-86735730D03*
%TD*%
D12*
%TO.C,J1*%
X113900000Y-92225000D03*
D13*
X113900000Y-93475000D03*
X113900000Y-94725000D03*
X113900000Y-95975000D03*
%TD*%
D14*
%TO.C,R16*%
X156095317Y-91437956D03*
X157262043Y-92604682D03*
%TD*%
D15*
%TO.C,J4*%
X148278680Y-73656319D03*
X148278680Y-69486319D03*
X150278680Y-73656319D03*
X150278680Y-69486319D03*
X152278680Y-73656319D03*
X152278680Y-69486319D03*
X154278680Y-73656319D03*
X154278680Y-69486319D03*
X156278680Y-73656319D03*
X156278680Y-69486319D03*
%TD*%
D16*
%TO.C,C14*%
X147788802Y-89881441D03*
X147109980Y-89202619D03*
%TD*%
D17*
%TO.C,H1*%
X141228680Y-96500000D03*
%TD*%
D18*
%TO.C,C28*%
X118503680Y-88100000D03*
X120053680Y-88100000D03*
%TD*%
D19*
%TO.C,C21*%
X119778680Y-73846319D03*
X119778680Y-70896319D03*
%TD*%
D20*
%TO.C,R18*%
X166478680Y-76396319D03*
X166478680Y-78046319D03*
%TD*%
D21*
%TO.C,U2*%
X170628680Y-92296319D03*
X172628680Y-92296319D03*
X174628680Y-92296319D03*
X176628680Y-92296319D03*
X178628680Y-92296319D03*
X180628680Y-92296319D03*
X182628680Y-92296319D03*
X184628680Y-92296319D03*
X184628680Y-77246319D03*
X182628680Y-77246319D03*
X180628680Y-77246319D03*
X178628680Y-77246319D03*
X176628680Y-77246319D03*
X174628680Y-77246319D03*
X172628680Y-77246319D03*
X170628680Y-77246319D03*
%TD*%
D22*
%TO.C,U4*%
X181870000Y-73905000D03*
X179330000Y-73905000D03*
X176790000Y-73905000D03*
X174250000Y-73905000D03*
X171710000Y-73905000D03*
X169170000Y-73905000D03*
X166630000Y-95775000D03*
X169170000Y-95775000D03*
X171710000Y-95775000D03*
X174250000Y-95775000D03*
X176790000Y-95775000D03*
X179330000Y-95775000D03*
%TD*%
D23*
%TO.C,R14*%
X128753680Y-70321319D03*
X130403680Y-70321319D03*
%TD*%
D24*
%TO.C,C25*%
X133653680Y-68621319D03*
X132103680Y-68621319D03*
%TD*%
D25*
%TO.C,C15*%
X121832500Y-79095000D03*
X121832500Y-80645000D03*
%TD*%
D18*
%TO.C,C1*%
X129425000Y-97500000D03*
X130975000Y-97500000D03*
%TD*%
D10*
%TO.C,R3*%
X162303680Y-88771319D03*
X160653680Y-88771319D03*
%TD*%
D23*
%TO.C,R7*%
X124307500Y-82450000D03*
X125957500Y-82450000D03*
%TD*%
D12*
%TO.C,J6*%
X119250000Y-90975000D03*
D13*
X119250000Y-92225000D03*
X119250000Y-93475000D03*
X119250000Y-94725000D03*
X119250000Y-95975000D03*
X119250000Y-97225000D03*
%TD*%
D25*
%TO.C,C17*%
X131412500Y-79055000D03*
X131412500Y-80605000D03*
%TD*%
D26*
%TO.C,L1*%
X123728680Y-72421319D03*
X126428680Y-72421319D03*
%TD*%
D27*
%TO.C,U5*%
X126428680Y-69121319D03*
X126428680Y-68171319D03*
X126428680Y-67221319D03*
X123728680Y-67221319D03*
X123728680Y-68171319D03*
X123728680Y-69121319D03*
%TD*%
D16*
%TO.C,C7*%
X148568091Y-85810730D03*
X147889269Y-85131908D03*
%TD*%
D28*
%TO.C,Y2*%
X144644797Y-89237436D03*
X146412563Y-91005202D03*
%TD*%
D29*
%TO.C,C22*%
X121828680Y-73946319D03*
X121828680Y-72396319D03*
%TD*%
D16*
%TO.C,C5*%
X150888802Y-92981441D03*
X150209980Y-92302619D03*
%TD*%
D30*
%TO.C,Q1*%
X121516180Y-77471319D03*
X121516180Y-75571319D03*
X119641180Y-76521319D03*
%TD*%
D24*
%TO.C,C3*%
X140003680Y-74521319D03*
X138453680Y-74521319D03*
%TD*%
D31*
%TO.C,U1*%
X129225000Y-94200000D03*
X129875000Y-94200000D03*
X130525000Y-94200000D03*
X131175000Y-94200000D03*
X131175000Y-95800000D03*
X130525000Y-95800000D03*
X129875000Y-95800000D03*
X129225000Y-95800000D03*
%TD*%
D23*
%TO.C,R9*%
X124353680Y-77321319D03*
X126003680Y-77321319D03*
%TD*%
D32*
%TO.C,J3*%
X184678680Y-71021319D03*
D33*
X183203680Y-69521319D03*
D32*
X184678680Y-68021319D03*
D33*
X186153680Y-69521319D03*
%TD*%
D10*
%TO.C,R19*%
X184253680Y-95071319D03*
X182603680Y-95071319D03*
%TD*%
D25*
%TO.C,C19*%
X168428680Y-76446319D03*
X168428680Y-77996319D03*
%TD*%
D10*
%TO.C,R8*%
X126003680Y-75721319D03*
X124353680Y-75721319D03*
%TD*%
D12*
%TO.C,J7*%
X108400000Y-92850000D03*
D13*
X108400000Y-94100000D03*
X108400000Y-95350000D03*
%TD*%
D34*
%TO.C,Y1*%
X147750863Y-92393502D03*
X148599391Y-93242030D03*
X149447919Y-94090558D03*
%TD*%
D35*
%TO.C,C16*%
X119778680Y-79196319D03*
X119778680Y-82146319D03*
%TD*%
D24*
%TO.C,C2*%
X129903680Y-92821319D03*
X128353680Y-92821319D03*
%TD*%
D36*
%TO.C,U3*%
X150312124Y-85148788D03*
X150665678Y-85502342D03*
X151019231Y-85855895D03*
X151372785Y-86209449D03*
X151726338Y-86563002D03*
X152079891Y-86916555D03*
X152433445Y-87270109D03*
X152786998Y-87623662D03*
X153140551Y-87977215D03*
X153494105Y-88330769D03*
X153847658Y-88684322D03*
X154201212Y-89037876D03*
D37*
X156198788Y-89037876D03*
X156552342Y-88684322D03*
X156905895Y-88330769D03*
X157259449Y-87977215D03*
X157613002Y-87623662D03*
X157966555Y-87270109D03*
X158320109Y-86916555D03*
X158673662Y-86563002D03*
X159027215Y-86209449D03*
X159380769Y-85855895D03*
X159734322Y-85502342D03*
X160087876Y-85148788D03*
D36*
X160087876Y-83151212D03*
X159734322Y-82797658D03*
X159380769Y-82444105D03*
X159027215Y-82090551D03*
X158673662Y-81736998D03*
X158320109Y-81383445D03*
X157966555Y-81029891D03*
X157613002Y-80676338D03*
X157259449Y-80322785D03*
X156905895Y-79969231D03*
X156552342Y-79615678D03*
X156198788Y-79262124D03*
D37*
X154201212Y-79262124D03*
X153847658Y-79615678D03*
X153494105Y-79969231D03*
X153140551Y-80322785D03*
X152786998Y-80676338D03*
X152433445Y-81029891D03*
X152079891Y-81383445D03*
X151726338Y-81736998D03*
X151372785Y-82090551D03*
X151019231Y-82444105D03*
X150665678Y-82797658D03*
X150312124Y-83151212D03*
%TD*%
D20*
%TO.C,R17*%
X164828680Y-76396319D03*
X164828680Y-78046319D03*
%TD*%
D38*
%TO.C,C8*%
X148589269Y-82260730D03*
X149268091Y-81581908D03*
%TD*%
D14*
%TO.C,R21*%
X147545317Y-76987956D03*
X148712043Y-78154682D03*
%TD*%
D25*
%TO.C,C18*%
X129782500Y-79055000D03*
X129782500Y-80605000D03*
%TD*%
D39*
%TO.C,IC1*%
X123882500Y-78910000D03*
X123882500Y-79860000D03*
X123882500Y-80810000D03*
X126382500Y-80810000D03*
X126382500Y-78910000D03*
%TD*%
D40*
%TO.C,J2*%
X144650000Y-72846319D03*
D41*
X144650000Y-70306319D03*
%TD*%
D20*
%TO.C,R4*%
X158678680Y-72896319D03*
X158678680Y-74546319D03*
%TD*%
D42*
%TO.C,R22*%
X146373997Y-80376001D03*
X147540723Y-79209275D03*
%TD*%
D43*
%TO.C,C13*%
X145759980Y-87852619D03*
X146438802Y-88531441D03*
%TD*%
D10*
%TO.C,R12*%
X163153680Y-90271319D03*
X161503680Y-90271319D03*
%TD*%
D44*
%TO.C,R6*%
X128152500Y-80665000D03*
X128152500Y-79015000D03*
%TD*%
D17*
%TO.C,H2*%
X192150000Y-69300000D03*
%TD*%
D24*
%TO.C,C29*%
X133653680Y-70321319D03*
X132103680Y-70321319D03*
%TD*%
D45*
%TO.C,SW1*%
X138428680Y-72921319D03*
X138428680Y-68821319D03*
X140028680Y-72921319D03*
X140028680Y-68821319D03*
%TD*%
D46*
%TO.C,D1*%
X133178680Y-72971319D03*
X129178680Y-72971319D03*
%TD*%
D47*
%TO.C,JP1*%
X133350000Y-93800000D03*
D48*
X133350000Y-95100000D03*
D49*
X133350000Y-96400000D03*
%TD*%
D50*
%TO.C,C26*%
X153880672Y-91473311D03*
X154976688Y-92569327D03*
%TD*%
D14*
%TO.C,R5*%
X151945317Y-76737956D03*
X153112043Y-77904682D03*
%TD*%
D18*
%TO.C,C23*%
X108025000Y-89950000D03*
X109575000Y-89950000D03*
%TD*%
%TO.C,C27*%
X113625000Y-89400000D03*
X115175000Y-89400000D03*
%TD*%
D44*
%TO.C,R13*%
X162228680Y-84496319D03*
X162228680Y-82846319D03*
%TD*%
D16*
%TO.C,C11*%
X151818091Y-90360730D03*
X151139269Y-89681908D03*
%TD*%
D42*
%TO.C,R1*%
X147445317Y-81454682D03*
X148612043Y-80287956D03*
%TD*%
D50*
%TO.C,C20*%
X153380672Y-93123311D03*
X154476688Y-94219327D03*
%TD*%
D23*
%TO.C,R20*%
X107953680Y-88421319D03*
X109603680Y-88421319D03*
%TD*%
D16*
%TO.C,C6*%
X147818091Y-86560730D03*
X147139269Y-85881908D03*
%TD*%
D51*
%TO.C,R2*%
X151862043Y-79154682D03*
X150695317Y-77987956D03*
%TD*%
D16*
%TO.C,C12*%
X152514411Y-89664411D03*
X151835589Y-88985589D03*
%TD*%
D23*
%TO.C,R11*%
X170853680Y-69371319D03*
X172503680Y-69371319D03*
%TD*%
D43*
%TO.C,C4*%
X148859980Y-90952619D03*
X149538802Y-91631441D03*
%TD*%
D10*
%TO.C,R15*%
X130403680Y-68621319D03*
X128753680Y-68621319D03*
%TD*%
D25*
%TO.C,C24*%
X121828680Y-67496319D03*
X121828680Y-69046319D03*
%TD*%
D43*
%TO.C,C9*%
X157039269Y-77581908D03*
X157718091Y-78260730D03*
%TD*%
M02*
